<?xml version="1.0" encoding="UTF-8" standalone="no"?>
<!DOCTYPE svg PUBLIC "-//W3C//DTD SVG 1.1//EN"
 "http://www.w3.org/Graphics/SVG/1.1/DTD/svg11.dtd">
<!-- Generated by graphviz version 5.0.0 (20220707.1540)
 -->
<!-- Title: classes Pages: 1 -->
<svg width="1173pt" height="94pt"
 viewBox="0.00 0.00 1173.00 94.00" xmlns="http://www.w3.org/2000/svg" xmlns:xlink="http://www.w3.org/1999/xlink">
<g id="graph0" class="graph" transform="scale(1 1) rotate(0) translate(4 90)">
<title>classes</title>
<polygon fill="white" stroke="transparent" points="-4,4 -4,-90 1169,-90 1169,4 -4,4"/>
<!-- 0 -->
<g id="node1" class="node">
<title>0</title>
<polygon fill="none" stroke="black" points="0,-8.5 0,-77.5 131,-77.5 131,-8.5 0,-8.5"/>
<text text-anchor="middle" x="65.5" y="-62.3" font-family="Times New Roman,serif" font-size="14.00">ArgsCapture</text>
<polyline fill="none" stroke="black" points="0,-54.5 131,-54.5 "/>
<text text-anchor="start" x="8" y="-39.3" font-family="Times New Roman,serif" font-size="14.00">instance : NoneType</text>
<polyline fill="none" stroke="black" points="0,-31.5 131,-31.5 "/>
<text text-anchor="middle" x="65.5" y="-16.3" font-family="Times New Roman,serif" font-size="14.00"> </text>
</g>
<!-- 1 -->
<g id="node2" class="node">
<title>1</title>
<polygon fill="none" stroke="black" points="149.5,-8 149.5,-78 841.5,-78 841.5,-8 149.5,-8"/>
<text text-anchor="middle" x="495.5" y="-62.8" font-family="Times New Roman,serif" font-size="14.00">FakeExecutor</text>
<polyline fill="none" stroke="black" points="149.5,-55 841.5,-55 "/>
<polyline fill="none" stroke="black" points="149.5,-31 841.5,-31 "/>
<text text-anchor="start" x="157.5" y="-15.8" font-family="Times New Roman,serif" font-size="14.00">Do(input_dict: Dict[str, List[types.Artifact]], output_dict: Dict[str, List[types.Artifact]], exec_properties: Dict[str, Any]): </text>
</g>
<!-- 2 -->
<g id="node3" class="node">
<title>2</title>
<polygon fill="none" stroke="black" points="859.5,-0.5 859.5,-85.5 1001.5,-85.5 1001.5,-0.5 859.5,-0.5"/>
<text text-anchor="middle" x="930.5" y="-70.3" font-family="Times New Roman,serif" font-size="14.00">RunComponentTest</text>
<polyline fill="none" stroke="black" points="859.5,-62.5 1001.5,-62.5 "/>
<polyline fill="none" stroke="black" points="859.5,-38.5 1001.5,-38.5 "/>
<text text-anchor="start" x="867.5" y="-23.3" font-family="Times New Roman,serif" font-size="14.00">testRunSchemaGen()</text>
<text text-anchor="start" x="867.5" y="-8.3" font-family="Times New Roman,serif" font-size="14.00">testRunStatisticsGen()</text>
</g>
<!-- 3 -->
<g id="node4" class="node">
<title>3</title>
<polygon fill="none" stroke="black" points="1020,-8 1020,-78 1165,-78 1165,-8 1020,-8"/>
<text text-anchor="middle" x="1092.5" y="-62.8" font-family="Times New Roman,serif" font-size="14.00">RunExecutorTest</text>
<polyline fill="none" stroke="black" points="1020,-55 1165,-55 "/>
<polyline fill="none" stroke="black" points="1020,-31 1165,-31 "/>
<text text-anchor="start" x="1028" y="-15.8" font-family="Times New Roman,serif" font-size="14.00">testMainEmptyInputs()</text>
</g>
</g>
</svg>
