<?xml version="1.0" encoding="UTF-8" standalone="no"?>
<!DOCTYPE svg PUBLIC "-//W3C//DTD SVG 1.1//EN"
 "http://www.w3.org/Graphics/SVG/1.1/DTD/svg11.dtd">
<!-- Generated by graphviz version 5.0.0 (20220707.1540)
 -->
<!-- Title: packages Pages: 1 -->
<svg width="747pt" height="116pt"
 viewBox="0.00 0.00 747.00 116.00" xmlns="http://www.w3.org/2000/svg" xmlns:xlink="http://www.w3.org/1999/xlink">
<g id="graph0" class="graph" transform="scale(1 1) rotate(0) translate(4 112)">
<title>packages</title>
<polygon fill="white" stroke="transparent" points="-4,4 -4,-112 743,-112 743,4 -4,4"/>
<!-- 0 -->
<g id="node1" class="node">
<title>0</title>
<polygon fill="none" stroke="black" points="233.5,-108 160.5,-108 160.5,-72 233.5,-72 233.5,-108"/>
<text text-anchor="middle" x="197" y="-86.3" font-family="Times New Roman,serif" font-size="14.00">tfx.scripts</text>
</g>
<!-- 1 -->
<g id="node2" class="node">
<title>1</title>
<polygon fill="none" stroke="black" points="570.5,-36 405.5,-36 405.5,0 570.5,0 570.5,-36"/>
<text text-anchor="middle" x="488" y="-14.3" font-family="Times New Roman,serif" font-size="14.00">tfx.scripts.run_component</text>
</g>
<!-- 2 -->
<g id="node3" class="node">
<title>2</title>
<polygon fill="none" stroke="black" points="192,-36 0,-36 0,0 192,0 192,-36"/>
<text text-anchor="middle" x="96" y="-14.3" font-family="Times New Roman,serif" font-size="14.00">tfx.scripts.run_component_test</text>
</g>
<!-- 2&#45;&gt;0 -->
<g id="edge1" class="edge">
<title>2&#45;&gt;0</title>
<path fill="none" stroke="black" d="M120.71,-36.12C133.67,-45.11 149.73,-56.24 163.77,-65.97"/>
<polygon fill="black" stroke="black" points="172.2,-71.81 161.42,-69.81 168.09,-68.96 163.98,-66.11 163.98,-66.11 163.98,-66.11 168.09,-68.96 166.54,-62.42 172.2,-71.81 172.2,-71.81"/>
</g>
<!-- 3 -->
<g id="node4" class="node">
<title>3</title>
<polygon fill="none" stroke="black" points="739,-36 589,-36 589,0 739,0 739,-36"/>
<text text-anchor="middle" x="664" y="-14.3" font-family="Times New Roman,serif" font-size="14.00">tfx.scripts.run_executor</text>
</g>
<!-- 4 -->
<g id="node5" class="node">
<title>4</title>
<polygon fill="none" stroke="black" points="387.5,-36 210.5,-36 210.5,0 387.5,0 387.5,-36"/>
<text text-anchor="middle" x="299" y="-14.3" font-family="Times New Roman,serif" font-size="14.00">tfx.scripts.run_executor_test</text>
</g>
<!-- 4&#45;&gt;0 -->
<g id="edge2" class="edge">
<title>4&#45;&gt;0</title>
<path fill="none" stroke="black" d="M274.05,-36.12C260.96,-45.11 244.74,-56.24 230.56,-65.97"/>
<polygon fill="black" stroke="black" points="222.05,-71.81 227.75,-62.44 226.17,-68.98 230.29,-66.15 230.29,-66.15 230.29,-66.15 226.17,-68.98 232.84,-69.86 222.05,-71.81 222.05,-71.81"/>
</g>
</g>
</svg>
