<?xml version="1.0" encoding="UTF-8" standalone="no"?>
<!DOCTYPE svg PUBLIC "-//W3C//DTD SVG 1.1//EN"
 "http://www.w3.org/Graphics/SVG/1.1/DTD/svg11.dtd">
<!-- Generated by graphviz version 5.0.0 (20220707.1540)
 -->
<!-- Title: packages Pages: 1 -->
<svg width="18900pt" height="188pt"
 viewBox="0.00 0.00 18900.00 188.00" xmlns="http://www.w3.org/2000/svg" xmlns:xlink="http://www.w3.org/1999/xlink">
<g id="graph0" class="graph" transform="scale(1 1) rotate(0) translate(4 184)">
<title>packages</title>
<polygon fill="white" stroke="transparent" points="-4,4 -4,-184 18896,-184 18896,4 -4,4"/>
<!-- 0 -->
<g id="node1" class="node">
<title>0</title>
<polygon fill="none" stroke="black" points="54,-36 0,-36 0,0 54,0 54,-36"/>
<text text-anchor="middle" x="27" y="-14.3" font-family="Times New Roman,serif" font-size="14.00">tfx.dsl</text>
</g>
<!-- 1 -->
<g id="node2" class="node">
<title>1</title>
<polygon fill="none" stroke="black" points="11177,-180 11073,-180 11073,-144 11177,-144 11177,-180"/>
<text text-anchor="middle" x="11125" y="-158.3" font-family="Times New Roman,serif" font-size="14.00">tfx.dsl.compiler</text>
</g>
<!-- 2 -->
<g id="node3" class="node">
<title>2</title>
<polygon fill="none" stroke="black" points="11454.5,-108 11297.5,-108 11297.5,-72 11454.5,-72 11454.5,-108"/>
<text text-anchor="middle" x="11376" y="-86.3" font-family="Times New Roman,serif" font-size="14.00">tfx.dsl.compiler.compiler</text>
</g>
<!-- 2&#45;&gt;1 -->
<g id="edge1" class="edge">
<title>2&#45;&gt;1</title>
<path fill="none" stroke="black" d="M11314.92,-108.03C11275.99,-118.89 11225.72,-132.91 11186.67,-143.8"/>
<polygon fill="black" stroke="black" points="11177,-146.5 11185.43,-139.48 11181.82,-145.15 11186.64,-143.81 11186.64,-143.81 11186.64,-143.81 11181.82,-145.15 11187.85,-148.14 11177,-146.5 11177,-146.5"/>
</g>
<!-- 40 -->
<g id="node41" class="node">
<title>40</title>
<polygon fill="none" stroke="black" points="14916,-180 14762,-180 14762,-144 14916,-144 14916,-180"/>
<text text-anchor="middle" x="14839" y="-158.3" font-family="Times New Roman,serif" font-size="14.00">tfx.dsl.components.base</text>
</g>
<!-- 2&#45;&gt;40 -->
<g id="edge2" class="edge">
<title>2&#45;&gt;40</title>
<path fill="none" stroke="black" d="M11454.58,-106.89C11457.76,-107.3 11460.9,-107.68 11464,-108 11548.19,-116.72 14230.57,-152.89 14751.76,-159.84"/>
<polygon fill="black" stroke="black" points="14761.84,-159.97 14751.78,-164.34 14756.84,-159.91 14751.84,-159.84 14751.84,-159.84 14751.84,-159.84 14756.84,-159.91 14751.9,-155.34 14761.84,-159.97 14761.84,-159.97"/>
</g>
<!-- 53 -->
<g id="node54" class="node">
<title>53</title>
<polygon fill="none" stroke="black" points="8614,-180 8436,-180 8436,-144 8614,-144 8614,-180"/>
<text text-anchor="middle" x="8525" y="-158.3" font-family="Times New Roman,serif" font-size="14.00">tfx.dsl.components.common</text>
</g>
<!-- 2&#45;&gt;53 -->
<g id="edge3" class="edge">
<title>2&#45;&gt;53</title>
<path fill="none" stroke="black" d="M11297.42,-106.87C11294.24,-107.29 11291.09,-107.67 11288,-108 11254.21,-111.56 9114.78,-150.36 8624.4,-159.21"/>
<polygon fill="black" stroke="black" points="8614.16,-159.39 8624.08,-154.71 8619.16,-159.3 8624.16,-159.21 8624.16,-159.21 8624.16,-159.21 8619.16,-159.3 8624.24,-163.71 8614.16,-159.39 8614.16,-159.39"/>
</g>
<!-- 61 -->
<g id="node62" class="node">
<title>61</title>
<polygon fill="none" stroke="black" points="13089.5,-180 12892.5,-180 12892.5,-144 13089.5,-144 13089.5,-180"/>
<text text-anchor="middle" x="12991" y="-158.3" font-family="Times New Roman,serif" font-size="14.00">tfx.dsl.experimental.conditionals</text>
</g>
<!-- 2&#45;&gt;61 -->
<g id="edge4" class="edge">
<title>2&#45;&gt;61</title>
<path fill="none" stroke="black" d="M11454.59,-106.81C11457.76,-107.25 11460.91,-107.65 11464,-108 11739.12,-139.16 12580.93,-154.74 12882.28,-159.43"/>
<polygon fill="black" stroke="black" points="12892.34,-159.59 12882.27,-163.93 12887.34,-159.51 12882.34,-159.43 12882.34,-159.43 12882.34,-159.43 12887.34,-159.51 12882.41,-154.94 12892.34,-159.59 12892.34,-159.59"/>
</g>
<!-- 67 -->
<g id="node68" class="node">
<title>67</title>
<polygon fill="none" stroke="black" points="3592,-180 3446,-180 3446,-144 3592,-144 3592,-180"/>
<text text-anchor="middle" x="3519" y="-158.3" font-family="Times New Roman,serif" font-size="14.00">tfx.dsl.input_resolution</text>
</g>
<!-- 2&#45;&gt;67 -->
<g id="edge5" class="edge">
<title>2&#45;&gt;67</title>
<path fill="none" stroke="black" d="M11297.42,-106.93C11294.25,-107.33 11291.1,-107.7 11288,-108 10912.09,-144.98 4866.7,-139.69 4489,-144 4160.72,-147.75 3770.01,-155.64 3602.25,-159.2"/>
<polygon fill="black" stroke="black" points="3592.01,-159.42 3601.91,-154.7 3597,-159.31 3602,-159.2 3602,-159.2 3602,-159.2 3597,-159.31 3602.1,-163.7 3592.01,-159.42 3592.01,-159.42"/>
</g>
<!-- 91 -->
<g id="node92" class="node">
<title>91</title>
<polygon fill="none" stroke="black" points="13441,-180 13321,-180 13321,-144 13441,-144 13441,-180"/>
<text text-anchor="middle" x="13381" y="-158.3" font-family="Times New Roman,serif" font-size="14.00">tfx.dsl.placeholder</text>
</g>
<!-- 2&#45;&gt;91 -->
<g id="edge6" class="edge">
<title>2&#45;&gt;91</title>
<path fill="none" stroke="black" d="M11454.58,-106.86C11457.76,-107.29 11460.91,-107.67 11464,-108 11825.37,-146.6 12735.89,-129.06 13099,-144 13171.23,-146.97 13253.78,-152.16 13310.81,-156.02"/>
<polygon fill="black" stroke="black" points="13320.8,-156.7 13310.51,-160.51 13315.81,-156.36 13310.82,-156.02 13310.82,-156.02 13310.82,-156.02 13315.81,-156.36 13311.13,-151.53 13320.8,-156.7 13320.8,-156.7"/>
</g>
<!-- 3 -->
<g id="node4" class="node">
<title>3</title>
<polygon fill="none" stroke="black" points="12522,-108 12316,-108 12316,-72 12522,-72 12522,-108"/>
<text text-anchor="middle" x="12419" y="-86.3" font-family="Times New Roman,serif" font-size="14.00">tfx.dsl.compiler.compiler_context</text>
</g>
<!-- 3&#45;&gt;1 -->
<g id="edge7" class="edge">
<title>3&#45;&gt;1</title>
<path fill="none" stroke="black" d="M12315.91,-107.07C12312.91,-107.4 12309.94,-107.71 12307,-108 11880.31,-149.83 11363.69,-158.68 11187.4,-160.52"/>
<polygon fill="black" stroke="black" points="11177.28,-160.63 11187.23,-156.03 11182.28,-160.58 11187.28,-160.53 11187.28,-160.53 11187.28,-160.53 11182.28,-160.58 11187.32,-165.03 11177.28,-160.63 11177.28,-160.63"/>
</g>
<!-- 3&#45;&gt;40 -->
<g id="edge8" class="edge">
<title>3&#45;&gt;40</title>
<path fill="none" stroke="black" d="M12522.08,-107.15C12525.08,-107.46 12528.06,-107.74 12531,-108 12974.44,-146.59 14385.84,-158.11 14751.7,-160.49"/>
<polygon fill="black" stroke="black" points="14761.96,-160.55 14751.93,-164.99 14756.96,-160.52 14751.96,-160.49 14751.96,-160.49 14751.96,-160.49 14756.96,-160.52 14751.99,-155.99 14761.96,-160.55 14761.96,-160.55"/>
</g>
<!-- 3&#45;&gt;61 -->
<g id="edge9" class="edge">
<title>3&#45;&gt;61</title>
<path fill="none" stroke="black" d="M12522.12,-106.79C12525.11,-107.21 12528.08,-107.61 12531,-108 12650.94,-124.01 12788.85,-139.51 12882.15,-149.57"/>
<polygon fill="black" stroke="black" points="12892.17,-150.65 12881.74,-154.06 12887.2,-150.12 12882.22,-149.58 12882.22,-149.58 12882.22,-149.58 12887.2,-150.12 12882.71,-145.11 12892.17,-150.65 12892.17,-150.65"/>
</g>
<!-- 4 -->
<g id="node5" class="node">
<title>4</title>
<polygon fill="none" stroke="black" points="9986.5,-108 9715.5,-108 9715.5,-72 9986.5,-72 9986.5,-108"/>
<text text-anchor="middle" x="9851" y="-86.3" font-family="Times New Roman,serif" font-size="14.00">tfx.dsl.compiler.compiler_resolver_node_test</text>
</g>
<!-- 4&#45;&gt;1 -->
<g id="edge10" class="edge">
<title>4&#45;&gt;1</title>
<path fill="none" stroke="black" d="M9986.81,-107.26C9989.9,-107.52 9992.97,-107.77 9996,-108 10451.85,-142.65 10569.16,-97.96 11024,-144 11036.56,-145.27 11049.93,-147.15 11062.68,-149.19"/>
<polygon fill="black" stroke="black" points="11072.76,-150.86 11062.16,-153.66 11067.82,-150.04 11062.89,-149.22 11062.89,-149.22 11062.89,-149.22 11067.82,-150.04 11063.63,-144.79 11072.76,-150.86 11072.76,-150.86"/>
</g>
<!-- 4&#45;&gt;40 -->
<g id="edge11" class="edge">
<title>4&#45;&gt;40</title>
<path fill="none" stroke="black" d="M9986.8,-107.36C9989.9,-107.59 9992.96,-107.81 9996,-108 10762.05,-156.76 12682.45,-135.3 13450,-144 13942.27,-149.58 14532.66,-157.07 14751.68,-159.88"/>
<polygon fill="black" stroke="black" points="14761.83,-160.01 14751.77,-164.38 14756.83,-159.94 14751.83,-159.88 14751.83,-159.88 14751.83,-159.88 14756.83,-159.94 14751.88,-155.38 14761.83,-160.01 14761.83,-160.01"/>
</g>
<!-- 4&#45;&gt;53 -->
<g id="edge12" class="edge">
<title>4&#45;&gt;53</title>
<path fill="none" stroke="black" d="M9715.19,-107.22C9712.1,-107.49 9709.03,-107.75 9706,-108 9305.66,-140.41 8827.25,-154.24 8624.08,-158.96"/>
<polygon fill="black" stroke="black" points="8614.03,-159.19 8623.92,-154.46 8619.03,-159.07 8624.03,-158.96 8624.03,-158.96 8624.03,-158.96 8619.03,-159.07 8624.13,-163.46 8614.03,-159.19 8614.03,-159.19"/>
</g>
<!-- 4&#45;&gt;67 -->
<g id="edge13" class="edge">
<title>4&#45;&gt;67</title>
<path fill="none" stroke="black" d="M9715.2,-107.38C9712.11,-107.6 9709.04,-107.81 9706,-108 9127.43,-143.8 5068.64,-136.92 4489,-144 4160.73,-148.01 3770.01,-155.77 3602.25,-159.24"/>
<polygon fill="black" stroke="black" points="3592.01,-159.46 3601.91,-154.75 3597,-159.35 3602,-159.25 3602,-159.25 3602,-159.25 3597,-159.35 3602.1,-163.75 3592.01,-159.46 3592.01,-159.46"/>
</g>
<!-- 5 -->
<g id="node6" class="node">
<title>5</title>
<polygon fill="none" stroke="black" points="11031,-108 10847,-108 10847,-72 11031,-72 11031,-108"/>
<text text-anchor="middle" x="10939" y="-86.3" font-family="Times New Roman,serif" font-size="14.00">tfx.dsl.compiler.compiler_test</text>
</g>
<!-- 5&#45;&gt;1 -->
<g id="edge14" class="edge">
<title>5&#45;&gt;1</title>
<path fill="none" stroke="black" d="M10984.5,-108.12C11010.38,-117.86 11042.97,-130.13 11070.24,-140.39"/>
<polygon fill="black" stroke="black" points="11079.65,-143.93 11068.7,-144.62 11074.97,-142.17 11070.29,-140.41 11070.29,-140.41 11070.29,-140.41 11074.97,-142.17 11071.87,-136.2 11079.65,-143.93 11079.65,-143.93"/>
</g>
<!-- 11 -->
<g id="node12" class="node">
<title>11</title>
<polygon fill="none" stroke="black" points="11014.5,-180 10863.5,-180 10863.5,-144 11014.5,-144 11014.5,-180"/>
<text text-anchor="middle" x="10939" y="-158.3" font-family="Times New Roman,serif" font-size="14.00">tfx.dsl.compiler.testdata</text>
</g>
<!-- 5&#45;&gt;11 -->
<g id="edge15" class="edge">
<title>5&#45;&gt;11</title>
<path fill="none" stroke="black" d="M10939,-108.3C10939,-116.02 10939,-125.29 10939,-133.89"/>
<polygon fill="black" stroke="black" points="10939,-143.9 10934.5,-133.9 10939,-138.9 10939,-133.9 10939,-133.9 10939,-133.9 10939,-138.9 10943.5,-133.9 10939,-143.9 10939,-143.9"/>
</g>
<!-- 6 -->
<g id="node7" class="node">
<title>6</title>
<polygon fill="none" stroke="black" points="12297.5,-108 12110.5,-108 12110.5,-72 12297.5,-72 12297.5,-108"/>
<text text-anchor="middle" x="12204" y="-86.3" font-family="Times New Roman,serif" font-size="14.00">tfx.dsl.compiler.compiler_utils</text>
</g>
<!-- 6&#45;&gt;1 -->
<g id="edge16" class="edge">
<title>6&#45;&gt;1</title>
<path fill="none" stroke="black" d="M12110.4,-107.01C12107.57,-107.37 12104.77,-107.7 12102,-108 11757.86,-145.89 11342.41,-157.04 11187.34,-160.01"/>
<polygon fill="black" stroke="black" points="11177.07,-160.21 11186.98,-155.52 11182.06,-160.11 11187.06,-160.02 11187.06,-160.02 11187.06,-160.02 11182.06,-160.11 11187.15,-164.52 11177.07,-160.21 11177.07,-160.21"/>
</g>
<!-- 6&#45;&gt;40 -->
<g id="edge17" class="edge">
<title>6&#45;&gt;40</title>
<path fill="none" stroke="black" d="M12297.68,-107.04C12300.82,-107.4 12303.93,-107.72 12307,-108 12554.07,-130.86 14334.14,-154.61 14751.56,-159.91"/>
<polygon fill="black" stroke="black" points="14761.76,-160.04 14751.7,-164.41 14756.76,-159.98 14751.76,-159.91 14751.76,-159.91 14751.76,-159.91 14756.76,-159.98 14751.82,-155.41 14761.76,-160.04 14761.76,-160.04"/>
</g>
<!-- 6&#45;&gt;53 -->
<g id="edge18" class="edge">
<title>6&#45;&gt;53</title>
<path fill="none" stroke="black" d="M12110.41,-107.16C12107.58,-107.47 12104.77,-107.75 12102,-108 11524.93,-159.77 10074.32,-134.92 9495,-144 9176.94,-148.98 8800.23,-155.87 8624.52,-159.13"/>
<polygon fill="black" stroke="black" points="8614.26,-159.32 8624.18,-154.64 8619.26,-159.23 8624.26,-159.14 8624.26,-159.14 8624.26,-159.14 8619.26,-159.23 8624.35,-163.64 8614.26,-159.32 8614.26,-159.32"/>
</g>
<!-- 6&#45;&gt;91 -->
<g id="edge19" class="edge">
<title>6&#45;&gt;91</title>
<path fill="none" stroke="black" d="M12297.69,-106.94C12300.82,-107.32 12303.94,-107.68 12307,-108 12657.44,-144.75 12747.13,-125.4 13099,-144 13171.19,-147.82 13253.74,-152.87 13310.79,-156.48"/>
<polygon fill="black" stroke="black" points="13320.78,-157.11 13310.51,-160.97 13315.79,-156.79 13310.8,-156.48 13310.8,-156.48 13310.8,-156.48 13315.79,-156.79 13311.08,-151.99 13320.78,-157.11 13320.78,-157.11"/>
</g>
<!-- 7 -->
<g id="node8" class="node">
<title>7</title>
<polygon fill="none" stroke="black" points="10219,-108 10005,-108 10005,-72 10219,-72 10219,-108"/>
<text text-anchor="middle" x="10112" y="-86.3" font-family="Times New Roman,serif" font-size="14.00">tfx.dsl.compiler.compiler_utils_test</text>
</g>
<!-- 7&#45;&gt;1 -->
<g id="edge20" class="edge">
<title>7&#45;&gt;1</title>
<path fill="none" stroke="black" d="M10219.08,-107.09C10222.08,-107.42 10225.06,-107.72 10228,-108 10580.53,-141.72 10671.85,-106.54 11024,-144 11036.56,-145.34 11049.92,-147.24 11062.67,-149.29"/>
<polygon fill="black" stroke="black" points="11072.75,-150.96 11062.14,-153.76 11067.81,-150.14 11062.88,-149.33 11062.88,-149.33 11062.88,-149.33 11067.81,-150.14 11063.62,-144.89 11072.75,-150.96 11072.75,-150.96"/>
</g>
<!-- 7&#45;&gt;40 -->
<g id="edge21" class="edge">
<title>7&#45;&gt;40</title>
<path fill="none" stroke="black" d="M10219.07,-107.23C10222.08,-107.51 10225.06,-107.77 10228,-108 10941.85,-164.04 12734,-135.62 13450,-144 13942.27,-149.76 14532.66,-157.14 14751.68,-159.9"/>
<polygon fill="black" stroke="black" points="14761.83,-160.03 14751.77,-164.4 14756.83,-159.96 14751.83,-159.9 14751.83,-159.9 14751.83,-159.9 14756.83,-159.96 14751.88,-155.4 14761.83,-160.03 14761.83,-160.03"/>
</g>
<!-- 7&#45;&gt;53 -->
<g id="edge22" class="edge">
<title>7&#45;&gt;53</title>
<path fill="none" stroke="black" d="M10004.94,-107.03C10001.59,-107.38 9998.27,-107.7 9995,-108 9480.93,-154.48 8862.27,-160.6 8624.62,-161.12"/>
<polygon fill="black" stroke="black" points="8614.28,-161.14 8624.27,-156.62 8619.28,-161.13 8624.28,-161.12 8624.28,-161.12 8624.28,-161.12 8619.28,-161.13 8624.29,-165.62 8614.28,-161.14 8614.28,-161.14"/>
</g>
<!-- 72 -->
<g id="node73" class="node">
<title>72</title>
<polygon fill="none" stroke="black" points="4699.5,-180 4498.5,-180 4498.5,-144 4699.5,-144 4699.5,-180"/>
<text text-anchor="middle" x="4599" y="-158.3" font-family="Times New Roman,serif" font-size="14.00">tfx.dsl.input_resolution.strategies</text>
</g>
<!-- 7&#45;&gt;72 -->
<g id="edge23" class="edge">
<title>7&#45;&gt;72</title>
<path fill="none" stroke="black" d="M10004.95,-107.14C10001.6,-107.46 9998.27,-107.75 9995,-108 9977.91,-109.32 5477.64,-152.57 4709.78,-159.94"/>
<polygon fill="black" stroke="black" points="4699.56,-160.04 4709.52,-155.44 4704.56,-159.99 4709.56,-159.94 4709.56,-159.94 4709.56,-159.94 4704.56,-159.99 4709.6,-164.44 4699.56,-160.04 4699.56,-160.04"/>
</g>
<!-- 8 -->
<g id="node9" class="node">
<title>8</title>
<polygon fill="none" stroke="black" points="14947.5,-36 14786.5,-36 14786.5,0 14947.5,0 14947.5,-36"/>
<text text-anchor="middle" x="14867" y="-14.3" font-family="Times New Roman,serif" font-size="14.00">tfx.dsl.compiler.constants</text>
</g>
<!-- 9 -->
<g id="node10" class="node">
<title>9</title>
<polygon fill="none" stroke="black" points="14176.5,-108 13973.5,-108 13973.5,-72 14176.5,-72 14176.5,-108"/>
<text text-anchor="middle" x="14075" y="-86.3" font-family="Times New Roman,serif" font-size="14.00">tfx.dsl.compiler.placeholder_utils</text>
</g>
<!-- 9&#45;&gt;91 -->
<g id="edge24" class="edge">
<title>9&#45;&gt;91</title>
<path fill="none" stroke="black" d="M13973.44,-106.93C13970.6,-107.3 13967.78,-107.66 13965,-108 13780.23,-130.64 13561.47,-147.98 13451.54,-156.04"/>
<polygon fill="black" stroke="black" points="13441.24,-156.79 13450.89,-151.57 13446.23,-156.42 13451.22,-156.06 13451.22,-156.06 13451.22,-156.06 13446.23,-156.42 13451.54,-160.55 13441.24,-156.79 13441.24,-156.79"/>
</g>
<!-- 10 -->
<g id="node11" class="node">
<title>10</title>
<polygon fill="none" stroke="black" points="11279,-108 11049,-108 11049,-72 11279,-72 11279,-108"/>
<text text-anchor="middle" x="11164" y="-86.3" font-family="Times New Roman,serif" font-size="14.00">tfx.dsl.compiler.placeholder_utils_test</text>
</g>
<!-- 10&#45;&gt;1 -->
<g id="edge25" class="edge">
<title>10&#45;&gt;1</title>
<path fill="none" stroke="black" d="M11154.36,-108.3C11149.87,-116.36 11144.44,-126.11 11139.48,-135.02"/>
<polygon fill="black" stroke="black" points="11134.53,-143.9 11135.47,-132.97 11136.96,-139.53 11139.4,-135.16 11139.4,-135.16 11139.4,-135.16 11136.96,-139.53 11143.33,-137.35 11134.53,-143.9 11134.53,-143.9"/>
</g>
<!-- 12 -->
<g id="node13" class="node">
<title>12</title>
<polygon fill="none" stroke="black" points="17564.5,-108 17175.5,-108 17175.5,-72 17564.5,-72 17564.5,-108"/>
<text text-anchor="middle" x="17370" y="-86.3" font-family="Times New Roman,serif" font-size="14.00">tfx.dsl.compiler.testdata.additional_properties_test_pipeline_async</text>
</g>
<!-- 12&#45;&gt;40 -->
<g id="edge26" class="edge">
<title>12&#45;&gt;40</title>
<path fill="none" stroke="black" d="M17175.39,-107.48C17172.24,-107.66 17169.11,-107.84 17166,-108 16292.94,-154.28 15233.51,-160.19 14926.32,-160.91"/>
<polygon fill="black" stroke="black" points="14916.15,-160.93 14926.14,-156.41 14921.15,-160.92 14926.15,-160.91 14926.15,-160.91 14926.15,-160.91 14921.15,-160.92 14926.16,-165.41 14916.15,-160.93 14916.15,-160.93"/>
</g>
<!-- 13 -->
<g id="node14" class="node">
<title>13</title>
<polygon fill="none" stroke="black" points="5800.5,-36 5515.5,-36 5515.5,0 5800.5,0 5800.5,-36"/>
<text text-anchor="middle" x="5658" y="-14.3" font-family="Times New Roman,serif" font-size="14.00">tfx.dsl.compiler.testdata.channel_union_pipeline</text>
</g>
<!-- 27 -->
<g id="node28" class="node">
<title>27</title>
<polygon fill="none" stroke="black" points="6599,-180 6407,-180 6407,-144 6599,-144 6599,-180"/>
<text text-anchor="middle" x="6503" y="-158.3" font-family="Times New Roman,serif" font-size="14.00">tfx.dsl.component.experimental</text>
</g>
<!-- 13&#45;&gt;27 -->
<g id="edge27" class="edge">
<title>13&#45;&gt;27</title>
<path fill="none" stroke="black" d="M5544.74,-36.03C5485.21,-49.54 5431,-72.22 5465,-108 5496.72,-141.38 6137.94,-155.23 6396.4,-159.47"/>
<polygon fill="black" stroke="black" points="6406.55,-159.63 6396.48,-163.97 6401.55,-159.55 6396.55,-159.47 6396.55,-159.47 6396.55,-159.47 6401.55,-159.55 6396.63,-154.97 6406.55,-159.63 6406.55,-159.63"/>
</g>
<!-- 32 -->
<g id="node33" class="node">
<title>32</title>
<polygon fill="none" stroke="black" points="10493,-108 10237,-108 10237,-72 10493,-72 10493,-108"/>
<text text-anchor="middle" x="10365" y="-86.3" font-family="Times New Roman,serif" font-size="14.00">tfx.dsl.component.experimental.decorators</text>
</g>
<!-- 13&#45;&gt;32 -->
<g id="edge28" class="edge">
<title>13&#45;&gt;32</title>
<path fill="none" stroke="black" d="M5800.65,-19.7C6519.78,-23.37 9732.24,-41.32 10226.54,-71.98"/>
<polygon fill="black" stroke="black" points="10236.7,-72.64 10226.43,-76.48 10231.71,-72.31 10226.72,-71.99 10226.72,-71.99 10226.72,-71.99 10231.71,-72.31 10227.01,-67.5 10236.7,-72.64 10236.7,-72.64"/>
</g>
<!-- 13&#45;&gt;53 -->
<g id="edge29" class="edge">
<title>13&#45;&gt;53</title>
<path fill="none" stroke="black" d="M5800.6,-21.14C6059.96,-25.82 6589.36,-39.27 6667,-72 6688.74,-81.16 6684.16,-99.09 6706,-108 6786,-140.63 8057.6,-156.19 8425.82,-160.03"/>
<polygon fill="black" stroke="black" points="8435.93,-160.14 8425.88,-164.53 8430.93,-160.09 8425.93,-160.03 8425.93,-160.03 8425.93,-160.03 8430.93,-160.09 8425.97,-155.53 8435.93,-160.14 8435.93,-160.14"/>
</g>
<!-- 13&#45;&gt;72 -->
<g id="edge30" class="edge">
<title>13&#45;&gt;72</title>
<path fill="none" stroke="black" d="M5515.13,-18.96C4943.57,-19.14 2849.98,-23.12 2802,-72 2790.79,-83.42 2790.85,-96.52 2802,-108 2816.75,-123.19 4099.29,-150.74 4488.35,-158.76"/>
<polygon fill="black" stroke="black" points="4498.49,-158.97 4488.4,-163.26 4493.49,-158.86 4488.49,-158.76 4488.49,-158.76 4488.49,-158.76 4493.49,-158.86 4488.59,-154.26 4498.49,-158.97 4498.49,-158.97"/>
</g>
<!-- 14 -->
<g id="node15" class="node">
<title>14</title>
<polygon fill="none" stroke="black" points="13648.5,-108 13375.5,-108 13375.5,-72 13648.5,-72 13648.5,-108"/>
<text text-anchor="middle" x="13512" y="-86.3" font-family="Times New Roman,serif" font-size="14.00">tfx.dsl.compiler.testdata.composable_pipeline</text>
</g>
<!-- 14&#45;&gt;40 -->
<g id="edge31" class="edge">
<title>14&#45;&gt;40</title>
<path fill="none" stroke="black" d="M13648.75,-107.22C13651.86,-107.49 13654.95,-107.75 13658,-108 14066.25,-140.89 14555.65,-154.71 14751.61,-159.2"/>
<polygon fill="black" stroke="black" points="14761.85,-159.44 14751.75,-163.71 14756.85,-159.32 14751.85,-159.21 14751.85,-159.21 14751.85,-159.21 14756.85,-159.32 14751.95,-154.71 14761.85,-159.44 14761.85,-159.44"/>
</g>
<!-- 14&#45;&gt;61 -->
<g id="edge32" class="edge">
<title>14&#45;&gt;61</title>
<path fill="none" stroke="black" d="M13385.22,-108.03C13297.8,-119.78 13182.84,-135.23 13099.63,-146.4"/>
<polygon fill="black" stroke="black" points="13089.64,-147.75 13098.96,-141.95 13094.6,-147.08 13099.56,-146.41 13099.56,-146.41 13099.56,-146.41 13094.6,-147.08 13100.15,-150.87 13089.64,-147.75 13089.64,-147.75"/>
</g>
<!-- 14&#45;&gt;91 -->
<g id="edge33" class="edge">
<title>14&#45;&gt;91</title>
<path fill="none" stroke="black" d="M13479.95,-108.12C13462.51,-117.45 13440.73,-129.08 13422.06,-139.06"/>
<polygon fill="black" stroke="black" points="13413.17,-143.81 13419.87,-135.13 13417.58,-141.45 13421.99,-139.1 13421.99,-139.1 13421.99,-139.1 13417.58,-141.45 13424.11,-143.07 13413.17,-143.81 13413.17,-143.81"/>
</g>
<!-- 15 -->
<g id="node16" class="node">
<title>15</title>
<polygon fill="none" stroke="black" points="13124,-108 12858,-108 12858,-72 13124,-72 13124,-108"/>
<text text-anchor="middle" x="12991" y="-86.3" font-family="Times New Roman,serif" font-size="14.00">tfx.dsl.compiler.testdata.conditional_pipeline</text>
</g>
<!-- 15&#45;&gt;40 -->
<g id="edge34" class="edge">
<title>15&#45;&gt;40</title>
<path fill="none" stroke="black" d="M13124.17,-107.22C13127.48,-107.5 13130.76,-107.76 13134,-108 13752.62,-154.3 14500.42,-160.31 14751.81,-160.97"/>
<polygon fill="black" stroke="black" points="14761.98,-161 14751.97,-165.47 14756.98,-160.98 14751.98,-160.97 14751.98,-160.97 14751.98,-160.97 14756.98,-160.98 14751.99,-156.47 14761.98,-161 14761.98,-161"/>
</g>
<!-- 15&#45;&gt;61 -->
<g id="edge35" class="edge">
<title>15&#45;&gt;61</title>
<path fill="none" stroke="black" d="M12991,-108.3C12991,-116.02 12991,-125.29 12991,-133.89"/>
<polygon fill="black" stroke="black" points="12991,-143.9 12986.5,-133.9 12991,-138.9 12991,-133.9 12991,-133.9 12991,-133.9 12991,-138.9 12995.5,-133.9 12991,-143.9 12991,-143.9"/>
</g>
<!-- 15&#45;&gt;91 -->
<g id="edge36" class="edge">
<title>15&#45;&gt;91</title>
<path fill="none" stroke="black" d="M13085.91,-108.03C13155.32,-120.49 13247.95,-137.12 13310.78,-148.4"/>
<polygon fill="black" stroke="black" points="13320.99,-150.23 13310.35,-152.89 13316.06,-149.34 13311.14,-148.46 13311.14,-148.46 13311.14,-148.46 13316.06,-149.34 13311.94,-144.03 13320.99,-150.23 13320.99,-150.23"/>
</g>
<!-- 16 -->
<g id="node17" class="node">
<title>16</title>
<polygon fill="none" stroke="black" points="9697,-108 9437,-108 9437,-72 9697,-72 9697,-108"/>
<text text-anchor="middle" x="9567" y="-86.3" font-family="Times New Roman,serif" font-size="14.00">tfx.dsl.compiler.testdata.consumer_pipeline</text>
</g>
<!-- 16&#45;&gt;53 -->
<g id="edge37" class="edge">
<title>16&#45;&gt;53</title>
<path fill="none" stroke="black" d="M9436.81,-107.18C9433.84,-107.46 9430.91,-107.74 9428,-108 9136.55,-134.35 8790.93,-150.42 8624.44,-157.22"/>
<polygon fill="black" stroke="black" points="8614.22,-157.63 8624.03,-152.73 8619.21,-157.43 8624.21,-157.23 8624.21,-157.23 8624.21,-157.23 8619.21,-157.43 8624.39,-161.72 8614.22,-157.63 8614.22,-157.63"/>
</g>
<!-- 60 -->
<g id="node61" class="node">
<title>60</title>
<polygon fill="none" stroke="black" points="9629.5,-180 9504.5,-180 9504.5,-144 9629.5,-144 9629.5,-180"/>
<text text-anchor="middle" x="9567" y="-158.3" font-family="Times New Roman,serif" font-size="14.00">tfx.dsl.experimental</text>
</g>
<!-- 16&#45;&gt;60 -->
<g id="edge38" class="edge">
<title>16&#45;&gt;60</title>
<path fill="none" stroke="black" d="M9567,-108.3C9567,-116.02 9567,-125.29 9567,-133.89"/>
<polygon fill="black" stroke="black" points="9567,-143.9 9562.5,-133.9 9567,-138.9 9567,-133.9 9567,-133.9 9567,-133.9 9567,-138.9 9571.5,-133.9 9567,-143.9 9567,-143.9"/>
</g>
<!-- 17 -->
<g id="node18" class="node">
<title>17</title>
<polygon fill="none" stroke="black" points="14768.5,-36 14419.5,-36 14419.5,0 14768.5,0 14768.5,-36"/>
<text text-anchor="middle" x="14594" y="-14.3" font-family="Times New Roman,serif" font-size="14.00">tfx.dsl.compiler.testdata.dynamic_exec_properties_pipeline</text>
</g>
<!-- 28 -->
<g id="node29" class="node">
<title>28</title>
<polygon fill="none" stroke="black" points="14455,-108 14195,-108 14195,-72 14455,-72 14455,-108"/>
<text text-anchor="middle" x="14325" y="-86.3" font-family="Times New Roman,serif" font-size="14.00">tfx.dsl.component.experimental.annotations</text>
</g>
<!-- 17&#45;&gt;28 -->
<g id="edge39" class="edge">
<title>17&#45;&gt;28</title>
<path fill="none" stroke="black" d="M14528.54,-36.03C14489.89,-46.09 14440.81,-58.86 14400.53,-69.35"/>
<polygon fill="black" stroke="black" points="14390.75,-71.89 14399.3,-65.02 14395.59,-70.63 14400.43,-69.37 14400.43,-69.37 14400.43,-69.37 14395.59,-70.63 14401.57,-73.73 14390.75,-71.89 14390.75,-71.89"/>
</g>
<!-- 17&#45;&gt;32 -->
<g id="edge40" class="edge">
<title>17&#45;&gt;32</title>
<path fill="none" stroke="black" d="M14419.19,-35.56C14416.44,-35.71 14413.71,-35.86 14411,-36 13546.71,-80.05 11385.23,-14.92 10503.3,-71.97"/>
<polygon fill="black" stroke="black" points="10493.3,-72.63 10502.99,-67.48 10498.29,-72.3 10503.28,-71.97 10503.28,-71.97 10503.28,-71.97 10498.29,-72.3 10503.58,-76.46 10493.3,-72.63 10493.3,-72.63"/>
</g>
<!-- 17&#45;&gt;40 -->
<g id="edge41" class="edge">
<title>17&#45;&gt;40</title>
<path fill="none" stroke="black" d="M14768.79,-35.47C14771.89,-35.66 14774.96,-35.83 14778,-36 14835.45,-39.15 16808.67,-30.96 16849,-72 16860.21,-83.41 16860.16,-96.54 16849,-108 16814.97,-142.94 15307.98,-157.27 14926.19,-160.34"/>
<polygon fill="black" stroke="black" points="14916.03,-160.43 14925.99,-155.85 14921.03,-160.39 14926.03,-160.35 14926.03,-160.35 14926.03,-160.35 14921.03,-160.39 14926.07,-164.85 14916.03,-160.43 14916.03,-160.43"/>
</g>
<!-- 17&#45;&gt;91 -->
<g id="edge42" class="edge">
<title>17&#45;&gt;91</title>
<path fill="none" stroke="black" d="M14575.53,-36.19C14549.71,-59.78 14503.67,-100.17 14483,-108 14387.02,-144.34 13679.3,-156.98 13451.46,-160.13"/>
<polygon fill="black" stroke="black" points="13441.29,-160.27 13451.23,-155.64 13446.29,-160.2 13451.29,-160.14 13451.29,-160.14 13451.29,-160.14 13446.29,-160.2 13451.35,-164.63 13441.29,-160.27 13441.29,-160.27"/>
</g>
<!-- 18 -->
<g id="node19" class="node">
<title>18</title>
<polygon fill="none" stroke="black" points="6026.5,-108 5779.5,-108 5779.5,-72 6026.5,-72 6026.5,-108"/>
<text text-anchor="middle" x="5903" y="-86.3" font-family="Times New Roman,serif" font-size="14.00">tfx.dsl.compiler.testdata.foreach_pipeline</text>
</g>
<!-- 18&#45;&gt;53 -->
<g id="edge43" class="edge">
<title>18&#45;&gt;53</title>
<path fill="none" stroke="black" d="M6026.85,-107.27C6029.93,-107.53 6032.98,-107.78 6036,-108 6512.62,-143.44 8023.31,-157.2 8425.71,-160.29"/>
<polygon fill="black" stroke="black" points="8435.87,-160.37 8425.83,-164.79 8430.87,-160.33 8425.87,-160.29 8425.87,-160.29 8425.87,-160.29 8430.87,-160.33 8425.9,-155.79 8435.87,-160.37 8435.87,-160.37"/>
</g>
<!-- 18&#45;&gt;72 -->
<g id="edge44" class="edge">
<title>18&#45;&gt;72</title>
<path fill="none" stroke="black" d="M5779.5,-107.14C5776.3,-107.44 5773.13,-107.73 5770,-108 5381.25,-141.59 4917.95,-154.59 4709.84,-159.01"/>
<polygon fill="black" stroke="black" points="4699.82,-159.22 4709.73,-154.51 4704.82,-159.11 4709.82,-159.01 4709.82,-159.01 4709.82,-159.01 4704.82,-159.11 4709.91,-163.51 4699.82,-159.22 4699.82,-159.22"/>
</g>
<!-- 19 -->
<g id="node20" class="node">
<title>19</title>
<polygon fill="none" stroke="black" points="8186.5,-108 7925.5,-108 7925.5,-72 8186.5,-72 8186.5,-108"/>
<text text-anchor="middle" x="8056" y="-86.3" font-family="Times New Roman,serif" font-size="14.00">tfx.dsl.compiler.testdata.iris_pipeline_async</text>
</g>
<!-- 19&#45;&gt;40 -->
<g id="edge45" class="edge">
<title>19&#45;&gt;40</title>
<path fill="none" stroke="black" d="M8186.74,-107.35C8189.86,-107.59 8192.95,-107.8 8196,-108 8778.6,-145.25 12866.24,-138.43 13450,-144 13942.28,-148.7 14532.66,-156.71 14751.68,-159.77"/>
<polygon fill="black" stroke="black" points="14761.83,-159.91 14751.77,-164.27 14756.83,-159.84 14751.83,-159.77 14751.83,-159.77 14751.83,-159.77 14756.83,-159.84 14751.89,-155.27 14761.83,-159.91 14761.83,-159.91"/>
</g>
<!-- 19&#45;&gt;53 -->
<g id="edge46" class="edge">
<title>19&#45;&gt;53</title>
<path fill="none" stroke="black" d="M8170.13,-108.03C8248.37,-119.71 8351.13,-135.05 8425.93,-146.21"/>
<polygon fill="black" stroke="black" points="8435.83,-147.69 8425.27,-150.66 8430.88,-146.95 8425.94,-146.21 8425.94,-146.21 8425.94,-146.21 8430.88,-146.95 8426.6,-141.76 8435.83,-147.69 8435.83,-147.69"/>
</g>
<!-- 19&#45;&gt;72 -->
<g id="edge47" class="edge">
<title>19&#45;&gt;72</title>
<path fill="none" stroke="black" d="M7925.26,-107.31C7922.14,-107.56 7919.05,-107.79 7916,-108 7591.01,-130.27 5249.77,-154.57 4709.86,-159.92"/>
<polygon fill="black" stroke="black" points="4699.74,-160.02 4709.69,-155.42 4704.74,-159.97 4709.74,-159.92 4709.74,-159.92 4709.74,-159.92 4704.74,-159.97 4709.78,-164.42 4699.74,-160.02 4699.74,-160.02"/>
</g>
<!-- 20 -->
<g id="node21" class="node">
<title>20</title>
<polygon fill="none" stroke="black" points="6970.5,-108 6715.5,-108 6715.5,-72 6970.5,-72 6970.5,-108"/>
<text text-anchor="middle" x="6843" y="-86.3" font-family="Times New Roman,serif" font-size="14.00">tfx.dsl.compiler.testdata.iris_pipeline_sync</text>
</g>
<!-- 20&#45;&gt;40 -->
<g id="edge48" class="edge">
<title>20&#45;&gt;40</title>
<path fill="none" stroke="black" d="M6970.57,-107.33C6973.74,-107.57 6976.89,-107.8 6980,-108 7697.4,-154.34 12731.13,-137.6 13450,-144 13942.28,-148.38 14532.66,-156.59 14751.68,-159.73"/>
<polygon fill="black" stroke="black" points="14761.83,-159.87 14751.76,-164.23 14756.83,-159.8 14751.83,-159.73 14751.83,-159.73 14751.83,-159.73 14756.83,-159.8 14751.89,-155.23 14761.83,-159.87 14761.83,-159.87"/>
</g>
<!-- 20&#45;&gt;53 -->
<g id="edge49" class="edge">
<title>20&#45;&gt;53</title>
<path fill="none" stroke="black" d="M6970.58,-107.21C6973.75,-107.49 6976.89,-107.75 6980,-108 7524.34,-151.02 8179.3,-159.14 8425.24,-160.66"/>
<polygon fill="black" stroke="black" points="8435.58,-160.72 8425.56,-165.16 8430.58,-160.69 8425.58,-160.66 8425.58,-160.66 8425.58,-160.66 8430.58,-160.69 8425.61,-156.16 8435.58,-160.72 8435.58,-160.72"/>
</g>
<!-- 20&#45;&gt;72 -->
<g id="edge50" class="edge">
<title>20&#45;&gt;72</title>
<path fill="none" stroke="black" d="M6715.23,-104.41C6699.01,-105.8 6682.63,-107.05 6667,-108 5920.43,-153.57 5019.94,-160.07 4710.04,-160.91"/>
<polygon fill="black" stroke="black" points="4699.71,-160.94 4709.7,-156.41 4704.71,-160.93 4709.71,-160.91 4709.71,-160.91 4709.71,-160.91 4704.71,-160.93 4709.72,-165.41 4699.71,-160.94 4699.71,-160.94"/>
</g>
<!-- 21 -->
<g id="node22" class="node">
<title>21</title>
<polygon fill="none" stroke="black" points="12514,-36 12168,-36 12168,0 12514,0 12514,-36"/>
<text text-anchor="middle" x="12341" y="-14.3" font-family="Times New Roman,serif" font-size="14.00">tfx.dsl.compiler.testdata.non_existent_component_pipeline</text>
</g>
<!-- 21&#45;&gt;32 -->
<g id="edge51" class="edge">
<title>21&#45;&gt;32</title>
<path fill="none" stroke="black" d="M12167.88,-21.89C11778.34,-28.74 10841.27,-47.19 10503.37,-71.95"/>
<polygon fill="black" stroke="black" points="10493.31,-72.7 10502.95,-67.47 10498.3,-72.33 10503.28,-71.96 10503.28,-71.96 10503.28,-71.96 10498.3,-72.33 10503.62,-76.45 10493.31,-72.7 10493.31,-72.7"/>
</g>
<!-- 21&#45;&gt;40 -->
<g id="edge52" class="edge">
<title>21&#45;&gt;40</title>
<path fill="none" stroke="black" d="M12514.05,-21.06C13078.71,-27.96 14832.52,-51.08 14853,-72 14868.89,-88.23 14862.25,-114.69 14853.52,-134.55"/>
<polygon fill="black" stroke="black" points="14849.16,-143.69 14849.4,-132.73 14851.31,-139.18 14853.46,-134.67 14853.46,-134.67 14853.46,-134.67 14851.31,-139.18 14857.53,-136.61 14849.16,-143.69 14849.16,-143.69"/>
</g>
<!-- 22 -->
<g id="node23" class="node">
<title>22</title>
<polygon fill="none" stroke="black" points="17939,-108 17583,-108 17583,-72 17939,-72 17939,-108"/>
<text text-anchor="middle" x="17761" y="-86.3" font-family="Times New Roman,serif" font-size="14.00">tfx.dsl.compiler.testdata.optional_and_allow_empty_pipeline</text>
</g>
<!-- 22&#45;&gt;40 -->
<g id="edge53" class="edge">
<title>22&#45;&gt;40</title>
<path fill="none" stroke="black" d="M17582.86,-107.49C17579.88,-107.67 17576.93,-107.84 17574,-108 17040.68,-137.37 15333.04,-156.05 14926.48,-160.15"/>
<polygon fill="black" stroke="black" points="14916.26,-160.25 14926.21,-155.65 14921.26,-160.2 14926.26,-160.15 14926.26,-160.15 14926.26,-160.15 14921.26,-160.2 14926.3,-164.65 14916.26,-160.25 14916.26,-160.25"/>
</g>
<!-- 23 -->
<g id="node24" class="node">
<title>23</title>
<polygon fill="none" stroke="black" points="12840,-108 12540,-108 12540,-72 12840,-72 12840,-108"/>
<text text-anchor="middle" x="12690" y="-86.3" font-family="Times New Roman,serif" font-size="14.00">tfx.dsl.compiler.testdata.pipeline_root_placeholder</text>
</g>
<!-- 23&#45;&gt;91 -->
<g id="edge54" class="edge">
<title>23&#45;&gt;91</title>
<path fill="none" stroke="black" d="M12840.22,-107.09C12843.17,-107.4 12846.1,-107.7 12849,-108 13014.36,-125.08 13208.73,-144.2 13310.59,-154.15"/>
<polygon fill="black" stroke="black" points="13320.75,-155.14 13310.36,-158.65 13315.77,-154.65 13310.8,-154.17 13310.8,-154.17 13310.8,-154.17 13315.77,-154.65 13311.23,-149.69 13320.75,-155.14 13320.75,-155.14"/>
</g>
<!-- 24 -->
<g id="node25" class="node">
<title>24</title>
<polygon fill="none" stroke="black" points="14401.5,-36 14102.5,-36 14102.5,0 14401.5,0 14401.5,-36"/>
<text text-anchor="middle" x="14252" y="-14.3" font-family="Times New Roman,serif" font-size="14.00">tfx.dsl.compiler.testdata.pipeline_with_annotations</text>
</g>
<!-- 24&#45;&gt;28 -->
<g id="edge55" class="edge">
<title>24&#45;&gt;28</title>
<path fill="none" stroke="black" d="M14270.04,-36.3C14279.06,-44.95 14290.12,-55.55 14299.94,-64.97"/>
<polygon fill="black" stroke="black" points="14307.16,-71.9 14296.83,-68.22 14303.55,-68.44 14299.94,-64.97 14299.94,-64.97 14299.94,-64.97 14303.55,-68.44 14303.06,-61.73 14307.16,-71.9 14307.16,-71.9"/>
</g>
<!-- 24&#45;&gt;32 -->
<g id="edge56" class="edge">
<title>24&#45;&gt;32</title>
<path fill="none" stroke="black" d="M14102.23,-20.66C13436.1,-28.09 10764.02,-58.54 10503.32,-72.06"/>
<polygon fill="black" stroke="black" points="10493.31,-72.65 10503.02,-67.57 10498.3,-72.35 10503.29,-72.06 10503.29,-72.06 10503.29,-72.06 10498.3,-72.35 10503.55,-76.55 10493.31,-72.65 10493.31,-72.65"/>
</g>
<!-- 24&#45;&gt;40 -->
<g id="edge57" class="edge">
<title>24&#45;&gt;40</title>
<path fill="none" stroke="black" d="M14401.77,-35.4C14404.87,-35.61 14407.95,-35.81 14411,-36 14477.69,-40.06 16769.11,-24.4 16816,-72 16827.23,-83.4 16827.16,-96.54 16816,-108 16782.59,-142.32 15304.39,-157.09 14926.32,-160.3"/>
<polygon fill="black" stroke="black" points="14916.26,-160.39 14926.22,-155.8 14921.26,-160.35 14926.26,-160.3 14926.26,-160.3 14926.26,-160.3 14921.26,-160.35 14926.3,-164.8 14916.26,-160.39 14916.26,-160.39"/>
</g>
<!-- 24&#45;&gt;91 -->
<g id="edge58" class="edge">
<title>24&#45;&gt;91</title>
<path fill="none" stroke="black" d="M14385.87,-36.06C14447.06,-49.1 14498.96,-71.29 14464,-108 14429.04,-144.71 13686.03,-157.17 13451.37,-160.19"/>
<polygon fill="black" stroke="black" points="13441.24,-160.32 13451.19,-155.7 13446.24,-160.26 13451.24,-160.2 13451.24,-160.2 13451.24,-160.2 13446.24,-160.26 13451.3,-164.7 13441.24,-160.32 13441.24,-160.32"/>
</g>
<!-- 25 -->
<g id="node26" class="node">
<title>25</title>
<polygon fill="none" stroke="black" points="2489,-108 2187,-108 2187,-72 2489,-72 2489,-108"/>
<text text-anchor="middle" x="2338" y="-86.3" font-family="Times New Roman,serif" font-size="14.00">tfx.dsl.compiler.testdata.resolver_function_pipeline</text>
</g>
<!-- 25&#45;&gt;67 -->
<g id="edge59" class="edge">
<title>25&#45;&gt;67</title>
<path fill="none" stroke="black" d="M2489.15,-107.28C2492.12,-107.53 2495.08,-107.77 2498,-108 2845.84,-135.49 3261.53,-152.01 3435.75,-158.2"/>
<polygon fill="black" stroke="black" points="3445.87,-158.56 3435.71,-162.7 3440.87,-158.38 3435.87,-158.21 3435.87,-158.21 3435.87,-158.21 3440.87,-158.38 3436.03,-153.71 3445.87,-158.56 3445.87,-158.56"/>
</g>
<!-- 26 -->
<g id="node27" class="node">
<title>26</title>
<polygon fill="none" stroke="black" points="15084.5,-36 14965.5,-36 14965.5,0 15084.5,0 15084.5,-36"/>
<text text-anchor="middle" x="15025" y="-14.3" font-family="Times New Roman,serif" font-size="14.00">tfx.dsl.component</text>
</g>
<!-- 29 -->
<g id="node30" class="node">
<title>29</title>
<polygon fill="none" stroke="black" points="5761.5,-108 5474.5,-108 5474.5,-72 5761.5,-72 5761.5,-108"/>
<text text-anchor="middle" x="5618" y="-86.3" font-family="Times New Roman,serif" font-size="14.00">tfx.dsl.component.experimental.annotations_test</text>
</g>
<!-- 29&#45;&gt;27 -->
<g id="edge60" class="edge">
<title>29&#45;&gt;27</title>
<path fill="none" stroke="black" d="M5761.59,-107.21C5764.42,-107.48 5767.22,-107.74 5770,-108 5992.71,-128.5 6254.11,-145.77 6396.78,-154.63"/>
<polygon fill="black" stroke="black" points="6406.85,-155.25 6396.59,-159.13 6401.86,-154.94 6396.87,-154.64 6396.87,-154.64 6396.87,-154.64 6401.86,-154.94 6397.15,-150.14 6406.85,-155.25 6406.85,-155.25"/>
</g>
<!-- 30 -->
<g id="node31" class="node">
<title>30</title>
<polygon fill="none" stroke="black" points="18246.5,-108 17957.5,-108 17957.5,-72 18246.5,-72 18246.5,-108"/>
<text text-anchor="middle" x="18102" y="-86.3" font-family="Times New Roman,serif" font-size="14.00">tfx.dsl.component.experimental.component_utils</text>
</g>
<!-- 30&#45;&gt;40 -->
<g id="edge61" class="edge">
<title>30&#45;&gt;40</title>
<path fill="none" stroke="black" d="M17957.35,-107.36C17954.21,-107.59 17951.09,-107.8 17948,-108 17336.62,-146.87 15365.59,-158.48 14926.33,-160.61"/>
<polygon fill="black" stroke="black" points="14916.24,-160.66 14926.21,-156.11 14921.24,-160.63 14926.24,-160.61 14926.24,-160.61 14926.24,-160.61 14921.24,-160.63 14926.26,-165.11 14916.24,-160.66 14916.24,-160.66"/>
</g>
<!-- 31 -->
<g id="node32" class="node">
<title>31</title>
<polygon fill="none" stroke="black" points="12092.5,-108 11775.5,-108 11775.5,-72 12092.5,-72 12092.5,-108"/>
<text text-anchor="middle" x="11934" y="-86.3" font-family="Times New Roman,serif" font-size="14.00">tfx.dsl.component.experimental.container_component</text>
</g>
<!-- 31&#45;&gt;27 -->
<g id="edge62" class="edge">
<title>31&#45;&gt;27</title>
<path fill="none" stroke="black" d="M11775.3,-107.45C11772.18,-107.64 11769.07,-107.83 11766,-108 11632.51,-115.41 7342.24,-153.59 6609.06,-160.07"/>
<polygon fill="black" stroke="black" points="6599.04,-160.15 6609,-155.57 6604.04,-160.11 6609.04,-160.07 6609.04,-160.07 6609.04,-160.07 6604.04,-160.11 6609.08,-164.57 6599.04,-160.15 6599.04,-160.15"/>
</g>
<!-- 31&#45;&gt;40 -->
<g id="edge63" class="edge">
<title>31&#45;&gt;40</title>
<path fill="none" stroke="black" d="M12092.7,-107.41C12095.82,-107.62 12098.93,-107.82 12102,-108 12371.18,-124.2 14314.38,-153.33 14751.74,-159.73"/>
<polygon fill="black" stroke="black" points="14761.79,-159.88 14751.72,-164.23 14756.79,-159.81 14751.79,-159.73 14751.79,-159.73 14751.79,-159.73 14756.79,-159.81 14751.86,-155.24 14761.79,-159.88 14761.79,-159.88"/>
</g>
<!-- 32&#45;&gt;27 -->
<g id="edge64" class="edge">
<title>32&#45;&gt;27</title>
<path fill="none" stroke="black" d="M10236.69,-107.35C10233.77,-107.59 10230.87,-107.8 10228,-108 9859.35,-133.42 7180.32,-155.69 6609.7,-160.18"/>
<polygon fill="black" stroke="black" points="6599.43,-160.26 6609.39,-155.68 6604.43,-160.22 6609.43,-160.18 6609.43,-160.18 6609.43,-160.18 6604.43,-160.22 6609.47,-164.68 6599.43,-160.26 6599.43,-160.26"/>
</g>
<!-- 32&#45;&gt;40 -->
<g id="edge65" class="edge">
<title>32&#45;&gt;40</title>
<path fill="none" stroke="black" d="M10493.3,-107.36C10496.23,-107.59 10499.13,-107.81 10502,-108 11155.65,-152.41 12794.89,-135.99 13450,-144 13942.26,-150.02 14532.66,-157.25 14751.68,-159.93"/>
<polygon fill="black" stroke="black" points="14761.83,-160.05 14751.77,-164.43 14756.83,-159.99 14751.83,-159.93 14751.83,-159.93 14751.83,-159.93 14756.83,-159.99 14751.88,-155.43 14761.83,-160.05 14761.83,-160.05"/>
</g>
<!-- 33 -->
<g id="node34" class="node">
<title>33</title>
<polygon fill="none" stroke="black" points="11327.5,-36 11044.5,-36 11044.5,0 11327.5,0 11327.5,-36"/>
<text text-anchor="middle" x="11186" y="-14.3" font-family="Times New Roman,serif" font-size="14.00">tfx.dsl.component.experimental.decorators_test</text>
</g>
<!-- 33&#45;&gt;28 -->
<g id="edge66" class="edge">
<title>33&#45;&gt;28</title>
<path fill="none" stroke="black" d="M11327.71,-21.48C11900.36,-31.5 14020.42,-68.63 14184.81,-72.39"/>
<polygon fill="black" stroke="black" points="14194.82,-72.66 14184.7,-76.89 14189.82,-72.52 14184.82,-72.39 14184.82,-72.39 14184.82,-72.39 14189.82,-72.52 14184.95,-67.89 14194.82,-72.66 14194.82,-72.66"/>
</g>
<!-- 33&#45;&gt;32 -->
<g id="edge67" class="edge">
<title>33&#45;&gt;32</title>
<path fill="none" stroke="black" d="M11044.35,-28.06C10908.27,-37.21 10696.62,-52.6 10503.39,-71.88"/>
<polygon fill="black" stroke="black" points="10493.33,-72.89 10502.83,-67.42 10498.3,-72.4 10503.28,-71.9 10503.28,-71.9 10503.28,-71.9 10498.3,-72.4 10503.73,-76.37 10493.33,-72.89 10493.33,-72.89"/>
</g>
<!-- 33&#45;&gt;40 -->
<g id="edge68" class="edge">
<title>33&#45;&gt;40</title>
<path fill="none" stroke="black" d="M11327.8,-21.65C11517.24,-25.16 11863.37,-31.42 12159,-36 12195.96,-36.57 14791.42,-48.56 14820,-72 14837.71,-86.52 14841.45,-113.13 14841.37,-133.49"/>
<polygon fill="black" stroke="black" points="14841.02,-143.75 14836.87,-133.6 14841.19,-138.75 14841.36,-133.75 14841.36,-133.75 14841.36,-133.75 14841.19,-138.75 14845.86,-133.91 14841.02,-143.75 14841.02,-143.75"/>
</g>
<!-- 81 -->
<g id="node82" class="node">
<title>81</title>
<polygon fill="none" stroke="black" points="1029,-180 963,-180 963,-144 1029,-144 1029,-180"/>
<text text-anchor="middle" x="996" y="-158.3" font-family="Times New Roman,serif" font-size="14.00">tfx.dsl.io</text>
</g>
<!-- 33&#45;&gt;81 -->
<g id="edge69" class="edge">
<title>33&#45;&gt;81</title>
<path fill="none" stroke="black" d="M11044.4,-20.06C10664,-22.88 9588.12,-30.74 8693,-36 8591.76,-36.6 1498.2,-34.9 1404,-72 1382.05,-80.64 1386.3,-97.87 1365,-108 1308.05,-135.09 1123.99,-151.65 1039.33,-158.01"/>
<polygon fill="black" stroke="black" points="1029.27,-158.75 1038.91,-153.53 1034.26,-158.39 1039.24,-158.02 1039.24,-158.02 1039.24,-158.02 1034.26,-158.39 1039.58,-162.51 1029.27,-158.75 1029.27,-158.75"/>
</g>
<!-- 34 -->
<g id="node35" class="node">
<title>34</title>
<polygon fill="none" stroke="black" points="11757,-108 11473,-108 11473,-72 11757,-72 11757,-108"/>
<text text-anchor="middle" x="11615" y="-86.3" font-family="Times New Roman,serif" font-size="14.00">tfx.dsl.component.experimental.executor_specs</text>
</g>
<!-- 34&#45;&gt;27 -->
<g id="edge70" class="edge">
<title>34&#45;&gt;27</title>
<path fill="none" stroke="black" d="M11472.77,-107.42C11469.82,-107.63 11466.9,-107.82 11464,-108 11338.6,-115.71 7318.6,-153.41 6609.36,-160.01"/>
<polygon fill="black" stroke="black" points="6599.16,-160.11 6609.12,-155.51 6604.16,-160.06 6609.16,-160.01 6609.16,-160.01 6609.16,-160.01 6604.16,-160.06 6609.2,-164.51 6599.16,-160.11 6599.16,-160.11"/>
</g>
<!-- 34&#45;&gt;40 -->
<g id="edge71" class="edge">
<title>34&#45;&gt;40</title>
<path fill="none" stroke="black" d="M11757.36,-107.33C11760.6,-107.57 11763.82,-107.8 11767,-108 12071.25,-127.59 14282.21,-154.46 14751.57,-159.98"/>
<polygon fill="black" stroke="black" points="14761.67,-160.1 14751.62,-164.48 14756.67,-160.04 14751.67,-159.98 14751.67,-159.98 14751.67,-159.98 14756.67,-160.04 14751.73,-155.49 14761.67,-160.1 14761.67,-160.1"/>
</g>
<!-- 34&#45;&gt;91 -->
<g id="edge72" class="edge">
<title>34&#45;&gt;91</title>
<path fill="none" stroke="black" d="M11757.37,-107.29C11760.61,-107.54 11763.82,-107.78 11767,-108 12357.8,-148.95 12507.35,-118.18 13099,-144 13171.23,-147.15 13253.77,-152.31 13310.8,-156.12"/>
<polygon fill="black" stroke="black" points="13320.79,-156.79 13310.51,-160.61 13315.8,-156.46 13310.82,-156.12 13310.82,-156.12 13310.82,-156.12 13315.8,-156.46 13311.12,-151.63 13320.79,-156.79 13320.79,-156.79"/>
</g>
<!-- 35 -->
<g id="node36" class="node">
<title>35</title>
<polygon fill="none" stroke="black" points="6658.5,-108 6347.5,-108 6347.5,-72 6658.5,-72 6658.5,-108"/>
<text text-anchor="middle" x="6503" y="-86.3" font-family="Times New Roman,serif" font-size="14.00">tfx.dsl.component.experimental.executor_specs_test</text>
</g>
<!-- 35&#45;&gt;27 -->
<g id="edge73" class="edge">
<title>35&#45;&gt;27</title>
<path fill="none" stroke="black" d="M6503,-108.3C6503,-116.02 6503,-125.29 6503,-133.89"/>
<polygon fill="black" stroke="black" points="6503,-143.9 6498.5,-133.9 6503,-138.9 6503,-133.9 6503,-133.9 6503,-133.9 6503,-138.9 6507.5,-133.9 6503,-143.9 6503,-143.9"/>
</g>
<!-- 36 -->
<g id="node37" class="node">
<title>36</title>
<polygon fill="none" stroke="black" points="6329,-108 6045,-108 6045,-72 6329,-72 6329,-108"/>
<text text-anchor="middle" x="6187" y="-86.3" font-family="Times New Roman,serif" font-size="14.00">tfx.dsl.component.experimental.function_parser</text>
</g>
<!-- 36&#45;&gt;27 -->
<g id="edge74" class="edge">
<title>36&#45;&gt;27</title>
<path fill="none" stroke="black" d="M6263.9,-108.03C6309.86,-118.22 6368.39,-131.18 6416.04,-141.74"/>
<polygon fill="black" stroke="black" points="6426.03,-143.95 6415.29,-146.18 6421.15,-142.87 6416.27,-141.79 6416.27,-141.79 6416.27,-141.79 6421.15,-142.87 6417.24,-137.39 6426.03,-143.95 6426.03,-143.95"/>
</g>
<!-- 37 -->
<g id="node38" class="node">
<title>37</title>
<polygon fill="none" stroke="black" points="8684.5,-36 8373.5,-36 8373.5,0 8684.5,0 8684.5,-36"/>
<text text-anchor="middle" x="8529" y="-14.3" font-family="Times New Roman,serif" font-size="14.00">tfx.dsl.component.experimental.function_parser_test</text>
</g>
<!-- 37&#45;&gt;28 -->
<g id="edge75" class="edge">
<title>37&#45;&gt;28</title>
<path fill="none" stroke="black" d="M8684.56,-19.96C9556.99,-25.43 13815.74,-52.94 14184.62,-72.04"/>
<polygon fill="black" stroke="black" points="14194.82,-72.63 14184.58,-76.54 14189.83,-72.34 14184.84,-72.05 14184.84,-72.05 14184.84,-72.05 14189.83,-72.34 14185.1,-67.56 14194.82,-72.63 14194.82,-72.63"/>
</g>
<!-- 37&#45;&gt;36 -->
<g id="edge76" class="edge">
<title>37&#45;&gt;36</title>
<path fill="none" stroke="black" d="M8373.13,-20.99C7944.7,-26.73 6754.2,-44.66 6339.48,-71.95"/>
<polygon fill="black" stroke="black" points="6329.23,-72.63 6338.91,-67.48 6334.22,-72.3 6339.21,-71.97 6339.21,-71.97 6339.21,-71.97 6334.22,-72.3 6339.51,-76.46 6329.23,-72.63 6329.23,-72.63"/>
</g>
<!-- 38 -->
<g id="node39" class="node">
<title>38</title>
<polygon fill="none" stroke="black" points="15369,-36 15103,-36 15103,0 15369,0 15369,-36"/>
<text text-anchor="middle" x="15236" y="-14.3" font-family="Times New Roman,serif" font-size="14.00">tfx.dsl.component.experimental.placeholders</text>
</g>
<!-- 39 -->
<g id="node40" class="node">
<title>39</title>
<polygon fill="none" stroke="black" points="15512.5,-36 15387.5,-36 15387.5,0 15512.5,0 15512.5,-36"/>
<text text-anchor="middle" x="15450" y="-14.3" font-family="Times New Roman,serif" font-size="14.00">tfx.dsl.components</text>
</g>
<!-- 41 -->
<g id="node42" class="node">
<title>41</title>
<polygon fill="none" stroke="black" points="18555.5,-108 18264.5,-108 18264.5,-72 18555.5,-72 18555.5,-108"/>
<text text-anchor="middle" x="18410" y="-86.3" font-family="Times New Roman,serif" font-size="14.00">tfx.dsl.components.base.base_beam_component</text>
</g>
<!-- 41&#45;&gt;40 -->
<g id="edge77" class="edge">
<title>41&#45;&gt;40</title>
<path fill="none" stroke="black" d="M18264.12,-107.46C18261.39,-107.65 18258.68,-107.83 18256,-108 17580.02,-150.46 15391.77,-159.34 14926.49,-160.76"/>
<polygon fill="black" stroke="black" points="14916.15,-160.8 14926.13,-156.27 14921.15,-160.78 14926.15,-160.77 14926.15,-160.77 14926.15,-160.77 14921.15,-160.78 14926.16,-165.27 14916.15,-160.8 14916.15,-160.8"/>
</g>
<!-- 42 -->
<g id="node43" class="node">
<title>42</title>
<polygon fill="none" stroke="black" points="18892,-108 18574,-108 18574,-72 18892,-72 18892,-108"/>
<text text-anchor="middle" x="18733" y="-86.3" font-family="Times New Roman,serif" font-size="14.00">tfx.dsl.components.base.base_beam_component_test</text>
</g>
<!-- 42&#45;&gt;40 -->
<g id="edge78" class="edge">
<title>42&#45;&gt;40</title>
<path fill="none" stroke="black" d="M18573.86,-107.46C18570.88,-107.65 18567.93,-107.83 18565,-108 17823.7,-150.7 15415.97,-159.44 14926.36,-160.79"/>
<polygon fill="black" stroke="black" points="14916.18,-160.81 14926.17,-156.29 14921.18,-160.8 14926.18,-160.79 14926.18,-160.79 14926.18,-160.79 14921.18,-160.8 14926.19,-165.29 14916.18,-160.81 14916.18,-160.81"/>
</g>
<!-- 43 -->
<g id="node44" class="node">
<title>43</title>
<polygon fill="none" stroke="black" points="1134,-36 858,-36 858,0 1134,0 1134,-36"/>
<text text-anchor="middle" x="996" y="-14.3" font-family="Times New Roman,serif" font-size="14.00">tfx.dsl.components.base.base_beam_executor</text>
</g>
<!-- 49 -->
<g id="node50" class="node">
<title>49</title>
<polygon fill="none" stroke="black" points="1115.5,-108 876.5,-108 876.5,-72 1115.5,-72 1115.5,-108"/>
<text text-anchor="middle" x="996" y="-86.3" font-family="Times New Roman,serif" font-size="14.00">tfx.dsl.components.base.base_executor</text>
</g>
<!-- 43&#45;&gt;49 -->
<g id="edge79" class="edge">
<title>43&#45;&gt;49</title>
<path fill="none" stroke="black" d="M996,-36.3C996,-44.02 996,-53.29 996,-61.89"/>
<polygon fill="black" stroke="black" points="996,-71.9 991.5,-61.9 996,-66.9 996,-61.9 996,-61.9 996,-61.9 996,-66.9 1000.5,-61.9 996,-71.9 996,-71.9"/>
</g>
<!-- 44 -->
<g id="node45" class="node">
<title>44</title>
<polygon fill="none" stroke="black" points="15208.5,-108 14905.5,-108 14905.5,-72 15208.5,-72 15208.5,-108"/>
<text text-anchor="middle" x="15057" y="-86.3" font-family="Times New Roman,serif" font-size="14.00">tfx.dsl.components.base.base_beam_executor_test</text>
</g>
<!-- 44&#45;&gt;40 -->
<g id="edge80" class="edge">
<title>44&#45;&gt;40</title>
<path fill="none" stroke="black" d="M15003.95,-108.03C14973.23,-117.9 14934.36,-130.38 14902.08,-140.75"/>
<polygon fill="black" stroke="black" points="14892.29,-143.89 14900.43,-136.55 14897.05,-142.36 14901.81,-140.83 14901.81,-140.83 14901.81,-140.83 14897.05,-142.36 14903.18,-145.12 14892.29,-143.89 14892.29,-143.89"/>
</g>
<!-- 45 -->
<g id="node46" class="node">
<title>45</title>
<polygon fill="none" stroke="black" points="15481,-108 15227,-108 15227,-72 15481,-72 15481,-108"/>
<text text-anchor="middle" x="15354" y="-86.3" font-family="Times New Roman,serif" font-size="14.00">tfx.dsl.components.base.base_component</text>
</g>
<!-- 45&#45;&gt;40 -->
<g id="edge81" class="edge">
<title>45&#45;&gt;40</title>
<path fill="none" stroke="black" d="M15228.68,-108.03C15135.07,-120.76 15009.5,-137.83 14926.5,-149.11"/>
<polygon fill="black" stroke="black" points="14916.35,-150.49 14925.65,-144.68 14921.3,-149.81 14926.26,-149.14 14926.26,-149.14 14926.26,-149.14 14921.3,-149.81 14926.86,-153.6 14916.35,-150.49 14916.35,-150.49"/>
</g>
<!-- 46 -->
<g id="node47" class="node">
<title>46</title>
<polygon fill="none" stroke="black" points="15780.5,-108 15499.5,-108 15499.5,-72 15780.5,-72 15780.5,-108"/>
<text text-anchor="middle" x="15640" y="-86.3" font-family="Times New Roman,serif" font-size="14.00">tfx.dsl.components.base.base_component_test</text>
</g>
<!-- 46&#45;&gt;40 -->
<g id="edge82" class="edge">
<title>46&#45;&gt;40</title>
<path fill="none" stroke="black" d="M15499.49,-107.06C15496.3,-107.38 15493.13,-107.7 15490,-108 15288.56,-127.61 15051.57,-145.64 14926.51,-154.76"/>
<polygon fill="black" stroke="black" points="14916.23,-155.51 14925.88,-150.29 14921.22,-155.14 14926.21,-154.78 14926.21,-154.78 14926.21,-154.78 14921.22,-155.14 14926.53,-159.27 14916.23,-155.51 14916.23,-155.51"/>
</g>
<!-- 47 -->
<g id="node48" class="node">
<title>47</title>
<polygon fill="none" stroke="black" points="1356.5,-108 1133.5,-108 1133.5,-72 1356.5,-72 1356.5,-108"/>
<text text-anchor="middle" x="1245" y="-86.3" font-family="Times New Roman,serif" font-size="14.00">tfx.dsl.components.base.base_driver</text>
</g>
<!-- 47&#45;&gt;81 -->
<g id="edge83" class="edge">
<title>47&#45;&gt;81</title>
<path fill="none" stroke="black" d="M1184.41,-108.03C1139.42,-120.68 1079.16,-137.62 1039.03,-148.9"/>
<polygon fill="black" stroke="black" points="1029.28,-151.64 1037.69,-144.61 1034.09,-150.29 1038.91,-148.94 1038.91,-148.94 1038.91,-148.94 1034.09,-150.29 1040.12,-153.27 1029.28,-151.64 1029.28,-151.64"/>
</g>
<!-- 48 -->
<g id="node49" class="node">
<title>48</title>
<polygon fill="none" stroke="black" points="7907,-108 7657,-108 7657,-72 7907,-72 7907,-108"/>
<text text-anchor="middle" x="7782" y="-86.3" font-family="Times New Roman,serif" font-size="14.00">tfx.dsl.components.base.base_driver_test</text>
</g>
<!-- 48&#45;&gt;40 -->
<g id="edge84" class="edge">
<title>48&#45;&gt;40</title>
<path fill="none" stroke="black" d="M7907.13,-107.35C7910.12,-107.59 7913.08,-107.81 7916,-108 8529.55,-148.77 12835.13,-138.24 13450,-144 13942.28,-148.61 14532.66,-156.68 14751.68,-159.76"/>
<polygon fill="black" stroke="black" points="14761.83,-159.9 14751.76,-164.26 14756.83,-159.83 14751.83,-159.76 14751.83,-159.76 14751.83,-159.76 14756.83,-159.83 14751.89,-155.26 14761.83,-159.9 14761.83,-159.9"/>
</g>
<!-- 48&#45;&gt;81 -->
<g id="edge85" class="edge">
<title>48&#45;&gt;81</title>
<path fill="none" stroke="black" d="M7656.87,-107.36C7653.88,-107.59 7650.92,-107.81 7648,-108 6960.82,-153.42 2138.52,-129.11 1450,-144 1299.06,-147.26 1120.03,-155.15 1039.3,-158.92"/>
<polygon fill="black" stroke="black" points="1029.03,-159.4 1038.81,-154.44 1034.02,-159.17 1039.02,-158.94 1039.02,-158.94 1039.02,-158.94 1034.02,-159.17 1039.23,-163.43 1029.03,-159.4 1029.03,-159.4"/>
</g>
<!-- 49&#45;&gt;81 -->
<g id="edge86" class="edge">
<title>49&#45;&gt;81</title>
<path fill="none" stroke="black" d="M996,-108.3C996,-116.02 996,-125.29 996,-133.89"/>
<polygon fill="black" stroke="black" points="996,-143.9 991.5,-133.9 996,-138.9 996,-133.9 996,-133.9 996,-133.9 996,-138.9 1000.5,-133.9 996,-143.9 996,-143.9"/>
</g>
<!-- 50 -->
<g id="node51" class="node">
<title>50</title>
<polygon fill="none" stroke="black" points="16017,-108 15799,-108 15799,-72 16017,-72 16017,-108"/>
<text text-anchor="middle" x="15908" y="-86.3" font-family="Times New Roman,serif" font-size="14.00">tfx.dsl.components.base.base_node</text>
</g>
<!-- 50&#45;&gt;40 -->
<g id="edge87" class="edge">
<title>50&#45;&gt;40</title>
<path fill="none" stroke="black" d="M15798.75,-107.08C15795.8,-107.41 15792.88,-107.71 15790,-108 15472.74,-139.63 15093.91,-153.68 14926.23,-158.69"/>
<polygon fill="black" stroke="black" points="14916.22,-158.98 14926.08,-154.19 14921.22,-158.84 14926.22,-158.69 14926.22,-158.69 14926.22,-158.69 14921.22,-158.84 14926.35,-163.19 14916.22,-158.98 14916.22,-158.98"/>
</g>
<!-- 51 -->
<g id="node52" class="node">
<title>51</title>
<polygon fill="none" stroke="black" points="16274.5,-108 16035.5,-108 16035.5,-72 16274.5,-72 16274.5,-108"/>
<text text-anchor="middle" x="16155" y="-86.3" font-family="Times New Roman,serif" font-size="14.00">tfx.dsl.components.base.executor_spec</text>
</g>
<!-- 51&#45;&gt;40 -->
<g id="edge88" class="edge">
<title>51&#45;&gt;40</title>
<path fill="none" stroke="black" d="M16035.22,-107.14C16032.11,-107.45 16029.04,-107.73 16026,-108 15615.69,-144.13 15123.3,-156.14 14926.5,-159.68"/>
<polygon fill="black" stroke="black" points="14916.23,-159.86 14926.15,-155.18 14921.23,-159.77 14926.23,-159.68 14926.23,-159.68 14926.23,-159.68 14921.23,-159.77 14926.3,-164.18 14916.23,-159.86 14916.23,-159.86"/>
</g>
<!-- 52 -->
<g id="node53" class="node">
<title>52</title>
<polygon fill="none" stroke="black" points="16559,-108 16293,-108 16293,-72 16559,-72 16559,-108"/>
<text text-anchor="middle" x="16426" y="-86.3" font-family="Times New Roman,serif" font-size="14.00">tfx.dsl.components.base.executor_spec_test</text>
</g>
<!-- 52&#45;&gt;40 -->
<g id="edge89" class="edge">
<title>52&#45;&gt;40</title>
<path fill="none" stroke="black" d="M16292.62,-107.29C16289.72,-107.54 16286.85,-107.78 16284,-108 15770.38,-148.1 15151.64,-157.97 14926.38,-160.3"/>
<polygon fill="black" stroke="black" points="14916.28,-160.41 14926.23,-155.81 14921.28,-160.36 14926.28,-160.31 14926.28,-160.31 14926.28,-160.31 14921.28,-160.36 14926.32,-164.8 14916.28,-160.41 14916.28,-160.41"/>
</g>
<!-- 54 -->
<g id="node55" class="node">
<title>54</title>
<polygon fill="none" stroke="black" points="16806.5,-108 16577.5,-108 16577.5,-72 16806.5,-72 16806.5,-108"/>
<text text-anchor="middle" x="16692" y="-86.3" font-family="Times New Roman,serif" font-size="14.00">tfx.dsl.components.common.importer</text>
</g>
<!-- 54&#45;&gt;40 -->
<g id="edge90" class="edge">
<title>54&#45;&gt;40</title>
<path fill="none" stroke="black" d="M16577.2,-107.17C16574.1,-107.47 16571.03,-107.75 16568,-108 15940.38,-160.49 15180.72,-162.55 14926.56,-161.58"/>
<polygon fill="black" stroke="black" points="14916.29,-161.53 14926.3,-157.08 14921.29,-161.56 14926.28,-161.58 14926.28,-161.58 14926.28,-161.58 14921.29,-161.56 14926.27,-166.08 14916.29,-161.53 14916.29,-161.53"/>
</g>
<!-- 55 -->
<g id="node56" class="node">
<title>55</title>
<polygon fill="none" stroke="black" points="7639,-108 7383,-108 7383,-72 7639,-72 7639,-108"/>
<text text-anchor="middle" x="7511" y="-86.3" font-family="Times New Roman,serif" font-size="14.00">tfx.dsl.components.common.importer_test</text>
</g>
<!-- 55&#45;&gt;53 -->
<g id="edge91" class="edge">
<title>55&#45;&gt;53</title>
<path fill="none" stroke="black" d="M7639.32,-107.17C7642.24,-107.46 7645.14,-107.74 7648,-108 7929.28,-133.92 8262.53,-150.08 8425.37,-157.03"/>
<polygon fill="black" stroke="black" points="8435.85,-157.47 8425.67,-161.54 8430.85,-157.26 8425.86,-157.05 8425.86,-157.05 8425.86,-157.05 8430.85,-157.26 8426.05,-152.55 8435.85,-157.47 8435.85,-157.47"/>
</g>
<!-- 56 -->
<g id="node57" class="node">
<title>56</title>
<polygon fill="none" stroke="black" points="17157,-108 16901,-108 16901,-72 17157,-72 17157,-108"/>
<text text-anchor="middle" x="17029" y="-86.3" font-family="Times New Roman,serif" font-size="14.00">tfx.dsl.components.common.manual_node</text>
</g>
<!-- 56&#45;&gt;40 -->
<g id="edge92" class="edge">
<title>56&#45;&gt;40</title>
<path fill="none" stroke="black" d="M16900.95,-106.89C16896.24,-107.29 16891.58,-107.67 16887,-108 16496.85,-136.34 15265.16,-155.11 14926.13,-159.83"/>
<polygon fill="black" stroke="black" points="14916.12,-159.97 14926.06,-155.33 14921.12,-159.9 14926.12,-159.83 14926.12,-159.83 14926.12,-159.83 14921.12,-159.9 14926.18,-164.33 14916.12,-159.97 14916.12,-159.97"/>
</g>
<!-- 57 -->
<g id="node58" class="node">
<title>57</title>
<polygon fill="none" stroke="black" points="8826.5,-108 8543.5,-108 8543.5,-72 8826.5,-72 8826.5,-108"/>
<text text-anchor="middle" x="8685" y="-86.3" font-family="Times New Roman,serif" font-size="14.00">tfx.dsl.components.common.manual_node_test</text>
</g>
<!-- 57&#45;&gt;53 -->
<g id="edge93" class="edge">
<title>57&#45;&gt;53</title>
<path fill="none" stroke="black" d="M8645.86,-108.12C8623.99,-117.69 8596.54,-129.7 8573.34,-139.85"/>
<polygon fill="black" stroke="black" points="8564.01,-143.93 8571.37,-135.8 8568.59,-141.93 8573.17,-139.92 8573.17,-139.92 8573.17,-139.92 8568.59,-141.93 8574.98,-144.05 8564.01,-143.93 8564.01,-143.93"/>
</g>
<!-- 58 -->
<g id="node59" class="node">
<title>58</title>
<polygon fill="none" stroke="black" points="9071,-108 8845,-108 8845,-72 9071,-72 9071,-108"/>
<text text-anchor="middle" x="8958" y="-86.3" font-family="Times New Roman,serif" font-size="14.00">tfx.dsl.components.common.resolver</text>
</g>
<!-- 58&#45;&gt;40 -->
<g id="edge94" class="edge">
<title>58&#45;&gt;40</title>
<path fill="none" stroke="black" d="M9071.27,-107.29C9074.21,-107.55 9077.12,-107.79 9080,-108 9564.27,-143.58 12964.45,-139.03 13450,-144 13942.27,-149.04 14532.66,-156.85 14751.68,-159.81"/>
<polygon fill="black" stroke="black" points="14761.83,-159.95 14751.77,-164.31 14756.83,-159.88 14751.83,-159.81 14751.83,-159.81 14751.83,-159.81 14756.83,-159.88 14751.89,-155.31 14761.83,-159.95 14761.83,-159.95"/>
</g>
<!-- 58&#45;&gt;67 -->
<g id="edge95" class="edge">
<title>58&#45;&gt;67</title>
<path fill="none" stroke="black" d="M8844.79,-107.21C8841.49,-107.5 8838.23,-107.76 8835,-108 8353.37,-143.13 4971.87,-137.77 4489,-144 4160.73,-148.24 3770.01,-155.88 3602.25,-159.28"/>
<polygon fill="black" stroke="black" points="3592.01,-159.49 3601.91,-154.79 3597,-159.39 3602,-159.29 3602,-159.29 3602,-159.29 3597,-159.39 3602.1,-163.79 3592.01,-159.49 3592.01,-159.49"/>
</g>
<!-- 59 -->
<g id="node60" class="node">
<title>59</title>
<polygon fill="none" stroke="black" points="5042.5,-108 4789.5,-108 4789.5,-72 5042.5,-72 5042.5,-108"/>
<text text-anchor="middle" x="4916" y="-86.3" font-family="Times New Roman,serif" font-size="14.00">tfx.dsl.components.common.resolver_test</text>
</g>
<!-- 59&#45;&gt;53 -->
<g id="edge96" class="edge">
<title>59&#45;&gt;53</title>
<path fill="none" stroke="black" d="M5042.79,-107.38C5045.55,-107.6 5048.29,-107.81 5051,-108 5394.79,-132.2 7893.57,-155.43 8425.57,-160.14"/>
<polygon fill="black" stroke="black" points="8435.9,-160.23 8425.86,-164.64 8430.9,-160.18 8425.9,-160.14 8425.9,-160.14 8425.9,-160.14 8430.9,-160.18 8425.94,-155.64 8435.9,-160.23 8435.9,-160.23"/>
</g>
<!-- 59&#45;&gt;67 -->
<g id="edge97" class="edge">
<title>59&#45;&gt;67</title>
<path fill="none" stroke="black" d="M4789.35,-107.18C4786.2,-107.47 4783.08,-107.74 4780,-108 4337.33,-144.91 3804.99,-156.6 3602.59,-159.86"/>
<polygon fill="black" stroke="black" points="3592.33,-160.03 3602.26,-155.37 3597.33,-159.95 3602.33,-159.87 3602.33,-159.87 3602.33,-159.87 3597.33,-159.95 3602.4,-164.37 3592.33,-160.03 3592.33,-160.03"/>
</g>
<!-- 59&#45;&gt;72 -->
<g id="edge98" class="edge">
<title>59&#45;&gt;72</title>
<path fill="none" stroke="black" d="M4838.86,-108.03C4792.75,-118.22 4734.03,-131.18 4686.24,-141.74"/>
<polygon fill="black" stroke="black" points="4676.21,-143.95 4685.01,-137.4 4681.09,-142.87 4685.98,-141.79 4685.98,-141.79 4685.98,-141.79 4681.09,-142.87 4686.95,-146.19 4676.21,-143.95 4676.21,-143.95"/>
</g>
<!-- 62 -->
<g id="node63" class="node">
<title>62</title>
<polygon fill="none" stroke="black" points="14811,-108 14549,-108 14549,-72 14811,-72 14811,-108"/>
<text text-anchor="middle" x="14680" y="-86.3" font-family="Times New Roman,serif" font-size="14.00">tfx.dsl.experimental.conditionals.conditional</text>
</g>
<!-- 62&#45;&gt;40 -->
<g id="edge99" class="edge">
<title>62&#45;&gt;40</title>
<path fill="none" stroke="black" d="M14718.9,-108.12C14740.63,-117.69 14767.9,-129.7 14790.96,-139.85"/>
<polygon fill="black" stroke="black" points="14800.23,-143.93 14789.27,-144.02 14795.65,-141.92 14791.08,-139.9 14791.08,-139.9 14791.08,-139.9 14795.65,-141.92 14792.89,-135.78 14800.23,-143.93 14800.23,-143.93"/>
</g>
<!-- 62&#45;&gt;91 -->
<g id="edge100" class="edge">
<title>62&#45;&gt;91</title>
<path fill="none" stroke="black" d="M14548.84,-106.8C14544.17,-107.23 14539.55,-107.63 14535,-108 14125.17,-141.39 13631.63,-155.29 13451.31,-159.5"/>
<polygon fill="black" stroke="black" points="13441.16,-159.74 13451.06,-155.01 13446.16,-159.62 13451.16,-159.51 13451.16,-159.51 13451.16,-159.51 13446.16,-159.62 13451.26,-164.01 13441.16,-159.74 13441.16,-159.74"/>
</g>
<!-- 63 -->
<g id="node64" class="node">
<title>63</title>
<polygon fill="none" stroke="black" points="13955.5,-108 13666.5,-108 13666.5,-72 13955.5,-72 13955.5,-108"/>
<text text-anchor="middle" x="13811" y="-86.3" font-family="Times New Roman,serif" font-size="14.00">tfx.dsl.experimental.conditionals.conditional_test</text>
</g>
<!-- 63&#45;&gt;40 -->
<g id="edge101" class="edge">
<title>63&#45;&gt;40</title>
<path fill="none" stroke="black" d="M13955.66,-107.18C13958.8,-107.46 13961.92,-107.74 13965,-108 14252.52,-132.57 14594.22,-149.85 14751.64,-157.13"/>
<polygon fill="black" stroke="black" points="14761.74,-157.6 14751.55,-161.63 14756.75,-157.37 14751.75,-157.14 14751.75,-157.14 14751.75,-157.14 14756.75,-157.37 14751.96,-152.64 14761.74,-157.6 14761.74,-157.6"/>
</g>
<!-- 63&#45;&gt;61 -->
<g id="edge102" class="edge">
<title>63&#45;&gt;61</title>
<path fill="none" stroke="black" d="M13666.46,-107.18C13663.62,-107.46 13660.79,-107.73 13658,-108 13461.47,-126.72 13231.93,-143.94 13099.81,-153.41"/>
<polygon fill="black" stroke="black" points="13089.69,-154.13 13099.34,-148.93 13094.67,-153.77 13099.66,-153.42 13099.66,-153.42 13099.66,-153.42 13094.67,-153.77 13099.98,-157.91 13089.69,-154.13 13089.69,-154.13"/>
</g>
<!-- 63&#45;&gt;91 -->
<g id="edge103" class="edge">
<title>63&#45;&gt;91</title>
<path fill="none" stroke="black" d="M13706.36,-108.03C13627.1,-120.94 13520.39,-138.31 13451.15,-149.58"/>
<polygon fill="black" stroke="black" points="13441.22,-151.2 13450.36,-145.15 13446.15,-150.39 13451.09,-149.59 13451.09,-149.59 13451.09,-149.59 13446.15,-150.39 13451.81,-154.03 13441.22,-151.2 13441.22,-151.2"/>
</g>
<!-- 64 -->
<g id="node65" class="node">
<title>64</title>
<polygon fill="none" stroke="black" points="3858.5,-108 3597.5,-108 3597.5,-72 3858.5,-72 3858.5,-108"/>
<text text-anchor="middle" x="3728" y="-86.3" font-family="Times New Roman,serif" font-size="14.00">tfx.dsl.experimental.latest_artifacts_resolver</text>
</g>
<!-- 64&#45;&gt;72 -->
<g id="edge104" class="edge">
<title>64&#45;&gt;72</title>
<path fill="none" stroke="black" d="M3858.57,-107.16C3861.4,-107.45 3864.22,-107.73 3867,-108 4086.82,-129.39 4344.56,-146.11 4488.09,-154.68"/>
<polygon fill="black" stroke="black" points="4498.22,-155.28 4487.97,-159.18 4493.23,-154.99 4488.24,-154.69 4488.24,-154.69 4488.24,-154.69 4493.23,-154.99 4488.51,-150.2 4498.22,-155.28 4498.22,-155.28"/>
</g>
<!-- 65 -->
<g id="node66" class="node">
<title>65</title>
<polygon fill="none" stroke="black" points="4177.5,-108 3876.5,-108 3876.5,-72 4177.5,-72 4177.5,-108"/>
<text text-anchor="middle" x="4027" y="-86.3" font-family="Times New Roman,serif" font-size="14.00">tfx.dsl.experimental.latest_blessed_model_resolver</text>
</g>
<!-- 65&#45;&gt;72 -->
<g id="edge105" class="edge">
<title>65&#45;&gt;72</title>
<path fill="none" stroke="black" d="M4166.2,-108.03C4265.16,-120.15 4396.31,-136.2 4488.2,-147.44"/>
<polygon fill="black" stroke="black" points="4498.37,-148.69 4487.9,-151.94 4493.41,-148.08 4488.44,-147.47 4488.44,-147.47 4488.44,-147.47 4493.41,-148.08 4488.99,-143 4498.37,-148.69 4498.37,-148.69"/>
</g>
<!-- 66 -->
<g id="node67" class="node">
<title>66</title>
<polygon fill="none" stroke="black" points="4408.5,-108 4195.5,-108 4195.5,-72 4408.5,-72 4408.5,-108"/>
<text text-anchor="middle" x="4302" y="-86.3" font-family="Times New Roman,serif" font-size="14.00">tfx.dsl.experimental.spans_resolver</text>
</g>
<!-- 66&#45;&gt;72 -->
<g id="edge106" class="edge">
<title>66&#45;&gt;72</title>
<path fill="none" stroke="black" d="M4374.27,-108.03C4417.3,-118.17 4472.03,-131.07 4516.7,-141.6"/>
<polygon fill="black" stroke="black" points="4526.66,-143.95 4515.89,-146.04 4521.79,-142.8 4516.93,-141.66 4516.93,-141.66 4516.93,-141.66 4521.79,-142.8 4517.96,-137.28 4526.66,-143.95 4526.66,-143.95"/>
</g>
<!-- 68 -->
<g id="node69" class="node">
<title>68</title>
<polygon fill="none" stroke="black" points="2754.5,-108 2507.5,-108 2507.5,-72 2754.5,-72 2754.5,-108"/>
<text text-anchor="middle" x="2631" y="-86.3" font-family="Times New Roman,serif" font-size="14.00">tfx.dsl.input_resolution.resolver_function</text>
</g>
<!-- 68&#45;&gt;67 -->
<g id="edge107" class="edge">
<title>68&#45;&gt;67</title>
<path fill="none" stroke="black" d="M2754.72,-106.56C2759.54,-107.06 2764.31,-107.55 2769,-108 3010.78,-131.42 3297.36,-148.8 3435.85,-156.54"/>
<polygon fill="black" stroke="black" points="3445.97,-157.1 3435.73,-161.04 3440.98,-156.83 3435.98,-156.55 3435.98,-156.55 3435.98,-156.55 3440.98,-156.83 3436.23,-152.06 3445.97,-157.1 3445.97,-157.1"/>
</g>
<!-- 69 -->
<g id="node70" class="node">
<title>69</title>
<polygon fill="none" stroke="black" points="1907,-108 1633,-108 1633,-72 1907,-72 1907,-108"/>
<text text-anchor="middle" x="1770" y="-86.3" font-family="Times New Roman,serif" font-size="14.00">tfx.dsl.input_resolution.resolver_function_test</text>
</g>
<!-- 69&#45;&gt;67 -->
<g id="edge108" class="edge">
<title>69&#45;&gt;67</title>
<path fill="none" stroke="black" d="M1907.13,-107.3C1910.12,-107.55 1913.07,-107.78 1916,-108 2496.4,-151.31 3197.65,-159.23 3435.49,-160.68"/>
<polygon fill="black" stroke="black" points="3445.79,-160.74 3435.76,-165.18 3440.79,-160.71 3435.79,-160.68 3435.79,-160.68 3435.79,-160.68 3440.79,-160.71 3435.81,-156.18 3445.79,-160.74 3445.79,-160.74"/>
</g>
<!-- 70 -->
<g id="node71" class="node">
<title>70</title>
<polygon fill="none" stroke="black" points="15747,-36 15531,-36 15531,0 15747,0 15747,-36"/>
<text text-anchor="middle" x="15639" y="-14.3" font-family="Times New Roman,serif" font-size="14.00">tfx.dsl.input_resolution.resolver_op</text>
</g>
<!-- 71 -->
<g id="node72" class="node">
<title>71</title>
<polygon fill="none" stroke="black" points="2168.5,-108 1925.5,-108 1925.5,-72 2168.5,-72 2168.5,-108"/>
<text text-anchor="middle" x="2047" y="-86.3" font-family="Times New Roman,serif" font-size="14.00">tfx.dsl.input_resolution.resolver_op_test</text>
</g>
<!-- 71&#45;&gt;67 -->
<g id="edge109" class="edge">
<title>71&#45;&gt;67</title>
<path fill="none" stroke="black" d="M2168.64,-107.16C2171.79,-107.46 2174.91,-107.74 2178,-108 2652.84,-148.11 3224.9,-157.96 3435.75,-160.3"/>
<polygon fill="black" stroke="black" points="3445.81,-160.41 3435.76,-164.8 3440.81,-160.35 3435.81,-160.3 3435.81,-160.3 3435.81,-160.3 3440.81,-160.35 3435.86,-155.8 3445.81,-160.41 3445.81,-160.41"/>
</g>
<!-- 73 -->
<g id="node74" class="node">
<title>73</title>
<polygon fill="none" stroke="black" points="10828.5,-108 10511.5,-108 10511.5,-72 10828.5,-72 10828.5,-108"/>
<text text-anchor="middle" x="10670" y="-86.3" font-family="Times New Roman,serif" font-size="14.00">tfx.dsl.input_resolution.strategies.conditional_strategy</text>
</g>
<!-- 73&#45;&gt;1 -->
<g id="edge110" class="edge">
<title>73&#45;&gt;1</title>
<path fill="none" stroke="black" d="M10787.28,-108.01C10856.25,-118.16 10945.14,-131.46 11024,-144 11036.54,-145.99 11049.94,-148.2 11062.75,-150.34"/>
<polygon fill="black" stroke="black" points="11072.87,-152.04 11062.26,-154.82 11067.94,-151.21 11063.01,-150.38 11063.01,-150.38 11063.01,-150.38 11067.94,-151.21 11063.75,-145.95 11072.87,-152.04 11072.87,-152.04"/>
</g>
<!-- 73&#45;&gt;53 -->
<g id="edge111" class="edge">
<title>73&#45;&gt;53</title>
<path fill="none" stroke="black" d="M10511.3,-107.37C10508.17,-107.59 10505.07,-107.8 10502,-108 10130.67,-131.73 8971.02,-153.27 8624.04,-159.32"/>
<polygon fill="black" stroke="black" points="8614.01,-159.49 8623.93,-154.82 8619.01,-159.4 8624.01,-159.32 8624.01,-159.32 8624.01,-159.32 8619.01,-159.4 8624.09,-163.82 8614.01,-159.49 8614.01,-159.49"/>
</g>
<!-- 74 -->
<g id="node75" class="node">
<title>74</title>
<polygon fill="none" stroke="black" points="4771,-108 4427,-108 4427,-72 4771,-72 4771,-108"/>
<text text-anchor="middle" x="4599" y="-86.3" font-family="Times New Roman,serif" font-size="14.00">tfx.dsl.input_resolution.strategies.conditional_strategy_test</text>
</g>
<!-- 74&#45;&gt;72 -->
<g id="edge112" class="edge">
<title>74&#45;&gt;72</title>
<path fill="none" stroke="black" d="M4599,-108.3C4599,-116.02 4599,-125.29 4599,-133.89"/>
<polygon fill="black" stroke="black" points="4599,-143.9 4594.5,-133.9 4599,-138.9 4599,-133.9 4599,-133.9 4599,-133.9 4599,-138.9 4603.5,-133.9 4599,-143.9 4599,-143.9"/>
</g>
<!-- 75 -->
<g id="node76" class="node">
<title>75</title>
<polygon fill="none" stroke="black" points="9419,-108 9089,-108 9089,-72 9419,-72 9419,-108"/>
<text text-anchor="middle" x="9254" y="-86.3" font-family="Times New Roman,serif" font-size="14.00">tfx.dsl.input_resolution.strategies.latest_artifact_strategy</text>
</g>
<!-- 75&#45;&gt;53 -->
<g id="edge113" class="edge">
<title>75&#45;&gt;53</title>
<path fill="none" stroke="black" d="M9088.68,-107.16C9085.77,-107.44 9082.87,-107.72 9080,-108 8920.71,-123.39 8735.67,-141.01 8624.59,-151.56"/>
<polygon fill="black" stroke="black" points="8614.4,-152.52 8623.93,-147.1 8619.38,-152.05 8624.36,-151.58 8624.36,-151.58 8624.36,-151.58 8619.38,-152.05 8624.78,-156.06 8614.4,-152.52 8614.4,-152.52"/>
</g>
<!-- 76 -->
<g id="node77" class="node">
<title>76</title>
<polygon fill="none" stroke="black" points="5417.5,-108 5060.5,-108 5060.5,-72 5417.5,-72 5417.5,-108"/>
<text text-anchor="middle" x="5239" y="-86.3" font-family="Times New Roman,serif" font-size="14.00">tfx.dsl.input_resolution.strategies.latest_artifact_strategy_test</text>
</g>
<!-- 76&#45;&gt;72 -->
<g id="edge114" class="edge">
<title>76&#45;&gt;72</title>
<path fill="none" stroke="black" d="M5083.26,-108.03C4967.78,-120.67 4813.14,-137.58 4710,-148.86"/>
<polygon fill="black" stroke="black" points="4699.87,-149.97 4709.32,-144.41 4704.84,-149.42 4709.81,-148.88 4709.81,-148.88 4709.81,-148.88 4704.84,-149.42 4710.3,-153.35 4699.87,-149.97 4699.87,-149.97"/>
</g>
<!-- 77 -->
<g id="node78" class="node">
<title>77</title>
<polygon fill="none" stroke="black" points="7365,-108 6989,-108 6989,-72 7365,-72 7365,-108"/>
<text text-anchor="middle" x="7177" y="-86.3" font-family="Times New Roman,serif" font-size="14.00">tfx.dsl.input_resolution.strategies.latest_blessed_model_strategy</text>
</g>
<!-- 77&#45;&gt;53 -->
<g id="edge115" class="edge">
<title>77&#45;&gt;53</title>
<path fill="none" stroke="black" d="M7365.2,-107.41C7368.15,-107.61 7371.09,-107.81 7374,-108 7762.7,-133.71 8226.08,-150.97 8425.59,-157.76"/>
<polygon fill="black" stroke="black" points="8435.75,-158.11 8425.61,-162.27 8430.76,-157.94 8425.76,-157.77 8425.76,-157.77 8425.76,-157.77 8430.76,-157.94 8425.91,-153.27 8435.75,-158.11 8435.75,-158.11"/>
</g>
<!-- 78 -->
<g id="node79" class="node">
<title>78</title>
<polygon fill="none" stroke="black" points="3214.5,-108 2811.5,-108 2811.5,-72 3214.5,-72 3214.5,-108"/>
<text text-anchor="middle" x="3013" y="-86.3" font-family="Times New Roman,serif" font-size="14.00">tfx.dsl.input_resolution.strategies.latest_blessed_model_strategy_test</text>
</g>
<!-- 78&#45;&gt;72 -->
<g id="edge116" class="edge">
<title>78&#45;&gt;72</title>
<path fill="none" stroke="black" d="M3214.73,-107.49C3217.5,-107.67 3220.26,-107.84 3223,-108 3693,-136.06 4254.23,-152.32 4488.15,-158.32"/>
<polygon fill="black" stroke="black" points="4498.37,-158.58 4488.25,-162.82 4493.37,-158.45 4488.37,-158.33 4488.37,-158.33 4488.37,-158.33 4493.37,-158.45 4488.48,-153.83 4498.37,-158.58 4498.37,-158.58"/>
</g>
<!-- 79 -->
<g id="node80" class="node">
<title>79</title>
<polygon fill="none" stroke="black" points="8525,-108 8205,-108 8205,-72 8525,-72 8525,-108"/>
<text text-anchor="middle" x="8365" y="-86.3" font-family="Times New Roman,serif" font-size="14.00">tfx.dsl.input_resolution.strategies.span_range_strategy</text>
</g>
<!-- 79&#45;&gt;53 -->
<g id="edge117" class="edge">
<title>79&#45;&gt;53</title>
<path fill="none" stroke="black" d="M8404.14,-108.12C8426.01,-117.69 8453.46,-129.7 8476.66,-139.85"/>
<polygon fill="black" stroke="black" points="8485.99,-143.93 8475.02,-144.05 8481.41,-141.93 8476.83,-139.92 8476.83,-139.92 8476.83,-139.92 8481.41,-141.93 8478.63,-135.8 8485.99,-143.93 8485.99,-143.93"/>
</g>
<!-- 80 -->
<g id="node81" class="node">
<title>80</title>
<polygon fill="none" stroke="black" points="3579.5,-108 3232.5,-108 3232.5,-72 3579.5,-72 3579.5,-108"/>
<text text-anchor="middle" x="3406" y="-86.3" font-family="Times New Roman,serif" font-size="14.00">tfx.dsl.input_resolution.strategies.span_range_strategy_test</text>
</g>
<!-- 80&#45;&gt;72 -->
<g id="edge118" class="edge">
<title>80&#45;&gt;72</title>
<path fill="none" stroke="black" d="M3579.87,-107.4C3582.6,-107.6 3585.31,-107.8 3588,-108 3915.05,-131.84 4302.36,-149.08 4488.4,-156.68"/>
<polygon fill="black" stroke="black" points="4498.47,-157.09 4488.29,-161.18 4493.47,-156.89 4488.48,-156.68 4488.48,-156.68 4488.48,-156.68 4493.47,-156.89 4488.66,-152.19 4498.47,-157.09 4498.47,-157.09"/>
</g>
<!-- 82 -->
<g id="node83" class="node">
<title>82</title>
<polygon fill="none" stroke="black" points="286.5,-108 189.5,-108 189.5,-72 286.5,-72 286.5,-108"/>
<text text-anchor="middle" x="238" y="-86.3" font-family="Times New Roman,serif" font-size="14.00">tfx.dsl.io.fileio</text>
</g>
<!-- 82&#45;&gt;81 -->
<g id="edge119" class="edge">
<title>82&#45;&gt;81</title>
<path fill="none" stroke="black" d="M286.65,-106.26C289.46,-106.9 292.26,-107.49 295,-108 540.91,-153.42 842.23,-160.09 952.74,-160.94"/>
<polygon fill="black" stroke="black" points="962.83,-161 952.8,-165.44 957.83,-160.97 952.83,-160.94 952.83,-160.94 952.83,-160.94 957.83,-160.97 952.86,-156.44 962.83,-161 962.83,-161"/>
</g>
<!-- 83 -->
<g id="node84" class="node">
<title>83</title>
<polygon fill="none" stroke="black" points="384.5,-180 259.5,-180 259.5,-144 384.5,-144 384.5,-180"/>
<text text-anchor="middle" x="322" y="-158.3" font-family="Times New Roman,serif" font-size="14.00">tfx.dsl.io.filesystem</text>
</g>
<!-- 82&#45;&gt;83 -->
<g id="edge120" class="edge">
<title>82&#45;&gt;83</title>
<path fill="none" stroke="black" d="M258.76,-108.3C269.24,-117.03 282.11,-127.76 293.5,-137.25"/>
<polygon fill="black" stroke="black" points="301.47,-143.9 290.91,-140.95 297.63,-140.69 293.79,-137.49 293.79,-137.49 293.79,-137.49 297.63,-140.69 296.67,-134.04 301.47,-143.9 301.47,-143.9"/>
</g>
<!-- 84 -->
<g id="node85" class="node">
<title>84</title>
<polygon fill="none" stroke="black" points="858,-108 684,-108 684,-72 858,-72 858,-108"/>
<text text-anchor="middle" x="771" y="-86.3" font-family="Times New Roman,serif" font-size="14.00">tfx.dsl.io.filesystem_registry</text>
</g>
<!-- 84&#45;&gt;81 -->
<g id="edge121" class="edge">
<title>84&#45;&gt;81</title>
<path fill="none" stroke="black" d="M825.75,-108.03C864.87,-120.2 916.77,-136.35 952.94,-147.6"/>
<polygon fill="black" stroke="black" points="962.7,-150.64 951.82,-151.97 957.93,-149.16 953.15,-147.67 953.15,-147.67 953.15,-147.67 957.93,-149.16 954.49,-143.37 962.7,-150.64 962.7,-150.64"/>
</g>
<!-- 84&#45;&gt;83 -->
<g id="edge122" class="edge">
<title>84&#45;&gt;83</title>
<path fill="none" stroke="black" d="M683.9,-106.53C680.9,-107.03 677.92,-107.52 675,-108 578.24,-123.83 466.24,-140.34 394.81,-150.64"/>
<polygon fill="black" stroke="black" points="384.57,-152.11 393.82,-146.23 389.52,-151.4 394.47,-150.69 394.47,-150.69 394.47,-150.69 389.52,-151.4 395.11,-155.14 384.57,-152.11 384.57,-152.11"/>
</g>
<!-- 85 -->
<g id="node86" class="node">
<title>85</title>
<polygon fill="none" stroke="black" points="1614.5,-108 1413.5,-108 1413.5,-72 1614.5,-72 1614.5,-108"/>
<text text-anchor="middle" x="1514" y="-86.3" font-family="Times New Roman,serif" font-size="14.00">tfx.dsl.io.filesystem_registry_test</text>
</g>
<!-- 85&#45;&gt;81 -->
<g id="edge123" class="edge">
<title>85&#45;&gt;81</title>
<path fill="none" stroke="black" d="M1413.35,-105.97C1408.5,-106.67 1403.7,-107.34 1399,-108 1268.27,-126.26 1113.43,-146.13 1039.5,-155.51"/>
<polygon fill="black" stroke="black" points="1029.2,-156.82 1038.55,-151.09 1034.16,-156.19 1039.12,-155.56 1039.12,-155.56 1039.12,-155.56 1034.16,-156.19 1039.68,-160.02 1029.2,-156.82 1029.2,-156.82"/>
</g>
<!-- 86 -->
<g id="node87" class="node">
<title>86</title>
<polygon fill="none" stroke="black" points="1569,-180 1459,-180 1459,-144 1569,-144 1569,-180"/>
<text text-anchor="middle" x="1514" y="-158.3" font-family="Times New Roman,serif" font-size="14.00">tfx.dsl.io.plugins</text>
</g>
<!-- 85&#45;&gt;86 -->
<g id="edge124" class="edge">
<title>85&#45;&gt;86</title>
<path fill="none" stroke="black" d="M1514,-108.3C1514,-116.02 1514,-125.29 1514,-133.89"/>
<polygon fill="black" stroke="black" points="1514,-143.9 1509.5,-133.9 1514,-138.9 1514,-133.9 1514,-133.9 1514,-133.9 1514,-138.9 1518.5,-133.9 1514,-143.9 1514,-143.9"/>
</g>
<!-- 87 -->
<g id="node88" class="node">
<title>87</title>
<polygon fill="none" stroke="black" points="666,-108 526,-108 526,-72 666,-72 666,-108"/>
<text text-anchor="middle" x="596" y="-86.3" font-family="Times New Roman,serif" font-size="14.00">tfx.dsl.io.plugins.local</text>
</g>
<!-- 87&#45;&gt;81 -->
<g id="edge125" class="edge">
<title>87&#45;&gt;81</title>
<path fill="none" stroke="black" d="M666.18,-106.29C669.15,-106.88 672.11,-107.45 675,-108 773.88,-126.79 890.63,-145.1 952.47,-154.5"/>
<polygon fill="black" stroke="black" points="962.63,-156.03 952.07,-158.99 957.69,-155.29 952.75,-154.54 952.75,-154.54 952.75,-154.54 957.69,-155.29 953.42,-150.09 962.63,-156.03 962.63,-156.03"/>
</g>
<!-- 87&#45;&gt;83 -->
<g id="edge126" class="edge">
<title>87&#45;&gt;83</title>
<path fill="none" stroke="black" d="M529.32,-108.03C488.55,-118.45 436.39,-131.78 394.58,-142.46"/>
<polygon fill="black" stroke="black" points="384.74,-144.97 393.31,-138.14 389.58,-143.73 394.43,-142.5 394.43,-142.5 394.43,-142.5 389.58,-143.73 395.54,-146.86 384.74,-144.97 384.74,-144.97"/>
</g>
<!-- 88 -->
<g id="node89" class="node">
<title>88</title>
<polygon fill="none" stroke="black" points="551.5,-36 384.5,-36 384.5,0 551.5,0 551.5,-36"/>
<text text-anchor="middle" x="468" y="-14.3" font-family="Times New Roman,serif" font-size="14.00">tfx.dsl.io.plugins.local_test</text>
</g>
<!-- 88&#45;&gt;83 -->
<g id="edge127" class="edge">
<title>88&#45;&gt;83</title>
<path fill="none" stroke="black" d="M384.24,-28.93C303.97,-39.31 193.12,-56.25 180,-72 169.76,-84.29 170.88,-94.86 180,-108 195.9,-130.91 222.97,-143.93 249.23,-151.33"/>
<polygon fill="black" stroke="black" points="259.23,-153.9 248.43,-155.77 254.39,-152.65 249.55,-151.41 249.55,-151.41 249.55,-151.41 254.39,-152.65 250.67,-147.05 259.23,-153.9 259.23,-153.9"/>
</g>
<!-- 88&#45;&gt;87 -->
<g id="edge128" class="edge">
<title>88&#45;&gt;87</title>
<path fill="none" stroke="black" d="M499.31,-36.12C516.2,-45.36 537.25,-56.87 555.38,-66.79"/>
<polygon fill="black" stroke="black" points="564.57,-71.81 553.63,-70.96 560.18,-69.41 555.79,-67.01 555.79,-67.01 555.79,-67.01 560.18,-69.41 557.95,-63.06 564.57,-71.81 564.57,-71.81"/>
</g>
<!-- 89 -->
<g id="node90" class="node">
<title>89</title>
<polygon fill="none" stroke="black" points="507.5,-108 304.5,-108 304.5,-72 507.5,-72 507.5,-108"/>
<text text-anchor="middle" x="406" y="-86.3" font-family="Times New Roman,serif" font-size="14.00">tfx.dsl.io.plugins.tensorflow_gfile</text>
</g>
<!-- 89&#45;&gt;81 -->
<g id="edge129" class="edge">
<title>89&#45;&gt;81</title>
<path fill="none" stroke="black" d="M507.6,-106.73C510.77,-107.17 513.91,-107.59 517,-108 677.29,-129.13 868.51,-148.56 952.64,-156.82"/>
<polygon fill="black" stroke="black" points="962.84,-157.81 952.45,-161.32 957.86,-157.33 952.89,-156.84 952.89,-156.84 952.89,-156.84 957.86,-157.33 953.33,-152.36 962.84,-157.81 962.84,-157.81"/>
</g>
<!-- 89&#45;&gt;83 -->
<g id="edge130" class="edge">
<title>89&#45;&gt;83</title>
<path fill="none" stroke="black" d="M385.24,-108.3C374.76,-117.03 361.89,-127.76 350.5,-137.25"/>
<polygon fill="black" stroke="black" points="342.53,-143.9 347.33,-134.04 346.37,-140.69 350.21,-137.49 350.21,-137.49 350.21,-137.49 346.37,-140.69 353.09,-140.95 342.53,-143.9 342.53,-143.9"/>
</g>
<!-- 90 -->
<g id="node91" class="node">
<title>90</title>
<polygon fill="none" stroke="black" points="302,-36 72,-36 72,0 302,0 302,-36"/>
<text text-anchor="middle" x="187" y="-14.3" font-family="Times New Roman,serif" font-size="14.00">tfx.dsl.io.plugins.tensorflow_gfile_test</text>
</g>
<!-- 90&#45;&gt;83 -->
<g id="edge131" class="edge">
<title>90&#45;&gt;83</title>
<path fill="none" stroke="black" d="M169.12,-36.23C151.78,-55.07 130.34,-85.55 147,-108 170.43,-139.57 212.15,-153 248.98,-158.45"/>
<polygon fill="black" stroke="black" points="259.22,-159.79 248.72,-162.96 254.26,-159.14 249.3,-158.49 249.3,-158.49 249.3,-158.49 254.26,-159.14 249.88,-154.03 259.22,-159.79 259.22,-159.79"/>
</g>
<!-- 90&#45;&gt;89 -->
<g id="edge132" class="edge">
<title>90&#45;&gt;89</title>
<path fill="none" stroke="black" d="M240.29,-36.03C271.16,-45.9 310.2,-58.38 342.63,-68.75"/>
<polygon fill="black" stroke="black" points="352.47,-71.89 341.57,-73.13 347.7,-70.37 342.94,-68.84 342.94,-68.84 342.94,-68.84 347.7,-70.37 344.31,-64.56 352.47,-71.89 352.47,-71.89"/>
</g>
<!-- 92 -->
<g id="node93" class="node">
<title>92</title>
<polygon fill="none" stroke="black" points="15953,-36 15765,-36 15765,0 15953,0 15953,-36"/>
<text text-anchor="middle" x="15859" y="-14.3" font-family="Times New Roman,serif" font-size="14.00">tfx.dsl.placeholder.placeholder</text>
</g>
<!-- 93 -->
<g id="node94" class="node">
<title>93</title>
<polygon fill="none" stroke="black" points="13357.5,-108 13142.5,-108 13142.5,-72 13357.5,-72 13357.5,-108"/>
<text text-anchor="middle" x="13250" y="-86.3" font-family="Times New Roman,serif" font-size="14.00">tfx.dsl.placeholder.placeholder_test</text>
</g>
<!-- 93&#45;&gt;91 -->
<g id="edge133" class="edge">
<title>93&#45;&gt;91</title>
<path fill="none" stroke="black" d="M13282.05,-108.12C13299.49,-117.45 13321.27,-129.08 13339.94,-139.06"/>
<polygon fill="black" stroke="black" points="13348.83,-143.81 13337.89,-143.07 13344.42,-141.45 13340.01,-139.1 13340.01,-139.1 13340.01,-139.1 13344.42,-141.45 13342.13,-135.13 13348.83,-143.81 13348.83,-143.81"/>
</g>
<!-- 94 -->
<g id="node95" class="node">
<title>94</title>
<polygon fill="none" stroke="black" points="16077,-36 15971,-36 15971,0 16077,0 16077,-36"/>
<text text-anchor="middle" x="16024" y="-14.3" font-family="Times New Roman,serif" font-size="14.00">tfx.dsl.resolvers</text>
</g>
</g>
</svg>
