<?xml version="1.0" encoding="UTF-8" standalone="no"?>
<!DOCTYPE svg PUBLIC "-//W3C//DTD SVG 1.1//EN"
 "http://www.w3.org/Graphics/SVG/1.1/DTD/svg11.dtd">
<!-- Generated by graphviz version 5.0.0 (20220707.1540)
 -->
<!-- Title: packages Pages: 1 -->
<svg width="6883pt" height="116pt"
 viewBox="0.00 0.00 6883.00 116.00" xmlns="http://www.w3.org/2000/svg" xmlns:xlink="http://www.w3.org/1999/xlink">
<g id="graph0" class="graph" transform="scale(1 1) rotate(0) translate(4 112)">
<title>packages</title>
<polygon fill="white" stroke="transparent" points="-4,4 -4,-112 6879,-112 6879,4 -4,4"/>
<!-- 0 -->
<g id="node1" class="node">
<title>0</title>
<polygon fill="none" stroke="black" points="1911,-108 1853,-108 1853,-72 1911,-72 1911,-108"/>
<text text-anchor="middle" x="1882" y="-86.3" font-family="Times New Roman,serif" font-size="14.00">tfx.utils</text>
</g>
<!-- 1 -->
<g id="node2" class="node">
<title>1</title>
<polygon fill="none" stroke="black" points="4058,-36 3946,-36 3946,0 4058,0 4058,-36"/>
<text text-anchor="middle" x="4002" y="-14.3" font-family="Times New Roman,serif" font-size="14.00">tfx.utils.abc_utils</text>
</g>
<!-- 2 -->
<g id="node3" class="node">
<title>2</title>
<polygon fill="none" stroke="black" points="2672,-36 2568,-36 2568,0 2672,0 2672,-36"/>
<text text-anchor="middle" x="2620" y="-14.3" font-family="Times New Roman,serif" font-size="14.00">tfx.utils.channel</text>
</g>
<!-- 2&#45;&gt;0 -->
<g id="edge1" class="edge">
<title>2&#45;&gt;0</title>
<path fill="none" stroke="black" d="M2567.73,-34.08C2564.45,-34.79 2561.19,-35.44 2558,-36 2318.63,-77.81 2025.79,-86.65 1921.32,-88.51"/>
<polygon fill="black" stroke="black" points="1911.24,-88.68 1921.16,-84.01 1916.24,-88.6 1921.24,-88.51 1921.24,-88.51 1921.24,-88.51 1916.24,-88.6 1921.31,-93.01 1911.24,-88.68 1911.24,-88.68"/>
</g>
<!-- 3 -->
<g id="node4" class="node">
<title>3</title>
<polygon fill="none" stroke="black" points="2821.5,-36 2690.5,-36 2690.5,0 2821.5,0 2821.5,-36"/>
<text text-anchor="middle" x="2756" y="-14.3" font-family="Times New Roman,serif" font-size="14.00">tfx.utils.channel_test</text>
</g>
<!-- 3&#45;&gt;0 -->
<g id="edge2" class="edge">
<title>3&#45;&gt;0</title>
<path fill="none" stroke="black" d="M2690.26,-34.51C2687.14,-35.06 2684.04,-35.56 2681,-36 2391.51,-78.14 2038.07,-86.81 1921.42,-88.57"/>
<polygon fill="black" stroke="black" points="1911.2,-88.71 1921.13,-84.07 1916.2,-88.64 1921.19,-88.57 1921.19,-88.57 1921.19,-88.57 1916.2,-88.64 1921.26,-93.07 1911.2,-88.71 1911.2,-88.71"/>
</g>
<!-- 4 -->
<g id="node5" class="node">
<title>4</title>
<polygon fill="none" stroke="black" points="2998.5,-36 2839.5,-36 2839.5,0 2998.5,0 2998.5,-36"/>
<text text-anchor="middle" x="2919" y="-14.3" font-family="Times New Roman,serif" font-size="14.00">tfx.utils.dependency_utils</text>
</g>
<!-- 4&#45;&gt;0 -->
<g id="edge3" class="edge">
<title>4&#45;&gt;0</title>
<path fill="none" stroke="black" d="M2839.03,-34.8C2835.98,-35.23 2832.97,-35.64 2830,-36 2479.5,-79.08 2051.75,-87.17 1921.49,-88.67"/>
<polygon fill="black" stroke="black" points="1911.22,-88.78 1921.17,-84.17 1916.22,-88.72 1921.22,-88.67 1921.22,-88.67 1921.22,-88.67 1916.22,-88.72 1921.27,-93.17 1911.22,-88.78 1911.22,-88.78"/>
</g>
<!-- 5 -->
<g id="node6" class="node">
<title>5</title>
<polygon fill="none" stroke="black" points="3203,-36 3017,-36 3017,0 3203,0 3203,-36"/>
<text text-anchor="middle" x="3110" y="-14.3" font-family="Times New Roman,serif" font-size="14.00">tfx.utils.dependency_utils_test</text>
</g>
<!-- 5&#45;&gt;0 -->
<g id="edge4" class="edge">
<title>5&#45;&gt;0</title>
<path fill="none" stroke="black" d="M3016.87,-34.87C3013.54,-35.28 3010.24,-35.66 3007,-36 2583.5,-80.77 2066.31,-87.72 1921.38,-88.8"/>
<polygon fill="black" stroke="black" points="1911.21,-88.87 1921.18,-84.3 1916.21,-88.84 1921.21,-88.8 1921.21,-88.8 1921.21,-88.8 1916.21,-88.84 1921.24,-93.3 1911.21,-88.87 1911.21,-88.87"/>
</g>
<!-- 6 -->
<g id="node7" class="node">
<title>6</title>
<polygon fill="none" stroke="black" points="4233.5,-36 4076.5,-36 4076.5,0 4233.5,0 4233.5,-36"/>
<text text-anchor="middle" x="4155" y="-14.3" font-family="Times New Roman,serif" font-size="14.00">tfx.utils.deprecation_utils</text>
</g>
<!-- 7 -->
<g id="node8" class="node">
<title>7</title>
<polygon fill="none" stroke="black" points="3405,-36 3221,-36 3221,0 3405,0 3405,-36"/>
<text text-anchor="middle" x="3313" y="-14.3" font-family="Times New Roman,serif" font-size="14.00">tfx.utils.deprecation_utils_test</text>
</g>
<!-- 7&#45;&gt;0 -->
<g id="edge5" class="edge">
<title>7&#45;&gt;0</title>
<path fill="none" stroke="black" d="M3220.87,-35C3217.88,-35.36 3214.92,-35.7 3212,-36 2704.2,-88.64 2082.34,-89.9 1921.46,-89.25"/>
<polygon fill="black" stroke="black" points="1911.11,-89.21 1921.13,-84.75 1916.11,-89.23 1921.11,-89.25 1921.11,-89.25 1921.11,-89.25 1916.11,-89.23 1921.09,-93.75 1911.11,-89.21 1911.11,-89.21"/>
</g>
<!-- 8 -->
<g id="node9" class="node">
<title>8</title>
<polygon fill="none" stroke="black" points="4388.5,-36 4251.5,-36 4251.5,0 4388.5,0 4388.5,-36"/>
<text text-anchor="middle" x="4320" y="-14.3" font-family="Times New Roman,serif" font-size="14.00">tfx.utils.doc_controls</text>
</g>
<!-- 9 -->
<g id="node10" class="node">
<title>9</title>
<polygon fill="none" stroke="black" points="3587,-36 3423,-36 3423,0 3587,0 3587,-36"/>
<text text-anchor="middle" x="3505" y="-14.3" font-family="Times New Roman,serif" font-size="14.00">tfx.utils.doc_controls_test</text>
</g>
<!-- 9&#45;&gt;0 -->
<g id="edge6" class="edge">
<title>9&#45;&gt;0</title>
<path fill="none" stroke="black" d="M3422.74,-34.94C3419.8,-35.33 3416.88,-35.68 3414,-36 3112.06,-69.24 2130.42,-85.34 1921.37,-88.44"/>
<polygon fill="black" stroke="black" points="1911.18,-88.59 1921.11,-83.94 1916.18,-88.52 1921.18,-88.44 1921.18,-88.44 1921.18,-88.44 1916.18,-88.52 1921.24,-92.94 1911.18,-88.59 1911.18,-88.59"/>
</g>
<!-- 10 -->
<g id="node11" class="node">
<title>10</title>
<polygon fill="none" stroke="black" points="4537.5,-36 4406.5,-36 4406.5,0 4537.5,0 4537.5,-36"/>
<text text-anchor="middle" x="4472" y="-14.3" font-family="Times New Roman,serif" font-size="14.00">tfx.utils.docker_utils</text>
</g>
<!-- 11 -->
<g id="node12" class="node">
<title>11</title>
<polygon fill="none" stroke="black" points="158,-36 0,-36 0,0 158,0 158,-36"/>
<text text-anchor="middle" x="79" y="-14.3" font-family="Times New Roman,serif" font-size="14.00">tfx.utils.docker_utils_test</text>
</g>
<!-- 11&#45;&gt;0 -->
<g id="edge7" class="edge">
<title>11&#45;&gt;0</title>
<path fill="none" stroke="black" d="M158.06,-34.89C161.07,-35.3 164.06,-35.67 167,-36 507.26,-73.88 1619.14,-86.46 1842.65,-88.64"/>
<polygon fill="black" stroke="black" points="1852.91,-88.74 1842.87,-93.14 1847.91,-88.69 1842.91,-88.64 1842.91,-88.64 1842.91,-88.64 1847.91,-88.69 1842.96,-84.14 1852.91,-88.74 1852.91,-88.74"/>
</g>
<!-- 12 -->
<g id="node13" class="node">
<title>12</title>
<polygon fill="none" stroke="black" points="304,-36 176,-36 176,0 304,0 304,-36"/>
<text text-anchor="middle" x="240" y="-14.3" font-family="Times New Roman,serif" font-size="14.00">tfx.utils.import_utils</text>
</g>
<!-- 12&#45;&gt;0 -->
<g id="edge8" class="edge">
<title>12&#45;&gt;0</title>
<path fill="none" stroke="black" d="M304.36,-34.71C307.27,-35.19 310.16,-35.63 313,-36 621.9,-76.79 1630.58,-87 1842.65,-88.71"/>
<polygon fill="black" stroke="black" points="1852.7,-88.79 1842.67,-93.21 1847.7,-88.75 1842.7,-88.71 1842.7,-88.71 1842.7,-88.71 1847.7,-88.75 1842.74,-84.21 1852.7,-88.79 1852.7,-88.79"/>
</g>
<!-- 13 -->
<g id="node14" class="node">
<title>13</title>
<polygon fill="none" stroke="black" points="3760.5,-36 3605.5,-36 3605.5,0 3760.5,0 3760.5,-36"/>
<text text-anchor="middle" x="3683" y="-14.3" font-family="Times New Roman,serif" font-size="14.00">tfx.utils.import_utils_test</text>
</g>
<!-- 13&#45;&gt;0 -->
<g id="edge9" class="edge">
<title>13&#45;&gt;0</title>
<path fill="none" stroke="black" d="M3605.31,-34.83C3602.17,-35.26 3599.06,-35.66 3596,-36 3255.98,-74.22 2144.72,-86.53 1921.33,-88.65"/>
<polygon fill="black" stroke="black" points="1911.07,-88.75 1921.03,-84.15 1916.07,-88.7 1921.07,-88.65 1921.07,-88.65 1921.07,-88.65 1916.07,-88.7 1921.11,-93.15 1911.07,-88.75 1911.07,-88.75"/>
</g>
<!-- 38 -->
<g id="node39" class="node">
<title>38</title>
<polygon fill="none" stroke="black" points="3820,-108 3716,-108 3716,-72 3820,-72 3820,-108"/>
<text text-anchor="middle" x="3768" y="-86.3" font-family="Times New Roman,serif" font-size="14.00">tfx.utils.testdata</text>
</g>
<!-- 13&#45;&gt;38 -->
<g id="edge10" class="edge">
<title>13&#45;&gt;38</title>
<path fill="none" stroke="black" d="M3704.01,-36.3C3714.72,-45.12 3727.89,-55.97 3739.5,-65.53"/>
<polygon fill="black" stroke="black" points="3747.23,-71.9 3736.65,-69.01 3743.37,-68.72 3739.51,-65.54 3739.51,-65.54 3739.51,-65.54 3743.37,-68.72 3742.37,-62.06 3747.23,-71.9 3747.23,-71.9"/>
</g>
<!-- 14 -->
<g id="node15" class="node">
<title>14</title>
<polygon fill="none" stroke="black" points="4658,-36 4556,-36 4556,0 4658,0 4658,-36"/>
<text text-anchor="middle" x="4607" y="-14.3" font-family="Times New Roman,serif" font-size="14.00">tfx.utils.io_utils</text>
</g>
<!-- 15 -->
<g id="node16" class="node">
<title>15</title>
<polygon fill="none" stroke="black" points="451.5,-36 322.5,-36 322.5,0 451.5,0 451.5,-36"/>
<text text-anchor="middle" x="387" y="-14.3" font-family="Times New Roman,serif" font-size="14.00">tfx.utils.io_utils_test</text>
</g>
<!-- 15&#45;&gt;0 -->
<g id="edge11" class="edge">
<title>15&#45;&gt;0</title>
<path fill="none" stroke="black" d="M451.76,-34.76C454.54,-35.22 457.29,-35.64 460,-36 738.3,-73.24 1643.49,-86.13 1842.9,-88.56"/>
<polygon fill="black" stroke="black" points="1852.92,-88.68 1842.87,-93.06 1847.92,-88.62 1842.92,-88.56 1842.92,-88.56 1842.92,-88.56 1847.92,-88.62 1842.98,-84.06 1852.92,-88.68 1852.92,-88.68"/>
</g>
<!-- 16 -->
<g id="node17" class="node">
<title>16</title>
<polygon fill="none" stroke="black" points="584.5,-36 469.5,-36 469.5,0 584.5,0 584.5,-36"/>
<text text-anchor="middle" x="527" y="-14.3" font-family="Times New Roman,serif" font-size="14.00">tfx.utils.json_utils</text>
</g>
<!-- 16&#45;&gt;0 -->
<g id="edge12" class="edge">
<title>16&#45;&gt;0</title>
<path fill="none" stroke="black" d="M584.59,-34.42C587.76,-35.02 590.91,-35.55 594,-36 843.96,-72.45 1654.62,-85.83 1842.75,-88.48"/>
<polygon fill="black" stroke="black" points="1852.99,-88.62 1842.93,-92.98 1848,-88.55 1843,-88.48 1843,-88.48 1843,-88.48 1848,-88.55 1843.06,-83.99 1852.99,-88.62 1852.99,-88.62"/>
</g>
<!-- 17 -->
<g id="node18" class="node">
<title>17</title>
<polygon fill="none" stroke="black" points="745,-36 603,-36 603,0 745,0 745,-36"/>
<text text-anchor="middle" x="674" y="-14.3" font-family="Times New Roman,serif" font-size="14.00">tfx.utils.json_utils_test</text>
</g>
<!-- 17&#45;&gt;0 -->
<g id="edge13" class="edge">
<title>17&#45;&gt;0</title>
<path fill="none" stroke="black" d="M745.43,-34.78C748.32,-35.23 751.18,-35.64 754,-36 1177.49,-90.58 1696.86,-90.65 1842.43,-89.46"/>
<polygon fill="black" stroke="black" points="1852.65,-89.37 1842.69,-93.96 1847.65,-89.41 1842.65,-89.46 1842.65,-89.46 1842.65,-89.46 1847.65,-89.41 1842.61,-84.96 1852.65,-89.37 1852.65,-89.37"/>
</g>
<!-- 18 -->
<g id="node19" class="node">
<title>18</title>
<polygon fill="none" stroke="black" points="4795.5,-36 4676.5,-36 4676.5,0 4795.5,0 4795.5,-36"/>
<text text-anchor="middle" x="4736" y="-14.3" font-family="Times New Roman,serif" font-size="14.00">tfx.utils.kube_utils</text>
</g>
<!-- 19 -->
<g id="node20" class="node">
<title>19</title>
<polygon fill="none" stroke="black" points="4946,-36 4814,-36 4814,0 4946,0 4946,-36"/>
<text text-anchor="middle" x="4880" y="-14.3" font-family="Times New Roman,serif" font-size="14.00">tfx.utils.logging_utils</text>
</g>
<!-- 20 -->
<g id="node21" class="node">
<title>20</title>
<polygon fill="none" stroke="black" points="922.5,-36 763.5,-36 763.5,0 922.5,0 922.5,-36"/>
<text text-anchor="middle" x="843" y="-14.3" font-family="Times New Roman,serif" font-size="14.00">tfx.utils.logging_utils_test</text>
</g>
<!-- 20&#45;&gt;0 -->
<g id="edge14" class="edge">
<title>20&#45;&gt;0</title>
<path fill="none" stroke="black" d="M922.97,-34.8C926.02,-35.23 929.03,-35.64 932,-36 1283.24,-79.15 1711.89,-87.2 1842.43,-88.67"/>
<polygon fill="black" stroke="black" points="1852.72,-88.78 1842.67,-93.18 1847.72,-88.73 1842.72,-88.68 1842.72,-88.68 1842.72,-88.68 1847.72,-88.73 1842.77,-84.18 1852.72,-88.78 1852.72,-88.78"/>
</g>
<!-- 21 -->
<g id="node22" class="node">
<title>21</title>
<polygon fill="none" stroke="black" points="5161,-108 5027,-108 5027,-72 5161,-72 5161,-108"/>
<text text-anchor="middle" x="5094" y="-86.3" font-family="Times New Roman,serif" font-size="14.00">tfx.utils.model_paths</text>
</g>
<!-- 22 -->
<g id="node23" class="node">
<title>22</title>
<polygon fill="none" stroke="black" points="5475.5,-36 5242.5,-36 5242.5,0 5475.5,0 5475.5,-36"/>
<text text-anchor="middle" x="5359" y="-14.3" font-family="Times New Roman,serif" font-size="14.00">tfx.utils.model_paths.tf_serving_flavor</text>
</g>
<!-- 23 -->
<g id="node24" class="node">
<title>23</title>
<polygon fill="none" stroke="black" points="5224,-36 4964,-36 4964,0 5224,0 5224,-36"/>
<text text-anchor="middle" x="5094" y="-14.3" font-family="Times New Roman,serif" font-size="14.00">tfx.utils.model_paths.tf_serving_flavor_test</text>
</g>
<!-- 23&#45;&gt;21 -->
<g id="edge15" class="edge">
<title>23&#45;&gt;21</title>
<path fill="none" stroke="black" d="M5094,-36.3C5094,-44.02 5094,-53.29 5094,-61.89"/>
<polygon fill="black" stroke="black" points="5094,-71.9 5089.5,-61.9 5094,-66.9 5094,-61.9 5094,-61.9 5094,-61.9 5094,-66.9 5098.5,-61.9 5094,-71.9 5094,-71.9"/>
</g>
<!-- 24 -->
<g id="node25" class="node">
<title>24</title>
<polygon fill="none" stroke="black" points="5614.5,-36 5493.5,-36 5493.5,0 5614.5,0 5614.5,-36"/>
<text text-anchor="middle" x="5554" y="-14.3" font-family="Times New Roman,serif" font-size="14.00">tfx.utils.name_utils</text>
</g>
<!-- 25 -->
<g id="node26" class="node">
<title>25</title>
<polygon fill="none" stroke="black" points="1089,-36 941,-36 941,0 1089,0 1089,-36"/>
<text text-anchor="middle" x="1015" y="-14.3" font-family="Times New Roman,serif" font-size="14.00">tfx.utils.name_utils_test</text>
</g>
<!-- 25&#45;&gt;0 -->
<g id="edge16" class="edge">
<title>25&#45;&gt;0</title>
<path fill="none" stroke="black" d="M1089.13,-34.7C1092.12,-35.17 1095.08,-35.6 1098,-36 1381.81,-74.48 1727.41,-85.49 1842.57,-88.21"/>
<polygon fill="black" stroke="black" points="1852.67,-88.44 1842.57,-92.71 1847.67,-88.32 1842.67,-88.21 1842.67,-88.21 1842.67,-88.21 1847.67,-88.32 1842.77,-83.71 1852.67,-88.44 1852.67,-88.44"/>
</g>
<!-- 26 -->
<g id="node27" class="node">
<title>26</title>
<polygon fill="none" stroke="black" points="5779,-36 5633,-36 5633,0 5779,0 5779,-36"/>
<text text-anchor="middle" x="5706" y="-14.3" font-family="Times New Roman,serif" font-size="14.00">tfx.utils.path_constants</text>
</g>
<!-- 27 -->
<g id="node28" class="node">
<title>27</title>
<polygon fill="none" stroke="black" points="1223,-36 1107,-36 1107,0 1223,0 1223,-36"/>
<text text-anchor="middle" x="1165" y="-14.3" font-family="Times New Roman,serif" font-size="14.00">tfx.utils.path_utils</text>
</g>
<!-- 27&#45;&gt;0 -->
<g id="edge17" class="edge">
<title>27&#45;&gt;0</title>
<path fill="none" stroke="black" d="M1223.34,-34.41C1226.26,-34.99 1229.16,-35.53 1232,-36 1461.49,-74.19 1741.34,-85.22 1842.86,-88.08"/>
<polygon fill="black" stroke="black" points="1852.96,-88.36 1842.84,-92.59 1847.96,-88.22 1842.96,-88.09 1842.96,-88.09 1842.96,-88.09 1847.96,-88.22 1843.08,-83.59 1852.96,-88.36 1852.96,-88.36"/>
</g>
<!-- 28 -->
<g id="node29" class="node">
<title>28</title>
<polygon fill="none" stroke="black" points="1384.5,-36 1241.5,-36 1241.5,0 1384.5,0 1384.5,-36"/>
<text text-anchor="middle" x="1313" y="-14.3" font-family="Times New Roman,serif" font-size="14.00">tfx.utils.path_utils_test</text>
</g>
<!-- 28&#45;&gt;0 -->
<g id="edge18" class="edge">
<title>28&#45;&gt;0</title>
<path fill="none" stroke="black" d="M1384.92,-34.48C1387.98,-35.02 1391.02,-35.53 1394,-36 1560.07,-62.38 1760.04,-79.58 1843,-86.08"/>
<polygon fill="black" stroke="black" points="1852.99,-86.85 1842.67,-90.57 1848.01,-86.47 1843.02,-86.08 1843.02,-86.08 1843.02,-86.08 1848.01,-86.47 1843.37,-81.59 1852.99,-86.85 1852.99,-86.85"/>
</g>
<!-- 29 -->
<g id="node30" class="node">
<title>29</title>
<polygon fill="none" stroke="black" points="5919,-36 5797,-36 5797,0 5919,0 5919,-36"/>
<text text-anchor="middle" x="5858" y="-14.3" font-family="Times New Roman,serif" font-size="14.00">tfx.utils.proto_utils</text>
</g>
<!-- 30 -->
<g id="node31" class="node">
<title>30</title>
<polygon fill="none" stroke="black" points="3927.5,-36 3778.5,-36 3778.5,0 3927.5,0 3927.5,-36"/>
<text text-anchor="middle" x="3853" y="-14.3" font-family="Times New Roman,serif" font-size="14.00">tfx.utils.proto_utils_test</text>
</g>
<!-- 30&#45;&gt;0 -->
<g id="edge19" class="edge">
<title>30&#45;&gt;0</title>
<path fill="none" stroke="black" d="M3778.45,-34.78C3775.26,-35.23 3772.1,-35.64 3769,-36 3392.8,-79.03 2158.32,-87.56 1921.49,-88.81"/>
<polygon fill="black" stroke="black" points="1911.28,-88.87 1921.26,-84.32 1916.28,-88.84 1921.28,-88.82 1921.28,-88.82 1921.28,-88.82 1916.28,-88.84 1921.3,-93.32 1911.28,-88.87 1911.28,-88.87"/>
</g>
<!-- 30&#45;&gt;38 -->
<g id="edge20" class="edge">
<title>30&#45;&gt;38</title>
<path fill="none" stroke="black" d="M3831.99,-36.3C3821.28,-45.12 3808.11,-55.97 3796.5,-65.53"/>
<polygon fill="black" stroke="black" points="3788.77,-71.9 3793.63,-62.06 3792.63,-68.72 3796.49,-65.54 3796.49,-65.54 3796.49,-65.54 3792.63,-68.72 3799.35,-69.01 3788.77,-71.9 3788.77,-71.9"/>
</g>
<!-- 31 -->
<g id="node32" class="node">
<title>31</title>
<polygon fill="none" stroke="black" points="6024.5,-36 5937.5,-36 5937.5,0 6024.5,0 6024.5,-36"/>
<text text-anchor="middle" x="5981" y="-14.3" font-family="Times New Roman,serif" font-size="14.00">tfx.utils.retry</text>
</g>
<!-- 32 -->
<g id="node33" class="node">
<title>32</title>
<polygon fill="none" stroke="black" points="1517,-36 1403,-36 1403,0 1517,0 1517,-36"/>
<text text-anchor="middle" x="1460" y="-14.3" font-family="Times New Roman,serif" font-size="14.00">tfx.utils.retry_test</text>
</g>
<!-- 32&#45;&gt;0 -->
<g id="edge21" class="edge">
<title>32&#45;&gt;0</title>
<path fill="none" stroke="black" d="M1517.15,-34.11C1520.14,-34.78 1523.1,-35.41 1526,-36 1640.23,-59.15 1776.99,-76.7 1842.81,-84.52"/>
<polygon fill="black" stroke="black" points="1852.75,-85.69 1842.29,-88.99 1847.78,-85.11 1842.82,-84.52 1842.82,-84.52 1842.82,-84.52 1847.78,-85.11 1843.34,-80.05 1852.75,-85.69 1852.75,-85.69"/>
</g>
<!-- 33 -->
<g id="node34" class="node">
<title>33</title>
<polygon fill="none" stroke="black" points="6137,-36 6043,-36 6043,0 6137,0 6137,-36"/>
<text text-anchor="middle" x="6090" y="-14.3" font-family="Times New Roman,serif" font-size="14.00">tfx.utils.status</text>
</g>
<!-- 34 -->
<g id="node35" class="node">
<title>34</title>
<polygon fill="none" stroke="black" points="6297,-36 6155,-36 6155,0 6297,0 6297,-36"/>
<text text-anchor="middle" x="6226" y="-14.3" font-family="Times New Roman,serif" font-size="14.00">tfx.utils.telemetry_utils</text>
</g>
<!-- 35 -->
<g id="node36" class="node">
<title>35</title>
<polygon fill="none" stroke="black" points="1704.5,-36 1535.5,-36 1535.5,0 1704.5,0 1704.5,-36"/>
<text text-anchor="middle" x="1620" y="-14.3" font-family="Times New Roman,serif" font-size="14.00">tfx.utils.telemetry_utils_test</text>
</g>
<!-- 35&#45;&gt;0 -->
<g id="edge22" class="edge">
<title>35&#45;&gt;0</title>
<path fill="none" stroke="black" d="M1683.76,-36.03C1733.43,-49.31 1800.81,-67.31 1842.83,-78.53"/>
<polygon fill="black" stroke="black" points="1852.68,-81.17 1841.86,-82.93 1847.85,-79.88 1843.02,-78.58 1843.02,-78.58 1843.02,-78.58 1847.85,-79.88 1844.18,-74.24 1852.68,-81.17 1852.68,-81.17"/>
</g>
<!-- 36 -->
<g id="node37" class="node">
<title>36</title>
<polygon fill="none" stroke="black" points="1865.5,-36 1722.5,-36 1722.5,0 1865.5,0 1865.5,-36"/>
<text text-anchor="middle" x="1794" y="-14.3" font-family="Times New Roman,serif" font-size="14.00">tfx.utils.test_case_utils</text>
</g>
<!-- 36&#45;&gt;0 -->
<g id="edge23" class="edge">
<title>36&#45;&gt;0</title>
<path fill="none" stroke="black" d="M1815.75,-36.3C1826.84,-45.12 1840.47,-55.97 1852.49,-65.53"/>
<polygon fill="black" stroke="black" points="1860.5,-71.9 1849.87,-69.19 1856.58,-68.78 1852.67,-65.67 1852.67,-65.67 1852.67,-65.67 1856.58,-68.78 1855.47,-62.15 1860.5,-71.9 1860.5,-71.9"/>
</g>
<!-- 37 -->
<g id="node38" class="node">
<title>37</title>
<polygon fill="none" stroke="black" points="2054,-36 1884,-36 1884,0 2054,0 2054,-36"/>
<text text-anchor="middle" x="1969" y="-14.3" font-family="Times New Roman,serif" font-size="14.00">tfx.utils.test_case_utils_test</text>
</g>
<!-- 37&#45;&gt;0 -->
<g id="edge24" class="edge">
<title>37&#45;&gt;0</title>
<path fill="none" stroke="black" d="M1947.49,-36.3C1936.54,-45.12 1923.05,-55.97 1911.18,-65.53"/>
<polygon fill="black" stroke="black" points="1903.26,-71.9 1908.23,-62.12 1907.15,-68.76 1911.05,-65.63 1911.05,-65.63 1911.05,-65.63 1907.15,-68.76 1913.87,-69.13 1903.26,-71.9 1903.26,-71.9"/>
</g>
<!-- 39 -->
<g id="node40" class="node">
<title>39</title>
<polygon fill="none" stroke="black" points="6461,-36 6315,-36 6315,0 6461,0 6461,-36"/>
<text text-anchor="middle" x="6388" y="-14.3" font-family="Times New Roman,serif" font-size="14.00">tfx.utils.testdata.test_fn</text>
</g>
<!-- 40 -->
<g id="node41" class="node">
<title>40</title>
<polygon fill="none" stroke="black" points="6581,-36 6479,-36 6479,0 6581,0 6581,-36"/>
<text text-anchor="middle" x="6530" y="-14.3" font-family="Times New Roman,serif" font-size="14.00">tfx.utils.topsort</text>
</g>
<!-- 41 -->
<g id="node42" class="node">
<title>41</title>
<polygon fill="none" stroke="black" points="2201.5,-36 2072.5,-36 2072.5,0 2201.5,0 2201.5,-36"/>
<text text-anchor="middle" x="2137" y="-14.3" font-family="Times New Roman,serif" font-size="14.00">tfx.utils.topsort_test</text>
</g>
<!-- 41&#45;&gt;0 -->
<g id="edge25" class="edge">
<title>41&#45;&gt;0</title>
<path fill="none" stroke="black" d="M2074.95,-36.03C2026.97,-49.2 1962.04,-67.03 1921.08,-78.27"/>
<polygon fill="black" stroke="black" points="1911.21,-80.98 1919.66,-73.99 1916.03,-79.66 1920.85,-78.33 1920.85,-78.33 1920.85,-78.33 1916.03,-79.66 1922.04,-82.67 1911.21,-80.98 1911.21,-80.98"/>
</g>
<!-- 42 -->
<g id="node43" class="node">
<title>42</title>
<polygon fill="none" stroke="black" points="6725,-36 6599,-36 6599,0 6725,0 6725,-36"/>
<text text-anchor="middle" x="6662" y="-14.3" font-family="Times New Roman,serif" font-size="14.00">tfx.utils.typing_utils</text>
</g>
<!-- 43 -->
<g id="node44" class="node">
<title>43</title>
<polygon fill="none" stroke="black" points="2372.5,-36 2219.5,-36 2219.5,0 2372.5,0 2372.5,-36"/>
<text text-anchor="middle" x="2296" y="-14.3" font-family="Times New Roman,serif" font-size="14.00">tfx.utils.typing_utils_test</text>
</g>
<!-- 43&#45;&gt;0 -->
<g id="edge26" class="edge">
<title>43&#45;&gt;0</title>
<path fill="none" stroke="black" d="M2219.13,-34.33C2216.05,-34.9 2213,-35.46 2210,-36 2105.88,-54.7 1982.61,-73.8 1921.06,-83.14"/>
<polygon fill="black" stroke="black" points="1911.02,-84.66 1920.23,-78.71 1915.96,-83.91 1920.9,-83.16 1920.9,-83.16 1920.9,-83.16 1915.96,-83.91 1921.58,-87.61 1911.02,-84.66 1911.02,-84.66"/>
</g>
<!-- 44 -->
<g id="node45" class="node">
<title>44</title>
<polygon fill="none" stroke="black" points="6875,-36 6743,-36 6743,0 6875,0 6875,-36"/>
<text text-anchor="middle" x="6809" y="-14.3" font-family="Times New Roman,serif" font-size="14.00">tfx.utils.version_utils</text>
</g>
<!-- 45 -->
<g id="node46" class="node">
<title>45</title>
<polygon fill="none" stroke="black" points="2549.5,-36 2390.5,-36 2390.5,0 2549.5,0 2549.5,-36"/>
<text text-anchor="middle" x="2470" y="-14.3" font-family="Times New Roman,serif" font-size="14.00">tfx.utils.version_utils_test</text>
</g>
<!-- 45&#45;&gt;0 -->
<g id="edge27" class="edge">
<title>45&#45;&gt;0</title>
<path fill="none" stroke="black" d="M2390.48,-34.53C2387.28,-35.05 2384.11,-35.54 2381,-36 2210.55,-61.29 2005.61,-79.14 1921.23,-85.95"/>
<polygon fill="black" stroke="black" points="1911.07,-86.76 1920.68,-81.48 1916.06,-86.36 1921.04,-85.96 1921.04,-85.96 1921.04,-85.96 1916.06,-86.36 1921.4,-90.45 1911.07,-86.76 1911.07,-86.76"/>
</g>
</g>
</svg>
