<?xml version="1.0" encoding="UTF-8" standalone="no"?>
<!DOCTYPE svg PUBLIC "-//W3C//DTD SVG 1.1//EN"
 "http://www.w3.org/Graphics/SVG/1.1/DTD/svg11.dtd">
<!-- Generated by graphviz version 5.0.0 (20220707.1540)
 -->
<!-- Title: packages Pages: 1 -->
<svg width="10150pt" height="260pt"
 viewBox="0.00 0.00 10149.50 260.00" xmlns="http://www.w3.org/2000/svg" xmlns:xlink="http://www.w3.org/1999/xlink">
<g id="graph0" class="graph" transform="scale(1 1) rotate(0) translate(4 256)">
<title>packages</title>
<polygon fill="white" stroke="transparent" points="-4,4 -4,-256 10145.5,-256 10145.5,4 -4,4"/>
<!-- 0 -->
<g id="node1" class="node">
<title>0</title>
<polygon fill="none" stroke="black" points="63,-36 0,-36 0,0 63,0 63,-36"/>
<text text-anchor="middle" x="31.5" y="-14.3" font-family="Times New Roman,serif" font-size="14.00">tfx.tools</text>
</g>
<!-- 1 -->
<g id="node2" class="node">
<title>1</title>
<polygon fill="none" stroke="black" points="211.5,-36 81.5,-36 81.5,0 211.5,0 211.5,-36"/>
<text text-anchor="middle" x="146.5" y="-14.3" font-family="Times New Roman,serif" font-size="14.00">tfx.tools.build_docs</text>
</g>
<!-- 2 -->
<g id="node3" class="node">
<title>2</title>
<polygon fill="none" stroke="black" points="2695.5,-252 2615.5,-252 2615.5,-216 2695.5,-216 2695.5,-252"/>
<text text-anchor="middle" x="2655.5" y="-230.3" font-family="Times New Roman,serif" font-size="14.00">tfx.tools.cli</text>
</g>
<!-- 3 -->
<g id="node4" class="node">
<title>3</title>
<polygon fill="none" stroke="black" points="1081,-252 936,-252 936,-216 1081,-216 1081,-252"/>
<text text-anchor="middle" x="1008.5" y="-230.3" font-family="Times New Roman,serif" font-size="14.00">tfx.tools.cli.cli_context</text>
</g>
<!-- 4 -->
<g id="node5" class="node">
<title>4</title>
<polygon fill="none" stroke="black" points="973.5,-108 843.5,-108 843.5,-72 973.5,-72 973.5,-108"/>
<text text-anchor="middle" x="908.5" y="-86.3" font-family="Times New Roman,serif" font-size="14.00">tfx.tools.cli.cli_main</text>
</g>
<!-- 7 -->
<g id="node8" class="node">
<title>7</title>
<polygon fill="none" stroke="black" points="1770,-180 1579,-180 1579,-144 1770,-144 1770,-180"/>
<text text-anchor="middle" x="1674.5" y="-158.3" font-family="Times New Roman,serif" font-size="14.00">tfx.tools.cli.commands.pipeline</text>
</g>
<!-- 4&#45;&gt;7 -->
<g id="edge1" class="edge">
<title>4&#45;&gt;7</title>
<path fill="none" stroke="black" d="M973.68,-95.55C1113.13,-105.4 1437.64,-128.92 1568.76,-143.99"/>
<polygon fill="black" stroke="black" points="1578.98,-145.2 1568.52,-148.5 1574.01,-144.61 1569.05,-144.03 1569.05,-144.03 1569.05,-144.03 1574.01,-144.61 1569.57,-139.56 1578.98,-145.2 1578.98,-145.2"/>
</g>
<!-- 9 -->
<g id="node10" class="node">
<title>9</title>
<polygon fill="none" stroke="black" points="893,-180 726,-180 726,-144 893,-144 893,-180"/>
<text text-anchor="middle" x="809.5" y="-158.3" font-family="Times New Roman,serif" font-size="14.00">tfx.tools.cli.commands.run</text>
</g>
<!-- 4&#45;&gt;9 -->
<g id="edge2" class="edge">
<title>4&#45;&gt;9</title>
<path fill="none" stroke="black" d="M884.28,-108.12C871.58,-117.11 855.84,-128.24 842.08,-137.97"/>
<polygon fill="black" stroke="black" points="833.81,-143.81 839.38,-134.36 837.89,-140.92 841.98,-138.04 841.98,-138.04 841.98,-138.04 837.89,-140.92 844.57,-141.71 833.81,-143.81 833.81,-143.81"/>
</g>
<!-- 11 -->
<g id="node12" class="node">
<title>11</title>
<polygon fill="none" stroke="black" points="1106,-180 911,-180 911,-144 1106,-144 1106,-180"/>
<text text-anchor="middle" x="1008.5" y="-158.3" font-family="Times New Roman,serif" font-size="14.00">tfx.tools.cli.commands.template</text>
</g>
<!-- 4&#45;&gt;11 -->
<g id="edge3" class="edge">
<title>4&#45;&gt;11</title>
<path fill="none" stroke="black" d="M932.96,-108.12C945.8,-117.11 961.7,-128.24 975.59,-137.97"/>
<polygon fill="black" stroke="black" points="983.94,-143.81 973.17,-141.76 979.85,-140.94 975.75,-138.08 975.75,-138.08 975.75,-138.08 979.85,-140.94 978.33,-134.39 983.94,-143.81 983.94,-143.81"/>
</g>
<!-- 5 -->
<g id="node6" class="node">
<title>5</title>
<polygon fill="none" stroke="black" points="1086,-36 929,-36 929,0 1086,0 1086,-36"/>
<text text-anchor="middle" x="1007.5" y="-14.3" font-family="Times New Roman,serif" font-size="14.00">tfx.tools.cli.cli_main_test</text>
</g>
<!-- 5&#45;&gt;4 -->
<g id="edge4" class="edge">
<title>5&#45;&gt;4</title>
<path fill="none" stroke="black" d="M983.28,-36.12C970.58,-45.11 954.84,-56.24 941.08,-65.97"/>
<polygon fill="black" stroke="black" points="932.81,-71.81 938.38,-62.36 936.89,-68.92 940.98,-66.04 940.98,-66.04 940.98,-66.04 936.89,-68.92 943.57,-69.71 932.81,-71.81 932.81,-71.81"/>
</g>
<!-- 6 -->
<g id="node7" class="node">
<title>6</title>
<polygon fill="none" stroke="black" points="1997,-36 1852,-36 1852,0 1997,0 1997,-36"/>
<text text-anchor="middle" x="1924.5" y="-14.3" font-family="Times New Roman,serif" font-size="14.00">tfx.tools.cli.commands</text>
</g>
<!-- 7&#45;&gt;2 -->
<g id="edge5" class="edge">
<title>7&#45;&gt;2</title>
<path fill="none" stroke="black" d="M1770.12,-178.32C1774.98,-178.93 1779.79,-179.49 1784.5,-180 2095.41,-213.41 2471.19,-227.4 2605.11,-231.57"/>
<polygon fill="black" stroke="black" points="2615.45,-231.88 2605.32,-236.07 2610.46,-231.73 2605.46,-231.58 2605.46,-231.58 2605.46,-231.58 2610.46,-231.73 2605.6,-227.08 2615.45,-231.88 2615.45,-231.88"/>
</g>
<!-- 7&#45;&gt;3 -->
<g id="edge6" class="edge">
<title>7&#45;&gt;3</title>
<path fill="none" stroke="black" d="M1578.97,-178.74C1575.78,-179.18 1572.61,-179.6 1569.5,-180 1400.12,-201.69 1200.91,-218.44 1091.29,-226.91"/>
<polygon fill="black" stroke="black" points="1081.29,-227.67 1090.92,-222.42 1086.28,-227.29 1091.26,-226.91 1091.26,-226.91 1091.26,-226.91 1086.28,-227.29 1091.61,-231.39 1081.29,-227.67 1081.29,-227.67"/>
</g>
<!-- 26 -->
<g id="node27" class="node">
<title>26</title>
<polygon fill="none" stroke="black" points="5098.5,-252 4974.5,-252 4974.5,-216 5098.5,-216 5098.5,-252"/>
<text text-anchor="middle" x="5036.5" y="-230.3" font-family="Times New Roman,serif" font-size="14.00">tfx.tools.cli.handler</text>
</g>
<!-- 7&#45;&gt;26 -->
<g id="edge7" class="edge">
<title>7&#45;&gt;26</title>
<path fill="none" stroke="black" d="M1770.14,-175.73C1785.94,-177.45 1802.16,-178.96 1817.5,-180 2459.19,-223.31 4548.58,-231.58 4964.22,-232.81"/>
<polygon fill="black" stroke="black" points="4974.3,-232.84 4964.29,-237.31 4969.3,-232.83 4964.3,-232.81 4964.3,-232.81 4964.3,-232.81 4969.3,-232.83 4964.31,-228.31 4974.3,-232.84 4974.3,-232.84"/>
</g>
<!-- 8 -->
<g id="node9" class="node">
<title>8</title>
<polygon fill="none" stroke="black" points="1952.5,-108 1734.5,-108 1734.5,-72 1952.5,-72 1952.5,-108"/>
<text text-anchor="middle" x="1843.5" y="-86.3" font-family="Times New Roman,serif" font-size="14.00">tfx.tools.cli.commands.pipeline_test</text>
</g>
<!-- 8&#45;&gt;7 -->
<g id="edge8" class="edge">
<title>8&#45;&gt;7</title>
<path fill="none" stroke="black" d="M1802.16,-108.12C1778.95,-117.74 1749.81,-129.81 1725.23,-139.99"/>
<polygon fill="black" stroke="black" points="1715.71,-143.93 1723.22,-135.95 1720.33,-142.02 1724.95,-140.1 1724.95,-140.1 1724.95,-140.1 1720.33,-142.02 1726.67,-144.26 1715.71,-143.93 1715.71,-143.93"/>
</g>
<!-- 8&#45;&gt;26 -->
<g id="edge9" class="edge">
<title>8&#45;&gt;26</title>
<path fill="none" stroke="black" d="M1952.54,-90.91C2764.17,-90.36 7834.12,-89.15 7888.5,-144 7899.76,-155.36 7899.71,-168.58 7888.5,-180 7838.31,-231.13 5546.86,-233.13 5108.54,-233.04"/>
<polygon fill="black" stroke="black" points="5098.54,-233.04 5108.54,-228.54 5103.54,-233.04 5108.54,-233.04 5108.54,-233.04 5108.54,-233.04 5103.54,-233.04 5108.54,-237.54 5098.54,-233.04 5098.54,-233.04"/>
</g>
<!-- 9&#45;&gt;2 -->
<g id="edge10" class="edge">
<title>9&#45;&gt;2</title>
<path fill="none" stroke="black" d="M893.16,-179.02C895.97,-179.38 898.75,-179.71 901.5,-180 1244.75,-216.68 2354.79,-229.95 2605.06,-232.52"/>
<polygon fill="black" stroke="black" points="2615.31,-232.62 2605.26,-237.02 2610.31,-232.57 2605.31,-232.52 2605.31,-232.52 2605.31,-232.52 2610.31,-232.57 2605.35,-228.02 2615.31,-232.62 2615.31,-232.62"/>
</g>
<!-- 9&#45;&gt;3 -->
<g id="edge11" class="edge">
<title>9&#45;&gt;3</title>
<path fill="none" stroke="black" d="M857.93,-180.03C885.73,-189.81 920.84,-202.16 950.15,-212.48"/>
<polygon fill="black" stroke="black" points="959.86,-215.89 948.93,-216.82 955.14,-214.23 950.42,-212.57 950.42,-212.57 950.42,-212.57 955.14,-214.23 951.92,-208.33 959.86,-215.89 959.86,-215.89"/>
</g>
<!-- 9&#45;&gt;26 -->
<g id="edge12" class="edge">
<title>9&#45;&gt;26</title>
<path fill="none" stroke="black" d="M893.15,-179.08C895.96,-179.42 898.75,-179.73 901.5,-180 1111.67,-200.61 4429.2,-228.11 4963.98,-232.42"/>
<polygon fill="black" stroke="black" points="4974.26,-232.5 4964.22,-236.92 4969.26,-232.46 4964.26,-232.42 4964.26,-232.42 4964.26,-232.42 4969.26,-232.46 4964.29,-227.92 4974.26,-232.5 4974.26,-232.5"/>
</g>
<!-- 10 -->
<g id="node11" class="node">
<title>10</title>
<polygon fill="none" stroke="black" points="1476.5,-108 1282.5,-108 1282.5,-72 1476.5,-72 1476.5,-108"/>
<text text-anchor="middle" x="1379.5" y="-86.3" font-family="Times New Roman,serif" font-size="14.00">tfx.tools.cli.commands.run_test</text>
</g>
<!-- 10&#45;&gt;9 -->
<g id="edge13" class="edge">
<title>10&#45;&gt;9</title>
<path fill="none" stroke="black" d="M1282.49,-106.81C1279.46,-107.22 1276.46,-107.62 1273.5,-108 1111.97,-128.75 1067.71,-121.2 903.17,-143.83"/>
<polygon fill="black" stroke="black" points="893.19,-145.22 902.47,-139.38 898.14,-144.53 903.09,-143.84 903.09,-143.84 903.09,-143.84 898.14,-144.53 903.71,-148.3 893.19,-145.22 893.19,-145.22"/>
</g>
<!-- 10&#45;&gt;26 -->
<g id="edge14" class="edge">
<title>10&#45;&gt;26</title>
<path fill="none" stroke="black" d="M1476.76,-107.18C1479.7,-107.48 1482.62,-107.76 1485.5,-108 1538.76,-112.49 5295.88,-106.03 5333.5,-144 5403.5,-214.66 5217.7,-229.68 5108.91,-232.57"/>
<polygon fill="black" stroke="black" points="5098.63,-232.82 5108.52,-228.08 5103.63,-232.7 5108.63,-232.58 5108.63,-232.58 5108.63,-232.58 5103.63,-232.7 5108.74,-237.08 5098.63,-232.82 5098.63,-232.82"/>
</g>
<!-- 11&#45;&gt;2 -->
<g id="edge15" class="edge">
<title>11&#45;&gt;2</title>
<path fill="none" stroke="black" d="M1106.15,-178.5C1111,-179.06 1115.8,-179.56 1120.5,-180 1702.22,-234.01 2412.54,-234.39 2605.26,-233.38"/>
<polygon fill="black" stroke="black" points="2615.37,-233.32 2605.39,-237.88 2610.37,-233.35 2605.37,-233.38 2605.37,-233.38 2605.37,-233.38 2610.37,-233.35 2605.34,-228.88 2615.37,-233.32 2615.37,-233.32"/>
</g>
<!-- 11&#45;&gt;3 -->
<g id="edge16" class="edge">
<title>11&#45;&gt;3</title>
<path fill="none" stroke="black" d="M1008.5,-180.3C1008.5,-188.02 1008.5,-197.29 1008.5,-205.89"/>
<polygon fill="black" stroke="black" points="1008.5,-215.9 1004,-205.9 1008.5,-210.9 1008.5,-205.9 1008.5,-205.9 1008.5,-205.9 1008.5,-210.9 1013,-205.9 1008.5,-215.9 1008.5,-215.9"/>
</g>
<!-- 11&#45;&gt;26 -->
<g id="edge17" class="edge">
<title>11&#45;&gt;26</title>
<path fill="none" stroke="black" d="M1106.26,-175.85C1122.03,-177.53 1138.2,-179 1153.5,-180 1546.99,-205.68 4464.35,-228.69 4963.84,-232.46"/>
<polygon fill="black" stroke="black" points="4974.16,-232.54 4964.12,-236.96 4969.16,-232.5 4964.16,-232.46 4964.16,-232.46 4964.16,-232.46 4969.16,-232.5 4964.19,-227.96 4974.16,-232.54 4974.16,-232.54"/>
</g>
<!-- 12 -->
<g id="node13" class="node">
<title>12</title>
<polygon fill="none" stroke="black" points="1716.5,-108 1494.5,-108 1494.5,-72 1716.5,-72 1716.5,-108"/>
<text text-anchor="middle" x="1605.5" y="-86.3" font-family="Times New Roman,serif" font-size="14.00">tfx.tools.cli.commands.template_test</text>
</g>
<!-- 12&#45;&gt;11 -->
<g id="edge18" class="edge">
<title>12&#45;&gt;11</title>
<path fill="none" stroke="black" d="M1494.37,-106.87C1491.39,-107.26 1488.42,-107.63 1485.5,-108 1338.23,-126.41 1300.98,-127.36 1153.5,-144 1141.48,-145.36 1128.9,-146.8 1116.38,-148.25"/>
<polygon fill="black" stroke="black" points="1106.37,-149.41 1115.79,-143.79 1111.34,-148.83 1116.31,-148.26 1116.31,-148.26 1116.31,-148.26 1111.34,-148.83 1116.83,-152.73 1106.37,-149.41 1106.37,-149.41"/>
</g>
<!-- 12&#45;&gt;26 -->
<g id="edge19" class="edge">
<title>12&#45;&gt;26</title>
<path fill="none" stroke="black" d="M1716.59,-107.27C1719.59,-107.54 1722.56,-107.78 1725.5,-108 1764.19,-110.85 7285.15,-116.48 7312.5,-144 7323.78,-155.35 7323.68,-168.56 7312.5,-180 7273.07,-220.36 5492.03,-230.89 5108.7,-232.69"/>
<polygon fill="black" stroke="black" points="5098.56,-232.74 5108.54,-228.19 5103.56,-232.72 5108.56,-232.69 5108.56,-232.69 5108.56,-232.69 5103.56,-232.72 5108.59,-237.19 5098.56,-232.74 5098.56,-232.74"/>
</g>
<!-- 13 -->
<g id="node14" class="node">
<title>13</title>
<polygon fill="none" stroke="black" points="9565.5,-252 9385.5,-252 9385.5,-216 9565.5,-216 9565.5,-252"/>
<text text-anchor="middle" x="9475.5" y="-230.3" font-family="Times New Roman,serif" font-size="14.00">tfx.tools.cli.container_builder</text>
</g>
<!-- 14 -->
<g id="node15" class="node">
<title>14</title>
<polygon fill="none" stroke="black" points="9332.5,-180 9110.5,-180 9110.5,-144 9332.5,-144 9332.5,-180"/>
<text text-anchor="middle" x="9221.5" y="-158.3" font-family="Times New Roman,serif" font-size="14.00">tfx.tools.cli.container_builder.builder</text>
</g>
<!-- 14&#45;&gt;13 -->
<g id="edge20" class="edge">
<title>14&#45;&gt;13</title>
<path fill="none" stroke="black" d="M9283.31,-180.03C9319.57,-190.03 9365.56,-202.7 9403.46,-213.15"/>
<polygon fill="black" stroke="black" points="9413.41,-215.89 9402.58,-217.57 9408.59,-214.56 9403.77,-213.23 9403.77,-213.23 9403.77,-213.23 9408.59,-214.56 9404.97,-208.89 9413.41,-215.89 9413.41,-215.89"/>
</g>
<!-- 15 -->
<g id="node16" class="node">
<title>15</title>
<polygon fill="none" stroke="black" points="9600,-180 9351,-180 9351,-144 9600,-144 9600,-180"/>
<text text-anchor="middle" x="9475.5" y="-158.3" font-family="Times New Roman,serif" font-size="14.00">tfx.tools.cli.container_builder.builder_test</text>
</g>
<!-- 15&#45;&gt;13 -->
<g id="edge21" class="edge">
<title>15&#45;&gt;13</title>
<path fill="none" stroke="black" d="M9475.5,-180.3C9475.5,-188.02 9475.5,-197.29 9475.5,-205.89"/>
<polygon fill="black" stroke="black" points="9475.5,-215.9 9471,-205.9 9475.5,-210.9 9475.5,-205.9 9475.5,-205.9 9475.5,-205.9 9475.5,-210.9 9480,-205.9 9475.5,-215.9 9475.5,-215.9"/>
</g>
<!-- 16 -->
<g id="node17" class="node">
<title>16</title>
<polygon fill="none" stroke="black" points="9857,-180 9618,-180 9618,-144 9857,-144 9857,-180"/>
<text text-anchor="middle" x="9737.5" y="-158.3" font-family="Times New Roman,serif" font-size="14.00">tfx.tools.cli.container_builder.dockerfile</text>
</g>
<!-- 16&#45;&gt;13 -->
<g id="edge22" class="edge">
<title>16&#45;&gt;13</title>
<path fill="none" stroke="black" d="M9673.74,-180.03C9636.18,-190.07 9588.5,-202.81 9549.31,-213.28"/>
<polygon fill="black" stroke="black" points="9539.54,-215.89 9548.04,-208.96 9544.37,-214.6 9549.2,-213.31 9549.2,-213.31 9549.2,-213.31 9544.37,-214.6 9550.37,-217.66 9539.54,-215.89 9539.54,-215.89"/>
</g>
<!-- 17 -->
<g id="node18" class="node">
<title>17</title>
<polygon fill="none" stroke="black" points="10141.5,-180 9875.5,-180 9875.5,-144 10141.5,-144 10141.5,-180"/>
<text text-anchor="middle" x="10008.5" y="-158.3" font-family="Times New Roman,serif" font-size="14.00">tfx.tools.cli.container_builder.dockerfile_test</text>
</g>
<!-- 17&#45;&gt;13 -->
<g id="edge23" class="edge">
<title>17&#45;&gt;13</title>
<path fill="none" stroke="black" d="M9878.8,-180.03C9785.43,-192.3 9661.32,-208.6 9575.56,-219.86"/>
<polygon fill="black" stroke="black" points="9565.56,-221.17 9574.89,-215.41 9570.52,-220.52 9575.48,-219.87 9575.48,-219.87 9575.48,-219.87 9570.52,-220.52 9576.06,-224.33 9565.56,-221.17 9565.56,-221.17"/>
</g>
<!-- 18 -->
<g id="node19" class="node">
<title>18</title>
<polygon fill="none" stroke="black" points="2230,-36 2015,-36 2015,0 2230,0 2230,-36"/>
<text text-anchor="middle" x="2122.5" y="-14.3" font-family="Times New Roman,serif" font-size="14.00">tfx.tools.cli.container_builder.labels</text>
</g>
<!-- 19 -->
<g id="node20" class="node">
<title>19</title>
<polygon fill="none" stroke="black" points="1264.5,-108 1162.5,-108 1162.5,-72 1264.5,-72 1264.5,-108"/>
<text text-anchor="middle" x="1213.5" y="-86.3" font-family="Times New Roman,serif" font-size="14.00">tfx.tools.cli.e2e</text>
</g>
<!-- 20 -->
<g id="node21" class="node">
<title>20</title>
<polygon fill="none" stroke="black" points="1322.5,-36 1104.5,-36 1104.5,0 1322.5,0 1322.5,-36"/>
<text text-anchor="middle" x="1213.5" y="-14.3" font-family="Times New Roman,serif" font-size="14.00">tfx.tools.cli.e2e.cli_airflow_e2e_test</text>
</g>
<!-- 20&#45;&gt;2 -->
<g id="edge24" class="edge">
<title>20&#45;&gt;2</title>
<path fill="none" stroke="black" d="M1185.24,-36.03C1173.07,-45.04 1160.13,-57.3 1153.5,-72 1133.77,-115.76 1120.16,-145.47 1153.5,-180 1205,-233.35 2349.64,-233.74 2605.2,-233.16"/>
<polygon fill="black" stroke="black" points="2615.31,-233.14 2605.33,-237.66 2610.31,-233.15 2605.31,-233.16 2605.31,-233.16 2605.31,-233.16 2610.31,-233.15 2605.3,-228.66 2615.31,-233.14 2615.31,-233.14"/>
</g>
<!-- 20&#45;&gt;4 -->
<g id="edge25" class="edge">
<title>20&#45;&gt;4</title>
<path fill="none" stroke="black" d="M1139.28,-36.03C1092.03,-46.88 1031.03,-60.88 983.62,-71.76"/>
<polygon fill="black" stroke="black" points="973.71,-74.03 982.45,-67.41 978.59,-72.91 983.46,-71.8 983.46,-71.8 983.46,-71.8 978.59,-72.91 984.47,-76.18 973.71,-74.03 973.71,-74.03"/>
</g>
<!-- 20&#45;&gt;19 -->
<g id="edge26" class="edge">
<title>20&#45;&gt;19</title>
<path fill="none" stroke="black" d="M1213.5,-36.3C1213.5,-44.02 1213.5,-53.29 1213.5,-61.89"/>
<polygon fill="black" stroke="black" points="1213.5,-71.9 1209,-61.9 1213.5,-66.9 1213.5,-61.9 1213.5,-61.9 1213.5,-61.9 1213.5,-66.9 1218,-61.9 1213.5,-71.9 1213.5,-71.9"/>
</g>
<!-- 21 -->
<g id="node22" class="node">
<title>21</title>
<polygon fill="none" stroke="black" points="439,-36 230,-36 230,0 439,0 439,-36"/>
<text text-anchor="middle" x="334.5" y="-14.3" font-family="Times New Roman,serif" font-size="14.00">tfx.tools.cli.e2e.cli_beam_e2e_test</text>
</g>
<!-- 21&#45;&gt;4 -->
<g id="edge27" class="edge">
<title>21&#45;&gt;4</title>
<path fill="none" stroke="black" d="M439.14,-34.87C441.96,-35.26 444.75,-35.63 447.5,-36 583.17,-54 741.79,-71.45 833.15,-81.15"/>
<polygon fill="black" stroke="black" points="843.14,-82.21 832.72,-85.63 838.17,-81.68 833.19,-81.16 833.19,-81.16 833.19,-81.16 838.17,-81.68 833.67,-76.68 843.14,-82.21 843.14,-82.21"/>
</g>
<!-- 22 -->
<g id="node23" class="node">
<title>22</title>
<polygon fill="none" stroke="black" points="686,-36 457,-36 457,0 686,0 686,-36"/>
<text text-anchor="middle" x="571.5" y="-14.3" font-family="Times New Roman,serif" font-size="14.00">tfx.tools.cli.e2e.cli_common_e2e_test</text>
</g>
<!-- 22&#45;&gt;4 -->
<g id="edge28" class="edge">
<title>22&#45;&gt;4</title>
<path fill="none" stroke="black" d="M653.51,-36.03C708.33,-47.42 779.9,-62.29 833.26,-73.37"/>
<polygon fill="black" stroke="black" points="843.34,-75.47 832.64,-77.84 838.45,-74.45 833.55,-73.43 833.55,-73.43 833.55,-73.43 838.45,-74.45 834.47,-69.03 843.34,-75.47 843.34,-75.47"/>
</g>
<!-- 23 -->
<g id="node24" class="node">
<title>23</title>
<polygon fill="none" stroke="black" points="1834,-36 1603,-36 1603,0 1834,0 1834,-36"/>
<text text-anchor="middle" x="1718.5" y="-14.3" font-family="Times New Roman,serif" font-size="14.00">tfx.tools.cli.e2e.cli_kubeflow_e2e_test</text>
</g>
<!-- 23&#45;&gt;2 -->
<g id="edge29" class="edge">
<title>23&#45;&gt;2</title>
<path fill="none" stroke="black" d="M1825.62,-36.02C1886.52,-46.79 1952.44,-60.76 1961.5,-72 1971.54,-84.46 1971.35,-95.39 1961.5,-108 1920.9,-160 1858.1,-92 1817.5,-144 1807.65,-156.61 1806.55,-168.33 1817.5,-180 1844.59,-208.85 2428.8,-226.89 2605.39,-231.7"/>
<polygon fill="black" stroke="black" points="2615.45,-231.98 2605.33,-236.2 2610.45,-231.84 2605.45,-231.71 2605.45,-231.71 2605.45,-231.71 2610.45,-231.84 2605.57,-227.21 2615.45,-231.98 2615.45,-231.98"/>
</g>
<!-- 23&#45;&gt;19 -->
<g id="edge30" class="edge">
<title>23&#45;&gt;19</title>
<path fill="none" stroke="black" d="M1602.93,-27.74C1515.11,-35.55 1391.31,-49.08 1274.58,-71.95"/>
<polygon fill="black" stroke="black" points="1264.76,-73.9 1273.69,-67.54 1269.66,-72.93 1274.57,-71.96 1274.57,-71.96 1274.57,-71.96 1269.66,-72.93 1275.44,-76.37 1264.76,-73.9 1264.76,-73.9"/>
</g>
<!-- 24 -->
<g id="node25" class="node">
<title>24</title>
<polygon fill="none" stroke="black" points="910.5,-36 704.5,-36 704.5,0 910.5,0 910.5,-36"/>
<text text-anchor="middle" x="807.5" y="-14.3" font-family="Times New Roman,serif" font-size="14.00">tfx.tools.cli.e2e.cli_local_e2e_test</text>
</g>
<!-- 24&#45;&gt;4 -->
<g id="edge31" class="edge">
<title>24&#45;&gt;4</title>
<path fill="none" stroke="black" d="M832.21,-36.12C845.17,-45.11 861.23,-56.24 875.27,-65.97"/>
<polygon fill="black" stroke="black" points="883.7,-71.81 872.92,-69.81 879.59,-68.96 875.48,-66.11 875.48,-66.11 875.48,-66.11 879.59,-68.96 878.04,-62.42 883.7,-71.81 883.7,-71.81"/>
</g>
<!-- 25 -->
<g id="node26" class="node">
<title>25</title>
<polygon fill="none" stroke="black" points="2403,-36 2248,-36 2248,0 2403,0 2403,-36"/>
<text text-anchor="middle" x="2325.5" y="-14.3" font-family="Times New Roman,serif" font-size="14.00">tfx.tools.cli.e2e.test_utils</text>
</g>
<!-- 27 -->
<g id="node28" class="node">
<title>27</title>
<polygon fill="none" stroke="black" points="8466,-180 8181,-180 8181,-144 8466,-144 8466,-180"/>
<text text-anchor="middle" x="8323.5" y="-158.3" font-family="Times New Roman,serif" font-size="14.00">tfx.tools.cli.handler.airflow_dag_runner_patcher</text>
</g>
<!-- 27&#45;&gt;26 -->
<g id="edge32" class="edge">
<title>27&#45;&gt;26</title>
<path fill="none" stroke="black" d="M8180.87,-179.42C8178.06,-179.63 8175.26,-179.82 8172.5,-180 7548.23,-220.32 5518.29,-230.96 5108.86,-232.71"/>
<polygon fill="black" stroke="black" points="5098.64,-232.76 5108.62,-228.22 5103.64,-232.74 5108.64,-232.72 5108.64,-232.72 5108.64,-232.72 5103.64,-232.74 5108.66,-237.22 5098.64,-232.76 5098.64,-232.76"/>
</g>
<!-- 28 -->
<g id="node29" class="node">
<title>28</title>
<polygon fill="none" stroke="black" points="8796.5,-180 8484.5,-180 8484.5,-144 8796.5,-144 8796.5,-180"/>
<text text-anchor="middle" x="8640.5" y="-158.3" font-family="Times New Roman,serif" font-size="14.00">tfx.tools.cli.handler.airflow_dag_runner_patcher_test</text>
</g>
<!-- 28&#45;&gt;26 -->
<g id="edge33" class="edge">
<title>28&#45;&gt;26</title>
<path fill="none" stroke="black" d="M8484.2,-179.45C8481.28,-179.65 8478.37,-179.83 8475.5,-180 7787.03,-220.69 5540.94,-231.1 5108.79,-232.75"/>
<polygon fill="black" stroke="black" points="5098.63,-232.78 5108.61,-228.25 5103.63,-232.77 5108.63,-232.75 5108.63,-232.75 5108.63,-232.75 5103.63,-232.77 5108.64,-237.25 5098.63,-232.78 5098.63,-232.78"/>
</g>
<!-- 29 -->
<g id="node30" class="node">
<title>29</title>
<polygon fill="none" stroke="black" points="4523.5,-180 4309.5,-180 4309.5,-144 4523.5,-144 4523.5,-180"/>
<text text-anchor="middle" x="4416.5" y="-158.3" font-family="Times New Roman,serif" font-size="14.00">tfx.tools.cli.handler.airflow_handler</text>
</g>
<!-- 29&#45;&gt;2 -->
<g id="edge34" class="edge">
<title>29&#45;&gt;2</title>
<path fill="none" stroke="black" d="M4309.42,-179.14C4306.42,-179.45 4303.44,-179.74 4300.5,-180 3673.48,-235.87 2907.38,-234.83 2705.95,-233.45"/>
<polygon fill="black" stroke="black" points="2695.68,-233.38 2705.71,-228.95 2700.68,-233.42 2705.68,-233.45 2705.68,-233.45 2705.68,-233.45 2700.68,-233.42 2705.65,-237.95 2695.68,-233.38 2695.68,-233.38"/>
</g>
<!-- 29&#45;&gt;26 -->
<g id="edge35" class="edge">
<title>29&#45;&gt;26</title>
<path fill="none" stroke="black" d="M4523.59,-178.73C4526.93,-179.17 4530.24,-179.59 4533.5,-180 4686.65,-199.19 4866.64,-217.01 4964.4,-226.3"/>
<polygon fill="black" stroke="black" points="4974.46,-227.25 4964.08,-230.79 4969.48,-226.78 4964.51,-226.31 4964.51,-226.31 4964.51,-226.31 4969.48,-226.78 4964.93,-221.83 4974.46,-227.25 4974.46,-227.25"/>
</g>
<!-- 30 -->
<g id="node31" class="node">
<title>30</title>
<polygon fill="none" stroke="black" points="4783,-180 4542,-180 4542,-144 4783,-144 4783,-180"/>
<text text-anchor="middle" x="4662.5" y="-158.3" font-family="Times New Roman,serif" font-size="14.00">tfx.tools.cli.handler.airflow_handler_test</text>
</g>
<!-- 30&#45;&gt;2 -->
<g id="edge36" class="edge">
<title>30&#45;&gt;2</title>
<path fill="none" stroke="black" d="M4541.79,-179.21C4538.66,-179.49 4535.56,-179.76 4532.5,-180 4162.68,-209.32 2966.85,-228.4 2706.04,-232.27"/>
<polygon fill="black" stroke="black" points="2695.74,-232.42 2705.67,-227.78 2700.74,-232.35 2705.73,-232.27 2705.73,-232.27 2705.73,-232.27 2700.74,-232.35 2705.8,-236.77 2695.74,-232.42 2695.74,-232.42"/>
</g>
<!-- 30&#45;&gt;26 -->
<g id="edge37" class="edge">
<title>30&#45;&gt;26</title>
<path fill="none" stroke="black" d="M4753.51,-180.03C4818.31,-192.16 4904.19,-208.24 4964.29,-219.48"/>
<polygon fill="black" stroke="black" points="4974.45,-221.39 4963.79,-223.97 4969.53,-220.47 4964.62,-219.55 4964.62,-219.55 4964.62,-219.55 4969.53,-220.47 4965.45,-215.12 4974.45,-221.39 4974.45,-221.39"/>
</g>
<!-- 31 -->
<g id="node32" class="node">
<title>31</title>
<polygon fill="none" stroke="black" points="5002,-180 4801,-180 4801,-144 5002,-144 5002,-180"/>
<text text-anchor="middle" x="4901.5" y="-158.3" font-family="Times New Roman,serif" font-size="14.00">tfx.tools.cli.handler.base_handler</text>
</g>
<!-- 31&#45;&gt;2 -->
<g id="edge38" class="edge">
<title>31&#45;&gt;2</title>
<path fill="none" stroke="black" d="M4800.89,-179.18C4798.07,-179.48 4795.27,-179.75 4792.5,-180 4368.49,-218.16 2988.12,-230.49 2706.1,-232.64"/>
<polygon fill="black" stroke="black" points="2695.77,-232.72 2705.73,-228.14 2700.77,-232.68 2705.77,-232.64 2705.77,-232.64 2705.77,-232.64 2700.77,-232.68 2705.8,-237.14 2695.77,-232.72 2695.77,-232.72"/>
</g>
<!-- 31&#45;&gt;26 -->
<g id="edge39" class="edge">
<title>31&#45;&gt;26</title>
<path fill="none" stroke="black" d="M4934.52,-180.12C4952.58,-189.49 4975.15,-201.19 4994.45,-211.2"/>
<polygon fill="black" stroke="black" points="5003.35,-215.81 4992.4,-215.2 4998.91,-213.51 4994.47,-211.21 4994.47,-211.21 4994.47,-211.21 4998.91,-213.51 4996.54,-207.21 5003.35,-215.81 5003.35,-215.81"/>
</g>
<!-- 32 -->
<g id="node33" class="node">
<title>32</title>
<polygon fill="none" stroke="black" points="2054.5,-180 1826.5,-180 1826.5,-144 2054.5,-144 2054.5,-180"/>
<text text-anchor="middle" x="1940.5" y="-158.3" font-family="Times New Roman,serif" font-size="14.00">tfx.tools.cli.handler.base_handler_test</text>
</g>
<!-- 32&#45;&gt;2 -->
<g id="edge40" class="edge">
<title>32&#45;&gt;2</title>
<path fill="none" stroke="black" d="M2054.73,-178.98C2057.68,-179.33 2060.61,-179.67 2063.5,-180 2263.73,-202.79 2502.98,-221.65 2605.2,-229.32"/>
<polygon fill="black" stroke="black" points="2615.24,-230.07 2604.93,-233.81 2610.25,-229.69 2605.26,-229.32 2605.26,-229.32 2605.26,-229.32 2610.25,-229.69 2605.6,-224.83 2615.24,-230.07 2615.24,-230.07"/>
</g>
<!-- 32&#45;&gt;26 -->
<g id="edge41" class="edge">
<title>32&#45;&gt;26</title>
<path fill="none" stroke="black" d="M2054.7,-179.26C2057.66,-179.53 2060.6,-179.77 2063.5,-180 2652.88,-225.82 4567.29,-232.08 4964.09,-232.88"/>
<polygon fill="black" stroke="black" points="4974.29,-232.91 4964.28,-237.39 4969.29,-232.9 4964.29,-232.89 4964.29,-232.89 4964.29,-232.89 4969.29,-232.9 4964.3,-228.39 4974.29,-232.91 4974.29,-232.91"/>
</g>
<!-- 33 -->
<g id="node34" class="node">
<title>33</title>
<polygon fill="none" stroke="black" points="9092,-180 8815,-180 8815,-144 9092,-144 9092,-180"/>
<text text-anchor="middle" x="8953.5" y="-158.3" font-family="Times New Roman,serif" font-size="14.00">tfx.tools.cli.handler.beam_dag_runner_patcher</text>
</g>
<!-- 33&#45;&gt;26 -->
<g id="edge42" class="edge">
<title>33&#45;&gt;26</title>
<path fill="none" stroke="black" d="M8814.89,-179.35C8811.73,-179.58 8808.6,-179.8 8805.5,-180 8047.41,-228.75 5564.45,-232.67 5108.71,-232.97"/>
<polygon fill="black" stroke="black" points="5098.63,-232.98 5108.63,-228.47 5103.63,-232.98 5108.63,-232.97 5108.63,-232.97 5108.63,-232.97 5103.63,-232.98 5108.64,-237.47 5098.63,-232.98 5098.63,-232.98"/>
</g>
<!-- 34 -->
<g id="node35" class="node">
<title>34</title>
<polygon fill="none" stroke="black" points="5324.5,-180 5020.5,-180 5020.5,-144 5324.5,-144 5324.5,-180"/>
<text text-anchor="middle" x="5172.5" y="-158.3" font-family="Times New Roman,serif" font-size="14.00">tfx.tools.cli.handler.beam_dag_runner_patcher_test</text>
</g>
<!-- 34&#45;&gt;26 -->
<g id="edge43" class="edge">
<title>34&#45;&gt;26</title>
<path fill="none" stroke="black" d="M5139.23,-180.12C5121.04,-189.49 5098.31,-201.19 5078.86,-211.2"/>
<polygon fill="black" stroke="black" points="5069.9,-215.81 5076.73,-207.23 5074.34,-213.52 5078.79,-211.23 5078.79,-211.23 5078.79,-211.23 5074.34,-213.52 5080.85,-215.23 5069.9,-215.81 5069.9,-215.81"/>
</g>
<!-- 35 -->
<g id="node36" class="node">
<title>35</title>
<polygon fill="none" stroke="black" points="2278.5,-180 2072.5,-180 2072.5,-144 2278.5,-144 2278.5,-180"/>
<text text-anchor="middle" x="2175.5" y="-158.3" font-family="Times New Roman,serif" font-size="14.00">tfx.tools.cli.handler.beam_handler</text>
</g>
<!-- 35&#45;&gt;2 -->
<g id="edge44" class="edge">
<title>35&#45;&gt;2</title>
<path fill="none" stroke="black" d="M2278.65,-178.54C2281.97,-179.04 2285.26,-179.52 2288.5,-180 2401.71,-196.69 2534.65,-215.76 2605.33,-225.85"/>
<polygon fill="black" stroke="black" points="2615.3,-227.27 2604.77,-230.32 2610.35,-226.57 2605.4,-225.86 2605.4,-225.86 2605.4,-225.86 2610.35,-226.57 2606.04,-221.41 2615.3,-227.27 2615.3,-227.27"/>
</g>
<!-- 35&#45;&gt;26 -->
<g id="edge45" class="edge">
<title>35&#45;&gt;26</title>
<path fill="none" stroke="black" d="M2278.59,-179.07C2281.93,-179.41 2285.24,-179.72 2288.5,-180 2830.37,-225.79 4585.71,-232.06 4964.16,-232.88"/>
<polygon fill="black" stroke="black" points="4974.43,-232.9 4964.42,-237.38 4969.43,-232.89 4964.43,-232.88 4964.43,-232.88 4964.43,-232.88 4969.43,-232.89 4964.44,-228.38 4974.43,-232.9 4974.43,-232.9"/>
</g>
<!-- 36 -->
<g id="node37" class="node">
<title>36</title>
<polygon fill="none" stroke="black" points="2530,-180 2297,-180 2297,-144 2530,-144 2530,-180"/>
<text text-anchor="middle" x="2413.5" y="-158.3" font-family="Times New Roman,serif" font-size="14.00">tfx.tools.cli.handler.beam_handler_test</text>
</g>
<!-- 36&#45;&gt;2 -->
<g id="edge46" class="edge">
<title>36&#45;&gt;2</title>
<path fill="none" stroke="black" d="M2472.39,-180.03C2513.1,-191.81 2566.69,-207.31 2605.36,-218.5"/>
<polygon fill="black" stroke="black" points="2615.35,-221.39 2604.49,-222.93 2610.55,-220 2605.74,-218.61 2605.74,-218.61 2605.74,-218.61 2610.55,-220 2606.99,-214.28 2615.35,-221.39 2615.35,-221.39"/>
</g>
<!-- 36&#45;&gt;26 -->
<g id="edge47" class="edge">
<title>36&#45;&gt;26</title>
<path fill="none" stroke="black" d="M2530.15,-179.21C2533.3,-179.5 2536.42,-179.76 2539.5,-180 3029.11,-218.1 4607.23,-230.27 4964.25,-232.57"/>
<polygon fill="black" stroke="black" points="4974.45,-232.63 4964.42,-237.07 4969.45,-232.6 4964.45,-232.57 4964.45,-232.57 4964.45,-232.57 4969.45,-232.6 4964.48,-228.07 4974.45,-232.63 4974.45,-232.63"/>
</g>
<!-- 37 -->
<g id="node38" class="node">
<title>37</title>
<polygon fill="none" stroke="black" points="2660,-36 2421,-36 2421,0 2660,0 2660,-36"/>
<text text-anchor="middle" x="2540.5" y="-14.3" font-family="Times New Roman,serif" font-size="14.00">tfx.tools.cli.handler.dag_runner_patcher</text>
</g>
<!-- 38 -->
<g id="node39" class="node">
<title>38</title>
<polygon fill="none" stroke="black" points="5646.5,-180 5380.5,-180 5380.5,-144 5646.5,-144 5646.5,-180"/>
<text text-anchor="middle" x="5513.5" y="-158.3" font-family="Times New Roman,serif" font-size="14.00">tfx.tools.cli.handler.dag_runner_patcher_test</text>
</g>
<!-- 38&#45;&gt;26 -->
<g id="edge48" class="edge">
<title>38&#45;&gt;26</title>
<path fill="none" stroke="black" d="M5397.42,-180.03C5307.29,-193.26 5185.17,-211.18 5108.61,-222.42"/>
<polygon fill="black" stroke="black" points="5098.59,-223.89 5107.83,-217.98 5103.53,-223.16 5108.48,-222.44 5108.48,-222.44 5108.48,-222.44 5103.53,-223.16 5109.13,-226.89 5098.59,-223.89 5098.59,-223.89"/>
</g>
<!-- 39 -->
<g id="node40" class="node">
<title>39</title>
<polygon fill="none" stroke="black" points="2763,-180 2548,-180 2548,-144 2763,-144 2763,-180"/>
<text text-anchor="middle" x="2655.5" y="-158.3" font-family="Times New Roman,serif" font-size="14.00">tfx.tools.cli.handler.handler_factory</text>
</g>
<!-- 39&#45;&gt;2 -->
<g id="edge49" class="edge">
<title>39&#45;&gt;2</title>
<path fill="none" stroke="black" d="M2655.5,-180.3C2655.5,-188.02 2655.5,-197.29 2655.5,-205.89"/>
<polygon fill="black" stroke="black" points="2655.5,-215.9 2651,-205.9 2655.5,-210.9 2655.5,-205.9 2655.5,-205.9 2655.5,-205.9 2655.5,-210.9 2660,-205.9 2655.5,-215.9 2655.5,-215.9"/>
</g>
<!-- 39&#45;&gt;26 -->
<g id="edge50" class="edge">
<title>39&#45;&gt;26</title>
<path fill="none" stroke="black" d="M2763.18,-179.15C2766.32,-179.46 2769.43,-179.74 2772.5,-180 3213.22,-217.04 4627.9,-229.91 4964.25,-232.49"/>
<polygon fill="black" stroke="black" points="4974.36,-232.56 4964.32,-236.99 4969.36,-232.52 4964.36,-232.49 4964.36,-232.49 4964.36,-232.49 4969.36,-232.52 4964.39,-227.99 4974.36,-232.56 4974.36,-232.56"/>
</g>
<!-- 40 -->
<g id="node41" class="node">
<title>40</title>
<polygon fill="none" stroke="black" points="3023.5,-180 2781.5,-180 2781.5,-144 3023.5,-144 3023.5,-180"/>
<text text-anchor="middle" x="2902.5" y="-158.3" font-family="Times New Roman,serif" font-size="14.00">tfx.tools.cli.handler.handler_factory_test</text>
</g>
<!-- 40&#45;&gt;2 -->
<g id="edge51" class="edge">
<title>40&#45;&gt;2</title>
<path fill="none" stroke="black" d="M2842.39,-180.03C2800.4,-191.94 2744.99,-207.64 2705.43,-218.85"/>
<polygon fill="black" stroke="black" points="2695.73,-221.6 2704.12,-214.54 2700.54,-220.24 2705.35,-218.87 2705.35,-218.87 2705.35,-218.87 2700.54,-220.24 2706.58,-223.2 2695.73,-221.6 2695.73,-221.6"/>
</g>
<!-- 40&#45;&gt;26 -->
<g id="edge52" class="edge">
<title>40&#45;&gt;26</title>
<path fill="none" stroke="black" d="M3023.55,-179.25C3026.56,-179.52 3029.55,-179.77 3032.5,-180 3419.1,-210.31 4651.16,-228.01 4963.82,-232.09"/>
<polygon fill="black" stroke="black" points="4974.11,-232.22 4964.05,-236.59 4969.11,-232.16 4964.11,-232.09 4964.11,-232.09 4964.11,-232.09 4969.11,-232.16 4964.17,-227.59 4974.11,-232.22 4974.11,-232.22"/>
</g>
<!-- 41 -->
<g id="node42" class="node">
<title>41</title>
<polygon fill="none" stroke="black" points="5964,-180 5665,-180 5665,-144 5964,-144 5964,-180"/>
<text text-anchor="middle" x="5814.5" y="-158.3" font-family="Times New Roman,serif" font-size="14.00">tfx.tools.cli.handler.kubeflow_dag_runner_patcher</text>
</g>
<!-- 41&#45;&gt;26 -->
<g id="edge53" class="edge">
<title>41&#45;&gt;26</title>
<path fill="none" stroke="black" d="M5664.71,-179.1C5661.61,-179.41 5658.54,-179.71 5655.5,-180 5458.01,-199.01 5224.74,-218.07 5109.07,-227.29"/>
<polygon fill="black" stroke="black" points="5098.92,-228.09 5108.53,-222.81 5103.91,-227.7 5108.89,-227.3 5108.89,-227.3 5108.89,-227.3 5103.91,-227.7 5109.25,-231.79 5098.92,-228.09 5098.92,-228.09"/>
</g>
<!-- 42 -->
<g id="node43" class="node">
<title>42</title>
<polygon fill="none" stroke="black" points="6308.5,-180 5982.5,-180 5982.5,-144 6308.5,-144 6308.5,-180"/>
<text text-anchor="middle" x="6145.5" y="-158.3" font-family="Times New Roman,serif" font-size="14.00">tfx.tools.cli.handler.kubeflow_dag_runner_patcher_test</text>
</g>
<!-- 42&#45;&gt;26 -->
<g id="edge54" class="edge">
<title>42&#45;&gt;26</title>
<path fill="none" stroke="black" d="M5982.1,-179.32C5979.21,-179.55 5976.34,-179.78 5973.5,-180 5651.22,-205.03 5265.71,-223.1 5108.53,-229.96"/>
<polygon fill="black" stroke="black" points="5098.51,-230.39 5108.3,-225.46 5103.5,-230.18 5108.5,-229.96 5108.5,-229.96 5108.5,-229.96 5103.5,-230.18 5108.69,-234.46 5098.51,-230.39 5098.51,-230.39"/>
</g>
<!-- 43 -->
<g id="node44" class="node">
<title>43</title>
<polygon fill="none" stroke="black" points="8163,-180 7936,-180 7936,-144 8163,-144 8163,-180"/>
<text text-anchor="middle" x="8049.5" y="-158.3" font-family="Times New Roman,serif" font-size="14.00">tfx.tools.cli.handler.kubeflow_handler</text>
</g>
<!-- 43&#45;&gt;2 -->
<g id="edge55" class="edge">
<title>43&#45;&gt;2</title>
<path fill="none" stroke="black" d="M7935.71,-176.38C7919.87,-177.84 7903.79,-179.12 7888.5,-180 7615.5,-195.76 3226.77,-228.76 2705.9,-232.63"/>
<polygon fill="black" stroke="black" points="2695.69,-232.7 2705.66,-228.13 2700.69,-232.67 2705.69,-232.63 2705.69,-232.63 2705.69,-232.63 2700.69,-232.67 2705.73,-237.13 2695.69,-232.7 2695.69,-232.7"/>
</g>
<!-- 43&#45;&gt;13 -->
<g id="edge56" class="edge">
<title>43&#45;&gt;13</title>
<path fill="none" stroke="black" d="M8163.05,-179.1C8166.23,-179.42 8169.39,-179.72 8172.5,-180 8619.8,-219.91 9156.18,-229.79 9375.08,-232.22"/>
<polygon fill="black" stroke="black" points="9385.26,-232.33 9375.21,-236.72 9380.26,-232.28 9375.26,-232.22 9375.26,-232.22 9375.26,-232.22 9380.26,-232.28 9375.31,-227.72 9385.26,-232.33 9385.26,-232.33"/>
</g>
<!-- 43&#45;&gt;26 -->
<g id="edge57" class="edge">
<title>43&#45;&gt;26</title>
<path fill="none" stroke="black" d="M7935.81,-178.78C7930.98,-179.24 7926.19,-179.65 7921.5,-180 7350.38,-223.03 5497.83,-231.48 5108.65,-232.79"/>
<polygon fill="black" stroke="black" points="5098.64,-232.82 5108.62,-228.29 5103.64,-232.8 5108.64,-232.79 5108.64,-232.79 5108.64,-232.79 5103.64,-232.8 5108.65,-237.29 5098.64,-232.82 5098.64,-232.82"/>
</g>
<!-- 44 -->
<g id="node45" class="node">
<title>44</title>
<polygon fill="none" stroke="black" points="3295.5,-180 3041.5,-180 3041.5,-144 3295.5,-144 3295.5,-180"/>
<text text-anchor="middle" x="3168.5" y="-158.3" font-family="Times New Roman,serif" font-size="14.00">tfx.tools.cli.handler.kubeflow_handler_test</text>
</g>
<!-- 44&#45;&gt;2 -->
<g id="edge58" class="edge">
<title>44&#45;&gt;2</title>
<path fill="none" stroke="black" d="M3043.66,-180.03C2935.09,-194.85 2783.35,-215.55 2705.67,-226.15"/>
<polygon fill="black" stroke="black" points="2695.66,-227.52 2704.96,-221.71 2700.62,-226.84 2705.57,-226.17 2705.57,-226.17 2705.57,-226.17 2700.62,-226.84 2706.18,-230.63 2695.66,-227.52 2695.66,-227.52"/>
</g>
<!-- 44&#45;&gt;26 -->
<g id="edge59" class="edge">
<title>44&#45;&gt;26</title>
<path fill="none" stroke="black" d="M3295.71,-179.19C3299.01,-179.48 3302.27,-179.75 3305.5,-180 3947.21,-229.53 4726.09,-233.29 4964.04,-233.19"/>
<polygon fill="black" stroke="black" points="4974.29,-233.18 4964.29,-237.69 4969.29,-233.18 4964.29,-233.19 4964.29,-233.19 4964.29,-233.19 4969.29,-233.18 4964.29,-228.69 4974.29,-233.18 4974.29,-233.18"/>
</g>
<!-- 45 -->
<g id="node46" class="node">
<title>45</title>
<polygon fill="none" stroke="black" points="6646.5,-180 6326.5,-180 6326.5,-144 6646.5,-144 6646.5,-180"/>
<text text-anchor="middle" x="6486.5" y="-158.3" font-family="Times New Roman,serif" font-size="14.00">tfx.tools.cli.handler.kubeflow_v2_dag_runner_patcher</text>
</g>
<!-- 45&#45;&gt;26 -->
<g id="edge60" class="edge">
<title>45&#45;&gt;26</title>
<path fill="none" stroke="black" d="M6326.4,-179.35C6323.41,-179.57 6320.44,-179.79 6317.5,-180 5857.8,-212.6 5303.77,-227.14 5108.69,-231.5"/>
<polygon fill="black" stroke="black" points="5098.56,-231.73 5108.46,-227.01 5103.56,-231.62 5108.56,-231.51 5108.56,-231.51 5108.56,-231.51 5103.56,-231.62 5108.66,-236.01 5098.56,-231.73 5098.56,-231.73"/>
</g>
<!-- 46 -->
<g id="node47" class="node">
<title>46</title>
<polygon fill="none" stroke="black" points="7012,-180 6665,-180 6665,-144 7012,-144 7012,-180"/>
<text text-anchor="middle" x="6838.5" y="-158.3" font-family="Times New Roman,serif" font-size="14.00">tfx.tools.cli.handler.kubeflow_v2_dag_runner_patcher_test</text>
</g>
<!-- 46&#45;&gt;26 -->
<g id="edge61" class="edge">
<title>46&#45;&gt;26</title>
<path fill="none" stroke="black" d="M6664.65,-179.4C6661.58,-179.61 6658.53,-179.81 6655.5,-180 6058.76,-217.45 5336.54,-229.25 5108.84,-232.18"/>
<polygon fill="black" stroke="black" points="5098.7,-232.3 5108.64,-227.68 5103.7,-232.24 5108.7,-232.18 5108.7,-232.18 5108.7,-232.18 5103.7,-232.24 5108.75,-236.68 5098.7,-232.3 5098.7,-232.3"/>
</g>
<!-- 47 -->
<g id="node48" class="node">
<title>47</title>
<polygon fill="none" stroke="black" points="7303,-180 7030,-180 7030,-144 7303,-144 7303,-180"/>
<text text-anchor="middle" x="7166.5" y="-158.3" font-family="Times New Roman,serif" font-size="14.00">tfx.tools.cli.handler.local_dag_runner_patcher</text>
</g>
<!-- 47&#45;&gt;26 -->
<g id="edge62" class="edge">
<title>47&#45;&gt;26</title>
<path fill="none" stroke="black" d="M7029.92,-179.36C7027.09,-179.59 7024.28,-179.8 7021.5,-180 6275.42,-233.59 5368.09,-234.41 5108.8,-233.42"/>
<polygon fill="black" stroke="black" points="5098.76,-233.38 5108.78,-228.92 5103.76,-233.4 5108.76,-233.42 5108.76,-233.42 5108.76,-233.42 5103.76,-233.4 5108.74,-237.92 5098.76,-233.38 5098.76,-233.38"/>
</g>
<!-- 48 -->
<g id="node49" class="node">
<title>48</title>
<polygon fill="none" stroke="black" points="7659.5,-180 7359.5,-180 7359.5,-144 7659.5,-144 7659.5,-180"/>
<text text-anchor="middle" x="7509.5" y="-158.3" font-family="Times New Roman,serif" font-size="14.00">tfx.tools.cli.handler.local_dag_runner_patcher_test</text>
</g>
<!-- 48&#45;&gt;26 -->
<g id="edge63" class="edge">
<title>48&#45;&gt;26</title>
<path fill="none" stroke="black" d="M7359.39,-179.05C7354.71,-179.39 7350.07,-179.71 7345.5,-180 6465.49,-235.62 5393.54,-234.79 5108.77,-233.45"/>
<polygon fill="black" stroke="black" points="5098.58,-233.4 5108.6,-228.95 5103.58,-233.43 5108.58,-233.45 5108.58,-233.45 5108.58,-233.45 5103.58,-233.43 5108.55,-237.95 5098.58,-233.4 5098.58,-233.4"/>
</g>
<!-- 49 -->
<g id="node50" class="node">
<title>49</title>
<polygon fill="none" stroke="black" points="7879.5,-180 7677.5,-180 7677.5,-144 7879.5,-144 7879.5,-180"/>
<text text-anchor="middle" x="7778.5" y="-158.3" font-family="Times New Roman,serif" font-size="14.00">tfx.tools.cli.handler.local_handler</text>
</g>
<!-- 49&#45;&gt;26 -->
<g id="edge64" class="edge">
<title>49&#45;&gt;26</title>
<path fill="none" stroke="black" d="M7677.27,-179.16C7674.31,-179.47 7671.39,-179.75 7668.5,-180 7151.01,-225 5477.41,-231.87 5108.77,-232.85"/>
<polygon fill="black" stroke="black" points="5098.76,-232.87 5108.75,-228.35 5103.76,-232.86 5108.76,-232.85 5108.76,-232.85 5108.76,-232.85 5103.76,-232.86 5108.77,-237.35 5098.76,-232.87 5098.76,-232.87"/>
</g>
<!-- 50 -->
<g id="node51" class="node">
<title>50</title>
<polygon fill="none" stroke="black" points="3543,-180 3314,-180 3314,-144 3543,-144 3543,-180"/>
<text text-anchor="middle" x="3428.5" y="-158.3" font-family="Times New Roman,serif" font-size="14.00">tfx.tools.cli.handler.local_handler_test</text>
</g>
<!-- 50&#45;&gt;2 -->
<g id="edge65" class="edge">
<title>50&#45;&gt;2</title>
<path fill="none" stroke="black" d="M3313.68,-178.97C3310.59,-179.32 3307.52,-179.67 3304.5,-180 3081.87,-204.33 2815.14,-222.75 2705.9,-229.83"/>
<polygon fill="black" stroke="black" points="2695.83,-230.48 2705.52,-225.34 2700.82,-230.16 2705.8,-229.83 2705.8,-229.83 2705.8,-229.83 2700.82,-230.16 2706.09,-234.32 2695.83,-230.48 2695.83,-230.48"/>
</g>
<!-- 50&#45;&gt;26 -->
<g id="edge66" class="edge">
<title>50&#45;&gt;26</title>
<path fill="none" stroke="black" d="M3543.3,-179.15C3546.4,-179.46 3549.47,-179.74 3552.5,-180 4093.3,-226.61 4748.38,-232.4 4963.93,-232.99"/>
<polygon fill="black" stroke="black" points="4974.16,-233.01 4964.15,-237.49 4969.16,-233 4964.16,-232.99 4964.16,-232.99 4964.16,-232.99 4969.16,-233 4964.17,-228.49 4974.16,-233.01 4974.16,-233.01"/>
</g>
<!-- 51 -->
<g id="node52" class="node">
<title>51</title>
<polygon fill="none" stroke="black" points="1384.5,-180 1162.5,-180 1162.5,-144 1384.5,-144 1384.5,-180"/>
<text text-anchor="middle" x="1273.5" y="-158.3" font-family="Times New Roman,serif" font-size="14.00">tfx.tools.cli.handler.template_handler</text>
</g>
<!-- 51&#45;&gt;2 -->
<g id="edge67" class="edge">
<title>51&#45;&gt;2</title>
<path fill="none" stroke="black" d="M1384.6,-179.13C1387.59,-179.44 1390.57,-179.73 1393.5,-180 1863.27,-223.03 2434.67,-231.17 2605.17,-232.67"/>
<polygon fill="black" stroke="black" points="2615.35,-232.76 2605.31,-237.17 2610.35,-232.71 2605.35,-232.67 2605.35,-232.67 2605.35,-232.67 2610.35,-232.71 2605.39,-228.17 2615.35,-232.76 2615.35,-232.76"/>
</g>
<!-- 52 -->
<g id="node53" class="node">
<title>52</title>
<polygon fill="none" stroke="black" points="3810,-180 3561,-180 3561,-144 3810,-144 3810,-180"/>
<text text-anchor="middle" x="3685.5" y="-158.3" font-family="Times New Roman,serif" font-size="14.00">tfx.tools.cli.handler.template_handler_test</text>
</g>
<!-- 52&#45;&gt;2 -->
<g id="edge68" class="edge">
<title>52&#45;&gt;2</title>
<path fill="none" stroke="black" d="M3560.93,-179.18C3558.09,-179.47 3555.28,-179.74 3552.5,-180 3230.81,-210.03 2842.54,-226.16 2705.96,-231.22"/>
<polygon fill="black" stroke="black" points="2695.81,-231.6 2705.63,-226.73 2700.8,-231.41 2705.8,-231.23 2705.8,-231.23 2705.8,-231.23 2700.8,-231.41 2705.96,-235.73 2695.81,-231.6 2695.81,-231.6"/>
</g>
<!-- 52&#45;&gt;26 -->
<g id="edge69" class="edge">
<title>52&#45;&gt;26</title>
<path fill="none" stroke="black" d="M3810.29,-179.17C3813.39,-179.47 3816.46,-179.74 3819.5,-180 4252.99,-216.87 4775.65,-228.71 4964.26,-231.94"/>
<polygon fill="black" stroke="black" points="4974.32,-232.11 4964.25,-236.44 4969.33,-232.02 4964.33,-231.94 4964.33,-231.94 4964.33,-231.94 4969.33,-232.02 4964.4,-227.44 4974.32,-232.11 4974.32,-232.11"/>
</g>
<!-- 53 -->
<g id="node54" class="node">
<title>53</title>
<polygon fill="none" stroke="black" points="4037,-180 3828,-180 3828,-144 4037,-144 4037,-180"/>
<text text-anchor="middle" x="3932.5" y="-158.3" font-family="Times New Roman,serif" font-size="14.00">tfx.tools.cli.handler.vertex_handler</text>
</g>
<!-- 53&#45;&gt;2 -->
<g id="edge70" class="edge">
<title>53&#45;&gt;2</title>
<path fill="none" stroke="black" d="M3827.89,-179.13C3825.06,-179.44 3822.26,-179.73 3819.5,-180 3389.78,-221.99 2867.48,-230.81 2705.69,-232.57"/>
<polygon fill="black" stroke="black" points="2695.56,-232.68 2705.51,-228.08 2700.56,-232.63 2705.56,-232.58 2705.56,-232.58 2705.56,-232.58 2700.56,-232.63 2705.61,-237.08 2695.56,-232.68 2695.56,-232.68"/>
</g>
<!-- 53&#45;&gt;26 -->
<g id="edge71" class="edge">
<title>53&#45;&gt;26</title>
<path fill="none" stroke="black" d="M4037.13,-178.99C4040.28,-179.35 4043.41,-179.69 4046.5,-180 4388.76,-214.6 4800.02,-227.48 4963.93,-231.46"/>
<polygon fill="black" stroke="black" points="4974.37,-231.71 4964.26,-235.97 4969.37,-231.59 4964.37,-231.47 4964.37,-231.47 4964.37,-231.47 4969.37,-231.59 4964.48,-226.98 4974.37,-231.71 4974.37,-231.71"/>
</g>
<!-- 54 -->
<g id="node55" class="node">
<title>54</title>
<polygon fill="none" stroke="black" points="4291.5,-180 4055.5,-180 4055.5,-144 4291.5,-144 4291.5,-180"/>
<text text-anchor="middle" x="4173.5" y="-158.3" font-family="Times New Roman,serif" font-size="14.00">tfx.tools.cli.handler.vertex_handler_test</text>
</g>
<!-- 54&#45;&gt;2 -->
<g id="edge72" class="edge">
<title>54&#45;&gt;2</title>
<path fill="none" stroke="black" d="M4055.24,-179.2C4052.3,-179.49 4049.38,-179.75 4046.5,-180 3523.62,-224.86 2886.9,-231.75 2705.73,-232.81"/>
<polygon fill="black" stroke="black" points="2695.7,-232.86 2705.68,-228.31 2700.7,-232.84 2705.7,-232.81 2705.7,-232.81 2705.7,-232.81 2700.7,-232.84 2705.73,-237.31 2695.7,-232.86 2695.7,-232.86"/>
</g>
<!-- 54&#45;&gt;26 -->
<g id="edge73" class="edge">
<title>54&#45;&gt;26</title>
<path fill="none" stroke="black" d="M4291.77,-179.07C4294.71,-179.39 4297.62,-179.7 4300.5,-180 4543.31,-204.97 4832.39,-222.13 4964.36,-229.27"/>
<polygon fill="black" stroke="black" points="4974.35,-229.81 4964.13,-233.77 4969.36,-229.54 4964.37,-229.27 4964.37,-229.27 4964.37,-229.27 4969.36,-229.54 4964.61,-224.78 4974.35,-229.81 4974.35,-229.81"/>
</g>
<!-- 55 -->
<g id="node56" class="node">
<title>55</title>
<polygon fill="none" stroke="black" points="2793,-36 2678,-36 2678,0 2793,0 2793,-36"/>
<text text-anchor="middle" x="2735.5" y="-14.3" font-family="Times New Roman,serif" font-size="14.00">tfx.tools.cli.labels</text>
</g>
<!-- 56 -->
<g id="node57" class="node">
<title>56</title>
<polygon fill="none" stroke="black" points="2942,-36 2811,-36 2811,0 2942,0 2942,-36"/>
<text text-anchor="middle" x="2876.5" y="-14.3" font-family="Times New Roman,serif" font-size="14.00">tfx.tools.cli.pip_utils</text>
</g>
<!-- 57 -->
<g id="node58" class="node">
<title>57</title>
<polygon fill="none" stroke="black" points="1560.5,-180 1402.5,-180 1402.5,-144 1560.5,-144 1560.5,-180"/>
<text text-anchor="middle" x="1481.5" y="-158.3" font-family="Times New Roman,serif" font-size="14.00">tfx.tools.cli.pip_utils_test</text>
</g>
<!-- 57&#45;&gt;2 -->
<g id="edge74" class="edge">
<title>57&#45;&gt;2</title>
<path fill="none" stroke="black" d="M1560.51,-178.69C1563.88,-179.17 1567.22,-179.61 1570.5,-180 1967.28,-227.35 2450.51,-232.63 2605.29,-233.04"/>
<polygon fill="black" stroke="black" points="2615.43,-233.06 2605.42,-237.54 2610.43,-233.05 2605.43,-233.04 2605.43,-233.04 2605.43,-233.04 2610.43,-233.05 2605.44,-228.54 2615.43,-233.06 2615.43,-233.06"/>
</g>
</g>
</svg>
