<?xml version="1.0" encoding="UTF-8" standalone="no"?>
<!DOCTYPE svg PUBLIC "-//W3C//DTD SVG 1.1//EN"
 "http://www.w3.org/Graphics/SVG/1.1/DTD/svg11.dtd">
<!-- Generated by graphviz version 5.0.0 (20220707.1540)
 -->
<!-- Title: packages Pages: 1 -->
<svg width="3228pt" height="44pt"
 viewBox="0.00 0.00 3227.50 44.00" xmlns="http://www.w3.org/2000/svg" xmlns:xlink="http://www.w3.org/1999/xlink">
<g id="graph0" class="graph" transform="scale(1 1) rotate(0) translate(4 40)">
<title>packages</title>
<polygon fill="white" stroke="transparent" points="-4,4 -4,-40 3223.5,-40 3223.5,4 -4,4"/>
<!-- 0 -->
<g id="node1" class="node">
<title>0</title>
<polygon fill="none" stroke="black" points="54,-36 0,-36 0,0 54,0 54,-36"/>
<text text-anchor="middle" x="27" y="-14.3" font-family="Times New Roman,serif" font-size="14.00">tfx.v1</text>
</g>
<!-- 0&#45;&gt;0 -->
<g id="edge1" class="edge">
<title>0&#45;&gt;0</title>
<path fill="none" stroke="black" d="M54.24,-11.26C64.02,-11.11 72,-13.36 72,-18 72,-20.83 69.04,-22.77 64.51,-23.82"/>
<polygon fill="black" stroke="black" points="54.24,-24.74 63.8,-19.36 59.22,-24.29 64.2,-23.85 64.2,-23.85 64.2,-23.85 59.22,-24.29 64.6,-28.33 54.24,-24.74 54.24,-24.74"/>
</g>
<!-- 1 -->
<g id="node2" class="node">
<title>1</title>
<polygon fill="none" stroke="black" points="212,-36 90,-36 90,0 212,0 212,-36"/>
<text text-anchor="middle" x="151" y="-14.3" font-family="Times New Roman,serif" font-size="14.00">tfx.v1.components</text>
</g>
<!-- 2 -->
<g id="node3" class="node">
<title>2</title>
<polygon fill="none" stroke="black" points="299.5,-36 230.5,-36 230.5,0 299.5,0 299.5,-36"/>
<text text-anchor="middle" x="265" y="-14.3" font-family="Times New Roman,serif" font-size="14.00">tfx.v1.dsl</text>
</g>
<!-- 2&#45;&gt;2 -->
<g id="edge2" class="edge">
<title>2&#45;&gt;2</title>
<path fill="none" stroke="black" d="M299.59,-11.27C309.68,-11.5 317.5,-13.75 317.5,-18 317.5,-20.66 314.45,-22.53 309.69,-23.62"/>
<polygon fill="black" stroke="black" points="299.59,-24.73 309.04,-19.16 304.56,-24.18 309.53,-23.64 309.53,-23.64 309.53,-23.64 304.56,-24.18 310.02,-28.11 299.59,-24.73 299.59,-24.73"/>
</g>
<!-- 3 -->
<g id="node4" class="node">
<title>3</title>
<polygon fill="none" stroke="black" points="478,-36 336,-36 336,0 478,0 478,-36"/>
<text text-anchor="middle" x="407" y="-14.3" font-family="Times New Roman,serif" font-size="14.00">tfx.v1.dsl.components</text>
</g>
<!-- 4 -->
<g id="node5" class="node">
<title>4</title>
<polygon fill="none" stroke="black" points="639.5,-36 496.5,-36 496.5,0 639.5,0 639.5,-36"/>
<text text-anchor="middle" x="568" y="-14.3" font-family="Times New Roman,serif" font-size="14.00">tfx.v1.dsl.experimental</text>
</g>
<!-- 5 -->
<g id="node6" class="node">
<title>5</title>
<polygon fill="none" stroke="black" points="740.5,-36 657.5,-36 657.5,0 740.5,0 740.5,-36"/>
<text text-anchor="middle" x="699" y="-14.3" font-family="Times New Roman,serif" font-size="14.00">tfx.v1.dsl.io</text>
</g>
<!-- 5&#45;&gt;5 -->
<g id="edge3" class="edge">
<title>5&#45;&gt;5</title>
<path fill="none" stroke="black" d="M740.71,-11.36C750.91,-11.85 758.5,-14.06 758.5,-18 758.5,-20.46 755.53,-22.25 750.82,-23.36"/>
<polygon fill="black" stroke="black" points="740.71,-24.64 750.06,-18.92 745.67,-24.02 750.63,-23.39 750.63,-23.39 750.63,-23.39 745.67,-24.02 751.19,-27.85 740.71,-24.64 740.71,-24.64"/>
</g>
<!-- 6 -->
<g id="node7" class="node">
<title>6</title>
<polygon fill="none" stroke="black" points="891,-36 777,-36 777,0 891,0 891,-36"/>
<text text-anchor="middle" x="834" y="-14.3" font-family="Times New Roman,serif" font-size="14.00">tfx.v1.dsl.io.fileio</text>
</g>
<!-- 7 -->
<g id="node8" class="node">
<title>7</title>
<polygon fill="none" stroke="black" points="1052.5,-36 909.5,-36 909.5,0 1052.5,0 1052.5,-36"/>
<text text-anchor="middle" x="981" y="-14.3" font-family="Times New Roman,serif" font-size="14.00">tfx.v1.dsl.placeholders</text>
</g>
<!-- 8 -->
<g id="node9" class="node">
<title>8</title>
<polygon fill="none" stroke="black" points="1181.5,-36 1070.5,-36 1070.5,0 1181.5,0 1181.5,-36"/>
<text text-anchor="middle" x="1126" y="-14.3" font-family="Times New Roman,serif" font-size="14.00">tfx.v1.extensions</text>
</g>
<!-- 8&#45;&gt;8 -->
<g id="edge4" class="edge">
<title>8&#45;&gt;8</title>
<path fill="none" stroke="black" d="M1181.77,-11.6C1192.17,-12.39 1199.5,-14.52 1199.5,-18 1199.5,-20.18 1196.64,-21.82 1191.95,-22.95"/>
<polygon fill="black" stroke="black" points="1181.77,-24.4 1191.03,-18.53 1186.72,-23.7 1191.67,-22.99 1191.67,-22.99 1191.67,-22.99 1186.72,-23.7 1192.3,-27.44 1181.77,-24.4 1181.77,-24.4"/>
</g>
<!-- 9 -->
<g id="node10" class="node">
<title>9</title>
<polygon fill="none" stroke="black" points="1480.5,-36 1217.5,-36 1217.5,0 1480.5,0 1480.5,-36"/>
<text text-anchor="middle" x="1349" y="-14.3" font-family="Times New Roman,serif" font-size="14.00">tfx.v1.extensions.google_cloud_ai_platform</text>
</g>
<!-- 9&#45;&gt;9 -->
<g id="edge5" class="edge">
<title>9&#45;&gt;9</title>
<path fill="none" stroke="black" d="M1480.7,-12.78C1491.67,-13.91 1498.5,-15.64 1498.5,-18 1498.5,-19.51 1495.7,-20.76 1490.8,-21.77"/>
<polygon fill="black" stroke="black" points="1480.7,-23.22 1489.96,-17.34 1485.65,-22.51 1490.6,-21.8 1490.6,-21.8 1490.6,-21.8 1485.65,-22.51 1491.24,-26.25 1480.7,-23.22 1480.7,-23.22"/>
</g>
<!-- 10 -->
<g id="node11" class="node">
<title>10</title>
<polygon fill="none" stroke="black" points="1853,-36 1517,-36 1517,0 1853,0 1853,-36"/>
<text text-anchor="middle" x="1685" y="-14.3" font-family="Times New Roman,serif" font-size="14.00">tfx.v1.extensions.google_cloud_ai_platform.experimental</text>
</g>
<!-- 11 -->
<g id="node12" class="node">
<title>11</title>
<polygon fill="none" stroke="black" points="2126.5,-36 1871.5,-36 1871.5,0 2126.5,0 2126.5,-36"/>
<text text-anchor="middle" x="1999" y="-14.3" font-family="Times New Roman,serif" font-size="14.00">tfx.v1.extensions.google_cloud_big_query</text>
</g>
<!-- 12 -->
<g id="node13" class="node">
<title>12</title>
<polygon fill="none" stroke="black" points="2269.5,-36 2144.5,-36 2144.5,0 2269.5,0 2269.5,-36"/>
<text text-anchor="middle" x="2207" y="-14.3" font-family="Times New Roman,serif" font-size="14.00">tfx.v1.orchestration</text>
</g>
<!-- 12&#45;&gt;12 -->
<g id="edge6" class="edge">
<title>12&#45;&gt;12</title>
<path fill="none" stroke="black" d="M2269.78,-11.73C2280.26,-12.6 2287.5,-14.7 2287.5,-18 2287.5,-20.07 2284.67,-21.66 2279.99,-22.77"/>
<polygon fill="black" stroke="black" points="2269.78,-24.27 2279.02,-18.37 2274.73,-23.55 2279.67,-22.82 2279.67,-22.82 2279.67,-22.82 2274.73,-23.55 2280.33,-27.27 2269.78,-24.27 2269.78,-24.27"/>
</g>
<!-- 13 -->
<g id="node14" class="node">
<title>13</title>
<polygon fill="none" stroke="black" points="2504.5,-36 2305.5,-36 2305.5,0 2504.5,0 2504.5,-36"/>
<text text-anchor="middle" x="2405" y="-14.3" font-family="Times New Roman,serif" font-size="14.00">tfx.v1.orchestration.experimental</text>
</g>
<!-- 14 -->
<g id="node15" class="node">
<title>14</title>
<polygon fill="none" stroke="black" points="2701.5,-36 2522.5,-36 2522.5,0 2701.5,0 2701.5,-36"/>
<text text-anchor="middle" x="2612" y="-14.3" font-family="Times New Roman,serif" font-size="14.00">tfx.v1.orchestration.metadata</text>
</g>
<!-- 15 -->
<g id="node16" class="node">
<title>15</title>
<polygon fill="none" stroke="black" points="2802.5,-36 2719.5,-36 2719.5,0 2802.5,0 2802.5,-36"/>
<text text-anchor="middle" x="2761" y="-14.3" font-family="Times New Roman,serif" font-size="14.00">tfx.v1.proto</text>
</g>
<!-- 16 -->
<g id="node17" class="node">
<title>16</title>
<polygon fill="none" stroke="black" points="2903.5,-36 2820.5,-36 2820.5,0 2903.5,0 2903.5,-36"/>
<text text-anchor="middle" x="2862" y="-14.3" font-family="Times New Roman,serif" font-size="14.00">tfx.v1.types</text>
</g>
<!-- 16&#45;&gt;16 -->
<g id="edge7" class="edge">
<title>16&#45;&gt;16</title>
<path fill="none" stroke="black" d="M2903.71,-11.36C2913.91,-11.85 2921.5,-14.06 2921.5,-18 2921.5,-20.46 2918.53,-22.25 2913.82,-23.36"/>
<polygon fill="black" stroke="black" points="2903.71,-24.64 2913.06,-18.92 2908.67,-24.02 2913.63,-23.39 2913.63,-23.39 2913.63,-23.39 2908.67,-24.02 2914.19,-27.85 2903.71,-24.64 2903.71,-24.64"/>
</g>
<!-- 17 -->
<g id="node18" class="node">
<title>17</title>
<polygon fill="none" stroke="black" points="3126,-36 2940,-36 2940,0 3126,0 3126,-36"/>
<text text-anchor="middle" x="3033" y="-14.3" font-family="Times New Roman,serif" font-size="14.00">tfx.v1.types.standard_artifacts</text>
</g>
<!-- 18 -->
<g id="node19" class="node">
<title>18</title>
<polygon fill="none" stroke="black" points="3219.5,-36 3144.5,-36 3144.5,0 3219.5,0 3219.5,-36"/>
<text text-anchor="middle" x="3182" y="-14.3" font-family="Times New Roman,serif" font-size="14.00">tfx.v1.utils</text>
</g>
</g>
</svg>
