<?xml version="1.0" encoding="UTF-8" standalone="no"?>
<!DOCTYPE svg PUBLIC "-//W3C//DTD SVG 1.1//EN"
 "http://www.w3.org/Graphics/SVG/1.1/DTD/svg11.dtd">
<!-- Generated by graphviz version 5.0.0 (20220707.1540)
 -->
<!-- Title: classes Pages: 1 -->
<svg width="16798pt" height="696pt"
 viewBox="0.00 0.00 16797.50 696.00" xmlns="http://www.w3.org/2000/svg" xmlns:xlink="http://www.w3.org/1999/xlink">
<g id="graph0" class="graph" transform="scale(1 1) rotate(0) translate(4 692)">
<title>classes</title>
<polygon fill="white" stroke="transparent" points="-4,4 -4,-692 16793.5,-692 16793.5,4 -4,4"/>
<!-- 0 -->
<g id="node1" class="node">
<title>0</title>
<polygon fill="none" stroke="black" points="964,-483 964,-657 1993,-657 1993,-483 964,-483"/>
<text text-anchor="middle" x="1478.5" y="-641.8" font-family="Times New Roman,serif" font-size="14.00">AbstractJobClient</text>
<polyline fill="none" stroke="black" points="964,-634 1993,-634 "/>
<text text-anchor="start" x="972" y="-618.8" font-family="Times New Roman,serif" font-size="14.00">JOB_STATES_COMPLETED : tuple</text>
<text text-anchor="start" x="972" y="-603.8" font-family="Times New Roman,serif" font-size="14.00">JOB_STATES_FAILED : tuple</text>
<polyline fill="none" stroke="black" points="964,-596 1993,-596 "/>
<text text-anchor="start" x="972" y="-580.8" font-family="Times New Roman,serif" font-size="14.00">create_client(): </text>
<text text-anchor="start" x="972" y="-565.8" font-family="Times New Roman,serif" font-size="14.00">create_training_job(input_dict, output_dict, exec_properties, executor_class_path, job_args, job_id, job_labels): Dict[str, Any]</text>
<text text-anchor="start" x="972" y="-550.8" font-family="Times New Roman,serif" font-size="14.00">generate_container_command(input_dict: Dict[str, List[types.Artifact]], output_dict: Dict[str, List[types.Artifact]], exec_properties: Dict[str, Any], executor_class_path: str): List[str]</text>
<text text-anchor="start" x="972" y="-535.8" font-family="Times New Roman,serif" font-size="14.00">get_job(): Union[Dict[str, str], CustomJob]</text>
<text text-anchor="start" x="972" y="-520.8" font-family="Times New Roman,serif" font-size="14.00">get_job_name(): str</text>
<text text-anchor="start" x="972" y="-505.8" font-family="Times New Roman,serif" font-size="14.00">get_job_state(response: Union[Dict[str, str], CustomJob]): Union[str, JobState]</text>
<text text-anchor="start" x="972" y="-490.8" font-family="Times New Roman,serif" font-size="14.00">launch_job(project: str, training_job: Dict[str, Any]): </text>
</g>
<!-- 1 -->
<g id="node2" class="node">
<title>1</title>
<polygon fill="none" stroke="black" points="3631.5,-520 3631.5,-620 4773.5,-620 4773.5,-520 3631.5,-520"/>
<text text-anchor="middle" x="4202.5" y="-604.8" font-family="Times New Roman,serif" font-size="14.00">AbstractPredictionClient</text>
<polyline fill="none" stroke="black" points="3631.5,-597 4773.5,-597 "/>
<polyline fill="none" stroke="black" points="3631.5,-573 4773.5,-573 "/>
<text text-anchor="start" x="3639.5" y="-557.8" font-family="Times New Roman,serif" font-size="14.00">create_model_for_aip_prediction_if_not_exist(labels: Dict[str, str], ai_platform_serving_args: Dict[str, Any]): bool</text>
<text text-anchor="start" x="3639.5" y="-542.8" font-family="Times New Roman,serif" font-size="14.00">delete_model_from_aip_if_exists(ai_platform_serving_args: Dict[str, Any], model_version_name: str, delete_model_endpoint: Optional[bool]): </text>
<text text-anchor="start" x="3639.5" y="-527.8" font-family="Times New Roman,serif" font-size="14.00">deploy_model(serving_path: str, model_version_name: str, ai_platform_serving_args: Dict[str, Any], labels: Dict[str, str], skip_model_endpoint_creation: Optional[bool], set_default: Optional[bool]): str</text>
</g>
<!-- 2 -->
<g id="node3" class="node">
<title>2</title>
<polygon fill="none" stroke="black" points="5602.5,-166 5602.5,-235 5856.5,-235 5856.5,-166 5602.5,-166"/>
<text text-anchor="middle" x="5729.5" y="-219.8" font-family="Times New Roman,serif" font-size="14.00">BigQueryExampleGen</text>
<polyline fill="none" stroke="black" points="5602.5,-212 5856.5,-212 "/>
<text text-anchor="start" x="5610.5" y="-196.8" font-family="Times New Roman,serif" font-size="14.00">EXECUTOR_SPEC : BeamExecutorSpec</text>
<polyline fill="none" stroke="black" points="5602.5,-189 5856.5,-189 "/>
<text text-anchor="middle" x="5729.5" y="-173.8" font-family="Times New Roman,serif" font-size="14.00"> </text>
</g>
<!-- 3 -->
<g id="node4" class="node">
<title>3</title>
<polygon fill="none" stroke="black" points="5874.5,-166 5874.5,-235 6128.5,-235 6128.5,-166 5874.5,-166"/>
<text text-anchor="middle" x="6001.5" y="-219.8" font-family="Times New Roman,serif" font-size="14.00">BigQueryToElwcExampleGen</text>
<polyline fill="none" stroke="black" points="5874.5,-212 6128.5,-212 "/>
<text text-anchor="start" x="5882.5" y="-196.8" font-family="Times New Roman,serif" font-size="14.00">EXECUTOR_SPEC : BeamExecutorSpec</text>
<polyline fill="none" stroke="black" points="5874.5,-189 6128.5,-189 "/>
<text text-anchor="middle" x="6001.5" y="-173.8" font-family="Times New Roman,serif" font-size="14.00"> </text>
</g>
<!-- 4 -->
<g id="node5" class="node">
<title>4</title>
<polygon fill="none" stroke="black" points="0,-128.5 0,-272.5 1469,-272.5 1469,-128.5 0,-128.5"/>
<text text-anchor="middle" x="734.5" y="-257.3" font-family="Times New Roman,serif" font-size="14.00">CAIPJobClient</text>
<polyline fill="none" stroke="black" points="0,-249.5 1469,-249.5 "/>
<text text-anchor="start" x="8" y="-234.3" font-family="Times New Roman,serif" font-size="14.00">JOB_STATES_COMPLETED : tuple</text>
<text text-anchor="start" x="8" y="-219.3" font-family="Times New Roman,serif" font-size="14.00">JOB_STATES_FAILED : tuple</text>
<polyline fill="none" stroke="black" points="0,-211.5 1469,-211.5 "/>
<text text-anchor="start" x="8" y="-196.3" font-family="Times New Roman,serif" font-size="14.00">create_client(): </text>
<text text-anchor="start" x="8" y="-181.3" font-family="Times New Roman,serif" font-size="14.00">create_training_job(input_dict: Dict[str, List[types.Artifact]], output_dict: Dict[str, List[types.Artifact]], exec_properties: Dict[str, Any], executor_class_path: str, job_args: Dict[str, Any], job_id: Optional[str], job_labels: Optional[Dict[str, Any]]): Dict[str, Any]</text>
<text text-anchor="start" x="8" y="-166.3" font-family="Times New Roman,serif" font-size="14.00">get_job(): Dict[str, str]</text>
<text text-anchor="start" x="8" y="-151.3" font-family="Times New Roman,serif" font-size="14.00">get_job_state(response): str</text>
<text text-anchor="start" x="8" y="-136.3" font-family="Times New Roman,serif" font-size="14.00">launch_job(project: str, training_job: Dict[str, Any]): </text>
</g>
<!-- 4&#45;&gt;0 -->
<g id="edge1" class="edge">
<title>4&#45;&gt;0</title>
<path fill="none" stroke="black" d="M878.39,-272.58C997.2,-331.26 1166.56,-414.92 1295.09,-478.4"/>
<polygon fill="none" stroke="black" points="1293.75,-481.65 1304.27,-482.94 1296.85,-475.37 1293.75,-481.65"/>
</g>
<!-- 5 -->
<g id="node6" class="node">
<title>5</title>
<polygon fill="none" stroke="black" points="2974.5,-150.5 2974.5,-250.5 4116.5,-250.5 4116.5,-150.5 2974.5,-150.5"/>
<text text-anchor="middle" x="3545.5" y="-235.3" font-family="Times New Roman,serif" font-size="14.00">CAIPTfxPredictionClient</text>
<polyline fill="none" stroke="black" points="2974.5,-227.5 4116.5,-227.5 "/>
<polyline fill="none" stroke="black" points="2974.5,-203.5 4116.5,-203.5 "/>
<text text-anchor="start" x="2982.5" y="-188.3" font-family="Times New Roman,serif" font-size="14.00">create_model_for_aip_prediction_if_not_exist(labels: Dict[str, str], ai_platform_serving_args: Dict[str, Any]): bool</text>
<text text-anchor="start" x="2982.5" y="-173.3" font-family="Times New Roman,serif" font-size="14.00">delete_model_from_aip_if_exists(ai_platform_serving_args: Dict[str, Any], model_version_name: Optional[str], delete_model_endpoint: Optional[bool]): </text>
<text text-anchor="start" x="2982.5" y="-158.3" font-family="Times New Roman,serif" font-size="14.00">deploy_model(serving_path: str, model_version_name: str, ai_platform_serving_args: Dict[str, Any], labels: Dict[str, str], skip_model_endpoint_creation: Optional[bool], set_default: Optional[bool]): str</text>
</g>
<!-- 5&#45;&gt;1 -->
<g id="edge2" class="edge">
<title>5&#45;&gt;1</title>
<path fill="none" stroke="black" d="M3633.42,-250.68C3756.27,-319.39 3978.46,-443.68 4105.83,-514.93"/>
<polygon fill="none" stroke="black" points="4104.4,-518.14 4114.83,-519.96 4107.82,-512.03 4104.4,-518.14"/>
</g>
<!-- 6 -->
<g id="node7" class="node">
<title>6</title>
<polygon fill="none" stroke="black" points="6133.5,-528 6133.5,-612 6387.5,-612 6387.5,-528 6133.5,-528"/>
<text text-anchor="middle" x="6260.5" y="-596.8" font-family="Times New Roman,serif" font-size="14.00">CloudAIBulkInferrerComponent</text>
<polyline fill="none" stroke="black" points="6133.5,-589 6387.5,-589 "/>
<text text-anchor="start" x="6141.5" y="-573.8" font-family="Times New Roman,serif" font-size="14.00">EXECUTOR_SPEC : ExecutorClassSpec</text>
<text text-anchor="start" x="6141.5" y="-558.8" font-family="Times New Roman,serif" font-size="14.00">SPEC_CLASS</text>
<polyline fill="none" stroke="black" points="6133.5,-551 6387.5,-551 "/>
<text text-anchor="middle" x="6260.5" y="-535.8" font-family="Times New Roman,serif" font-size="14.00"> </text>
</g>
<!-- 7 -->
<g id="node8" class="node">
<title>7</title>
<polygon fill="none" stroke="black" points="6147,-151 6147,-250 6374,-250 6374,-151 6147,-151"/>
<text text-anchor="middle" x="6260.5" y="-234.8" font-family="Times New Roman,serif" font-size="14.00">CloudAIBulkInferrerComponentSpec</text>
<polyline fill="none" stroke="black" points="6147,-227 6374,-227 "/>
<text text-anchor="start" x="6155" y="-211.8" font-family="Times New Roman,serif" font-size="14.00">INPUTS : dict</text>
<text text-anchor="start" x="6155" y="-196.8" font-family="Times New Roman,serif" font-size="14.00">OUTPUTS : dict</text>
<text text-anchor="start" x="6155" y="-181.8" font-family="Times New Roman,serif" font-size="14.00">PARAMETERS : dict</text>
<polyline fill="none" stroke="black" points="6147,-174 6374,-174 "/>
<text text-anchor="middle" x="6260.5" y="-158.8" font-family="Times New Roman,serif" font-size="14.00"> </text>
</g>
<!-- 7&#45;&gt;6 -->
<g id="edge6" class="edge">
<title>7&#45;&gt;6</title>
<path fill="none" stroke="black" d="M6260.5,-250.3C6260.5,-319.19 6260.5,-444.47 6260.5,-515.71"/>
<polygon fill="black" stroke="black" points="6260.5,-515.94 6264.5,-521.94 6260.5,-527.94 6256.5,-521.94 6260.5,-515.94"/>
<text text-anchor="middle" x="6304" y="-422.8" font-family="Times New Roman,serif" font-size="14.00" fill="green">SPEC_CLASS</text>
</g>
<!-- 8 -->
<g id="node9" class="node">
<title>8</title>
<polygon fill="none" stroke="black" points="6392.5,-150.5 6392.5,-250.5 6580.5,-250.5 6580.5,-150.5 6392.5,-150.5"/>
<text text-anchor="middle" x="6486.5" y="-235.3" font-family="Times New Roman,serif" font-size="14.00">ComponentTest</text>
<polyline fill="none" stroke="black" points="6392.5,-227.5 6580.5,-227.5 "/>
<polyline fill="none" stroke="black" points="6392.5,-203.5 6580.5,-203.5 "/>
<text text-anchor="start" x="6400.5" y="-188.3" font-family="Times New Roman,serif" font-size="14.00">setUp()</text>
<text text-anchor="start" x="6400.5" y="-173.3" font-family="Times New Roman,serif" font-size="14.00">testConstructInferenceResult()</text>
<text text-anchor="start" x="6400.5" y="-158.3" font-family="Times New Roman,serif" font-size="14.00">testConstructOutputExample()</text>
</g>
<!-- 9 -->
<g id="node10" class="node">
<title>9</title>
<polygon fill="none" stroke="black" points="6598.5,-165.5 6598.5,-235.5 6792.5,-235.5 6792.5,-165.5 6598.5,-165.5"/>
<text text-anchor="middle" x="6695.5" y="-220.3" font-family="Times New Roman,serif" font-size="14.00">ComponentTest</text>
<polyline fill="none" stroke="black" points="6598.5,-212.5 6792.5,-212.5 "/>
<polyline fill="none" stroke="black" points="6598.5,-188.5 6792.5,-188.5 "/>
<text text-anchor="start" x="6606.5" y="-173.3" font-family="Times New Roman,serif" font-size="14.00">testConstructFromModuleFile()</text>
</g>
<!-- 10 -->
<g id="node11" class="node">
<title>10</title>
<polygon fill="none" stroke="black" points="6811,-143 6811,-258 7016,-258 7016,-143 6811,-143"/>
<text text-anchor="middle" x="6913.5" y="-242.8" font-family="Times New Roman,serif" font-size="14.00">ComponentTest</text>
<polyline fill="none" stroke="black" points="6811,-235 7016,-235 "/>
<polyline fill="none" stroke="black" points="6811,-211 7016,-211 "/>
<text text-anchor="start" x="6819" y="-195.8" font-family="Times New Roman,serif" font-size="14.00">testConstruct()</text>
<text text-anchor="start" x="6819" y="-180.8" font-family="Times New Roman,serif" font-size="14.00">testConstructWithInputConfig()</text>
<text text-anchor="start" x="6819" y="-165.8" font-family="Times New Roman,serif" font-size="14.00">testConstructWithOutputConfig()</text>
<text text-anchor="start" x="6819" y="-150.8" font-family="Times New Roman,serif" font-size="14.00">testConstructWithRangeConfig()</text>
</g>
<!-- 11 -->
<g id="node12" class="node">
<title>11</title>
<polygon fill="none" stroke="black" points="7034.5,-143 7034.5,-258 7246.5,-258 7246.5,-143 7034.5,-143"/>
<text text-anchor="middle" x="7140.5" y="-242.8" font-family="Times New Roman,serif" font-size="14.00">ComponentTest</text>
<polyline fill="none" stroke="black" points="7034.5,-235 7246.5,-235 "/>
<polyline fill="none" stroke="black" points="7034.5,-211 7246.5,-211 "/>
<text text-anchor="start" x="7042.5" y="-195.8" font-family="Times New Roman,serif" font-size="14.00">testConstruct()</text>
<text text-anchor="start" x="7042.5" y="-180.8" font-family="Times New Roman,serif" font-size="14.00">testConstructWithInputConfig()</text>
<text text-anchor="start" x="7042.5" y="-165.8" font-family="Times New Roman,serif" font-size="14.00">testConstructWithOutputConfig()</text>
<text text-anchor="start" x="7042.5" y="-150.8" font-family="Times New Roman,serif" font-size="14.00">testConstructWithoutElwcConfig()</text>
</g>
<!-- 12 -->
<g id="node13" class="node">
<title>12</title>
<polygon fill="none" stroke="black" points="7264.5,-165.5 7264.5,-235.5 7956.5,-235.5 7956.5,-165.5 7264.5,-165.5"/>
<text text-anchor="middle" x="7610.5" y="-220.3" font-family="Times New Roman,serif" font-size="14.00">Executor</text>
<polyline fill="none" stroke="black" points="7264.5,-212.5 7956.5,-212.5 "/>
<polyline fill="none" stroke="black" points="7264.5,-188.5 7956.5,-188.5 "/>
<text text-anchor="start" x="7272.5" y="-173.3" font-family="Times New Roman,serif" font-size="14.00">Do(input_dict: Dict[str, List[types.Artifact]], output_dict: Dict[str, List[types.Artifact]], exec_properties: Dict[str, Any]): </text>
</g>
<!-- 13 -->
<g id="node14" class="node">
<title>13</title>
<polygon fill="none" stroke="black" points="7975,-165.5 7975,-235.5 8660,-235.5 8660,-165.5 7975,-165.5"/>
<text text-anchor="middle" x="8317.5" y="-220.3" font-family="Times New Roman,serif" font-size="14.00">Executor</text>
<polyline fill="none" stroke="black" points="7975,-212.5 8660,-212.5 "/>
<polyline fill="none" stroke="black" points="7975,-188.5 8660,-188.5 "/>
<text text-anchor="start" x="7983" y="-173.3" font-family="Times New Roman,serif" font-size="14.00">Do(input_dict: Dict[str, List[types.Artifact]], output_dict: Dict[str, List[types.Artifact]], exec_properties: Dict[str, Any])</text>
</g>
<!-- 20 -->
<g id="node21" class="node">
<title>20</title>
<polygon fill="none" stroke="black" points="8147,-452.5 8147,-687.5 8488,-687.5 8488,-452.5 8147,-452.5"/>
<text text-anchor="middle" x="8317.5" y="-672.3" font-family="Times New Roman,serif" font-size="14.00">ExecutorTest</text>
<polyline fill="none" stroke="black" points="8147,-664.5 8488,-664.5 "/>
<polyline fill="none" stroke="black" points="8147,-640.5 8488,-640.5 "/>
<text text-anchor="start" x="8155" y="-625.3" font-family="Times New Roman,serif" font-size="14.00">assertDirectoryEmpty(path)</text>
<text text-anchor="start" x="8155" y="-610.3" font-family="Times New Roman,serif" font-size="14.00">assertDirectoryNotEmpty(path)</text>
<text text-anchor="start" x="8155" y="-595.3" font-family="Times New Roman,serif" font-size="14.00">assertNotPushed()</text>
<text text-anchor="start" x="8155" y="-580.3" font-family="Times New Roman,serif" font-size="14.00">assertPushed()</text>
<text text-anchor="start" x="8155" y="-565.3" font-family="Times New Roman,serif" font-size="14.00">setUp()</text>
<text text-anchor="start" x="8155" y="-550.3" font-family="Times New Roman,serif" font-size="14.00">testDoBlessed(mock_runner, _)</text>
<text text-anchor="start" x="8155" y="-535.3" font-family="Times New Roman,serif" font-size="14.00">testDoBlessedOnRegionalEndpoint(mock_runner, _)</text>
<text text-anchor="start" x="8155" y="-520.3" font-family="Times New Roman,serif" font-size="14.00">testDoBlessedOnRegionalEndpoint_Vertex(mock_runner)</text>
<text text-anchor="start" x="8155" y="-505.3" font-family="Times New Roman,serif" font-size="14.00">testDoBlessed_Vertex(mock_runner)</text>
<text text-anchor="start" x="8155" y="-490.3" font-family="Times New Roman,serif" font-size="14.00">testDoNotBlessed(mock_runner, _)</text>
<text text-anchor="start" x="8155" y="-475.3" font-family="Times New Roman,serif" font-size="14.00">testDoNotBlessed_Vertex(mock_runner)</text>
<text text-anchor="start" x="8155" y="-460.3" font-family="Times New Roman,serif" font-size="14.00">testRegionsAndEndpointCannotCoExist()</text>
</g>
<!-- 13&#45;&gt;20 -->
<g id="edge7" class="edge">
<title>13&#45;&gt;20</title>
<path fill="none" stroke="black" d="M8317.5,-235.74C8317.5,-282.16 8317.5,-367.61 8317.5,-440.36"/>
<polygon fill="black" stroke="black" points="8317.5,-440.39 8321.5,-446.39 8317.5,-452.39 8313.5,-446.39 8317.5,-440.39"/>
<text text-anchor="middle" x="8345.5" y="-422.8" font-family="Times New Roman,serif" font-size="14.00" fill="green">_executor</text>
</g>
<!-- 14 -->
<g id="node15" class="node">
<title>14</title>
<polygon fill="none" stroke="black" points="8815,-165.5 8815,-235.5 8882,-235.5 8882,-165.5 8815,-165.5"/>
<text text-anchor="middle" x="8848.5" y="-220.3" font-family="Times New Roman,serif" font-size="14.00">Executor</text>
<polyline fill="none" stroke="black" points="8815,-212.5 8882,-212.5 "/>
<polyline fill="none" stroke="black" points="8815,-188.5 8882,-188.5 "/>
<text text-anchor="middle" x="8848.5" y="-173.3" font-family="Times New Roman,serif" font-size="14.00"> </text>
</g>
<!-- 26 -->
<g id="node27" class="node">
<title>26</title>
<polygon fill="none" stroke="black" points="8506,-535 8506,-605 9191,-605 9191,-535 8506,-535"/>
<text text-anchor="middle" x="8848.5" y="-589.8" font-family="Times New Roman,serif" font-size="14.00">GenericExecutor</text>
<polyline fill="none" stroke="black" points="8506,-582 9191,-582 "/>
<polyline fill="none" stroke="black" points="8506,-558 9191,-558 "/>
<text text-anchor="start" x="8514" y="-542.8" font-family="Times New Roman,serif" font-size="14.00">Do(input_dict: Dict[str, List[types.Artifact]], output_dict: Dict[str, List[types.Artifact]], exec_properties: Dict[str, Any])</text>
</g>
<!-- 14&#45;&gt;26 -->
<g id="edge3" class="edge">
<title>14&#45;&gt;26</title>
<path fill="none" stroke="black" d="M8848.5,-235.74C8848.5,-302.57 8848.5,-450.32 8848.5,-524.57"/>
<polygon fill="none" stroke="black" points="8845,-524.98 8848.5,-534.98 8852,-524.98 8845,-524.98"/>
</g>
<!-- 15 -->
<g id="node16" class="node">
<title>15</title>
<polygon fill="none" stroke="black" points="8900.5,-165.5 8900.5,-235.5 9592.5,-235.5 9592.5,-165.5 8900.5,-165.5"/>
<text text-anchor="middle" x="9246.5" y="-220.3" font-family="Times New Roman,serif" font-size="14.00">Executor</text>
<polyline fill="none" stroke="black" points="8900.5,-212.5 9592.5,-212.5 "/>
<polyline fill="none" stroke="black" points="8900.5,-188.5 9592.5,-188.5 "/>
<text text-anchor="start" x="8908.5" y="-173.3" font-family="Times New Roman,serif" font-size="14.00">Do(input_dict: Dict[str, List[types.Artifact]], output_dict: Dict[str, List[types.Artifact]], exec_properties: Dict[str, Any]): </text>
</g>
<!-- 16 -->
<g id="node17" class="node">
<title>16</title>
<polygon fill="none" stroke="black" points="9610.5,-165.5 9610.5,-235.5 9864.5,-235.5 9864.5,-165.5 9610.5,-165.5"/>
<text text-anchor="middle" x="9737.5" y="-220.3" font-family="Times New Roman,serif" font-size="14.00">Executor</text>
<polyline fill="none" stroke="black" points="9610.5,-212.5 9864.5,-212.5 "/>
<polyline fill="none" stroke="black" points="9610.5,-188.5 9864.5,-188.5 "/>
<text text-anchor="start" x="9618.5" y="-173.3" font-family="Times New Roman,serif" font-size="14.00">GetInputSourceToExamplePTransform(): </text>
</g>
<!-- 17 -->
<g id="node18" class="node">
<title>17</title>
<polygon fill="none" stroke="black" points="9882.5,-165.5 9882.5,-235.5 10136.5,-235.5 10136.5,-165.5 9882.5,-165.5"/>
<text text-anchor="middle" x="10009.5" y="-220.3" font-family="Times New Roman,serif" font-size="14.00">Executor</text>
<polyline fill="none" stroke="black" points="9882.5,-212.5 10136.5,-212.5 "/>
<polyline fill="none" stroke="black" points="9882.5,-188.5 10136.5,-188.5 "/>
<text text-anchor="start" x="9890.5" y="-173.3" font-family="Times New Roman,serif" font-size="14.00">GetInputSourceToExamplePTransform(): </text>
</g>
<!-- 18 -->
<g id="node19" class="node">
<title>18</title>
<polygon fill="none" stroke="black" points="10155,-165.5 10155,-235.5 10840,-235.5 10840,-165.5 10155,-165.5"/>
<text text-anchor="middle" x="10497.5" y="-220.3" font-family="Times New Roman,serif" font-size="14.00">Executor</text>
<polyline fill="none" stroke="black" points="10155,-212.5 10840,-212.5 "/>
<polyline fill="none" stroke="black" points="10155,-188.5 10840,-188.5 "/>
<text text-anchor="start" x="10163" y="-173.3" font-family="Times New Roman,serif" font-size="14.00">Do(input_dict: Dict[str, List[types.Artifact]], output_dict: Dict[str, List[types.Artifact]], exec_properties: Dict[str, Any])</text>
</g>
<!-- 25 -->
<g id="node26" class="node">
<title>25</title>
<polygon fill="none" stroke="black" points="10264,-475.5 10264,-664.5 10731,-664.5 10731,-475.5 10264,-475.5"/>
<text text-anchor="middle" x="10497.5" y="-649.3" font-family="Times New Roman,serif" font-size="14.00">ExecutorTest</text>
<polyline fill="none" stroke="black" points="10264,-641.5 10731,-641.5 "/>
<text text-anchor="start" x="10272" y="-626.3" font-family="Times New Roman,serif" font-size="14.00">mock_bq : AsyncMock, MagicMock, NonCallableMagicMock, dict</text>
<text text-anchor="start" x="10272" y="-611.3" font-family="Times New Roman,serif" font-size="14.00">mock_check_blessing : MagicMock, AsyncMock, dict, NonCallableMagicMock</text>
<text text-anchor="start" x="10272" y="-596.3" font-family="Times New Roman,serif" font-size="14.00">mock_copy_dir : NonCallableMagicMock, AsyncMock, MagicMock, dict</text>
<polyline fill="none" stroke="black" points="10264,-588.5 10731,-588.5 "/>
<text text-anchor="start" x="10272" y="-573.3" font-family="Times New Roman,serif" font-size="14.00">assertNotPushed()</text>
<text text-anchor="start" x="10272" y="-558.3" font-family="Times New Roman,serif" font-size="14.00">assertPushed()</text>
<text text-anchor="start" x="10272" y="-543.3" font-family="Times New Roman,serif" font-size="14.00">setUp()</text>
<text text-anchor="start" x="10272" y="-528.3" font-family="Times New Roman,serif" font-size="14.00">testBigQueryServingArgs()</text>
<text text-anchor="start" x="10272" y="-513.3" font-family="Times New Roman,serif" font-size="14.00">testDoBlessed()</text>
<text text-anchor="start" x="10272" y="-498.3" font-family="Times New Roman,serif" font-size="14.00">testDoNotBlessed()</text>
<text text-anchor="start" x="10272" y="-483.3" font-family="Times New Roman,serif" font-size="14.00">testPipelineRoot()</text>
</g>
<!-- 18&#45;&gt;25 -->
<g id="edge8" class="edge">
<title>18&#45;&gt;25</title>
<path fill="none" stroke="black" d="M10497.5,-235.74C10497.5,-287.08 10497.5,-386.15 10497.5,-462.99"/>
<polygon fill="black" stroke="black" points="10497.5,-463.12 10501.5,-469.12 10497.5,-475.12 10493.5,-469.12 10497.5,-463.12"/>
<text text-anchor="middle" x="10525.5" y="-422.8" font-family="Times New Roman,serif" font-size="14.00" fill="green">_executor</text>
</g>
<!-- 19 -->
<g id="node20" class="node">
<title>19</title>
<polygon fill="none" stroke="black" points="10858,-143.5 10858,-257.5 11311,-257.5 11311,-143.5 10858,-143.5"/>
<text text-anchor="middle" x="11084.5" y="-242.3" font-family="Times New Roman,serif" font-size="14.00">ExecutorTest</text>
<polyline fill="none" stroke="black" points="10858,-234.5 11311,-234.5 "/>
<text text-anchor="start" x="10866" y="-219.3" font-family="Times New Roman,serif" font-size="14.00">component_id : str</text>
<polyline fill="none" stroke="black" points="10858,-211.5 11311,-211.5 "/>
<text text-anchor="start" x="10866" y="-196.3" font-family="Times New Roman,serif" font-size="14.00">setUp()</text>
<text text-anchor="start" x="10866" y="-181.3" font-family="Times New Roman,serif" font-size="14.00">testDoFailedModelDeployment(mock_runner, mock_run_model_inference, _)</text>
<text text-anchor="start" x="10866" y="-166.3" font-family="Times New Roman,serif" font-size="14.00">testDoSkippedModelCreation(mock_runner, mock_run_model_inference, _)</text>
<text text-anchor="start" x="10866" y="-151.3" font-family="Times New Roman,serif" font-size="14.00">testDoWithBlessedModel(mock_runner, mock_run_model_inference, _)</text>
</g>
<!-- 21 -->
<g id="node22" class="node">
<title>21</title>
<polygon fill="none" stroke="black" points="11329,-136 11329,-265 11746,-265 11746,-136 11329,-136"/>
<text text-anchor="middle" x="11537.5" y="-249.8" font-family="Times New Roman,serif" font-size="14.00">ExecutorTest</text>
<polyline fill="none" stroke="black" points="11329,-242 11746,-242 "/>
<text text-anchor="start" x="11337" y="-226.8" font-family="Times New Roman,serif" font-size="14.00">mock_runner : NonCallableMagicMock, AsyncMock, MagicMock, dict</text>
<polyline fill="none" stroke="black" points="11329,-219 11746,-219 "/>
<text text-anchor="start" x="11337" y="-203.8" font-family="Times New Roman,serif" font-size="14.00">setUp()</text>
<text text-anchor="start" x="11337" y="-188.8" font-family="Times New Roman,serif" font-size="14.00">testDo()</text>
<text text-anchor="start" x="11337" y="-173.8" font-family="Times New Roman,serif" font-size="14.00">testDoWithEnableVertexOverride()</text>
<text text-anchor="start" x="11337" y="-158.8" font-family="Times New Roman,serif" font-size="14.00">testDoWithGenericExecutorClass()</text>
<text text-anchor="start" x="11337" y="-143.8" font-family="Times New Roman,serif" font-size="14.00">testDoWithJobIdOverride()</text>
</g>
<!-- 22 -->
<g id="node23" class="node">
<title>22</title>
<polygon fill="none" stroke="black" points="11764,-128.5 11764,-272.5 12181,-272.5 12181,-128.5 11764,-128.5"/>
<text text-anchor="middle" x="11972.5" y="-257.3" font-family="Times New Roman,serif" font-size="14.00">ExecutorTest</text>
<polyline fill="none" stroke="black" points="11764,-249.5 12181,-249.5 "/>
<text text-anchor="start" x="11772" y="-234.3" font-family="Times New Roman,serif" font-size="14.00">mock_runner : NonCallableMagicMock, AsyncMock, MagicMock, dict</text>
<polyline fill="none" stroke="black" points="11764,-226.5 12181,-226.5 "/>
<text text-anchor="start" x="11772" y="-211.3" font-family="Times New Roman,serif" font-size="14.00">setUp()</text>
<text text-anchor="start" x="11772" y="-196.3" font-family="Times New Roman,serif" font-size="14.00">testDo()</text>
<text text-anchor="start" x="11772" y="-181.3" font-family="Times New Roman,serif" font-size="14.00">testDoWithEnableVertexOverride()</text>
<text text-anchor="start" x="11772" y="-166.3" font-family="Times New Roman,serif" font-size="14.00">testDoWithTuneArgs()</text>
<text text-anchor="start" x="11772" y="-151.3" font-family="Times New Roman,serif" font-size="14.00">testDoWithTuneArgsAndTrainingInputOverride()</text>
<text text-anchor="start" x="11772" y="-136.3" font-family="Times New Roman,serif" font-size="14.00">testDoWithoutCustomCaipTuneArgs()</text>
</g>
<!-- 23 -->
<g id="node24" class="node">
<title>23</title>
<polygon fill="none" stroke="black" points="12199,-150.5 12199,-250.5 12430,-250.5 12430,-150.5 12199,-150.5"/>
<text text-anchor="middle" x="12314.5" y="-235.3" font-family="Times New Roman,serif" font-size="14.00">ExecutorTest</text>
<polyline fill="none" stroke="black" points="12199,-227.5 12430,-227.5 "/>
<polyline fill="none" stroke="black" points="12199,-203.5 12430,-203.5 "/>
<text text-anchor="start" x="12207" y="-188.3" font-family="Times New Roman,serif" font-size="14.00">setUp()</text>
<text text-anchor="start" x="12207" y="-173.3" font-family="Times New Roman,serif" font-size="14.00">testBigQueryToExample(mock_client)</text>
<text text-anchor="start" x="12207" y="-158.3" font-family="Times New Roman,serif" font-size="14.00">testDo(mock_client)</text>
</g>
<!-- 24 -->
<g id="node25" class="node">
<title>24</title>
<polygon fill="none" stroke="black" points="12448,-158 12448,-243 12659,-243 12659,-158 12448,-158"/>
<text text-anchor="middle" x="12553.5" y="-227.8" font-family="Times New Roman,serif" font-size="14.00">ExecutorTest</text>
<polyline fill="none" stroke="black" points="12448,-220 12659,-220 "/>
<polyline fill="none" stroke="black" points="12448,-196 12659,-196 "/>
<text text-anchor="start" x="12456" y="-180.8" font-family="Times New Roman,serif" font-size="14.00">setUp()</text>
<text text-anchor="start" x="12456" y="-165.8" font-family="Times New Roman,serif" font-size="14.00">testBigQueryToElwc(mock_client)</text>
</g>
<!-- 27 -->
<g id="node28" class="node">
<title>27</title>
<polygon fill="none" stroke="black" points="12677.5,-143 12677.5,-258 12909.5,-258 12909.5,-143 12677.5,-143"/>
<text text-anchor="middle" x="12793.5" y="-242.8" font-family="Times New Roman,serif" font-size="14.00">KubeflowContainerComponentTest</text>
<polyline fill="none" stroke="black" points="12677.5,-235 12909.5,-235 "/>
<polyline fill="none" stroke="black" points="12677.5,-211 12909.5,-211 "/>
<text text-anchor="start" x="12685.5" y="-195.8" font-family="Times New Roman,serif" font-size="14.00">setUp()</text>
<text text-anchor="start" x="12685.5" y="-180.8" font-family="Times New Roman,serif" font-size="14.00">testConvertTargetFieldsToKvPair()</text>
<text text-anchor="start" x="12685.5" y="-165.8" font-family="Times New Roman,serif" font-size="14.00">testCreateComponent()</text>
<text text-anchor="start" x="12685.5" y="-150.8" font-family="Times New Roman,serif" font-size="14.00">testGetCommandLineArgumentType()</text>
</g>
<!-- 28 -->
<g id="node29" class="node">
<title>28</title>
<polygon fill="none" stroke="black" points="12927.5,-165.5 12927.5,-235.5 13103.5,-235.5 13103.5,-165.5 12927.5,-165.5"/>
<text text-anchor="middle" x="13015.5" y="-220.3" font-family="Times New Roman,serif" font-size="14.00">PredictionClientTest</text>
<polyline fill="none" stroke="black" points="12927.5,-212.5 13103.5,-212.5 "/>
<polyline fill="none" stroke="black" points="12927.5,-188.5 13103.5,-188.5 "/>
<text text-anchor="start" x="12935.5" y="-173.3" font-family="Times New Roman,serif" font-size="14.00">testGetTensorflowRuntime()</text>
</g>
<!-- 29 -->
<g id="node30" class="node">
<title>29</title>
<polygon fill="none" stroke="black" points="13121.5,-166 13121.5,-235 13375.5,-235 13375.5,-166 13121.5,-166"/>
<text text-anchor="middle" x="13248.5" y="-219.8" font-family="Times New Roman,serif" font-size="14.00">Pusher</text>
<polyline fill="none" stroke="black" points="13121.5,-212 13375.5,-212 "/>
<text text-anchor="start" x="13129.5" y="-196.8" font-family="Times New Roman,serif" font-size="14.00">EXECUTOR_SPEC : ExecutorClassSpec</text>
<polyline fill="none" stroke="black" points="13121.5,-189 13375.5,-189 "/>
<text text-anchor="middle" x="13248.5" y="-173.8" font-family="Times New Roman,serif" font-size="14.00"> </text>
</g>
<!-- 30 -->
<g id="node31" class="node">
<title>30</title>
<polygon fill="none" stroke="black" points="13393.5,-166 13393.5,-235 13647.5,-235 13647.5,-166 13393.5,-166"/>
<text text-anchor="middle" x="13520.5" y="-219.8" font-family="Times New Roman,serif" font-size="14.00">Pusher</text>
<polyline fill="none" stroke="black" points="13393.5,-212 13647.5,-212 "/>
<text text-anchor="start" x="13401.5" y="-196.8" font-family="Times New Roman,serif" font-size="14.00">EXECUTOR_SPEC : ExecutorClassSpec</text>
<polyline fill="none" stroke="black" points="13393.5,-189 13647.5,-189 "/>
<text text-anchor="middle" x="13520.5" y="-173.8" font-family="Times New Roman,serif" font-size="14.00"> </text>
</g>
<!-- 31 -->
<g id="node32" class="node">
<title>31</title>
<polygon fill="none" stroke="black" points="13666,-165.5 13666,-235.5 13767,-235.5 13767,-165.5 13666,-165.5"/>
<text text-anchor="middle" x="13716.5" y="-220.3" font-family="Times New Roman,serif" font-size="14.00">PusherTest</text>
<polyline fill="none" stroke="black" points="13666,-212.5 13767,-212.5 "/>
<polyline fill="none" stroke="black" points="13666,-188.5 13767,-188.5 "/>
<text text-anchor="start" x="13674" y="-173.3" font-family="Times New Roman,serif" font-size="14.00">testConstruct()</text>
</g>
<!-- 32 -->
<g id="node33" class="node">
<title>32</title>
<polygon fill="none" stroke="black" points="13785,-165.5 13785,-235.5 13886,-235.5 13886,-165.5 13785,-165.5"/>
<text text-anchor="middle" x="13835.5" y="-220.3" font-family="Times New Roman,serif" font-size="14.00">PusherTest</text>
<polyline fill="none" stroke="black" points="13785,-212.5 13886,-212.5 "/>
<polyline fill="none" stroke="black" points="13785,-188.5 13886,-188.5 "/>
<text text-anchor="start" x="13793" y="-173.3" font-family="Times New Roman,serif" font-size="14.00">testConstruct()</text>
</g>
<!-- 33 -->
<g id="node34" class="node">
<title>33</title>
<polygon fill="none" stroke="black" points="13904,-0.5 13904,-400.5 14287,-400.5 14287,-0.5 13904,-0.5"/>
<text text-anchor="middle" x="14095.5" y="-385.3" font-family="Times New Roman,serif" font-size="14.00">RunnerTest</text>
<polyline fill="none" stroke="black" points="13904,-377.5 14287,-377.5 "/>
<polyline fill="none" stroke="black" points="13904,-353.5 14287,-353.5 "/>
<text text-anchor="start" x="13912" y="-338.3" font-family="Times New Roman,serif" font-size="14.00">setUp()</text>
<text text-anchor="start" x="13912" y="-323.3" font-family="Times New Roman,serif" font-size="14.00">testCreateModel()</text>
<text text-anchor="start" x="13912" y="-308.3" font-family="Times New Roman,serif" font-size="14.00">testCreateModelCreateError()</text>
<text text-anchor="start" x="13912" y="-293.3" font-family="Times New Roman,serif" font-size="14.00">testCreateVertexEndpointCreateErrorAlreadyExist()</text>
<text text-anchor="start" x="13912" y="-278.3" font-family="Times New Roman,serif" font-size="14.00">testCreateVertexModel()</text>
<text text-anchor="start" x="13912" y="-263.3" font-family="Times New Roman,serif" font-size="14.00">testDeleteEndpointForVertexPrediction()</text>
<text text-anchor="start" x="13912" y="-248.3" font-family="Times New Roman,serif" font-size="14.00">testDeleteModelForAIPPrediction(mock_discovery)</text>
<text text-anchor="start" x="13912" y="-233.3" font-family="Times New Roman,serif" font-size="14.00">testDeleteModelForVertexPrediction()</text>
<text text-anchor="start" x="13912" y="-218.3" font-family="Times New Roman,serif" font-size="14.00">testDeleteModelVersionForAIPPrediction(mock_discovery)</text>
<text text-anchor="start" x="13912" y="-203.3" font-family="Times New Roman,serif" font-size="14.00">testDeployModelForAIPPrediction()</text>
<text text-anchor="start" x="13912" y="-188.3" font-family="Times New Roman,serif" font-size="14.00">testDeployModelForAIPPredictionError()</text>
<text text-anchor="start" x="13912" y="-173.3" font-family="Times New Roman,serif" font-size="14.00">testDeployModelForAIPPredictionWithCustomMachineType()</text>
<text text-anchor="start" x="13912" y="-158.3" font-family="Times New Roman,serif" font-size="14.00">testDeployModelForAIPPredictionWithCustomRegion()</text>
<text text-anchor="start" x="13912" y="-143.3" font-family="Times New Roman,serif" font-size="14.00">testDeployModelForAIPPredictionWithCustomRuntime()</text>
<text text-anchor="start" x="13912" y="-128.3" font-family="Times New Roman,serif" font-size="14.00">testDeployModelForVertexPrediction()</text>
<text text-anchor="start" x="13912" y="-113.3" font-family="Times New Roman,serif" font-size="14.00">testDeployModelForVertexPredictionError()</text>
<text text-anchor="start" x="13912" y="-98.3" font-family="Times New Roman,serif" font-size="14.00">testDeployModelForVertexPredictionWithCustomMachineType()</text>
<text text-anchor="start" x="13912" y="-83.3" font-family="Times New Roman,serif" font-size="14.00">testDeployModelForVertexPredictionWithCustomRegion()</text>
<text text-anchor="start" x="13912" y="-68.3" font-family="Times New Roman,serif" font-size="14.00">testStartCloudTraining(mock_discovery)</text>
<text text-anchor="start" x="13912" y="-53.3" font-family="Times New Roman,serif" font-size="14.00">testStartCloudTrainingWithUserContainer(mock_discovery)</text>
<text text-anchor="start" x="13912" y="-38.3" font-family="Times New Roman,serif" font-size="14.00">testStartCloudTrainingWithUserContainer_Vertex(mock_gapic)</text>
<text text-anchor="start" x="13912" y="-23.3" font-family="Times New Roman,serif" font-size="14.00">testStartCloudTrainingWithVertexCustomJob(mock_gapic)</text>
<text text-anchor="start" x="13912" y="-8.3" font-family="Times New Roman,serif" font-size="14.00">testStartCloudTraining_Vertex(mock_gapic)</text>
</g>
<!-- 34 -->
<g id="node35" class="node">
<title>34</title>
<polygon fill="none" stroke="black" points="14305.5,-166 14305.5,-235 14559.5,-235 14559.5,-166 14305.5,-166"/>
<text text-anchor="middle" x="14432.5" y="-219.8" font-family="Times New Roman,serif" font-size="14.00">Trainer</text>
<polyline fill="none" stroke="black" points="14305.5,-212 14559.5,-212 "/>
<text text-anchor="start" x="14313.5" y="-196.8" font-family="Times New Roman,serif" font-size="14.00">EXECUTOR_SPEC : ExecutorClassSpec</text>
<polyline fill="none" stroke="black" points="14305.5,-189 14559.5,-189 "/>
<text text-anchor="middle" x="14432.5" y="-173.8" font-family="Times New Roman,serif" font-size="14.00"> </text>
</g>
<!-- 35 -->
<g id="node36" class="node">
<title>35</title>
<polygon fill="none" stroke="black" points="14577.5,-166 14577.5,-235 14831.5,-235 14831.5,-166 14577.5,-166"/>
<text text-anchor="middle" x="14704.5" y="-219.8" font-family="Times New Roman,serif" font-size="14.00">Tuner</text>
<polyline fill="none" stroke="black" points="14577.5,-212 14831.5,-212 "/>
<text text-anchor="start" x="14585.5" y="-196.8" font-family="Times New Roman,serif" font-size="14.00">EXECUTOR_SPEC : ExecutorClassSpec</text>
<polyline fill="none" stroke="black" points="14577.5,-189 14831.5,-189 "/>
<text text-anchor="middle" x="14704.5" y="-173.8" font-family="Times New Roman,serif" font-size="14.00"> </text>
</g>
<!-- 36 -->
<g id="node37" class="node">
<title>36</title>
<polygon fill="none" stroke="black" points="14849.5,-106 14849.5,-295 15077.5,-295 15077.5,-106 14849.5,-106"/>
<text text-anchor="middle" x="14963.5" y="-279.8" font-family="Times New Roman,serif" font-size="14.00">TunerTest</text>
<polyline fill="none" stroke="black" points="14849.5,-272 15077.5,-272 "/>
<text text-anchor="start" x="14857.5" y="-256.8" font-family="Times New Roman,serif" font-size="14.00">custom_config : dict</text>
<text text-anchor="start" x="14857.5" y="-241.8" font-family="Times New Roman,serif" font-size="14.00">eval_args</text>
<text text-anchor="start" x="14857.5" y="-226.8" font-family="Times New Roman,serif" font-size="14.00">examples : Channel</text>
<text text-anchor="start" x="14857.5" y="-211.8" font-family="Times New Roman,serif" font-size="14.00">schema : Channel</text>
<text text-anchor="start" x="14857.5" y="-196.8" font-family="Times New Roman,serif" font-size="14.00">train_args</text>
<text text-anchor="start" x="14857.5" y="-181.8" font-family="Times New Roman,serif" font-size="14.00">transform_graph : Channel</text>
<text text-anchor="start" x="14857.5" y="-166.8" font-family="Times New Roman,serif" font-size="14.00">tune_args</text>
<polyline fill="none" stroke="black" points="14849.5,-159 15077.5,-159 "/>
<text text-anchor="start" x="14857.5" y="-143.8" font-family="Times New Roman,serif" font-size="14.00">setUp()</text>
<text text-anchor="start" x="14857.5" y="-128.8" font-family="Times New Roman,serif" font-size="14.00">testConstructWithCustomConfig()</text>
<text text-anchor="start" x="14857.5" y="-113.8" font-family="Times New Roman,serif" font-size="14.00">testConstructWithoutCustomConfig()</text>
</g>
<!-- 37 -->
<g id="node38" class="node">
<title>37</title>
<polygon fill="none" stroke="black" points="15095.5,-158 15095.5,-243 15367.5,-243 15367.5,-158 15095.5,-158"/>
<text text-anchor="middle" x="15231.5" y="-227.8" font-family="Times New Roman,serif" font-size="14.00">UtilsTest</text>
<polyline fill="none" stroke="black" points="15095.5,-220 15367.5,-220 "/>
<polyline fill="none" stroke="black" points="15095.5,-196 15367.5,-196 "/>
<text text-anchor="start" x="15103.5" y="-180.8" font-family="Times New Roman,serif" font-size="14.00">testRowToExample()</text>
<text text-anchor="start" x="15103.5" y="-165.8" font-family="Times New Roman,serif" font-size="14.00">testRowToExampleWithUnsupportedTypes()</text>
</g>
<!-- 38 -->
<g id="node39" class="node">
<title>38</title>
<polygon fill="none" stroke="black" points="1487,-128.5 1487,-272.5 2956,-272.5 2956,-128.5 1487,-128.5"/>
<text text-anchor="middle" x="2221.5" y="-257.3" font-family="Times New Roman,serif" font-size="14.00">VertexJobClient</text>
<polyline fill="none" stroke="black" points="1487,-249.5 2956,-249.5 "/>
<text text-anchor="start" x="1495" y="-234.3" font-family="Times New Roman,serif" font-size="14.00">JOB_STATES_COMPLETED : tuple</text>
<text text-anchor="start" x="1495" y="-219.3" font-family="Times New Roman,serif" font-size="14.00">JOB_STATES_FAILED : tuple</text>
<polyline fill="none" stroke="black" points="1487,-211.5 2956,-211.5 "/>
<text text-anchor="start" x="1495" y="-196.3" font-family="Times New Roman,serif" font-size="14.00">create_client(): </text>
<text text-anchor="start" x="1495" y="-181.3" font-family="Times New Roman,serif" font-size="14.00">create_training_job(input_dict: Dict[str, List[types.Artifact]], output_dict: Dict[str, List[types.Artifact]], exec_properties: Dict[str, Any], executor_class_path: str, job_args: Dict[str, Any], job_id: Optional[str], job_labels: Optional[Dict[str, Any]]): Dict[str, Any]</text>
<text text-anchor="start" x="1495" y="-166.3" font-family="Times New Roman,serif" font-size="14.00">get_job(): CustomJob</text>
<text text-anchor="start" x="1495" y="-151.3" font-family="Times New Roman,serif" font-size="14.00">get_job_state(response): JobState</text>
<text text-anchor="start" x="1495" y="-136.3" font-family="Times New Roman,serif" font-size="14.00">launch_job(project: str, training_job: Dict[str, Any]): </text>
</g>
<!-- 38&#45;&gt;0 -->
<g id="edge4" class="edge">
<title>38&#45;&gt;0</title>
<path fill="none" stroke="black" d="M2077.8,-272.58C1959.16,-331.26 1790.02,-414.92 1661.67,-478.4"/>
<polygon fill="none" stroke="black" points="1659.91,-475.37 1652.5,-482.94 1663.01,-481.64 1659.91,-475.37"/>
</g>
<!-- 39 -->
<g id="node40" class="node">
<title>39</title>
<polygon fill="none" stroke="black" points="4135,-150.5 4135,-250.5 5584,-250.5 5584,-150.5 4135,-150.5"/>
<text text-anchor="middle" x="4859.5" y="-235.3" font-family="Times New Roman,serif" font-size="14.00">VertexPredictionClient</text>
<polyline fill="none" stroke="black" points="4135,-227.5 5584,-227.5 "/>
<polyline fill="none" stroke="black" points="4135,-203.5 5584,-203.5 "/>
<text text-anchor="start" x="4143" y="-188.3" font-family="Times New Roman,serif" font-size="14.00">create_model_for_aip_prediction_if_not_exist(labels: Dict[str, str], ai_platform_serving_args: Dict[str, Any]): bool</text>
<text text-anchor="start" x="4143" y="-173.3" font-family="Times New Roman,serif" font-size="14.00">delete_model_from_aip_if_exists(ai_platform_serving_args: Dict[str, Any], model_version_name: Optional[str], delete_model_endpoint: Optional[bool]): </text>
<text text-anchor="start" x="4143" y="-158.3" font-family="Times New Roman,serif" font-size="14.00">deploy_model(serving_path: str, model_version_name: str, ai_platform_serving_args: Dict[str, Any], labels: Dict[str, str], serving_container_image_uri: str, endpoint_region: str, skip_model_endpoint_creation: Optional[bool], set_default: Optional[bool]): str</text>
</g>
<!-- 39&#45;&gt;1 -->
<g id="edge5" class="edge">
<title>39&#45;&gt;1</title>
<path fill="none" stroke="black" d="M4771.58,-250.68C4648.73,-319.39 4426.54,-443.68 4299.17,-514.93"/>
<polygon fill="none" stroke="black" points="4297.18,-512.03 4290.17,-519.96 4300.6,-518.14 4297.18,-512.03"/>
</g>
<!-- 40 -->
<g id="node41" class="node">
<title>40</title>
<polygon fill="none" stroke="black" points="15386,-165.5 15386,-235.5 15639,-235.5 15639,-165.5 15386,-165.5"/>
<text text-anchor="middle" x="15512.5" y="-220.3" font-family="Times New Roman,serif" font-size="14.00">_BigQueryConverter</text>
<polyline fill="none" stroke="black" points="15386,-212.5 15639,-212.5 "/>
<polyline fill="none" stroke="black" points="15386,-188.5 15639,-188.5 "/>
<text text-anchor="start" x="15394" y="-173.3" font-family="Times New Roman,serif" font-size="14.00">RowToExample(instance: Dict[str, Any]): </text>
</g>
<!-- 41 -->
<g id="node42" class="node">
<title>41</title>
<polygon fill="none" stroke="black" points="15657.5,-165.5 15657.5,-235.5 16079.5,-235.5 16079.5,-165.5 15657.5,-165.5"/>
<text text-anchor="middle" x="15868.5" y="-220.3" font-family="Times New Roman,serif" font-size="14.00">_RowToContextFeatureAndExample</text>
<polyline fill="none" stroke="black" points="15657.5,-212.5 16079.5,-212.5 "/>
<polyline fill="none" stroke="black" points="15657.5,-188.5 16079.5,-188.5 "/>
<text text-anchor="start" x="15665.5" y="-173.3" font-family="Times New Roman,serif" font-size="14.00">process(instance: Dict[str, Any]): Iterable[Tuple[bytes, tf.train.Example]]</text>
</g>
<!-- 42 -->
<g id="node43" class="node">
<title>42</title>
<polygon fill="none" stroke="black" points="16097.5,-165.5 16097.5,-235.5 16789.5,-235.5 16789.5,-165.5 16097.5,-165.5"/>
<text text-anchor="middle" x="16443.5" y="-220.3" font-family="Times New Roman,serif" font-size="14.00">_WorkerExecutor</text>
<polyline fill="none" stroke="black" points="16097.5,-212.5 16789.5,-212.5 "/>
<polyline fill="none" stroke="black" points="16097.5,-188.5 16789.5,-188.5 "/>
<text text-anchor="start" x="16105.5" y="-173.3" font-family="Times New Roman,serif" font-size="14.00">Do(input_dict: Dict[str, List[types.Artifact]], output_dict: Dict[str, List[types.Artifact]], exec_properties: Dict[str, Any]): </text>
</g>
</g>
</svg>
