<?xml version="1.0" encoding="UTF-8" standalone="no"?>
<!DOCTYPE svg PUBLIC "-//W3C//DTD SVG 1.1//EN"
 "http://www.w3.org/Graphics/SVG/1.1/DTD/svg11.dtd">
<!-- Generated by graphviz version 5.0.0 (20220707.1540)
 -->
<!-- Title: packages Pages: 1 -->
<svg width="16172pt" height="116pt"
 viewBox="0.00 0.00 16172.00 116.00" xmlns="http://www.w3.org/2000/svg" xmlns:xlink="http://www.w3.org/1999/xlink">
<g id="graph0" class="graph" transform="scale(1 1) rotate(0) translate(4 112)">
<title>packages</title>
<polygon fill="white" stroke="transparent" points="-4,4 -4,-112 16168,-112 16168,4 -4,4"/>
<!-- 0 -->
<g id="node1" class="node">
<title>0</title>
<polygon fill="none" stroke="black" points="94,-36 0,-36 0,0 94,0 94,-36"/>
<text text-anchor="middle" x="47" y="-14.3" font-family="Times New Roman,serif" font-size="14.00">tfx.extensions</text>
</g>
<!-- 1 -->
<g id="node2" class="node">
<title>1</title>
<polygon fill="none" stroke="black" points="279.5,-36 112.5,-36 112.5,0 279.5,0 279.5,-36"/>
<text text-anchor="middle" x="196" y="-14.3" font-family="Times New Roman,serif" font-size="14.00">tfx.extensions.experimental</text>
</g>
<!-- 2 -->
<g id="node3" class="node">
<title>2</title>
<polygon fill="none" stroke="black" points="656.5,-108 387.5,-108 387.5,-72 656.5,-72 656.5,-108"/>
<text text-anchor="middle" x="522" y="-86.3" font-family="Times New Roman,serif" font-size="14.00">tfx.extensions.experimental.kfp_compatibility</text>
</g>
<!-- 3 -->
<g id="node4" class="node">
<title>3</title>
<polygon fill="none" stroke="black" points="1185.5,-36 764.5,-36 764.5,0 1185.5,0 1185.5,-36"/>
<text text-anchor="middle" x="975" y="-14.3" font-family="Times New Roman,serif" font-size="14.00">tfx.extensions.experimental.kfp_compatibility.kfp_container_component</text>
</g>
<!-- 4 -->
<g id="node5" class="node">
<title>4</title>
<polygon fill="none" stroke="black" points="746,-36 298,-36 298,0 746,0 746,-36"/>
<text text-anchor="middle" x="522" y="-14.3" font-family="Times New Roman,serif" font-size="14.00">tfx.extensions.experimental.kfp_compatibility.kfp_container_component_test</text>
</g>
<!-- 4&#45;&gt;2 -->
<g id="edge1" class="edge">
<title>4&#45;&gt;2</title>
<path fill="none" stroke="black" d="M522,-36.3C522,-44.02 522,-53.29 522,-61.89"/>
<polygon fill="black" stroke="black" points="522,-71.9 517.5,-61.9 522,-66.9 522,-61.9 522,-61.9 522,-61.9 522,-66.9 526.5,-61.9 522,-71.9 522,-71.9"/>
</g>
<!-- 5 -->
<g id="node6" class="node">
<title>5</title>
<polygon fill="none" stroke="black" points="4199.5,-108 3954.5,-108 3954.5,-72 4199.5,-72 4199.5,-108"/>
<text text-anchor="middle" x="4077" y="-86.3" font-family="Times New Roman,serif" font-size="14.00">tfx.extensions.google_cloud_ai_platform</text>
</g>
<!-- 6 -->
<g id="node7" class="node">
<title>6</title>
<polygon fill="none" stroke="black" points="1976,-108 1656,-108 1656,-72 1976,-72 1976,-108"/>
<text text-anchor="middle" x="1816" y="-86.3" font-family="Times New Roman,serif" font-size="14.00">tfx.extensions.google_cloud_ai_platform.bulk_inferrer</text>
</g>
<!-- 7 -->
<g id="node8" class="node">
<title>7</title>
<polygon fill="none" stroke="black" points="1590.5,-36 1203.5,-36 1203.5,0 1590.5,0 1590.5,-36"/>
<text text-anchor="middle" x="1397" y="-14.3" font-family="Times New Roman,serif" font-size="14.00">tfx.extensions.google_cloud_ai_platform.bulk_inferrer.component</text>
</g>
<!-- 7&#45;&gt;6 -->
<g id="edge2" class="edge">
<title>7&#45;&gt;6</title>
<path fill="none" stroke="black" d="M1498.96,-36.03C1560.93,-46.39 1640.12,-59.62 1703.85,-70.26"/>
<polygon fill="black" stroke="black" points="1713.94,-71.95 1703.34,-74.74 1709.01,-71.13 1704.08,-70.3 1704.08,-70.3 1704.08,-70.3 1709.01,-71.13 1704.82,-65.86 1713.94,-71.95 1713.94,-71.95"/>
</g>
<!-- 8 -->
<g id="node9" class="node">
<title>8</title>
<polygon fill="none" stroke="black" points="2023,-36 1609,-36 1609,0 2023,0 2023,-36"/>
<text text-anchor="middle" x="1816" y="-14.3" font-family="Times New Roman,serif" font-size="14.00">tfx.extensions.google_cloud_ai_platform.bulk_inferrer.component_test</text>
</g>
<!-- 8&#45;&gt;6 -->
<g id="edge3" class="edge">
<title>8&#45;&gt;6</title>
<path fill="none" stroke="black" d="M1816,-36.3C1816,-44.02 1816,-53.29 1816,-61.89"/>
<polygon fill="black" stroke="black" points="1816,-71.9 1811.5,-61.9 1816,-66.9 1816,-61.9 1816,-61.9 1816,-61.9 1816,-66.9 1820.5,-61.9 1816,-71.9 1816,-71.9"/>
</g>
<!-- 9 -->
<g id="node10" class="node">
<title>9</title>
<polygon fill="none" stroke="black" points="2831,-36 2459,-36 2459,0 2831,0 2831,-36"/>
<text text-anchor="middle" x="2645" y="-14.3" font-family="Times New Roman,serif" font-size="14.00">tfx.extensions.google_cloud_ai_platform.bulk_inferrer.executor</text>
</g>
<!-- 9&#45;&gt;5 -->
<g id="edge4" class="edge">
<title>9&#45;&gt;5</title>
<path fill="none" stroke="black" d="M2831.03,-35.4C2834.04,-35.61 2837.03,-35.81 2840,-36 3241.65,-62.1 3717.53,-78.37 3944.17,-85.23"/>
<polygon fill="black" stroke="black" points="3954.44,-85.54 3944.31,-89.74 3949.44,-85.39 3944.44,-85.24 3944.44,-85.24 3944.44,-85.24 3949.44,-85.39 3944.58,-80.74 3954.44,-85.54 3954.44,-85.54"/>
</g>
<!-- 10 -->
<g id="node11" class="node">
<title>10</title>
<polygon fill="none" stroke="black" points="2440.5,-36 2041.5,-36 2041.5,0 2440.5,0 2440.5,-36"/>
<text text-anchor="middle" x="2241" y="-14.3" font-family="Times New Roman,serif" font-size="14.00">tfx.extensions.google_cloud_ai_platform.bulk_inferrer.executor_test</text>
</g>
<!-- 10&#45;&gt;5 -->
<g id="edge5" class="edge">
<title>10&#45;&gt;5</title>
<path fill="none" stroke="black" d="M2440.66,-35.45C2443.8,-35.64 2446.91,-35.82 2450,-36 3004.64,-67.57 3666.8,-81.91 3944.34,-86.86"/>
<polygon fill="black" stroke="black" points="3954.45,-87.04 3944.37,-91.36 3949.45,-86.95 3944.45,-86.86 3944.45,-86.86 3944.45,-86.86 3949.45,-86.95 3944.53,-82.36 3954.45,-87.04 3954.45,-87.04"/>
</g>
<!-- 10&#45;&gt;6 -->
<g id="edge6" class="edge">
<title>10&#45;&gt;6</title>
<path fill="none" stroke="black" d="M2137.58,-36.03C2074.72,-46.39 1994.4,-59.62 1929.75,-70.26"/>
<polygon fill="black" stroke="black" points="1919.52,-71.95 1928.65,-65.88 1924.45,-71.14 1929.39,-70.32 1929.39,-70.32 1929.39,-70.32 1924.45,-71.14 1930.12,-74.76 1919.52,-71.95 1919.52,-71.95"/>
</g>
<!-- 11 -->
<g id="node12" class="node">
<title>11</title>
<polygon fill="none" stroke="black" points="3167,-36 2849,-36 2849,0 3167,0 3167,-36"/>
<text text-anchor="middle" x="3008" y="-14.3" font-family="Times New Roman,serif" font-size="14.00">tfx.extensions.google_cloud_ai_platform.cmle_runner</text>
</g>
<!-- 11&#45;&gt;5 -->
<g id="edge7" class="edge">
<title>11&#45;&gt;5</title>
<path fill="none" stroke="black" d="M3167.16,-35.28C3170.13,-35.52 3173.08,-35.77 3176,-36 3448.73,-57.81 3768.58,-74.53 3944.4,-82.95"/>
<polygon fill="black" stroke="black" points="3954.47,-83.43 3944.27,-87.45 3949.48,-83.19 3944.48,-82.95 3944.48,-82.95 3944.48,-82.95 3949.48,-83.19 3944.7,-78.46 3954.47,-83.43 3954.47,-83.43"/>
</g>
<!-- 12 -->
<g id="node13" class="node">
<title>12</title>
<polygon fill="none" stroke="black" points="4556,-108 4254,-108 4254,-72 4556,-72 4556,-108"/>
<text text-anchor="middle" x="4405" y="-86.3" font-family="Times New Roman,serif" font-size="14.00">tfx.extensions.google_cloud_ai_platform.constants</text>
</g>
<!-- 13 -->
<g id="node14" class="node">
<title>13</title>
<polygon fill="none" stroke="black" points="9037,-36 8689,-36 8689,0 9037,0 9037,-36"/>
<text text-anchor="middle" x="8863" y="-14.3" font-family="Times New Roman,serif" font-size="14.00">tfx.extensions.google_cloud_ai_platform.prediction_clients</text>
</g>
<!-- 14 -->
<g id="node15" class="node">
<title>14</title>
<polygon fill="none" stroke="black" points="3560.5,-36 3185.5,-36 3185.5,0 3560.5,0 3560.5,-36"/>
<text text-anchor="middle" x="3373" y="-14.3" font-family="Times New Roman,serif" font-size="14.00">tfx.extensions.google_cloud_ai_platform.prediction_clients_test</text>
</g>
<!-- 14&#45;&gt;5 -->
<g id="edge8" class="edge">
<title>14&#45;&gt;5</title>
<path fill="none" stroke="black" d="M3544.32,-36.03C3667.38,-48.27 3830.88,-64.53 3944.13,-75.79"/>
<polygon fill="black" stroke="black" points="3954.24,-76.79 3943.85,-80.28 3949.27,-76.3 3944.29,-75.8 3944.29,-75.8 3944.29,-75.8 3949.27,-76.3 3944.74,-71.33 3954.24,-76.79 3954.24,-76.79"/>
</g>
<!-- 15 -->
<g id="node16" class="node">
<title>15</title>
<polygon fill="none" stroke="black" points="5640.5,-108 5353.5,-108 5353.5,-72 5640.5,-72 5640.5,-108"/>
<text text-anchor="middle" x="5497" y="-86.3" font-family="Times New Roman,serif" font-size="14.00">tfx.extensions.google_cloud_ai_platform.pusher</text>
</g>
<!-- 16 -->
<g id="node17" class="node">
<title>16</title>
<polygon fill="none" stroke="black" points="5673.5,-36 5320.5,-36 5320.5,0 5673.5,0 5673.5,-36"/>
<text text-anchor="middle" x="5497" y="-14.3" font-family="Times New Roman,serif" font-size="14.00">tfx.extensions.google_cloud_ai_platform.pusher.component</text>
</g>
<!-- 16&#45;&gt;15 -->
<g id="edge9" class="edge">
<title>16&#45;&gt;15</title>
<path fill="none" stroke="black" d="M5497,-36.3C5497,-44.02 5497,-53.29 5497,-61.89"/>
<polygon fill="black" stroke="black" points="5497,-71.9 5492.5,-61.9 5497,-66.9 5497,-61.9 5497,-61.9 5497,-61.9 5497,-66.9 5501.5,-61.9 5497,-71.9 5497,-71.9"/>
</g>
<!-- 17 -->
<g id="node18" class="node">
<title>17</title>
<polygon fill="none" stroke="black" points="6072,-36 5692,-36 5692,0 6072,0 6072,-36"/>
<text text-anchor="middle" x="5882" y="-14.3" font-family="Times New Roman,serif" font-size="14.00">tfx.extensions.google_cloud_ai_platform.pusher.component_test</text>
</g>
<!-- 17&#45;&gt;15 -->
<g id="edge10" class="edge">
<title>17&#45;&gt;15</title>
<path fill="none" stroke="black" d="M5788.31,-36.03C5731.61,-46.34 5659.21,-59.51 5600.77,-70.13"/>
<polygon fill="black" stroke="black" points="5590.78,-71.95 5599.81,-65.73 5595.69,-71.06 5600.61,-70.16 5600.61,-70.16 5600.61,-70.16 5595.69,-71.06 5601.42,-74.59 5590.78,-71.95 5590.78,-71.95"/>
</g>
<!-- 18 -->
<g id="node19" class="node">
<title>18</title>
<polygon fill="none" stroke="black" points="3917,-36 3579,-36 3579,0 3917,0 3917,-36"/>
<text text-anchor="middle" x="3748" y="-14.3" font-family="Times New Roman,serif" font-size="14.00">tfx.extensions.google_cloud_ai_platform.pusher.executor</text>
</g>
<!-- 18&#45;&gt;5 -->
<g id="edge11" class="edge">
<title>18&#45;&gt;5</title>
<path fill="none" stroke="black" d="M3828.06,-36.03C3876.12,-46.26 3937.37,-59.29 3987.08,-69.87"/>
<polygon fill="black" stroke="black" points="3996.86,-71.95 3986.15,-74.27 3991.97,-70.91 3987.08,-69.87 3987.08,-69.87 3987.08,-69.87 3991.97,-70.91 3988.02,-65.47 3996.86,-71.95 3996.86,-71.95"/>
</g>
<!-- 19 -->
<g id="node20" class="node">
<title>19</title>
<polygon fill="none" stroke="black" points="4955.5,-36 4590.5,-36 4590.5,0 4955.5,0 4955.5,-36"/>
<text text-anchor="middle" x="4773" y="-14.3" font-family="Times New Roman,serif" font-size="14.00">tfx.extensions.google_cloud_ai_platform.pusher.executor_test</text>
</g>
<!-- 19&#45;&gt;5 -->
<g id="edge12" class="edge">
<title>19&#45;&gt;5</title>
<path fill="none" stroke="black" d="M4603.28,-36C4499.75,-46.38 4364.73,-59.93 4245,-72 4233.61,-73.15 4221.78,-74.34 4209.91,-75.54"/>
<polygon fill="black" stroke="black" points="4199.95,-76.55 4209.44,-71.06 4204.92,-76.04 4209.9,-75.54 4209.9,-75.54 4209.9,-75.54 4204.92,-76.04 4210.35,-80.02 4199.95,-76.55 4199.95,-76.55"/>
</g>
<!-- 19&#45;&gt;15 -->
<g id="edge13" class="edge">
<title>19&#45;&gt;15</title>
<path fill="none" stroke="black" d="M4949.18,-36.03C5069.67,-47.68 5227.84,-62.98 5343.23,-74.13"/>
<polygon fill="black" stroke="black" points="5353.21,-75.1 5342.83,-78.61 5348.24,-74.62 5343.26,-74.14 5343.26,-74.14 5343.26,-74.14 5348.24,-74.62 5343.69,-69.66 5353.21,-75.1 5353.21,-75.1"/>
</g>
<!-- 20 -->
<g id="node21" class="node">
<title>20</title>
<polygon fill="none" stroke="black" points="4219,-36 3935,-36 3935,0 4219,0 4219,-36"/>
<text text-anchor="middle" x="4077" y="-14.3" font-family="Times New Roman,serif" font-size="14.00">tfx.extensions.google_cloud_ai_platform.runner</text>
</g>
<!-- 20&#45;&gt;5 -->
<g id="edge14" class="edge">
<title>20&#45;&gt;5</title>
<path fill="none" stroke="black" d="M4077,-36.3C4077,-44.02 4077,-53.29 4077,-61.89"/>
<polygon fill="black" stroke="black" points="4077,-71.9 4072.5,-61.9 4077,-66.9 4077,-61.9 4077,-61.9 4077,-61.9 4077,-66.9 4081.5,-61.9 4077,-71.9 4077,-71.9"/>
</g>
<!-- 21 -->
<g id="node22" class="node">
<title>21</title>
<polygon fill="none" stroke="black" points="6401.5,-36 6090.5,-36 6090.5,0 6401.5,0 6401.5,-36"/>
<text text-anchor="middle" x="6246" y="-14.3" font-family="Times New Roman,serif" font-size="14.00">tfx.extensions.google_cloud_ai_platform.runner_test</text>
</g>
<!-- 21&#45;&gt;5 -->
<g id="edge15" class="edge">
<title>21&#45;&gt;5</title>
<path fill="none" stroke="black" d="M6090.14,-35.41C6087.07,-35.62 6084.02,-35.82 6081,-36 5266.37,-85.87 5059.68,-22.88 4245,-72 4233.57,-72.69 4221.72,-73.56 4209.83,-74.55"/>
<polygon fill="black" stroke="black" points="4199.86,-75.41 4209.43,-70.07 4204.84,-74.98 4209.82,-74.55 4209.82,-74.55 4209.82,-74.55 4204.84,-74.98 4210.2,-79.04 4199.86,-75.41 4199.86,-75.41"/>
</g>
<!-- 22 -->
<g id="node23" class="node">
<title>22</title>
<polygon fill="none" stroke="black" points="6942,-108 6658,-108 6658,-72 6942,-72 6942,-108"/>
<text text-anchor="middle" x="6800" y="-86.3" font-family="Times New Roman,serif" font-size="14.00">tfx.extensions.google_cloud_ai_platform.trainer</text>
</g>
<!-- 21&#45;&gt;22 -->
<g id="edge16" class="edge">
<title>21&#45;&gt;22</title>
<path fill="none" stroke="black" d="M6380.82,-36.03C6463.84,-46.53 6570.26,-59.97 6655.09,-70.69"/>
<polygon fill="black" stroke="black" points="6665.06,-71.95 6654.58,-75.16 6660.1,-71.32 6655.14,-70.7 6655.14,-70.7 6655.14,-70.7 6660.1,-71.32 6655.7,-66.23 6665.06,-71.95 6665.06,-71.95"/>
</g>
<!-- 23 -->
<g id="node24" class="node">
<title>23</title>
<polygon fill="none" stroke="black" points="7919,-36 7569,-36 7569,0 7919,0 7919,-36"/>
<text text-anchor="middle" x="7744" y="-14.3" font-family="Times New Roman,serif" font-size="14.00">tfx.extensions.google_cloud_ai_platform.trainer.component</text>
</g>
<!-- 23&#45;&gt;22 -->
<g id="edge17" class="edge">
<title>23&#45;&gt;22</title>
<path fill="none" stroke="black" d="M7568.7,-35.29C7565.78,-35.53 7562.88,-35.77 7560,-36 7349.62,-53.05 7106.2,-69.44 6952.68,-79.37"/>
<polygon fill="black" stroke="black" points="6942.24,-80.04 6951.93,-74.9 6947.23,-79.72 6952.22,-79.4 6952.22,-79.4 6952.22,-79.4 6947.23,-79.72 6952.51,-83.89 6942.24,-80.04 6942.24,-80.04"/>
</g>
<!-- 24 -->
<g id="node25" class="node">
<title>24</title>
<polygon fill="none" stroke="black" points="6796.5,-36 6419.5,-36 6419.5,0 6796.5,0 6796.5,-36"/>
<text text-anchor="middle" x="6608" y="-14.3" font-family="Times New Roman,serif" font-size="14.00">tfx.extensions.google_cloud_ai_platform.trainer.component_test</text>
</g>
<!-- 24&#45;&gt;22 -->
<g id="edge18" class="edge">
<title>24&#45;&gt;22</title>
<path fill="none" stroke="black" d="M6654.97,-36.12C6681.68,-45.86 6715.32,-58.13 6743.47,-68.39"/>
<polygon fill="black" stroke="black" points="6753.18,-71.93 6742.25,-72.73 6748.49,-70.22 6743.79,-68.51 6743.79,-68.51 6743.79,-68.51 6748.49,-70.22 6745.33,-64.28 6753.18,-71.93 6753.18,-71.93"/>
</g>
<!-- 25 -->
<g id="node26" class="node">
<title>25</title>
<polygon fill="none" stroke="black" points="4572.5,-36 4237.5,-36 4237.5,0 4572.5,0 4572.5,-36"/>
<text text-anchor="middle" x="4405" y="-14.3" font-family="Times New Roman,serif" font-size="14.00">tfx.extensions.google_cloud_ai_platform.trainer.executor</text>
</g>
<!-- 25&#45;&gt;5 -->
<g id="edge19" class="edge">
<title>25&#45;&gt;5</title>
<path fill="none" stroke="black" d="M4325.18,-36.03C4277.37,-46.24 4216.46,-59.24 4166.95,-69.8"/>
<polygon fill="black" stroke="black" points="4156.89,-71.95 4165.73,-65.46 4161.78,-70.91 4166.67,-69.86 4166.67,-69.86 4166.67,-69.86 4161.78,-70.91 4167.61,-74.26 4156.89,-71.95 4156.89,-71.95"/>
</g>
<!-- 25&#45;&gt;12 -->
<g id="edge20" class="edge">
<title>25&#45;&gt;12</title>
<path fill="none" stroke="black" d="M4405,-36.3C4405,-44.02 4405,-53.29 4405,-61.89"/>
<polygon fill="black" stroke="black" points="4405,-71.9 4400.5,-61.9 4405,-66.9 4405,-61.9 4405,-61.9 4405,-61.9 4405,-66.9 4409.5,-61.9 4405,-71.9 4405,-71.9"/>
</g>
<!-- 26 -->
<g id="node27" class="node">
<title>26</title>
<polygon fill="none" stroke="black" points="7551,-36 7189,-36 7189,0 7551,0 7551,-36"/>
<text text-anchor="middle" x="7370" y="-14.3" font-family="Times New Roman,serif" font-size="14.00">tfx.extensions.google_cloud_ai_platform.trainer.executor_test</text>
</g>
<!-- 26&#45;&gt;22 -->
<g id="edge21" class="edge">
<title>26&#45;&gt;22</title>
<path fill="none" stroke="black" d="M7231.29,-36.03C7145.78,-46.54 7036.16,-60 6948.83,-70.72"/>
<polygon fill="black" stroke="black" points="6938.84,-71.95 6948.21,-66.26 6943.8,-71.34 6948.76,-70.73 6948.76,-70.73 6948.76,-70.73 6943.8,-71.34 6949.31,-75.2 6938.84,-71.95 6938.84,-71.95"/>
</g>
<!-- 27 -->
<g id="node28" class="node">
<title>27</title>
<polygon fill="none" stroke="black" points="9387,-36 9055,-36 9055,0 9387,0 9387,-36"/>
<text text-anchor="middle" x="9221" y="-14.3" font-family="Times New Roman,serif" font-size="14.00">tfx.extensions.google_cloud_ai_platform.training_clients</text>
</g>
<!-- 28 -->
<g id="node29" class="node">
<title>28</title>
<polygon fill="none" stroke="black" points="8247.5,-108 7970.5,-108 7970.5,-72 8247.5,-72 8247.5,-108"/>
<text text-anchor="middle" x="8109" y="-86.3" font-family="Times New Roman,serif" font-size="14.00">tfx.extensions.google_cloud_ai_platform.tuner</text>
</g>
<!-- 29 -->
<g id="node30" class="node">
<title>29</title>
<polygon fill="none" stroke="black" points="8281,-36 7937,-36 7937,0 8281,0 8281,-36"/>
<text text-anchor="middle" x="8109" y="-14.3" font-family="Times New Roman,serif" font-size="14.00">tfx.extensions.google_cloud_ai_platform.tuner.component</text>
</g>
<!-- 29&#45;&gt;28 -->
<g id="edge22" class="edge">
<title>29&#45;&gt;28</title>
<path fill="none" stroke="black" d="M8109,-36.3C8109,-44.02 8109,-53.29 8109,-61.89"/>
<polygon fill="black" stroke="black" points="8109,-71.9 8104.5,-61.9 8109,-66.9 8109,-61.9 8109,-61.9 8109,-61.9 8109,-66.9 8113.5,-61.9 8109,-71.9 8109,-71.9"/>
</g>
<!-- 30 -->
<g id="node31" class="node">
<title>30</title>
<polygon fill="none" stroke="black" points="8670.5,-36 8299.5,-36 8299.5,0 8670.5,0 8670.5,-36"/>
<text text-anchor="middle" x="8485" y="-14.3" font-family="Times New Roman,serif" font-size="14.00">tfx.extensions.google_cloud_ai_platform.tuner.component_test</text>
</g>
<!-- 30&#45;&gt;28 -->
<g id="edge23" class="edge">
<title>30&#45;&gt;28</title>
<path fill="none" stroke="black" d="M8393.5,-36.03C8338.24,-46.32 8267.71,-59.45 8210.7,-70.07"/>
<polygon fill="black" stroke="black" points="8200.58,-71.95 8209.59,-65.7 8205.5,-71.03 8210.41,-70.12 8210.41,-70.12 8210.41,-70.12 8205.5,-71.03 8211.24,-74.54 8200.58,-71.95 8200.58,-71.95"/>
</g>
<!-- 31 -->
<g id="node32" class="node">
<title>31</title>
<polygon fill="none" stroke="black" points="5302.5,-36 4973.5,-36 4973.5,0 5302.5,0 5302.5,-36"/>
<text text-anchor="middle" x="5138" y="-14.3" font-family="Times New Roman,serif" font-size="14.00">tfx.extensions.google_cloud_ai_platform.tuner.executor</text>
</g>
<!-- 31&#45;&gt;5 -->
<g id="edge24" class="edge">
<title>31&#45;&gt;5</title>
<path fill="none" stroke="black" d="M4973.16,-35.31C4970.08,-35.54 4967.03,-35.78 4964,-36 4644.91,-59.56 4564.05,-47.89 4245,-72 4233.58,-72.86 4221.74,-73.86 4209.86,-74.93"/>
<polygon fill="black" stroke="black" points="4199.88,-75.84 4209.43,-70.45 4204.86,-75.38 4209.84,-74.93 4209.84,-74.93 4209.84,-74.93 4204.86,-75.38 4210.25,-79.41 4199.88,-75.84 4199.88,-75.84"/>
</g>
<!-- 31&#45;&gt;22 -->
<g id="edge25" class="edge">
<title>31&#45;&gt;22</title>
<path fill="none" stroke="black" d="M5302.8,-35.43C5305.56,-35.63 5308.29,-35.82 5311,-36 5798.82,-68.62 6377.97,-81.96 6647.68,-86.71"/>
<polygon fill="black" stroke="black" points="6657.93,-86.89 6647.85,-91.22 6652.93,-86.8 6647.93,-86.72 6647.93,-86.72 6647.93,-86.72 6652.93,-86.8 6648.01,-82.22 6657.93,-86.89 6657.93,-86.89"/>
</g>
<!-- 32 -->
<g id="node33" class="node">
<title>32</title>
<polygon fill="none" stroke="black" points="7171,-36 6815,-36 6815,0 7171,0 7171,-36"/>
<text text-anchor="middle" x="6993" y="-14.3" font-family="Times New Roman,serif" font-size="14.00">tfx.extensions.google_cloud_ai_platform.tuner.executor_test</text>
</g>
<!-- 32&#45;&gt;5 -->
<g id="edge26" class="edge">
<title>32&#45;&gt;5</title>
<path fill="none" stroke="black" d="M6814.9,-35.45C6811.58,-35.65 6808.27,-35.83 6805,-36 5668.65,-95.28 5381.01,-6.66 4245,-72 4233.57,-72.66 4221.71,-73.51 4209.83,-74.48"/>
<polygon fill="black" stroke="black" points="4199.85,-75.33 4209.44,-70 4204.83,-74.91 4209.81,-74.48 4209.81,-74.48 4209.81,-74.48 4204.83,-74.91 4210.19,-78.97 4199.85,-75.33 4199.85,-75.33"/>
</g>
<!-- 32&#45;&gt;22 -->
<g id="edge27" class="edge">
<title>32&#45;&gt;22</title>
<path fill="none" stroke="black" d="M6945.79,-36.12C6918.93,-45.86 6885.12,-58.13 6856.82,-68.39"/>
<polygon fill="black" stroke="black" points="6847.06,-71.93 6854.93,-64.29 6851.76,-70.23 6856.46,-68.52 6856.46,-68.52 6856.46,-68.52 6851.76,-70.23 6857.99,-72.75 6847.06,-71.93 6847.06,-71.93"/>
</g>
<!-- 32&#45;&gt;28 -->
<g id="edge28" class="edge">
<title>32&#45;&gt;28</title>
<path fill="none" stroke="black" d="M7171.15,-35.33C7174.12,-35.56 7177.07,-35.78 7180,-36 7455.12,-56.35 7776.59,-73.13 7960.14,-82.05"/>
<polygon fill="black" stroke="black" points="7970.4,-82.55 7960.19,-86.56 7965.41,-82.31 7960.41,-82.07 7960.41,-82.07 7960.41,-82.07 7965.41,-82.31 7960.63,-77.57 7970.4,-82.55 7970.4,-82.55"/>
</g>
<!-- 33 -->
<g id="node34" class="node">
<title>33</title>
<polygon fill="none" stroke="black" points="11253,-108 11015,-108 11015,-72 11253,-72 11253,-108"/>
<text text-anchor="middle" x="11134" y="-86.3" font-family="Times New Roman,serif" font-size="14.00">tfx.extensions.google_cloud_big_query</text>
</g>
<!-- 34 -->
<g id="node35" class="node">
<title>34</title>
<polygon fill="none" stroke="black" points="10179,-108 9865,-108 9865,-72 10179,-72 10179,-108"/>
<text text-anchor="middle" x="10022" y="-86.3" font-family="Times New Roman,serif" font-size="14.00">tfx.extensions.google_cloud_big_query.example_gen</text>
</g>
<!-- 35 -->
<g id="node36" class="node">
<title>35</title>
<polygon fill="none" stroke="black" points="10212.5,-36 9831.5,-36 9831.5,0 10212.5,0 10212.5,-36"/>
<text text-anchor="middle" x="10022" y="-14.3" font-family="Times New Roman,serif" font-size="14.00">tfx.extensions.google_cloud_big_query.example_gen.component</text>
</g>
<!-- 35&#45;&gt;34 -->
<g id="edge29" class="edge">
<title>35&#45;&gt;34</title>
<path fill="none" stroke="black" d="M10022,-36.3C10022,-44.02 10022,-53.29 10022,-61.89"/>
<polygon fill="black" stroke="black" points="10022,-71.9 10017.5,-61.9 10022,-66.9 10022,-61.9 10022,-61.9 10022,-61.9 10022,-66.9 10026.5,-61.9 10022,-71.9 10022,-71.9"/>
</g>
<!-- 36 -->
<g id="node37" class="node">
<title>36</title>
<polygon fill="none" stroke="black" points="9813,-36 9405,-36 9405,0 9813,0 9813,-36"/>
<text text-anchor="middle" x="9609" y="-14.3" font-family="Times New Roman,serif" font-size="14.00">tfx.extensions.google_cloud_big_query.example_gen.component_test</text>
</g>
<!-- 36&#45;&gt;34 -->
<g id="edge30" class="edge">
<title>36&#45;&gt;34</title>
<path fill="none" stroke="black" d="M9709.5,-36.03C9770.58,-46.39 9848.64,-59.62 9911.46,-70.26"/>
<polygon fill="black" stroke="black" points="9921.4,-71.95 9910.79,-74.72 9916.47,-71.11 9911.55,-70.28 9911.55,-70.28 9911.55,-70.28 9916.47,-71.11 9912.3,-65.84 9921.4,-71.95 9921.4,-71.95"/>
</g>
<!-- 37 -->
<g id="node38" class="node">
<title>37</title>
<polygon fill="none" stroke="black" points="11317,-36 10951,-36 10951,0 11317,0 11317,-36"/>
<text text-anchor="middle" x="11134" y="-14.3" font-family="Times New Roman,serif" font-size="14.00">tfx.extensions.google_cloud_big_query.example_gen.executor</text>
</g>
<!-- 37&#45;&gt;33 -->
<g id="edge31" class="edge">
<title>37&#45;&gt;33</title>
<path fill="none" stroke="black" d="M11134,-36.3C11134,-44.02 11134,-53.29 11134,-61.89"/>
<polygon fill="black" stroke="black" points="11134,-71.9 11129.5,-61.9 11134,-66.9 11134,-61.9 11134,-61.9 11134,-61.9 11134,-66.9 11138.5,-61.9 11134,-71.9 11134,-71.9"/>
</g>
<!-- 38 -->
<g id="node39" class="node">
<title>38</title>
<polygon fill="none" stroke="black" points="10623.5,-36 10230.5,-36 10230.5,0 10623.5,0 10623.5,-36"/>
<text text-anchor="middle" x="10427" y="-14.3" font-family="Times New Roman,serif" font-size="14.00">tfx.extensions.google_cloud_big_query.example_gen.executor_test</text>
</g>
<!-- 38&#45;&gt;33 -->
<g id="edge32" class="edge">
<title>38&#45;&gt;33</title>
<path fill="none" stroke="black" d="M10599.05,-36.03C10724.13,-48.42 10890.79,-64.92 11004.65,-76.19"/>
<polygon fill="black" stroke="black" points="11014.81,-77.2 11004.41,-80.69 11009.83,-76.71 11004.86,-76.21 11004.86,-76.21 11004.86,-76.21 11009.83,-76.71 11005.3,-71.74 11014.81,-77.2 11014.81,-77.2"/>
</g>
<!-- 38&#45;&gt;34 -->
<g id="edge33" class="edge">
<title>38&#45;&gt;34</title>
<path fill="none" stroke="black" d="M10328.44,-36.03C10268.67,-46.37 10192.32,-59.56 10130.78,-70.2"/>
<polygon fill="black" stroke="black" points="10120.65,-71.95 10129.73,-65.81 10125.57,-71.1 10130.5,-70.25 10130.5,-70.25 10130.5,-70.25 10125.57,-71.1 10131.27,-74.68 10120.65,-71.95 10120.65,-71.95"/>
</g>
<!-- 39 -->
<g id="node40" class="node">
<title>39</title>
<polygon fill="none" stroke="black" points="13960.5,-36 13649.5,-36 13649.5,0 13960.5,0 13960.5,-36"/>
<text text-anchor="middle" x="13805" y="-14.3" font-family="Times New Roman,serif" font-size="14.00">tfx.extensions.google_cloud_big_query.experimental</text>
</g>
<!-- 40 -->
<g id="node41" class="node">
<title>40</title>
<polygon fill="none" stroke="black" points="14399.5,-36 13978.5,-36 13978.5,0 14399.5,0 14399.5,-36"/>
<text text-anchor="middle" x="14189" y="-14.3" font-family="Times New Roman,serif" font-size="14.00">tfx.extensions.google_cloud_big_query.experimental.elwc_example_gen</text>
</g>
<!-- 41 -->
<g id="node42" class="node">
<title>41</title>
<polygon fill="none" stroke="black" points="13012,-108 12524,-108 12524,-72 13012,-72 13012,-108"/>
<text text-anchor="middle" x="12768" y="-86.3" font-family="Times New Roman,serif" font-size="14.00">tfx.extensions.google_cloud_big_query.experimental.elwc_example_gen.component</text>
</g>
<!-- 42 -->
<g id="node43" class="node">
<title>42</title>
<polygon fill="none" stroke="black" points="13631,-36 13077,-36 13077,0 13631,0 13631,-36"/>
<text text-anchor="middle" x="13354" y="-14.3" font-family="Times New Roman,serif" font-size="14.00">tfx.extensions.google_cloud_big_query.experimental.elwc_example_gen.component.component</text>
</g>
<!-- 42&#45;&gt;41 -->
<g id="edge34" class="edge">
<title>42&#45;&gt;41</title>
<path fill="none" stroke="black" d="M13211.4,-36.03C13123.31,-46.56 13010.35,-60.05 12920.49,-70.79"/>
<polygon fill="black" stroke="black" points="12910.48,-71.98 12919.87,-66.33 12915.44,-71.39 12920.41,-70.79 12920.41,-70.79 12920.41,-70.79 12915.44,-71.39 12920.94,-75.26 12910.48,-71.98 12910.48,-71.98"/>
</g>
<!-- 46 -->
<g id="node47" class="node">
<title>46</title>
<polygon fill="none" stroke="black" points="12454.5,-108 11999.5,-108 11999.5,-72 12454.5,-72 12454.5,-108"/>
<text text-anchor="middle" x="12227" y="-86.3" font-family="Times New Roman,serif" font-size="14.00">tfx.extensions.google_cloud_big_query.experimental.elwc_example_gen.proto</text>
</g>
<!-- 42&#45;&gt;46 -->
<g id="edge35" class="edge">
<title>42&#45;&gt;46</title>
<path fill="none" stroke="black" d="M13080.11,-36.01C12891.95,-47.7 12644.64,-63.06 12464.77,-74.23"/>
<polygon fill="black" stroke="black" points="12454.64,-74.86 12464.34,-69.75 12459.63,-74.55 12464.62,-74.24 12464.62,-74.24 12464.62,-74.24 12459.63,-74.55 12464.9,-78.73 12454.64,-74.86 12454.64,-74.86"/>
</g>
<!-- 43 -->
<g id="node44" class="node">
<title>43</title>
<polygon fill="none" stroke="black" points="13058.5,-36 12477.5,-36 12477.5,0 13058.5,0 13058.5,-36"/>
<text text-anchor="middle" x="12768" y="-14.3" font-family="Times New Roman,serif" font-size="14.00">tfx.extensions.google_cloud_big_query.experimental.elwc_example_gen.component.component_test</text>
</g>
<!-- 43&#45;&gt;41 -->
<g id="edge36" class="edge">
<title>43&#45;&gt;41</title>
<path fill="none" stroke="black" d="M12768,-36.3C12768,-44.02 12768,-53.29 12768,-61.89"/>
<polygon fill="black" stroke="black" points="12768,-71.9 12763.5,-61.9 12768,-66.9 12768,-61.9 12768,-61.9 12768,-61.9 12768,-66.9 12772.5,-61.9 12768,-71.9 12768,-71.9"/>
</g>
<!-- 43&#45;&gt;46 -->
<g id="edge37" class="edge">
<title>43&#45;&gt;46</title>
<path fill="none" stroke="black" d="M12636.35,-36.03C12555.35,-46.51 12451.56,-59.94 12368.76,-70.66"/>
<polygon fill="black" stroke="black" points="12358.77,-71.95 12368.11,-66.2 12363.73,-71.31 12368.69,-70.67 12368.69,-70.67 12368.69,-70.67 12363.73,-71.31 12369.27,-75.13 12358.77,-71.95 12358.77,-71.95"/>
</g>
<!-- 44 -->
<g id="node45" class="node">
<title>44</title>
<polygon fill="none" stroke="black" points="11874.5,-36 11335.5,-36 11335.5,0 11874.5,0 11874.5,-36"/>
<text text-anchor="middle" x="11605" y="-14.3" font-family="Times New Roman,serif" font-size="14.00">tfx.extensions.google_cloud_big_query.experimental.elwc_example_gen.component.executor</text>
</g>
<!-- 44&#45;&gt;33 -->
<g id="edge38" class="edge">
<title>44&#45;&gt;33</title>
<path fill="none" stroke="black" d="M11490.38,-36.03C11420.29,-46.45 11330.61,-59.78 11258.74,-70.46"/>
<polygon fill="black" stroke="black" points="11248.72,-71.95 11257.95,-66.03 11253.67,-71.21 11258.61,-70.48 11258.61,-70.48 11258.61,-70.48 11253.67,-71.21 11259.28,-74.93 11248.72,-71.95 11248.72,-71.95"/>
</g>
<!-- 44&#45;&gt;46 -->
<g id="edge39" class="edge">
<title>44&#45;&gt;46</title>
<path fill="none" stroke="black" d="M11756.36,-36.03C11850.05,-46.58 11970.25,-60.11 12065.73,-70.85"/>
<polygon fill="black" stroke="black" points="12075.77,-71.98 12065.33,-75.33 12070.8,-71.42 12065.83,-70.86 12065.83,-70.86 12065.83,-70.86 12070.8,-71.42 12066.33,-66.39 12075.77,-71.98 12075.77,-71.98"/>
</g>
<!-- 45 -->
<g id="node46" class="node">
<title>45</title>
<polygon fill="none" stroke="black" points="12459,-36 11893,-36 11893,0 12459,0 12459,-36"/>
<text text-anchor="middle" x="12176" y="-14.3" font-family="Times New Roman,serif" font-size="14.00">tfx.extensions.google_cloud_big_query.experimental.elwc_example_gen.component.executor_test</text>
</g>
<!-- 45&#45;&gt;33 -->
<g id="edge40" class="edge">
<title>45&#45;&gt;33</title>
<path fill="none" stroke="black" d="M11922.76,-36.01C11714.33,-50.01 11427.39,-69.29 11263.24,-80.32"/>
<polygon fill="black" stroke="black" points="11253.09,-81 11262.77,-75.84 11258.08,-80.66 11263.07,-80.33 11263.07,-80.33 11263.07,-80.33 11258.08,-80.66 11263.37,-84.82 11253.09,-81 11253.09,-81"/>
</g>
<!-- 45&#45;&gt;41 -->
<g id="edge41" class="edge">
<title>45&#45;&gt;41</title>
<path fill="none" stroke="black" d="M12320.06,-36.03C12409.05,-46.56 12523.17,-60.05 12613.95,-70.79"/>
<polygon fill="black" stroke="black" points="12624.06,-71.98 12613.6,-75.27 12619.1,-71.39 12614.13,-70.81 12614.13,-70.81 12614.13,-70.81 12619.1,-71.39 12614.66,-66.34 12624.06,-71.98 12624.06,-71.98"/>
</g>
<!-- 45&#45;&gt;46 -->
<g id="edge42" class="edge">
<title>45&#45;&gt;46</title>
<path fill="none" stroke="black" d="M12188.61,-36.3C12194.6,-44.53 12201.88,-54.52 12208.48,-63.58"/>
<polygon fill="black" stroke="black" points="12214.54,-71.9 12205.01,-66.46 12211.59,-67.85 12208.65,-63.81 12208.65,-63.81 12208.65,-63.81 12211.59,-67.85 12212.29,-61.16 12214.54,-71.9 12214.54,-71.9"/>
</g>
<!-- 47 -->
<g id="node48" class="node">
<title>47</title>
<polygon fill="none" stroke="black" points="15108.5,-108 14829.5,-108 14829.5,-72 15108.5,-72 15108.5,-108"/>
<text text-anchor="middle" x="14969" y="-86.3" font-family="Times New Roman,serif" font-size="14.00">tfx.extensions.google_cloud_big_query.pusher</text>
</g>
<!-- 48 -->
<g id="node49" class="node">
<title>48</title>
<polygon fill="none" stroke="black" points="14764,-36 14418,-36 14418,0 14764,0 14764,-36"/>
<text text-anchor="middle" x="14591" y="-14.3" font-family="Times New Roman,serif" font-size="14.00">tfx.extensions.google_cloud_big_query.pusher.component</text>
</g>
<!-- 48&#45;&gt;47 -->
<g id="edge43" class="edge">
<title>48&#45;&gt;47</title>
<path fill="none" stroke="black" d="M14682.99,-36.03C14738.54,-46.32 14809.45,-59.45 14866.76,-70.07"/>
<polygon fill="black" stroke="black" points="14876.93,-71.95 14866.28,-74.55 14872.01,-71.04 14867.1,-70.13 14867.1,-70.13 14867.1,-70.13 14872.01,-71.04 14867.92,-65.7 14876.93,-71.95 14876.93,-71.95"/>
</g>
<!-- 49 -->
<g id="node50" class="node">
<title>49</title>
<polygon fill="none" stroke="black" points="15155.5,-36 14782.5,-36 14782.5,0 15155.5,0 15155.5,-36"/>
<text text-anchor="middle" x="14969" y="-14.3" font-family="Times New Roman,serif" font-size="14.00">tfx.extensions.google_cloud_big_query.pusher.component_test</text>
</g>
<!-- 49&#45;&gt;47 -->
<g id="edge44" class="edge">
<title>49&#45;&gt;47</title>
<path fill="none" stroke="black" d="M14969,-36.3C14969,-44.02 14969,-53.29 14969,-61.89"/>
<polygon fill="black" stroke="black" points="14969,-71.9 14964.5,-61.9 14969,-66.9 14969,-61.9 14969,-61.9 14969,-61.9 14969,-66.9 14973.5,-61.9 14969,-71.9 14969,-71.9"/>
</g>
<!-- 50 -->
<g id="node51" class="node">
<title>50</title>
<polygon fill="none" stroke="black" points="15881.5,-36 15550.5,-36 15550.5,0 15881.5,0 15881.5,-36"/>
<text text-anchor="middle" x="15716" y="-14.3" font-family="Times New Roman,serif" font-size="14.00">tfx.extensions.google_cloud_big_query.pusher.executor</text>
</g>
<!-- 51 -->
<g id="node52" class="node">
<title>51</title>
<polygon fill="none" stroke="black" points="15532,-36 15174,-36 15174,0 15532,0 15532,-36"/>
<text text-anchor="middle" x="15353" y="-14.3" font-family="Times New Roman,serif" font-size="14.00">tfx.extensions.google_cloud_big_query.pusher.executor_test</text>
</g>
<!-- 51&#45;&gt;47 -->
<g id="edge45" class="edge">
<title>51&#45;&gt;47</title>
<path fill="none" stroke="black" d="M15259.55,-36.03C15203,-46.34 15130.79,-59.51 15072.5,-70.13"/>
<polygon fill="black" stroke="black" points="15062.53,-71.95 15071.56,-65.73 15067.45,-71.05 15072.37,-70.16 15072.37,-70.16 15072.37,-70.16 15067.45,-71.05 15073.18,-74.58 15062.53,-71.95 15062.53,-71.95"/>
</g>
<!-- 52 -->
<g id="node53" class="node">
<title>52</title>
<polygon fill="none" stroke="black" points="16164,-36 15900,-36 15900,0 16164,0 16164,-36"/>
<text text-anchor="middle" x="16032" y="-14.3" font-family="Times New Roman,serif" font-size="14.00">tfx.extensions.google_cloud_big_query.utils</text>
</g>
<!-- 53 -->
<g id="node54" class="node">
<title>53</title>
<polygon fill="none" stroke="black" points="10932.5,-36 10641.5,-36 10641.5,0 10932.5,0 10932.5,-36"/>
<text text-anchor="middle" x="10787" y="-14.3" font-family="Times New Roman,serif" font-size="14.00">tfx.extensions.google_cloud_big_query.utils_test</text>
</g>
<!-- 53&#45;&gt;33 -->
<g id="edge46" class="edge">
<title>53&#45;&gt;33</title>
<path fill="none" stroke="black" d="M10871.44,-36.03C10922.23,-46.28 10986.99,-59.34 11039.49,-69.93"/>
<polygon fill="black" stroke="black" points="11049.48,-71.95 11038.79,-74.38 11044.58,-70.96 11039.68,-69.97 11039.68,-69.97 11039.68,-69.97 11044.58,-70.96 11040.57,-65.56 11049.48,-71.95 11049.48,-71.95"/>
</g>
</g>
</svg>
