<?xml version="1.0" encoding="UTF-8" standalone="no"?>
<!DOCTYPE svg PUBLIC "-//W3C//DTD SVG 1.1//EN"
 "http://www.w3.org/Graphics/SVG/1.1/DTD/svg11.dtd">
<!-- Generated by graphviz version 5.0.0 (20220707.1540)
 -->
<!-- Title: classes Pages: 1 -->
<svg width="5839pt" height="639pt"
 viewBox="0.00 0.00 5838.50 639.00" xmlns="http://www.w3.org/2000/svg" xmlns:xlink="http://www.w3.org/1999/xlink">
<g id="graph0" class="graph" transform="scale(1 1) rotate(0) translate(4 635)">
<title>classes</title>
<polygon fill="white" stroke="transparent" points="-4,4 -4,-635 5834.5,-635 5834.5,4 -4,4"/>
<!-- 0 -->
<g id="node1" class="node">
<title>0</title>
<polygon fill="none" stroke="black" points="461,-438.5 461,-523.5 679,-523.5 679,-438.5 461,-438.5"/>
<text text-anchor="middle" x="570" y="-508.3" font-family="Times New Roman,serif" font-size="14.00">BaseContainerBasedEndToEndTest</text>
<polyline fill="none" stroke="black" points="461,-500.5 679,-500.5 "/>
<polyline fill="none" stroke="black" points="461,-476.5 679,-476.5 "/>
<text text-anchor="start" x="469" y="-461.3" font-family="Times New Roman,serif" font-size="14.00">setUp()</text>
<text text-anchor="start" x="469" y="-446.3" font-family="Times New Roman,serif" font-size="14.00">tearDown()</text>
</g>
<!-- 1 -->
<g id="node2" class="node">
<title>1</title>
<polygon fill="none" stroke="black" points="397,-560.5 397,-630.5 527,-630.5 527,-560.5 397,-560.5"/>
<text text-anchor="middle" x="462" y="-615.3" font-family="Times New Roman,serif" font-size="14.00">BaseEndToEndTest</text>
<polyline fill="none" stroke="black" points="397,-607.5 527,-607.5 "/>
<polyline fill="none" stroke="black" points="397,-583.5 527,-583.5 "/>
<text text-anchor="start" x="405" y="-568.3" font-family="Times New Roman,serif" font-size="14.00">setUp()</text>
</g>
<!-- 0&#45;&gt;1 -->
<g id="edge1" class="edge">
<title>0&#45;&gt;1</title>
<path fill="none" stroke="black" d="M530.09,-523.57C520.8,-533.25 510.91,-543.55 501.64,-553.21"/>
<polygon fill="none" stroke="black" points="499.08,-550.82 494.68,-560.46 504.13,-555.67 499.08,-550.82"/>
</g>
<!-- 2 -->
<g id="node3" class="node">
<title>2</title>
<polygon fill="none" stroke="black" points="477.5,-309 477.5,-394 662.5,-394 662.5,-309 477.5,-309"/>
<text text-anchor="middle" x="570" y="-378.8" font-family="Times New Roman,serif" font-size="14.00">BaseKubeflowEndToEndTest</text>
<polyline fill="none" stroke="black" points="477.5,-371 662.5,-371 "/>
<polyline fill="none" stroke="black" points="477.5,-347 662.5,-347 "/>
<text text-anchor="start" x="485.5" y="-331.8" font-family="Times New Roman,serif" font-size="14.00">setUp()</text>
<text text-anchor="start" x="485.5" y="-316.8" font-family="Times New Roman,serif" font-size="14.00">tearDown()</text>
</g>
<!-- 2&#45;&gt;0 -->
<g id="edge2" class="edge">
<title>2&#45;&gt;0</title>
<path fill="none" stroke="black" d="M570,-394.25C570,-405.04 570,-416.78 570,-428.02"/>
<polygon fill="none" stroke="black" points="566.5,-428.16 570,-438.16 573.5,-428.16 566.5,-428.16"/>
</g>
<!-- 3 -->
<g id="node4" class="node">
<title>3</title>
<polygon fill="none" stroke="black" points="273.5,-446 273.5,-516 434.5,-516 434.5,-446 273.5,-446"/>
<text text-anchor="middle" x="354" y="-500.8" font-family="Times New Roman,serif" font-size="14.00">BaseLocalEndToEndTest</text>
<polyline fill="none" stroke="black" points="273.5,-493 434.5,-493 "/>
<polyline fill="none" stroke="black" points="273.5,-469 434.5,-469 "/>
<text text-anchor="middle" x="354" y="-453.8" font-family="Times New Roman,serif" font-size="14.00"> </text>
</g>
<!-- 3&#45;&gt;1 -->
<g id="edge3" class="edge">
<title>3&#45;&gt;1</title>
<path fill="none" stroke="black" d="M386.7,-516.06C397.8,-527.63 410.34,-540.69 421.95,-552.78"/>
<polygon fill="none" stroke="black" points="419.59,-555.38 429.04,-560.17 424.64,-550.53 419.59,-555.38"/>
</g>
<!-- 4 -->
<g id="node5" class="node">
<title>4</title>
<polygon fill="none" stroke="black" points="879.5,-309.5 879.5,-393.5 1238.5,-393.5 1238.5,-309.5 879.5,-309.5"/>
<text text-anchor="middle" x="1059" y="-378.3" font-family="Times New Roman,serif" font-size="14.00">BaseStubComponentLauncher</text>
<polyline fill="none" stroke="black" points="879.5,-370.5 1238.5,-370.5 "/>
<text text-anchor="start" x="887.5" y="-355.3" font-family="Times New Roman,serif" font-size="14.00">test_component_ids : Ellipsis</text>
<text text-anchor="start" x="887.5" y="-340.3" font-family="Times New Roman,serif" font-size="14.00">test_data_dir : Ellipsis</text>
<polyline fill="none" stroke="black" points="879.5,-332.5 1238.5,-332.5 "/>
<text text-anchor="start" x="887.5" y="-317.3" font-family="Times New Roman,serif" font-size="14.00">initialize(cls: str, test_data_dir: List[str], test_component_ids)</text>
</g>
<!-- 5 -->
<g id="node6" class="node">
<title>5</title>
<polygon fill="none" stroke="black" points="1158,-97.5 1158,-167.5 1850,-167.5 1850,-97.5 1158,-97.5"/>
<text text-anchor="middle" x="1504" y="-152.3" font-family="Times New Roman,serif" font-size="14.00">BaseStubExecutor</text>
<polyline fill="none" stroke="black" points="1158,-144.5 1850,-144.5 "/>
<polyline fill="none" stroke="black" points="1158,-120.5 1850,-120.5 "/>
<text text-anchor="start" x="1166" y="-105.3" font-family="Times New Roman,serif" font-size="14.00">Do(input_dict: Dict[str, List[types.Artifact]], output_dict: Dict[str, List[types.Artifact]], exec_properties: Dict[str, Any]): </text>
</g>
<!-- 6 -->
<g id="node7" class="node">
<title>6</title>
<polygon fill="none" stroke="black" points="694.5,-316.5 694.5,-386.5 861.5,-386.5 861.5,-316.5 694.5,-316.5"/>
<text text-anchor="middle" x="778" y="-371.3" font-family="Times New Roman,serif" font-size="14.00">BaseVertexEndToEndTest</text>
<polyline fill="none" stroke="black" points="694.5,-363.5 861.5,-363.5 "/>
<polyline fill="none" stroke="black" points="694.5,-339.5 861.5,-339.5 "/>
<text text-anchor="start" x="702.5" y="-324.3" font-family="Times New Roman,serif" font-size="14.00">setUp()</text>
</g>
<!-- 6&#45;&gt;0 -->
<g id="edge4" class="edge">
<title>6&#45;&gt;0</title>
<path fill="none" stroke="black" d="M722.53,-386.5C699.28,-400.75 671.85,-417.57 646.72,-432.97"/>
<polygon fill="none" stroke="black" points="644.63,-430.15 637.93,-438.36 648.29,-436.12 644.63,-430.15"/>
</g>
<!-- 7 -->
<g id="node8" class="node">
<title>7</title>
<polygon fill="none" stroke="black" points="1868.5,-97.5 1868.5,-167.5 2019.5,-167.5 2019.5,-97.5 1868.5,-97.5"/>
<text text-anchor="middle" x="1944" y="-152.3" font-family="Times New Roman,serif" font-size="14.00">BeamPipelineTest</text>
<polyline fill="none" stroke="black" points="1868.5,-144.5 2019.5,-144.5 "/>
<polyline fill="none" stroke="black" points="1868.5,-120.5 2019.5,-120.5 "/>
<text text-anchor="start" x="1876.5" y="-105.3" font-family="Times New Roman,serif" font-size="14.00">test_compare_outputs()</text>
</g>
<!-- 8 -->
<g id="node9" class="node">
<title>8</title>
<polygon fill="none" stroke="black" points="2037.5,-97.5 2037.5,-167.5 2138.5,-167.5 2138.5,-97.5 2037.5,-97.5"/>
<text text-anchor="middle" x="2088" y="-152.3" font-family="Times New Roman,serif" font-size="14.00">ExecutionSpec</text>
<polyline fill="none" stroke="black" points="2037.5,-144.5 2138.5,-144.5 "/>
<polyline fill="none" stroke="black" points="2037.5,-120.5 2138.5,-120.5 "/>
<text text-anchor="middle" x="2088" y="-105.3" font-family="Times New Roman,serif" font-size="14.00"> </text>
</g>
<!-- 9 -->
<g id="node10" class="node">
<title>9</title>
<polygon fill="none" stroke="black" points="2156.5,-97.5 2156.5,-167.5 2281.5,-167.5 2281.5,-97.5 2156.5,-97.5"/>
<text text-anchor="middle" x="2219" y="-152.3" font-family="Times New Roman,serif" font-size="14.00">ExecutionSpecTest</text>
<polyline fill="none" stroke="black" points="2156.5,-144.5 2281.5,-144.5 "/>
<polyline fill="none" stroke="black" points="2156.5,-120.5 2281.5,-120.5 "/>
<text text-anchor="start" x="2164.5" y="-105.3" font-family="Times New Roman,serif" font-size="14.00">test_spec()</text>
</g>
<!-- 10 -->
<g id="node11" class="node">
<title>10</title>
<polygon fill="none" stroke="black" points="2300,-97.5 2300,-167.5 2398,-167.5 2398,-97.5 2300,-97.5"/>
<text text-anchor="middle" x="2349" y="-152.3" font-family="Times New Roman,serif" font-size="14.00">FeaturesTest</text>
<polyline fill="none" stroke="black" points="2300,-144.5 2398,-144.5 "/>
<polyline fill="none" stroke="black" points="2300,-120.5 2398,-120.5 "/>
<text text-anchor="start" x="2308" y="-105.3" font-family="Times New Roman,serif" font-size="14.00">testLabelKey()</text>
</g>
<!-- 11 -->
<g id="node12" class="node">
<title>11</title>
<polygon fill="none" stroke="black" points="2416.5,-90 2416.5,-175 2675.5,-175 2675.5,-90 2416.5,-90"/>
<text text-anchor="middle" x="2546" y="-159.8" font-family="Times New Roman,serif" font-size="14.00">FeaturesTest</text>
<polyline fill="none" stroke="black" points="2416.5,-152 2675.5,-152 "/>
<polyline fill="none" stroke="black" points="2416.5,-128 2675.5,-128 "/>
<text text-anchor="start" x="2424.5" y="-112.8" font-family="Times New Roman,serif" font-size="14.00">testNumberOfBucketFeatureBucketCount()</text>
<text text-anchor="start" x="2424.5" y="-97.8" font-family="Times New Roman,serif" font-size="14.00">testTransformedNames()</text>
</g>
<!-- 12 -->
<g id="node13" class="node">
<title>12</title>
<polygon fill="none" stroke="black" points="2693.5,-97.5 2693.5,-167.5 2836.5,-167.5 2836.5,-97.5 2693.5,-97.5"/>
<text text-anchor="middle" x="2765" y="-152.3" font-family="Times New Roman,serif" font-size="14.00">ModelTest</text>
<polyline fill="none" stroke="black" points="2693.5,-144.5 2836.5,-144.5 "/>
<polyline fill="none" stroke="black" points="2693.5,-120.5 2836.5,-120.5 "/>
<text text-anchor="start" x="2701.5" y="-105.3" font-family="Times New Roman,serif" font-size="14.00">testBuildKerasModel()</text>
</g>
<!-- 13 -->
<g id="node14" class="node">
<title>13</title>
<polygon fill="none" stroke="black" points="2855,-97.5 2855,-167.5 2955,-167.5 2955,-97.5 2855,-97.5"/>
<text text-anchor="middle" x="2905" y="-152.3" font-family="Times New Roman,serif" font-size="14.00">ModelTest</text>
<polyline fill="none" stroke="black" points="2855,-144.5 2955,-144.5 "/>
<polyline fill="none" stroke="black" points="2855,-120.5 2955,-120.5 "/>
<text text-anchor="start" x="2863" y="-105.3" font-family="Times New Roman,serif" font-size="14.00">testTrainerFn()</text>
</g>
<!-- 14 -->
<g id="node15" class="node">
<title>14</title>
<polygon fill="none" stroke="black" points="2973.5,-97.5 2973.5,-167.5 3116.5,-167.5 3116.5,-97.5 2973.5,-97.5"/>
<text text-anchor="middle" x="3045" y="-152.3" font-family="Times New Roman,serif" font-size="14.00">ModelTest</text>
<polyline fill="none" stroke="black" points="2973.5,-144.5 3116.5,-144.5 "/>
<polyline fill="none" stroke="black" points="2973.5,-120.5 3116.5,-120.5 "/>
<text text-anchor="start" x="2981.5" y="-105.3" font-family="Times New Roman,serif" font-size="14.00">testBuildKerasModel()</text>
</g>
<!-- 15 -->
<g id="node16" class="node">
<title>15</title>
<polygon fill="none" stroke="black" points="3134.5,-75.5 3134.5,-189.5 3343.5,-189.5 3343.5,-75.5 3134.5,-75.5"/>
<text text-anchor="middle" x="3239" y="-174.3" font-family="Times New Roman,serif" font-size="14.00">PartitionTest</text>
<polyline fill="none" stroke="black" points="3134.5,-166.5 3343.5,-166.5 "/>
<text text-anchor="start" x="3142.5" y="-151.3" font-family="Times New Roman,serif" font-size="14.00">graph_name_to_specs : dict</text>
<polyline fill="none" stroke="black" points="3134.5,-143.5 3343.5,-143.5 "/>
<text text-anchor="start" x="3142.5" y="-128.3" font-family="Times New Roman,serif" font-size="14.00">setUp()</text>
<text text-anchor="start" x="3142.5" y="-113.3" font-family="Times New Roman,serif" font-size="14.00">test_remote_op_specs()</text>
<text text-anchor="start" x="3142.5" y="-98.3" font-family="Times New Roman,serif" font-size="14.00">test_subgraph_import_validity()</text>
<text text-anchor="start" x="3142.5" y="-83.3" font-family="Times New Roman,serif" font-size="14.00">test_subgraphs_with_golden_set()</text>
</g>
<!-- 16 -->
<g id="node17" class="node">
<title>16</title>
<polygon fill="none" stroke="black" points="238.5,-97.5 238.5,-167.5 453.5,-167.5 453.5,-97.5 238.5,-97.5"/>
<text text-anchor="middle" x="346" y="-152.3" font-family="Times New Roman,serif" font-size="14.00">PenguinTemplateKubeflowE2ETest</text>
<polyline fill="none" stroke="black" points="238.5,-144.5 453.5,-144.5 "/>
<polyline fill="none" stroke="black" points="238.5,-120.5 453.5,-120.5 "/>
<text text-anchor="start" x="246.5" y="-105.3" font-family="Times New Roman,serif" font-size="14.00">testPipeline()</text>
</g>
<!-- 16&#45;&gt;2 -->
<g id="edge5" class="edge">
<title>16&#45;&gt;2</title>
<path fill="none" stroke="black" d="M373.61,-167.63C396.44,-195.05 430.3,-233.98 463,-265 476.47,-277.77 491.67,-290.7 506.29,-302.51"/>
<polygon fill="none" stroke="black" points="504.35,-305.43 514.34,-308.94 508.72,-299.97 504.35,-305.43"/>
</g>
<!-- 17 -->
<g id="node18" class="node">
<title>17</title>
<polygon fill="none" stroke="black" points="0,-301.5 0,-401.5 230,-401.5 230,-301.5 0,-301.5"/>
<text text-anchor="middle" x="115" y="-386.3" font-family="Times New Roman,serif" font-size="14.00">PenguinTemplateLocalEndToEndTest</text>
<polyline fill="none" stroke="black" points="0,-378.5 230,-378.5 "/>
<polyline fill="none" stroke="black" points="0,-354.5 230,-354.5 "/>
<text text-anchor="start" x="8" y="-339.3" font-family="Times New Roman,serif" font-size="14.00">setUp()</text>
<text text-anchor="start" x="8" y="-324.3" font-family="Times New Roman,serif" font-size="14.00">testGeneratedUnitTests()</text>
<text text-anchor="start" x="8" y="-309.3" font-family="Times New Roman,serif" font-size="14.00">testLocalPipeline()</text>
</g>
<!-- 17&#45;&gt;3 -->
<g id="edge6" class="edge">
<title>17&#45;&gt;3</title>
<path fill="none" stroke="black" d="M207.06,-401.61C231.56,-414.68 257.68,-428.61 281,-441.06"/>
<polygon fill="none" stroke="black" points="279.66,-444.31 290.13,-445.93 282.95,-438.13 279.66,-444.31"/>
</g>
<!-- 18 -->
<g id="node19" class="node">
<title>18</title>
<polygon fill="none" stroke="black" points="3362,-90 3362,-175 3626,-175 3626,-90 3362,-90"/>
<text text-anchor="middle" x="3494" y="-159.8" font-family="Times New Roman,serif" font-size="14.00">PipelineMockTest</text>
<polyline fill="none" stroke="black" points="3362,-152 3626,-152 "/>
<polyline fill="none" stroke="black" points="3362,-128 3626,-128 "/>
<text text-anchor="start" x="3370" y="-112.8" font-family="Times New Roman,serif" font-size="14.00">testReplaceBeamExecutorWithStub()</text>
<text text-anchor="start" x="3370" y="-97.8" font-family="Times New Roman,serif" font-size="14.00">testReplacePythonClassExecutorWithStub()</text>
</g>
<!-- 19 -->
<g id="node20" class="node">
<title>19</title>
<polygon fill="none" stroke="black" points="3644,-0.5 3644,-264.5 4176,-264.5 4176,-0.5 3644,-0.5"/>
<text text-anchor="middle" x="3910" y="-249.3" font-family="Times New Roman,serif" font-size="14.00">PipelineRecorderUtilsTest</text>
<polyline fill="none" stroke="black" points="3644,-241.5 4176,-241.5 "/>
<text text-anchor="start" x="3652" y="-226.3" font-family="Times New Roman,serif" font-size="14.00">content : str</text>
<text text-anchor="start" x="3652" y="-211.3" font-family="Times New Roman,serif" font-size="14.00">dest_uri</text>
<text text-anchor="start" x="3652" y="-196.3" font-family="Times New Roman,serif" font-size="14.00">execution_dict : dict</text>
<text text-anchor="start" x="3652" y="-181.3" font-family="Times New Roman,serif" font-size="14.00">host : str</text>
<text text-anchor="start" x="3652" y="-166.3" font-family="Times New Roman,serif" font-size="14.00">metadata_db_uri : str</text>
<text text-anchor="start" x="3652" y="-151.3" font-family="Times New Roman,serif" font-size="14.00">paths : list</text>
<text text-anchor="start" x="3652" y="-136.3" font-family="Times New Roman,serif" font-size="14.00">pipeline_name : str</text>
<text text-anchor="start" x="3652" y="-121.3" font-family="Times New Roman,serif" font-size="14.00">port : int</text>
<text text-anchor="start" x="3652" y="-106.3" font-family="Times New Roman,serif" font-size="14.00">run_id : str</text>
<text text-anchor="start" x="3652" y="-91.3" font-family="Times New Roman,serif" font-size="14.00">src_uri</text>
<polyline fill="none" stroke="black" points="3644,-83.5 4176,-83.5 "/>
<text text-anchor="start" x="3652" y="-68.3" font-family="Times New Roman,serif" font-size="14.00">setUp()</text>
<text text-anchor="start" x="3652" y="-53.3" font-family="Times New Roman,serif" font-size="14.00">testRecordBeamPipelineRunId(mock_metadata, mock_config)</text>
<text text-anchor="start" x="3652" y="-38.3" font-family="Times New Roman,serif" font-size="14.00">testRecordKfpPipelineRunId()</text>
<text text-anchor="start" x="3652" y="-23.3" font-family="Times New Roman,serif" font-size="14.00">testRecordLatestBeamPipeline(mock_get_latest_executions, mock_metadata, mock_config)</text>
<text text-anchor="start" x="3652" y="-8.3" font-family="Times New Roman,serif" font-size="14.00">testRecordLatestKfpPipeline(mock_get_latest_executions)</text>
</g>
<!-- 20 -->
<g id="node21" class="node">
<title>20</title>
<polygon fill="none" stroke="black" points="4194,-97.5 4194,-167.5 4334,-167.5 4334,-97.5 4194,-97.5"/>
<text text-anchor="middle" x="4264" y="-152.3" font-family="Times New Roman,serif" font-size="14.00">PreprocessingTest</text>
<polyline fill="none" stroke="black" points="4194,-144.5 4334,-144.5 "/>
<polyline fill="none" stroke="black" points="4194,-120.5 4334,-120.5 "/>
<text text-anchor="start" x="4202" y="-105.3" font-family="Times New Roman,serif" font-size="14.00">testPreprocessingFn()</text>
</g>
<!-- 21 -->
<g id="node22" class="node">
<title>21</title>
<polygon fill="none" stroke="black" points="4352,-97.5 4352,-167.5 4492,-167.5 4492,-97.5 4352,-97.5"/>
<text text-anchor="middle" x="4422" y="-152.3" font-family="Times New Roman,serif" font-size="14.00">PreprocessingTest</text>
<polyline fill="none" stroke="black" points="4352,-144.5 4492,-144.5 "/>
<polyline fill="none" stroke="black" points="4352,-120.5 4492,-120.5 "/>
<text text-anchor="start" x="4360" y="-105.3" font-family="Times New Roman,serif" font-size="14.00">testPreprocessingFn()</text>
</g>
<!-- 22 -->
<g id="node23" class="node">
<title>22</title>
<polygon fill="none" stroke="black" points="4510,-97.5 4510,-167.5 4644,-167.5 4644,-97.5 4510,-97.5"/>
<text text-anchor="middle" x="4577" y="-152.3" font-family="Times New Roman,serif" font-size="14.00">RemoteOpLayerTest</text>
<polyline fill="none" stroke="black" points="4510,-144.5 4644,-144.5 "/>
<polyline fill="none" stroke="black" points="4510,-120.5 4644,-120.5 "/>
<text text-anchor="start" x="4518" y="-105.3" font-family="Times New Roman,serif" font-size="14.00">test_layers()</text>
</g>
<!-- 23 -->
<g id="node24" class="node">
<title>23</title>
<polygon fill="none" stroke="black" points="978.5,-97.5 978.5,-167.5 1139.5,-167.5 1139.5,-97.5 978.5,-97.5"/>
<text text-anchor="middle" x="1059" y="-152.3" font-family="Times New Roman,serif" font-size="14.00">StubComponentLauncher</text>
<polyline fill="none" stroke="black" points="978.5,-144.5 1139.5,-144.5 "/>
<polyline fill="none" stroke="black" points="978.5,-120.5 1139.5,-120.5 "/>
<text text-anchor="middle" x="1059" y="-105.3" font-family="Times New Roman,serif" font-size="14.00"> </text>
</g>
<!-- 23&#45;&gt;4 -->
<g id="edge7" class="edge">
<title>23&#45;&gt;4</title>
<path fill="none" stroke="black" d="M1059,-167.88C1059,-203.17 1059,-258.5 1059,-299.02"/>
<polygon fill="none" stroke="black" points="1055.5,-299.24 1059,-309.24 1062.5,-299.24 1055.5,-299.24"/>
</g>
<!-- 24 -->
<g id="node25" class="node">
<title>24</title>
<polygon fill="none" stroke="black" points="4662,-15.5 4662,-249.5 4874,-249.5 4874,-15.5 4662,-15.5"/>
<text text-anchor="middle" x="4768" y="-234.3" font-family="Times New Roman,serif" font-size="14.00">StubComponentLauncherTest</text>
<polyline fill="none" stroke="black" points="4662,-226.5 4874,-226.5 "/>
<text text-anchor="start" x="4670" y="-211.3" font-family="Times New Roman,serif" font-size="14.00">component : _FakeComponent</text>
<text text-anchor="start" x="4670" y="-196.3" font-family="Times New Roman,serif" font-size="14.00">driver_args : DriverArgs</text>
<text text-anchor="start" x="4670" y="-181.3" font-family="Times New Roman,serif" font-size="14.00">input_dir</text>
<text text-anchor="start" x="4670" y="-166.3" font-family="Times New Roman,serif" font-size="14.00">input_key : str</text>
<text text-anchor="start" x="4670" y="-151.3" font-family="Times New Roman,serif" font-size="14.00">metadata_connection : Metadata</text>
<text text-anchor="start" x="4670" y="-136.3" font-family="Times New Roman,serif" font-size="14.00">output_dir</text>
<text text-anchor="start" x="4670" y="-121.3" font-family="Times New Roman,serif" font-size="14.00">output_key : str</text>
<text text-anchor="start" x="4670" y="-106.3" font-family="Times New Roman,serif" font-size="14.00">pipeline_info : PipelineInfo</text>
<text text-anchor="start" x="4670" y="-91.3" font-family="Times New Roman,serif" font-size="14.00">pipeline_root</text>
<text text-anchor="start" x="4670" y="-76.3" font-family="Times New Roman,serif" font-size="14.00">record_dir</text>
<polyline fill="none" stroke="black" points="4662,-68.5 4874,-68.5 "/>
<text text-anchor="start" x="4670" y="-53.3" font-family="Times New Roman,serif" font-size="14.00">setUp()</text>
<text text-anchor="start" x="4670" y="-38.3" font-family="Times New Roman,serif" font-size="14.00">testExecutor(mock_publisher)</text>
<text text-anchor="start" x="4670" y="-23.3" font-family="Times New Roman,serif" font-size="14.00">testStubExecutor(mock_publisher)</text>
</g>
<!-- 25 -->
<g id="node26" class="node">
<title>25</title>
<polygon fill="none" stroke="black" points="472,-90 472,-175 668,-175 668,-90 472,-90"/>
<text text-anchor="middle" x="570" y="-159.8" font-family="Times New Roman,serif" font-size="14.00">TaxiTemplateKubeflowE2ETest</text>
<polyline fill="none" stroke="black" points="472,-152 668,-152 "/>
<polyline fill="none" stroke="black" points="472,-128 668,-128 "/>
<text text-anchor="start" x="480" y="-112.8" font-family="Times New Roman,serif" font-size="14.00">tearDown()</text>
<text text-anchor="start" x="480" y="-97.8" font-family="Times New Roman,serif" font-size="14.00">testPipeline()</text>
</g>
<!-- 25&#45;&gt;2 -->
<g id="edge8" class="edge">
<title>25&#45;&gt;2</title>
<path fill="none" stroke="black" d="M570,-175.08C570,-210.18 570,-260.6 570,-298.39"/>
<polygon fill="none" stroke="black" points="566.5,-298.69 570,-308.69 573.5,-298.69 566.5,-298.69"/>
</g>
<!-- 26 -->
<g id="node27" class="node">
<title>26</title>
<polygon fill="none" stroke="black" points="686,-97.5 686,-167.5 898,-167.5 898,-97.5 686,-97.5"/>
<text text-anchor="middle" x="792" y="-152.3" font-family="Times New Roman,serif" font-size="14.00">TaxiTemplateKubeflowV2E2ETest</text>
<polyline fill="none" stroke="black" points="686,-144.5 898,-144.5 "/>
<polyline fill="none" stroke="black" points="686,-120.5 898,-120.5 "/>
<text text-anchor="start" x="694" y="-105.3" font-family="Times New Roman,serif" font-size="14.00">testPipeline()</text>
</g>
<!-- 26&#45;&gt;6 -->
<g id="edge9" class="edge">
<title>26&#45;&gt;6</title>
<path fill="none" stroke="black" d="M789.78,-167.88C787.37,-205.26 783.51,-265.12 780.87,-306.05"/>
<polygon fill="none" stroke="black" points="777.36,-306.07 780.21,-316.28 784.34,-306.52 777.36,-306.07"/>
</g>
<!-- 27 -->
<g id="node28" class="node">
<title>27</title>
<polygon fill="none" stroke="black" points="248.5,-309 248.5,-394 459.5,-394 459.5,-309 248.5,-309"/>
<text text-anchor="middle" x="354" y="-378.8" font-family="Times New Roman,serif" font-size="14.00">TaxiTemplateLocalEndToEndTest</text>
<polyline fill="none" stroke="black" points="248.5,-371 459.5,-371 "/>
<polyline fill="none" stroke="black" points="248.5,-347 459.5,-347 "/>
<text text-anchor="start" x="256.5" y="-331.8" font-family="Times New Roman,serif" font-size="14.00">testGeneratedUnitTests()</text>
<text text-anchor="start" x="256.5" y="-316.8" font-family="Times New Roman,serif" font-size="14.00">testLocalPipeline()</text>
</g>
<!-- 27&#45;&gt;3 -->
<g id="edge10" class="edge">
<title>27&#45;&gt;3</title>
<path fill="none" stroke="black" d="M354,-394.25C354,-407.56 354,-422.33 354,-435.81"/>
<polygon fill="none" stroke="black" points="350.5,-435.82 354,-445.82 357.5,-435.82 350.5,-435.82"/>
</g>
<!-- 28 -->
<g id="node29" class="node">
<title>28</title>
<polygon fill="none" stroke="black" points="4892.5,-98 4892.5,-167 5215.5,-167 5215.5,-98 4892.5,-98"/>
<text text-anchor="middle" x="5054" y="-151.8" font-family="Times New Roman,serif" font-size="14.00">_RemoteOpLayers</text>
<polyline fill="none" stroke="black" points="4892.5,-144 5215.5,-144 "/>
<text text-anchor="start" x="4900.5" y="-128.8" font-family="Times New Roman,serif" font-size="14.00">remote_op_to_immediate_dep : Mapping[str, List[str]]</text>
<polyline fill="none" stroke="black" points="4892.5,-121 5215.5,-121 "/>
<text text-anchor="middle" x="5054" y="-105.8" font-family="Times New Roman,serif" font-size="14.00"> </text>
</g>
<!-- 29 -->
<g id="node30" class="node">
<title>29</title>
<polygon fill="none" stroke="black" points="5233.5,-97.5 5233.5,-167.5 5830.5,-167.5 5830.5,-97.5 5233.5,-97.5"/>
<text text-anchor="middle" x="5532" y="-152.3" font-family="Times New Roman,serif" font-size="14.00">_SubgraphLayerDoFn</text>
<polyline fill="none" stroke="black" points="5233.5,-144.5 5830.5,-144.5 "/>
<polyline fill="none" stroke="black" points="5233.5,-120.5 5830.5,-120.5 "/>
<text text-anchor="start" x="5241.5" y="-105.3" font-family="Times New Roman,serif" font-size="14.00">process(element: Dict[str, Dict[str, Any]], spec, remote_op_name: str): Iterator[Dict[str, Dict[str, Any]]]</text>
</g>
</g>
</svg>
