<?xml version="1.0" encoding="UTF-8" standalone="no"?>
<!DOCTYPE svg PUBLIC "-//W3C//DTD SVG 1.1//EN"
 "http://www.w3.org/Graphics/SVG/1.1/DTD/svg11.dtd">
<!-- Generated by graphviz version 5.0.0 (20220707.1540)
 -->
<!-- Title: packages Pages: 1 -->
<svg width="20525pt" height="116pt"
 viewBox="0.00 0.00 20525.00 116.00" xmlns="http://www.w3.org/2000/svg" xmlns:xlink="http://www.w3.org/1999/xlink">
<g id="graph0" class="graph" transform="scale(1 1) rotate(0) translate(4 112)">
<title>packages</title>
<polygon fill="white" stroke="transparent" points="-4,4 -4,-112 20521,-112 20521,4 -4,4"/>
<!-- 0 -->
<g id="node1" class="node">
<title>0</title>
<polygon fill="none" stroke="black" points="105,-36 0,-36 0,0 105,0 105,-36"/>
<text text-anchor="middle" x="52.5" y="-14.3" font-family="Times New Roman,serif" font-size="14.00">tfx.experimental</text>
</g>
<!-- 1 -->
<g id="node2" class="node">
<title>1</title>
<polygon fill="none" stroke="black" points="349.5,-36 123.5,-36 123.5,0 349.5,0 349.5,-36"/>
<text text-anchor="middle" x="236.5" y="-14.3" font-family="Times New Roman,serif" font-size="14.00">tfx.experimental.distributed_inference</text>
</g>
<!-- 2 -->
<g id="node3" class="node">
<title>2</title>
<polygon fill="none" stroke="black" points="721,-36 368,-36 368,0 721,0 721,-36"/>
<text text-anchor="middle" x="544.5" y="-14.3" font-family="Times New Roman,serif" font-size="14.00">tfx.experimental.distributed_inference.graphdef_experiments</text>
</g>
<!-- 3 -->
<g id="node4" class="node">
<title>3</title>
<polygon fill="none" stroke="black" points="2466,-108 1987,-108 1987,-72 2466,-72 2466,-108"/>
<text text-anchor="middle" x="2226.5" y="-86.3" font-family="Times New Roman,serif" font-size="14.00">tfx.experimental.distributed_inference.graphdef_experiments.subgraph_partitioning</text>
</g>
<!-- 4 -->
<g id="node5" class="node">
<title>4</title>
<polygon fill="none" stroke="black" points="1302,-36 739,-36 739,0 1302,0 1302,-36"/>
<text text-anchor="middle" x="1020.5" y="-14.3" font-family="Times New Roman,serif" font-size="14.00">tfx.experimental.distributed_inference.graphdef_experiments.subgraph_partitioning.beam_pipeline</text>
</g>
<!-- 4&#45;&gt;3 -->
<g id="edge1" class="edge">
<title>4&#45;&gt;3</title>
<path fill="none" stroke="black" d="M1302.36,-35.47C1305.42,-35.65 1308.47,-35.82 1311.5,-36 1536.5,-49.09 1792.64,-63.92 1976.57,-74.56"/>
<polygon fill="black" stroke="black" points="1986.65,-75.14 1976.4,-79.05 1981.65,-74.85 1976.66,-74.56 1976.66,-74.56 1976.66,-74.56 1981.65,-74.85 1976.92,-70.07 1986.65,-75.14 1986.65,-75.14"/>
</g>
<!-- 5 -->
<g id="node6" class="node">
<title>5</title>
<polygon fill="none" stroke="black" points="1910.5,-36 1320.5,-36 1320.5,0 1910.5,0 1910.5,-36"/>
<text text-anchor="middle" x="1615.5" y="-14.3" font-family="Times New Roman,serif" font-size="14.00">tfx.experimental.distributed_inference.graphdef_experiments.subgraph_partitioning.beam_pipeline_test</text>
</g>
<!-- 5&#45;&gt;3 -->
<g id="edge2" class="edge">
<title>5&#45;&gt;3</title>
<path fill="none" stroke="black" d="M1764.19,-36.03C1856.12,-46.57 1974.05,-60.08 2067.79,-70.82"/>
<polygon fill="black" stroke="black" points="2077.94,-71.98 2067.5,-75.31 2072.97,-71.41 2068.01,-70.84 2068.01,-70.84 2068.01,-70.84 2072.97,-71.41 2068.52,-66.37 2077.94,-71.98 2077.94,-71.98"/>
</g>
<!-- 6 -->
<g id="node7" class="node">
<title>6</title>
<polygon fill="none" stroke="black" points="4350.5,-36 3740.5,-36 3740.5,0 4350.5,0 4350.5,-36"/>
<text text-anchor="middle" x="4045.5" y="-14.3" font-family="Times New Roman,serif" font-size="14.00">tfx.experimental.distributed_inference.graphdef_experiments.subgraph_partitioning.create_complex_graph</text>
</g>
<!-- 7 -->
<g id="node8" class="node">
<title>7</title>
<polygon fill="none" stroke="black" points="4938,-36 4369,-36 4369,0 4938,0 4938,-36"/>
<text text-anchor="middle" x="4653.5" y="-14.3" font-family="Times New Roman,serif" font-size="14.00">tfx.experimental.distributed_inference.graphdef_experiments.subgraph_partitioning.execution_spec</text>
</g>
<!-- 8 -->
<g id="node9" class="node">
<title>8</title>
<polygon fill="none" stroke="black" points="2524.5,-36 1928.5,-36 1928.5,0 2524.5,0 2524.5,-36"/>
<text text-anchor="middle" x="2226.5" y="-14.3" font-family="Times New Roman,serif" font-size="14.00">tfx.experimental.distributed_inference.graphdef_experiments.subgraph_partitioning.execution_spec_test</text>
</g>
<!-- 8&#45;&gt;3 -->
<g id="edge3" class="edge">
<title>8&#45;&gt;3</title>
<path fill="none" stroke="black" d="M2226.5,-36.3C2226.5,-44.02 2226.5,-53.29 2226.5,-61.89"/>
<polygon fill="black" stroke="black" points="2226.5,-71.9 2222,-61.9 2226.5,-66.9 2226.5,-61.9 2226.5,-61.9 2226.5,-61.9 2226.5,-66.9 2231,-61.9 2226.5,-71.9 2226.5,-71.9"/>
</g>
<!-- 9 -->
<g id="node10" class="node">
<title>9</title>
<polygon fill="none" stroke="black" points="3110,-36 2543,-36 2543,0 3110,0 3110,-36"/>
<text text-anchor="middle" x="2826.5" y="-14.3" font-family="Times New Roman,serif" font-size="14.00">tfx.experimental.distributed_inference.graphdef_experiments.subgraph_partitioning.graph_partition</text>
</g>
<!-- 9&#45;&gt;3 -->
<g id="edge4" class="edge">
<title>9&#45;&gt;3</title>
<path fill="none" stroke="black" d="M2680.49,-36.03C2590.21,-46.57 2474.4,-60.08 2382.35,-70.82"/>
<polygon fill="black" stroke="black" points="2372.38,-71.98 2381.79,-66.35 2377.35,-71.4 2382.32,-70.82 2382.32,-70.82 2382.32,-70.82 2377.35,-71.4 2382.84,-75.29 2372.38,-71.98 2372.38,-71.98"/>
</g>
<!-- 10 -->
<g id="node11" class="node">
<title>10</title>
<polygon fill="none" stroke="black" points="3722.5,-36 3128.5,-36 3128.5,0 3722.5,0 3722.5,-36"/>
<text text-anchor="middle" x="3425.5" y="-14.3" font-family="Times New Roman,serif" font-size="14.00">tfx.experimental.distributed_inference.graphdef_experiments.subgraph_partitioning.graph_partition_test</text>
</g>
<!-- 10&#45;&gt;3 -->
<g id="edge5" class="edge">
<title>10&#45;&gt;3</title>
<path fill="none" stroke="black" d="M3134.11,-36.01C2932.88,-47.76 2668.06,-63.22 2476.45,-74.41"/>
<polygon fill="black" stroke="black" points="2466.24,-75 2475.96,-69.93 2471.23,-74.71 2476.22,-74.42 2476.22,-74.42 2476.22,-74.42 2471.23,-74.71 2476.48,-78.91 2466.24,-75 2466.24,-75"/>
</g>
<!-- 11 -->
<g id="node12" class="node">
<title>11</title>
<polygon fill="none" stroke="black" points="6407,-108 6212,-108 6212,-72 6407,-72 6407,-108"/>
<text text-anchor="middle" x="6309.5" y="-86.3" font-family="Times New Roman,serif" font-size="14.00">tfx.experimental.pipeline_testing</text>
</g>
<!-- 12 -->
<g id="node13" class="node">
<title>12</title>
<polygon fill="none" stroke="black" points="5336.5,-36 4956.5,-36 4956.5,0 5336.5,0 5336.5,-36"/>
<text text-anchor="middle" x="5146.5" y="-14.3" font-family="Times New Roman,serif" font-size="14.00">tfx.experimental.pipeline_testing.base_stub_component_launcher</text>
</g>
<!-- 12&#45;&gt;11 -->
<g id="edge6" class="edge">
<title>12&#45;&gt;11</title>
<path fill="none" stroke="black" d="M5336.61,-35.37C5339.6,-35.58 5342.56,-35.79 5345.5,-36 5656.11,-57.8 6023.55,-75.87 6201.78,-84.14"/>
<polygon fill="black" stroke="black" points="6211.94,-84.61 6201.75,-88.65 6206.95,-84.38 6201.96,-84.15 6201.96,-84.15 6201.96,-84.15 6206.95,-84.38 6202.16,-79.66 6211.94,-84.61 6211.94,-84.61"/>
</g>
<!-- 13 -->
<g id="node14" class="node">
<title>13</title>
<polygon fill="none" stroke="black" points="8076,-36 7765,-36 7765,0 8076,0 8076,-36"/>
<text text-anchor="middle" x="7920.5" y="-14.3" font-family="Times New Roman,serif" font-size="14.00">tfx.experimental.pipeline_testing.base_stub_executor</text>
</g>
<!-- 14 -->
<g id="node15" class="node">
<title>14</title>
<polygon fill="none" stroke="black" points="5678,-36 5355,-36 5355,0 5678,0 5678,-36"/>
<text text-anchor="middle" x="5516.5" y="-14.3" font-family="Times New Roman,serif" font-size="14.00">tfx.experimental.pipeline_testing.executor_verifier_utils</text>
</g>
<!-- 14&#45;&gt;11 -->
<g id="edge7" class="edge">
<title>14&#45;&gt;11</title>
<path fill="none" stroke="black" d="M5678.01,-35.21C5680.86,-35.48 5683.69,-35.74 5686.5,-36 5867.07,-52.71 6077.26,-70.18 6201.53,-80.3"/>
<polygon fill="black" stroke="black" points="6211.8,-81.14 6201.47,-84.81 6206.82,-80.73 6201.84,-80.33 6201.84,-80.33 6201.84,-80.33 6206.82,-80.73 6202.2,-75.84 6211.8,-81.14 6211.8,-81.14"/>
</g>
<!-- 15 -->
<g id="node16" class="node">
<title>15</title>
<polygon fill="none" stroke="black" points="5977,-36 5696,-36 5696,0 5977,0 5977,-36"/>
<text text-anchor="middle" x="5836.5" y="-14.3" font-family="Times New Roman,serif" font-size="14.00">tfx.experimental.pipeline_testing.pipeline_mock</text>
</g>
<!-- 15&#45;&gt;11 -->
<g id="edge8" class="edge">
<title>15&#45;&gt;11</title>
<path fill="none" stroke="black" d="M5951.6,-36.03C6027.89,-47.32 6127.3,-62.04 6201.98,-73.09"/>
<polygon fill="black" stroke="black" points="6211.89,-74.55 6201.34,-77.54 6206.94,-73.82 6202,-73.09 6202,-73.09 6202,-73.09 6206.94,-73.82 6202.66,-68.64 6211.89,-74.55 6211.89,-74.55"/>
</g>
<!-- 16 -->
<g id="node17" class="node">
<title>16</title>
<polygon fill="none" stroke="black" points="6303.5,-36 5995.5,-36 5995.5,0 6303.5,0 6303.5,-36"/>
<text text-anchor="middle" x="6149.5" y="-14.3" font-family="Times New Roman,serif" font-size="14.00">tfx.experimental.pipeline_testing.pipeline_mock_test</text>
</g>
<!-- 16&#45;&gt;11 -->
<g id="edge9" class="edge">
<title>16&#45;&gt;11</title>
<path fill="none" stroke="black" d="M6188.64,-36.12C6210.51,-45.69 6237.96,-57.7 6261.16,-67.85"/>
<polygon fill="black" stroke="black" points="6270.49,-71.93 6259.52,-72.05 6265.91,-69.93 6261.33,-67.92 6261.33,-67.92 6261.33,-67.92 6265.91,-69.93 6263.13,-63.8 6270.49,-71.93 6270.49,-71.93"/>
</g>
<!-- 17 -->
<g id="node18" class="node">
<title>17</title>
<polygon fill="none" stroke="black" points="6617.5,-36 6321.5,-36 6321.5,0 6617.5,0 6617.5,-36"/>
<text text-anchor="middle" x="6469.5" y="-14.3" font-family="Times New Roman,serif" font-size="14.00">tfx.experimental.pipeline_testing.pipeline_recorder</text>
</g>
<!-- 17&#45;&gt;11 -->
<g id="edge10" class="edge">
<title>17&#45;&gt;11</title>
<path fill="none" stroke="black" d="M6430.36,-36.12C6408.49,-45.69 6381.04,-57.7 6357.84,-67.85"/>
<polygon fill="black" stroke="black" points="6348.51,-71.93 6355.87,-63.8 6353.09,-69.93 6357.67,-67.92 6357.67,-67.92 6357.67,-67.92 6353.09,-69.93 6359.48,-72.05 6348.51,-71.93 6348.51,-71.93"/>
</g>
<!-- 18 -->
<g id="node19" class="node">
<title>18</title>
<polygon fill="none" stroke="black" points="8420.5,-36 8094.5,-36 8094.5,0 8420.5,0 8420.5,-36"/>
<text text-anchor="middle" x="8257.5" y="-14.3" font-family="Times New Roman,serif" font-size="14.00">tfx.experimental.pipeline_testing.pipeline_recorder_utils</text>
</g>
<!-- 19 -->
<g id="node20" class="node">
<title>19</title>
<polygon fill="none" stroke="black" points="6989,-36 6636,-36 6636,0 6989,0 6989,-36"/>
<text text-anchor="middle" x="6812.5" y="-14.3" font-family="Times New Roman,serif" font-size="14.00">tfx.experimental.pipeline_testing.pipeline_recorder_utils_test</text>
</g>
<!-- 19&#45;&gt;11 -->
<g id="edge11" class="edge">
<title>19&#45;&gt;11</title>
<path fill="none" stroke="black" d="M6690.1,-36.03C6606.71,-47.64 6497.36,-62.86 6417.27,-74"/>
<polygon fill="black" stroke="black" points="6407.16,-75.41 6416.44,-69.57 6412.11,-74.72 6417.06,-74.03 6417.06,-74.03 6417.06,-74.03 6412.11,-74.72 6417.68,-78.49 6407.16,-75.41 6407.16,-75.41"/>
</g>
<!-- 20 -->
<g id="node21" class="node">
<title>20</title>
<polygon fill="none" stroke="black" points="7354,-36 7007,-36 7007,0 7354,0 7354,-36"/>
<text text-anchor="middle" x="7180.5" y="-14.3" font-family="Times New Roman,serif" font-size="14.00">tfx.experimental.pipeline_testing.stub_component_launcher</text>
</g>
<!-- 20&#45;&gt;11 -->
<g id="edge12" class="edge">
<title>20&#45;&gt;11</title>
<path fill="none" stroke="black" d="M7006.64,-35.22C7003.57,-35.48 7000.52,-35.74 6997.5,-36 6792.6,-53.41 6553.16,-71.3 6417.62,-81.2"/>
<polygon fill="black" stroke="black" points="6407.24,-81.96 6416.88,-76.74 6412.22,-81.59 6417.21,-81.23 6417.21,-81.23 6417.21,-81.23 6412.22,-81.59 6417.54,-85.72 6407.24,-81.96 6407.24,-81.96"/>
</g>
<!-- 21 -->
<g id="node22" class="node">
<title>21</title>
<polygon fill="none" stroke="black" points="7746.5,-36 7372.5,-36 7372.5,0 7746.5,0 7746.5,-36"/>
<text text-anchor="middle" x="7559.5" y="-14.3" font-family="Times New Roman,serif" font-size="14.00">tfx.experimental.pipeline_testing.stub_component_launcher_test</text>
</g>
<!-- 21&#45;&gt;11 -->
<g id="edge13" class="edge">
<title>21&#45;&gt;11</title>
<path fill="none" stroke="black" d="M7372.34,-35.31C7369.04,-35.55 7365.75,-35.78 7362.5,-36 7017.36,-59.57 6607.92,-77.22 6417.22,-84.85"/>
<polygon fill="black" stroke="black" points="6407.2,-85.25 6417.01,-80.36 6412.19,-85.05 6417.19,-84.85 6417.19,-84.85 6417.19,-84.85 6412.19,-85.05 6417.37,-89.35 6407.2,-85.25 6407.2,-85.25"/>
</g>
<!-- 22 -->
<g id="node23" class="node">
<title>22</title>
<polygon fill="none" stroke="black" points="9601,-108 9440,-108 9440,-72 9601,-72 9601,-108"/>
<text text-anchor="middle" x="9520.5" y="-86.3" font-family="Times New Roman,serif" font-size="14.00">tfx.experimental.templates</text>
</g>
<!-- 23 -->
<g id="node24" class="node">
<title>23</title>
<polygon fill="none" stroke="black" points="8754.5,-36 8438.5,-36 8438.5,0 8754.5,0 8754.5,-36"/>
<text text-anchor="middle" x="8596.5" y="-14.3" font-family="Times New Roman,serif" font-size="14.00">tfx.experimental.templates.container_based_test_case</text>
</g>
<!-- 23&#45;&gt;22 -->
<g id="edge14" class="edge">
<title>23&#45;&gt;22</title>
<path fill="none" stroke="black" d="M8754.71,-35.23C8757.66,-35.49 8760.6,-35.75 8763.5,-36 9003.85,-56.64 9287.65,-74.87 9429.78,-83.58"/>
<polygon fill="black" stroke="black" points="9439.77,-84.19 9429.51,-88.07 9434.78,-83.88 9429.79,-83.58 9429.79,-83.58 9429.79,-83.58 9434.78,-83.88 9430.06,-79.09 9439.77,-84.19 9439.77,-84.19"/>
</g>
<!-- 24 -->
<g id="node25" class="node">
<title>24</title>
<polygon fill="none" stroke="black" points="10795,-36 10586,-36 10586,0 10795,0 10795,-36"/>
<text text-anchor="middle" x="10690.5" y="-14.3" font-family="Times New Roman,serif" font-size="14.00">tfx.experimental.templates.penguin</text>
</g>
<!-- 25 -->
<g id="node26" class="node">
<title>25</title>
<polygon fill="none" stroke="black" points="11077.5,-36 10813.5,-36 10813.5,0 11077.5,0 11077.5,-36"/>
<text text-anchor="middle" x="10945.5" y="-14.3" font-family="Times New Roman,serif" font-size="14.00">tfx.experimental.templates.penguin.e2e_tests</text>
</g>
<!-- 26 -->
<g id="node27" class="node">
<title>26</title>
<polygon fill="none" stroke="black" points="9146,-36 8773,-36 8773,0 9146,0 9146,-36"/>
<text text-anchor="middle" x="8959.5" y="-14.3" font-family="Times New Roman,serif" font-size="14.00">tfx.experimental.templates.penguin.e2e_tests.kubeflow_e2e_test</text>
</g>
<!-- 26&#45;&gt;22 -->
<g id="edge15" class="edge">
<title>26&#45;&gt;22</title>
<path fill="none" stroke="black" d="M9096.02,-36.03C9199.81,-48.98 9339.67,-66.44 9429.98,-77.71"/>
<polygon fill="black" stroke="black" points="9439.92,-78.95 9429.44,-82.17 9434.96,-78.33 9430,-77.71 9430,-77.71 9430,-77.71 9434.96,-78.33 9430.56,-73.24 9439.92,-78.95 9439.92,-78.95"/>
</g>
<!-- 27 -->
<g id="node28" class="node">
<title>27</title>
<polygon fill="none" stroke="black" points="9511,-36 9164,-36 9164,0 9511,0 9511,-36"/>
<text text-anchor="middle" x="9337.5" y="-14.3" font-family="Times New Roman,serif" font-size="14.00">tfx.experimental.templates.penguin.e2e_tests.local_e2e_test</text>
</g>
<!-- 27&#45;&gt;22 -->
<g id="edge16" class="edge">
<title>27&#45;&gt;22</title>
<path fill="none" stroke="black" d="M9382.27,-36.12C9407.62,-45.82 9439.51,-58.02 9466.27,-68.26"/>
<polygon fill="black" stroke="black" points="9475.88,-71.93 9464.93,-72.56 9471.21,-70.15 9466.54,-68.36 9466.54,-68.36 9466.54,-68.36 9471.21,-70.15 9468.15,-64.16 9475.88,-71.93 9475.88,-71.93"/>
</g>
<!-- 28 -->
<g id="node29" class="node">
<title>28</title>
<polygon fill="none" stroke="black" points="11403,-36 11096,-36 11096,0 11403,0 11403,-36"/>
<text text-anchor="middle" x="11249.5" y="-14.3" font-family="Times New Roman,serif" font-size="14.00">tfx.experimental.templates.penguin.kubeflow_runner</text>
</g>
<!-- 38 -->
<g id="node39" class="node">
<title>38</title>
<polygon fill="none" stroke="black" points="11533,-108 11278,-108 11278,-72 11533,-72 11533,-108"/>
<text text-anchor="middle" x="11405.5" y="-86.3" font-family="Times New Roman,serif" font-size="14.00">tfx.experimental.templates.penguin.pipeline</text>
</g>
<!-- 28&#45;&gt;38 -->
<g id="edge17" class="edge">
<title>28&#45;&gt;38</title>
<path fill="none" stroke="black" d="M11287.66,-36.12C11308.89,-45.65 11335.51,-57.59 11358.07,-67.72"/>
<polygon fill="black" stroke="black" points="11367.46,-71.93 11356.5,-71.94 11362.9,-69.88 11358.34,-67.84 11358.34,-67.84 11358.34,-67.84 11362.9,-69.88 11360.18,-63.73 11367.46,-71.93 11367.46,-71.93"/>
</g>
<!-- 29 -->
<g id="node30" class="node">
<title>29</title>
<polygon fill="none" stroke="black" points="11702,-36 11421,-36 11421,0 11702,0 11702,-36"/>
<text text-anchor="middle" x="11561.5" y="-14.3" font-family="Times New Roman,serif" font-size="14.00">tfx.experimental.templates.penguin.local_runner</text>
</g>
<!-- 29&#45;&gt;38 -->
<g id="edge18" class="edge">
<title>29&#45;&gt;38</title>
<path fill="none" stroke="black" d="M11523.34,-36.12C11502.11,-45.65 11475.49,-57.59 11452.93,-67.72"/>
<polygon fill="black" stroke="black" points="11443.54,-71.93 11450.82,-63.73 11448.1,-69.88 11452.66,-67.84 11452.66,-67.84 11452.66,-67.84 11448.1,-69.88 11454.5,-71.94 11443.54,-71.93 11443.54,-71.93"/>
</g>
<!-- 30 -->
<g id="node31" class="node">
<title>30</title>
<polygon fill="none" stroke="black" points="12832,-108 12579,-108 12579,-72 12832,-72 12832,-108"/>
<text text-anchor="middle" x="12705.5" y="-86.3" font-family="Times New Roman,serif" font-size="14.00">tfx.experimental.templates.penguin.models</text>
</g>
<!-- 31 -->
<g id="node32" class="node">
<title>31</title>
<polygon fill="none" stroke="black" points="14074.5,-36 13764.5,-36 13764.5,0 14074.5,0 14074.5,-36"/>
<text text-anchor="middle" x="13919.5" y="-14.3" font-family="Times New Roman,serif" font-size="14.00">tfx.experimental.templates.penguin.models.constants</text>
</g>
<!-- 32 -->
<g id="node33" class="node">
<title>32</title>
<polygon fill="none" stroke="black" points="14392.5,-36 14092.5,-36 14092.5,0 14392.5,0 14392.5,-36"/>
<text text-anchor="middle" x="14242.5" y="-14.3" font-family="Times New Roman,serif" font-size="14.00">tfx.experimental.templates.penguin.models.features</text>
</g>
<!-- 33 -->
<g id="node34" class="node">
<title>33</title>
<polygon fill="none" stroke="black" points="12047,-36 11720,-36 11720,0 12047,0 12047,-36"/>
<text text-anchor="middle" x="11883.5" y="-14.3" font-family="Times New Roman,serif" font-size="14.00">tfx.experimental.templates.penguin.models.features_test</text>
</g>
<!-- 33&#45;&gt;30 -->
<g id="edge19" class="edge">
<title>33&#45;&gt;30</title>
<path fill="none" stroke="black" d="M12047.37,-35.26C12050.1,-35.51 12052.81,-35.76 12055.5,-36 12232.58,-51.97 12436.99,-68.29 12568.57,-78.52"/>
<polygon fill="black" stroke="black" points="12578.71,-79.31 12568.39,-83.02 12573.72,-78.92 12568.74,-78.53 12568.74,-78.53 12568.74,-78.53 12573.72,-78.92 12569.09,-74.05 12578.71,-79.31 12578.71,-79.31"/>
</g>
<!-- 34 -->
<g id="node35" class="node">
<title>34</title>
<polygon fill="none" stroke="black" points="12356,-36 12065,-36 12065,0 12356,0 12356,-36"/>
<text text-anchor="middle" x="12210.5" y="-14.3" font-family="Times New Roman,serif" font-size="14.00">tfx.experimental.templates.penguin.models.model</text>
</g>
<!-- 34&#45;&gt;30 -->
<g id="edge20" class="edge">
<title>34&#45;&gt;30</title>
<path fill="none" stroke="black" d="M12330.96,-36.03C12404.77,-46.47 12499.26,-59.83 12574.87,-70.53"/>
<polygon fill="black" stroke="black" points="12584.93,-71.95 12574.4,-75.01 12579.98,-71.25 12575.03,-70.55 12575.03,-70.55 12575.03,-70.55 12579.98,-71.25 12575.66,-66.09 12584.93,-71.95 12584.93,-71.95"/>
</g>
<!-- 35 -->
<g id="node36" class="node">
<title>35</title>
<polygon fill="none" stroke="black" points="12692.5,-36 12374.5,-36 12374.5,0 12692.5,0 12692.5,-36"/>
<text text-anchor="middle" x="12533.5" y="-14.3" font-family="Times New Roman,serif" font-size="14.00">tfx.experimental.templates.penguin.models.model_test</text>
</g>
<!-- 35&#45;&gt;30 -->
<g id="edge21" class="edge">
<title>35&#45;&gt;30</title>
<path fill="none" stroke="black" d="M12575.58,-36.12C12599.3,-45.78 12629.12,-57.91 12654.2,-68.12"/>
<polygon fill="black" stroke="black" points="12663.56,-71.93 12652.6,-72.33 12658.93,-70.05 12654.3,-68.16 12654.3,-68.16 12654.3,-68.16 12658.93,-70.05 12655.99,-63.99 12663.56,-71.93 12663.56,-71.93"/>
</g>
<!-- 36 -->
<g id="node37" class="node">
<title>36</title>
<polygon fill="none" stroke="black" points="13046,-36 12711,-36 12711,0 13046,0 13046,-36"/>
<text text-anchor="middle" x="12878.5" y="-14.3" font-family="Times New Roman,serif" font-size="14.00">tfx.experimental.templates.penguin.models.preprocessing</text>
</g>
<!-- 36&#45;&gt;30 -->
<g id="edge22" class="edge">
<title>36&#45;&gt;30</title>
<path fill="none" stroke="black" d="M12836.18,-36.12C12812.32,-45.78 12782.33,-57.91 12757.1,-68.12"/>
<polygon fill="black" stroke="black" points="12747.68,-71.93 12755.27,-64.01 12752.32,-70.06 12756.95,-68.18 12756.95,-68.18 12756.95,-68.18 12752.32,-70.06 12758.64,-72.35 12747.68,-71.93 12747.68,-71.93"/>
</g>
<!-- 37 -->
<g id="node38" class="node">
<title>37</title>
<polygon fill="none" stroke="black" points="13426.5,-36 13064.5,-36 13064.5,0 13426.5,0 13426.5,-36"/>
<text text-anchor="middle" x="13245.5" y="-14.3" font-family="Times New Roman,serif" font-size="14.00">tfx.experimental.templates.penguin.models.preprocessing_test</text>
</g>
<!-- 37&#45;&gt;30 -->
<g id="edge23" class="edge">
<title>37&#45;&gt;30</title>
<path fill="none" stroke="black" d="M13114.09,-36.03C13031.74,-46.71 12925.8,-60.44 12842.42,-71.25"/>
<polygon fill="black" stroke="black" points="12832.37,-72.55 12841.71,-66.81 12837.33,-71.91 12842.29,-71.27 12842.29,-71.27 12842.29,-71.27 12837.33,-71.91 12842.87,-75.73 12832.37,-72.55 12832.37,-72.55"/>
</g>
<!-- 39 -->
<g id="node40" class="node">
<title>39</title>
<polygon fill="none" stroke="black" points="14710.5,-36 14410.5,-36 14410.5,0 14710.5,0 14710.5,-36"/>
<text text-anchor="middle" x="14560.5" y="-14.3" font-family="Times New Roman,serif" font-size="14.00">tfx.experimental.templates.penguin.pipeline.configs</text>
</g>
<!-- 40 -->
<g id="node41" class="node">
<title>40</title>
<polygon fill="none" stroke="black" points="13746.5,-36 13444.5,-36 13444.5,0 13746.5,0 13746.5,-36"/>
<text text-anchor="middle" x="13595.5" y="-14.3" font-family="Times New Roman,serif" font-size="14.00">tfx.experimental.templates.penguin.pipeline.pipeline</text>
</g>
<!-- 40&#45;&gt;30 -->
<g id="edge24" class="edge">
<title>40&#45;&gt;30</title>
<path fill="none" stroke="black" d="M13444.35,-35.2C13441.37,-35.47 13438.42,-35.74 13435.5,-36 13229.09,-54.45 12989.41,-70.9 12842.61,-80.42"/>
<polygon fill="black" stroke="black" points="12832.21,-81.09 12841.9,-75.95 12837.2,-80.77 12842.19,-80.44 12842.19,-80.44 12842.19,-80.44 12837.2,-80.77 12842.48,-84.93 12832.21,-81.09 12832.21,-81.09"/>
</g>
<!-- 41 -->
<g id="node42" class="node">
<title>41</title>
<polygon fill="none" stroke="black" points="14914,-36 14729,-36 14729,0 14914,0 14914,-36"/>
<text text-anchor="middle" x="14821.5" y="-14.3" font-family="Times New Roman,serif" font-size="14.00">tfx.experimental.templates.taxi</text>
</g>
<!-- 42 -->
<g id="node43" class="node">
<title>42</title>
<polygon fill="none" stroke="black" points="15172.5,-36 14932.5,-36 14932.5,0 15172.5,0 15172.5,-36"/>
<text text-anchor="middle" x="15052.5" y="-14.3" font-family="Times New Roman,serif" font-size="14.00">tfx.experimental.templates.taxi.e2e_tests</text>
</g>
<!-- 43 -->
<g id="node44" class="node">
<title>43</title>
<polygon fill="none" stroke="black" points="9878,-36 9529,-36 9529,0 9878,0 9878,-36"/>
<text text-anchor="middle" x="9703.5" y="-14.3" font-family="Times New Roman,serif" font-size="14.00">tfx.experimental.templates.taxi.e2e_tests.kubeflow_e2e_test</text>
</g>
<!-- 43&#45;&gt;22 -->
<g id="edge25" class="edge">
<title>43&#45;&gt;22</title>
<path fill="none" stroke="black" d="M9658.73,-36.12C9633.38,-45.82 9601.49,-58.02 9574.73,-68.26"/>
<polygon fill="black" stroke="black" points="9565.12,-71.93 9572.85,-64.16 9569.79,-70.15 9574.46,-68.36 9574.46,-68.36 9574.46,-68.36 9569.79,-70.15 9576.07,-72.56 9565.12,-71.93 9565.12,-71.93"/>
</g>
<!-- 44 -->
<g id="node45" class="node">
<title>44</title>
<polygon fill="none" stroke="black" points="10219,-36 9896,-36 9896,0 10219,0 10219,-36"/>
<text text-anchor="middle" x="10057.5" y="-14.3" font-family="Times New Roman,serif" font-size="14.00">tfx.experimental.templates.taxi.e2e_tests.local_e2e_test</text>
</g>
<!-- 44&#45;&gt;22 -->
<g id="edge26" class="edge">
<title>44&#45;&gt;22</title>
<path fill="none" stroke="black" d="M9926.82,-36.03C9829.02,-48.78 9697.75,-65.9 9611.22,-77.17"/>
<polygon fill="black" stroke="black" points="9601.15,-78.49 9610.49,-72.73 9606.11,-77.84 9611.07,-77.19 9611.07,-77.19 9611.07,-77.19 9606.11,-77.84 9611.65,-81.66 9601.15,-78.49 9601.15,-78.49"/>
</g>
<!-- 45 -->
<g id="node46" class="node">
<title>45</title>
<polygon fill="none" stroke="black" points="10568,-36 10237,-36 10237,0 10568,0 10568,-36"/>
<text text-anchor="middle" x="10402.5" y="-14.3" font-family="Times New Roman,serif" font-size="14.00">tfx.experimental.templates.taxi.e2e_tests.vertex_e2e_test</text>
</g>
<!-- 45&#45;&gt;22 -->
<g id="edge27" class="edge">
<title>45&#45;&gt;22</title>
<path fill="none" stroke="black" d="M10236.71,-35.2C10233.61,-35.47 10230.54,-35.74 10227.5,-36 10006.39,-55.03 9746.03,-73.54 9611.39,-82.83"/>
<polygon fill="black" stroke="black" points="9601.13,-83.54 9610.8,-78.36 9606.12,-83.19 9611.1,-82.85 9611.1,-82.85 9611.1,-82.85 9606.12,-83.19 9611.41,-87.34 9601.13,-83.54 9601.13,-83.54"/>
</g>
<!-- 46 -->
<g id="node47" class="node">
<title>46</title>
<polygon fill="none" stroke="black" points="15474,-36 15191,-36 15191,0 15474,0 15474,-36"/>
<text text-anchor="middle" x="15332.5" y="-14.3" font-family="Times New Roman,serif" font-size="14.00">tfx.experimental.templates.taxi.kubeflow_runner</text>
</g>
<!-- 62 -->
<g id="node63" class="node">
<title>62</title>
<polygon fill="none" stroke="black" points="15760,-108 15529,-108 15529,-72 15760,-72 15760,-108"/>
<text text-anchor="middle" x="15644.5" y="-86.3" font-family="Times New Roman,serif" font-size="14.00">tfx.experimental.templates.taxi.pipeline</text>
</g>
<!-- 46&#45;&gt;62 -->
<g id="edge28" class="edge">
<title>46&#45;&gt;62</title>
<path fill="none" stroke="black" d="M15408.42,-36.03C15453.81,-46.22 15511.6,-59.18 15558.64,-69.74"/>
<polygon fill="black" stroke="black" points="15568.51,-71.95 15557.76,-74.15 15563.63,-70.86 15558.75,-69.76 15558.75,-69.76 15558.75,-69.76 15563.63,-70.86 15559.73,-65.37 15568.51,-71.95 15568.51,-71.95"/>
</g>
<!-- 47 -->
<g id="node48" class="node">
<title>47</title>
<polygon fill="none" stroke="black" points="15796.5,-36 15492.5,-36 15492.5,0 15796.5,0 15796.5,-36"/>
<text text-anchor="middle" x="15644.5" y="-14.3" font-family="Times New Roman,serif" font-size="14.00">tfx.experimental.templates.taxi.kubeflow_v2_runner</text>
</g>
<!-- 47&#45;&gt;62 -->
<g id="edge29" class="edge">
<title>47&#45;&gt;62</title>
<path fill="none" stroke="black" d="M15644.5,-36.3C15644.5,-44.02 15644.5,-53.29 15644.5,-61.89"/>
<polygon fill="black" stroke="black" points="15644.5,-71.9 15640,-61.9 15644.5,-66.9 15644.5,-61.9 15644.5,-61.9 15644.5,-61.9 15644.5,-66.9 15649,-61.9 15644.5,-71.9 15644.5,-71.9"/>
</g>
<!-- 48 -->
<g id="node49" class="node">
<title>48</title>
<polygon fill="none" stroke="black" points="16072,-36 15815,-36 15815,0 16072,0 16072,-36"/>
<text text-anchor="middle" x="15943.5" y="-14.3" font-family="Times New Roman,serif" font-size="14.00">tfx.experimental.templates.taxi.local_runner</text>
</g>
<!-- 48&#45;&gt;62 -->
<g id="edge30" class="edge">
<title>48&#45;&gt;62</title>
<path fill="none" stroke="black" d="M15870.74,-36.03C15827.34,-46.2 15772.1,-59.13 15727.07,-69.67"/>
<polygon fill="black" stroke="black" points="15717.33,-71.95 15726.04,-65.29 15722.2,-70.81 15727.06,-69.67 15727.06,-69.67 15727.06,-69.67 15722.2,-70.81 15728.09,-74.05 15717.33,-71.95 15717.33,-71.95"/>
</g>
<!-- 49 -->
<g id="node50" class="node">
<title>49</title>
<polygon fill="none" stroke="black" points="17473,-108 17244,-108 17244,-72 17473,-72 17473,-108"/>
<text text-anchor="middle" x="17358.5" y="-86.3" font-family="Times New Roman,serif" font-size="14.00">tfx.experimental.templates.taxi.models</text>
</g>
<!-- 50 -->
<g id="node51" class="node">
<title>50</title>
<polygon fill="none" stroke="black" points="16646.5,-108 16320.5,-108 16320.5,-72 16646.5,-72 16646.5,-108"/>
<text text-anchor="middle" x="16483.5" y="-86.3" font-family="Times New Roman,serif" font-size="14.00">tfx.experimental.templates.taxi.models.estimator_model</text>
</g>
<!-- 51 -->
<g id="node52" class="node">
<title>51</title>
<polygon fill="none" stroke="black" points="19019,-36 18636,-36 18636,0 19019,0 19019,-36"/>
<text text-anchor="middle" x="18827.5" y="-14.3" font-family="Times New Roman,serif" font-size="14.00">tfx.experimental.templates.taxi.models.estimator_model.constants</text>
</g>
<!-- 52 -->
<g id="node53" class="node">
<title>52</title>
<polygon fill="none" stroke="black" points="16863.5,-36 16499.5,-36 16499.5,0 16863.5,0 16863.5,-36"/>
<text text-anchor="middle" x="16681.5" y="-14.3" font-family="Times New Roman,serif" font-size="14.00">tfx.experimental.templates.taxi.models.estimator_model.model</text>
</g>
<!-- 52&#45;&gt;49 -->
<g id="edge31" class="edge">
<title>52&#45;&gt;49</title>
<path fill="none" stroke="black" d="M16846.25,-36.03C16965.71,-48.39 17124.78,-64.83 17233.79,-76.11"/>
<polygon fill="black" stroke="black" points="17243.85,-77.15 17233.44,-80.59 17238.87,-76.63 17233.9,-76.12 17233.9,-76.12 17233.9,-76.12 17238.87,-76.63 17234.36,-71.64 17243.85,-77.15 17243.85,-77.15"/>
</g>
<!-- 52&#45;&gt;50 -->
<g id="edge32" class="edge">
<title>52&#45;&gt;50</title>
<path fill="none" stroke="black" d="M16633.32,-36.03C16605.65,-45.81 16570.72,-58.16 16541.55,-68.48"/>
<polygon fill="black" stroke="black" points="16531.9,-71.89 16539.83,-64.31 16536.61,-70.22 16541.33,-68.56 16541.33,-68.56 16541.33,-68.56 16536.61,-70.22 16542.83,-72.8 16531.9,-71.89 16531.9,-71.89"/>
</g>
<!-- 53 -->
<g id="node54" class="node">
<title>53</title>
<polygon fill="none" stroke="black" points="16481,-36 16090,-36 16090,0 16481,0 16481,-36"/>
<text text-anchor="middle" x="16285.5" y="-14.3" font-family="Times New Roman,serif" font-size="14.00">tfx.experimental.templates.taxi.models.estimator_model.model_test</text>
</g>
<!-- 53&#45;&gt;50 -->
<g id="edge33" class="edge">
<title>53&#45;&gt;50</title>
<path fill="none" stroke="black" d="M16333.68,-36.03C16361.35,-45.81 16396.28,-58.16 16425.45,-68.48"/>
<polygon fill="black" stroke="black" points="16435.1,-71.89 16424.17,-72.8 16430.39,-70.22 16425.67,-68.56 16425.67,-68.56 16425.67,-68.56 16430.39,-70.22 16427.17,-64.31 16435.1,-71.89 16435.1,-71.89"/>
</g>
<!-- 54 -->
<g id="node55" class="node">
<title>54</title>
<polygon fill="none" stroke="black" points="19313.5,-36 19037.5,-36 19037.5,0 19313.5,0 19313.5,-36"/>
<text text-anchor="middle" x="19175.5" y="-14.3" font-family="Times New Roman,serif" font-size="14.00">tfx.experimental.templates.taxi.models.features</text>
</g>
<!-- 55 -->
<g id="node56" class="node">
<title>55</title>
<polygon fill="none" stroke="black" points="17185,-36 16882,-36 16882,0 17185,0 17185,-36"/>
<text text-anchor="middle" x="17033.5" y="-14.3" font-family="Times New Roman,serif" font-size="14.00">tfx.experimental.templates.taxi.models.features_test</text>
</g>
<!-- 55&#45;&gt;49 -->
<g id="edge34" class="edge">
<title>55&#45;&gt;49</title>
<path fill="none" stroke="black" d="M17112.59,-36.03C17159.96,-46.24 17220.31,-59.24 17269.37,-69.8"/>
<polygon fill="black" stroke="black" points="17279.34,-71.95 17268.62,-74.24 17274.45,-70.9 17269.56,-69.84 17269.56,-69.84 17269.56,-69.84 17274.45,-70.9 17270.51,-65.45 17279.34,-71.95 17279.34,-71.95"/>
</g>
<!-- 56 -->
<g id="node57" class="node">
<title>56</title>
<polygon fill="none" stroke="black" points="18398.5,-108 18094.5,-108 18094.5,-72 18398.5,-72 18398.5,-108"/>
<text text-anchor="middle" x="18246.5" y="-86.3" font-family="Times New Roman,serif" font-size="14.00">tfx.experimental.templates.taxi.models.keras_model</text>
</g>
<!-- 57 -->
<g id="node58" class="node">
<title>57</title>
<polygon fill="none" stroke="black" points="19693,-36 19332,-36 19332,0 19693,0 19693,-36"/>
<text text-anchor="middle" x="19512.5" y="-14.3" font-family="Times New Roman,serif" font-size="14.00">tfx.experimental.templates.taxi.models.keras_model.constants</text>
</g>
<!-- 58 -->
<g id="node59" class="node">
<title>58</title>
<polygon fill="none" stroke="black" points="18230.5,-36 17888.5,-36 17888.5,0 18230.5,0 18230.5,-36"/>
<text text-anchor="middle" x="18059.5" y="-14.3" font-family="Times New Roman,serif" font-size="14.00">tfx.experimental.templates.taxi.models.keras_model.model</text>
</g>
<!-- 58&#45;&gt;49 -->
<g id="edge35" class="edge">
<title>58&#45;&gt;49</title>
<path fill="none" stroke="black" d="M17888.91,-36.03C17763.62,-48.55 17596.23,-65.26 17483.28,-76.54"/>
<polygon fill="black" stroke="black" points="17473.21,-77.55 17482.71,-72.07 17478.18,-77.05 17483.16,-76.55 17483.16,-76.55 17483.16,-76.55 17478.18,-77.05 17483.6,-81.03 17473.21,-77.55 17473.21,-77.55"/>
</g>
<!-- 58&#45;&gt;56 -->
<g id="edge36" class="edge">
<title>58&#45;&gt;56</title>
<path fill="none" stroke="black" d="M18105.25,-36.12C18131.26,-45.86 18164.03,-58.13 18191.45,-68.39"/>
<polygon fill="black" stroke="black" points="18200.9,-71.93 18189.96,-72.64 18196.22,-70.18 18191.54,-68.43 18191.54,-68.43 18191.54,-68.43 18196.22,-70.18 18193.12,-64.21 18200.9,-71.93 18200.9,-71.93"/>
</g>
<!-- 59 -->
<g id="node60" class="node">
<title>59</title>
<polygon fill="none" stroke="black" points="18618,-36 18249,-36 18249,0 18618,0 18618,-36"/>
<text text-anchor="middle" x="18433.5" y="-14.3" font-family="Times New Roman,serif" font-size="14.00">tfx.experimental.templates.taxi.models.keras_model.model_test</text>
</g>
<!-- 59&#45;&gt;56 -->
<g id="edge37" class="edge">
<title>59&#45;&gt;56</title>
<path fill="none" stroke="black" d="M18387.75,-36.12C18361.74,-45.86 18328.97,-58.13 18301.55,-68.39"/>
<polygon fill="black" stroke="black" points="18292.1,-71.93 18299.88,-64.21 18296.78,-70.18 18301.46,-68.43 18301.46,-68.43 18301.46,-68.43 18296.78,-70.18 18303.04,-72.64 18292.1,-71.93 18292.1,-71.93"/>
</g>
<!-- 60 -->
<g id="node61" class="node">
<title>60</title>
<polygon fill="none" stroke="black" points="17514,-36 17203,-36 17203,0 17514,0 17514,-36"/>
<text text-anchor="middle" x="17358.5" y="-14.3" font-family="Times New Roman,serif" font-size="14.00">tfx.experimental.templates.taxi.models.preprocessing</text>
</g>
<!-- 60&#45;&gt;49 -->
<g id="edge38" class="edge">
<title>60&#45;&gt;49</title>
<path fill="none" stroke="black" d="M17358.5,-36.3C17358.5,-44.02 17358.5,-53.29 17358.5,-61.89"/>
<polygon fill="black" stroke="black" points="17358.5,-71.9 17354,-61.9 17358.5,-66.9 17358.5,-61.9 17358.5,-61.9 17358.5,-61.9 17358.5,-66.9 17363,-61.9 17358.5,-71.9 17358.5,-71.9"/>
</g>
<!-- 61 -->
<g id="node62" class="node">
<title>61</title>
<polygon fill="none" stroke="black" points="17870.5,-36 17532.5,-36 17532.5,0 17870.5,0 17870.5,-36"/>
<text text-anchor="middle" x="17701.5" y="-14.3" font-family="Times New Roman,serif" font-size="14.00">tfx.experimental.templates.taxi.models.preprocessing_test</text>
</g>
<!-- 61&#45;&gt;49 -->
<g id="edge39" class="edge">
<title>61&#45;&gt;49</title>
<path fill="none" stroke="black" d="M17618.03,-36.03C17567.83,-46.28 17503.81,-59.34 17451.92,-69.93"/>
<polygon fill="black" stroke="black" points="17442.05,-71.95 17450.94,-65.54 17446.94,-70.95 17451.84,-69.95 17451.84,-69.95 17451.84,-69.95 17446.94,-70.95 17452.74,-74.36 17442.05,-71.95 17442.05,-71.95"/>
</g>
<!-- 63 -->
<g id="node64" class="node">
<title>63</title>
<polygon fill="none" stroke="black" points="19987.5,-36 19711.5,-36 19711.5,0 19987.5,0 19987.5,-36"/>
<text text-anchor="middle" x="19849.5" y="-14.3" font-family="Times New Roman,serif" font-size="14.00">tfx.experimental.templates.taxi.pipeline.configs</text>
</g>
<!-- 64 -->
<g id="node65" class="node">
<title>64</title>
<polygon fill="none" stroke="black" points="20283.5,-36 20005.5,-36 20005.5,0 20283.5,0 20283.5,-36"/>
<text text-anchor="middle" x="20144.5" y="-14.3" font-family="Times New Roman,serif" font-size="14.00">tfx.experimental.templates.taxi.pipeline.pipeline</text>
</g>
<!-- 65 -->
<g id="node66" class="node">
<title>65</title>
<polygon fill="none" stroke="black" points="20517,-36 20302,-36 20302,0 20517,0 20517,-36"/>
<text text-anchor="middle" x="20409.5" y="-14.3" font-family="Times New Roman,serif" font-size="14.00">tfx.experimental.templates.test_utils</text>
</g>
</g>
</svg>
