<?xml version="1.0" encoding="UTF-8" standalone="no"?>
<!DOCTYPE svg PUBLIC "-//W3C//DTD SVG 1.1//EN"
 "http://www.w3.org/Graphics/SVG/1.1/DTD/svg11.dtd">
<!-- Generated by graphviz version 5.0.0 (20220707.1540)
 -->
<!-- Title: packages Pages: 1 -->
<svg width="2431pt" height="332pt"
 viewBox="0.00 0.00 2430.50 332.00" xmlns="http://www.w3.org/2000/svg" xmlns:xlink="http://www.w3.org/1999/xlink">
<g id="graph0" class="graph" transform="scale(1 1) rotate(0) translate(4 328)">
<title>packages</title>
<polygon fill="white" stroke="transparent" points="-4,4 -4,-328 2426.5,-328 2426.5,4 -4,4"/>
<!-- 0 -->
<g id="node1" class="node">
<title>0</title>
<polygon fill="none" stroke="black" points="817.5,-108 752.5,-108 752.5,-72 817.5,-72 817.5,-108"/>
<text text-anchor="middle" x="785" y="-86.3" font-family="Times New Roman,serif" font-size="14.00">tfx.types</text>
</g>
<!-- 1 -->
<g id="node2" class="node">
<title>1</title>
<polygon fill="none" stroke="black" points="679.5,-252 572.5,-252 572.5,-216 679.5,-216 679.5,-252"/>
<text text-anchor="middle" x="626" y="-230.3" font-family="Times New Roman,serif" font-size="14.00">tfx.types.artifact</text>
</g>
<!-- 0&#45;&gt;1 -->
<g id="edge1" class="edge">
<title>0&#45;&gt;1</title>
<path fill="none" stroke="black" d="M752.26,-105.78C733.67,-115.12 710.67,-128.37 693,-144 672.11,-162.47 653.5,-188.36 641.23,-207.46"/>
<polygon fill="black" stroke="black" points="635.89,-215.97 637.39,-205.1 638.55,-211.73 641.21,-207.5 641.21,-207.5 641.21,-207.5 638.55,-211.73 645.02,-209.89 635.89,-215.97 635.89,-215.97"/>
</g>
<!-- 5 -->
<g id="node6" class="node">
<title>5</title>
<polygon fill="none" stroke="black" points="997.5,-180 886.5,-180 886.5,-144 997.5,-144 997.5,-180"/>
<text text-anchor="middle" x="942" y="-158.3" font-family="Times New Roman,serif" font-size="14.00">tfx.types.channel</text>
</g>
<!-- 0&#45;&gt;5 -->
<g id="edge2" class="edge">
<title>0&#45;&gt;5</title>
<path fill="none" stroke="black" d="M817.51,-108.12C838.06,-117.74 865.02,-129.81 888.63,-139.99"/>
<polygon fill="black" stroke="black" points="897.83,-143.93 886.86,-144.13 893.23,-141.96 888.64,-139.99 888.64,-139.99 888.64,-139.99 893.23,-141.96 890.41,-135.86 897.83,-143.93 897.83,-143.93"/>
</g>
<!-- 9 -->
<g id="node10" class="node">
<title>9</title>
<polygon fill="none" stroke="black" points="868,-180 702,-180 702,-144 868,-144 868,-180"/>
<text text-anchor="middle" x="785" y="-158.3" font-family="Times New Roman,serif" font-size="14.00">tfx.types.component_spec</text>
</g>
<!-- 0&#45;&gt;9 -->
<g id="edge3" class="edge">
<title>0&#45;&gt;9</title>
<path fill="none" stroke="black" d="M779.08,-108.3C778.29,-116.02 778.06,-125.29 778.4,-133.89"/>
<polygon fill="black" stroke="black" points="779.1,-143.9 773.92,-134.23 778.76,-138.91 778.41,-133.92 778.41,-133.92 778.41,-133.92 778.76,-138.91 782.9,-133.61 779.1,-143.9 779.1,-143.9"/>
</g>
<!-- 20 -->
<g id="node21" class="node">
<title>20</title>
<polygon fill="none" stroke="black" points="515.5,-180 372.5,-180 372.5,-144 515.5,-144 515.5,-180"/>
<text text-anchor="middle" x="444" y="-158.3" font-family="Times New Roman,serif" font-size="14.00">tfx.types.value_artifact</text>
</g>
<!-- 0&#45;&gt;20 -->
<g id="edge4" class="edge">
<title>0&#45;&gt;20</title>
<path fill="none" stroke="black" d="M752.3,-97.71C700.56,-108.33 598.24,-129.34 525.69,-144.23"/>
<polygon fill="black" stroke="black" points="515.66,-146.29 524.55,-139.87 520.55,-145.28 525.45,-144.28 525.45,-144.28 525.45,-144.28 520.55,-145.28 526.36,-148.69 515.66,-146.29 515.66,-146.29"/>
</g>
<!-- 18 -->
<g id="node19" class="node">
<title>18</title>
<polygon fill="none" stroke="black" points="599,-324 439,-324 439,-288 599,-288 599,-324"/>
<text text-anchor="middle" x="519" y="-302.3" font-family="Times New Roman,serif" font-size="14.00">tfx.types.system_artifacts</text>
</g>
<!-- 1&#45;&gt;18 -->
<g id="edge5" class="edge">
<title>1&#45;&gt;18</title>
<path fill="none" stroke="black" d="M599.82,-252.12C585.96,-261.19 568.76,-272.45 553.79,-282.24"/>
<polygon fill="black" stroke="black" points="545.28,-287.81 551.18,-278.57 549.46,-285.07 553.64,-282.34 553.64,-282.34 553.64,-282.34 549.46,-285.07 556.11,-286.1 545.28,-287.81 545.28,-287.81"/>
</g>
<!-- 2 -->
<g id="node3" class="node">
<title>2</title>
<polygon fill="none" stroke="black" points="134,-36 0,-36 0,0 134,0 134,-36"/>
<text text-anchor="middle" x="67" y="-14.3" font-family="Times New Roman,serif" font-size="14.00">tfx.types.artifact_test</text>
</g>
<!-- 2&#45;&gt;0 -->
<g id="edge6" class="edge">
<title>2&#45;&gt;0</title>
<path fill="none" stroke="black" d="M134.04,-34.57C137.06,-35.09 140.06,-35.57 143,-36 367.4,-68.84 426.32,-49.61 652,-72 682.27,-75 716.28,-79.37 742.34,-82.92"/>
<polygon fill="black" stroke="black" points="752.26,-84.29 741.74,-87.38 747.31,-83.61 742.36,-82.93 742.36,-82.93 742.36,-82.93 747.31,-83.61 742.97,-78.47 752.26,-84.29 752.26,-84.29"/>
</g>
<!-- 2&#45;&gt;18 -->
<g id="edge7" class="edge">
<title>2&#45;&gt;18</title>
<path fill="none" stroke="black" d="M92.67,-36.21C137.21,-65.99 231.82,-128.83 313,-180 371.36,-216.79 440.01,-258.05 481.48,-282.75"/>
<polygon fill="black" stroke="black" points="490.15,-287.92 479.26,-286.67 485.85,-285.36 481.56,-282.8 481.56,-282.8 481.56,-282.8 485.85,-285.36 483.86,-278.93 490.15,-287.92 490.15,-287.92"/>
</g>
<!-- 3 -->
<g id="node4" class="node">
<title>3</title>
<polygon fill="none" stroke="black" points="289.5,-36 152.5,-36 152.5,0 289.5,0 289.5,-36"/>
<text text-anchor="middle" x="221" y="-14.3" font-family="Times New Roman,serif" font-size="14.00">tfx.types.artifact_utils</text>
</g>
<!-- 3&#45;&gt;0 -->
<g id="edge8" class="edge">
<title>3&#45;&gt;0</title>
<path fill="none" stroke="black" d="M289.82,-34.44C292.92,-35 295.99,-35.52 299,-36 454.74,-60.83 495.33,-54 652,-72 682.22,-75.47 716.23,-79.83 742.3,-83.26"/>
<polygon fill="black" stroke="black" points="752.23,-84.58 741.73,-87.72 747.28,-83.92 742.32,-83.26 742.32,-83.26 742.32,-83.26 747.28,-83.92 742.91,-78.8 752.23,-84.58 752.23,-84.58"/>
</g>
<!-- 3&#45;&gt;1 -->
<g id="edge9" class="edge">
<title>3&#45;&gt;1</title>
<path fill="none" stroke="black" d="M230.78,-36.14C250.87,-69.65 300.22,-143.77 363,-180 424.62,-215.56 506.33,-227.56 562.23,-231.44"/>
<polygon fill="black" stroke="black" points="572.35,-232.08 562.09,-235.95 567.36,-231.77 562.37,-231.45 562.37,-231.45 562.37,-231.45 567.36,-231.77 562.66,-226.96 572.35,-232.08 572.35,-232.08"/>
</g>
<!-- 3&#45;&gt;20 -->
<g id="edge10" class="edge">
<title>3&#45;&gt;20</title>
<path fill="none" stroke="black" d="M247.9,-36.13C288.08,-61.72 363.83,-109.95 408.5,-138.4"/>
<polygon fill="black" stroke="black" points="417.01,-143.81 406.15,-142.24 412.79,-141.13 408.57,-138.44 408.57,-138.44 408.57,-138.44 412.79,-141.13 410.99,-134.64 417.01,-143.81 417.01,-143.81"/>
</g>
<!-- 4 -->
<g id="node5" class="node">
<title>4</title>
<polygon fill="none" stroke="black" points="472,-36 308,-36 308,0 472,0 472,-36"/>
<text text-anchor="middle" x="390" y="-14.3" font-family="Times New Roman,serif" font-size="14.00">tfx.types.artifact_utils_test</text>
</g>
<!-- 4&#45;&gt;0 -->
<g id="edge11" class="edge">
<title>4&#45;&gt;0</title>
<path fill="none" stroke="black" d="M472.33,-34.43C475.26,-34.96 478.15,-35.49 481,-36 574,-52.79 683.19,-71.61 742.09,-81.69"/>
<polygon fill="black" stroke="black" points="752.14,-83.4 741.52,-86.16 747.21,-82.56 742.28,-81.72 742.28,-81.72 742.28,-81.72 747.21,-82.56 743.04,-77.28 752.14,-83.4 752.14,-83.4"/>
</g>
<!-- 4&#45;&gt;20 -->
<g id="edge12" class="edge">
<title>4&#45;&gt;20</title>
<path fill="none" stroke="black" d="M396.51,-36.13C405.8,-60.54 422.92,-105.57 433.87,-134.36"/>
<polygon fill="black" stroke="black" points="437.46,-143.81 429.7,-136.06 435.69,-139.14 433.91,-134.46 433.91,-134.46 433.91,-134.46 435.69,-139.14 438.11,-132.86 437.46,-143.81 437.46,-143.81"/>
</g>
<!-- 5&#45;&gt;0 -->
<g id="edge13" class="edge">
<title>5&#45;&gt;0</title>
<path fill="none" stroke="black" d="M909.68,-143.97C885.67,-132.73 852.85,-118.12 826.85,-107.08"/>
<polygon fill="black" stroke="black" points="817.61,-103.19 828.58,-102.93 822.22,-105.13 826.83,-107.07 826.83,-107.07 826.83,-107.07 822.22,-105.13 825.09,-111.22 817.61,-103.19 817.61,-103.19"/>
</g>
<!-- 5&#45;&gt;1 -->
<g id="edge14" class="edge">
<title>5&#45;&gt;1</title>
<path fill="none" stroke="black" d="M886.37,-177.73C883.21,-178.52 880.07,-179.28 877,-180 858.93,-184.27 757.85,-205.47 689.61,-219.73"/>
<polygon fill="black" stroke="black" points="679.79,-221.79 688.66,-215.34 684.68,-220.76 689.58,-219.74 689.58,-219.74 689.58,-219.74 684.68,-220.76 690.5,-224.15 679.79,-221.79 679.79,-221.79"/>
</g>
<!-- 6 -->
<g id="node7" class="node">
<title>6</title>
<polygon fill="none" stroke="black" points="840,-36 702,-36 702,0 840,0 840,-36"/>
<text text-anchor="middle" x="771" y="-14.3" font-family="Times New Roman,serif" font-size="14.00">tfx.types.channel_test</text>
</g>
<!-- 6&#45;&gt;0 -->
<g id="edge15" class="edge">
<title>6&#45;&gt;0</title>
<path fill="none" stroke="black" d="M774.46,-36.3C776,-44.02 777.86,-53.29 779.58,-61.89"/>
<polygon fill="black" stroke="black" points="781.58,-71.9 775.21,-62.97 780.6,-66.99 779.62,-62.09 779.62,-62.09 779.62,-62.09 780.6,-66.99 784.03,-61.21 781.58,-71.9 781.58,-71.9"/>
</g>
<!-- 7 -->
<g id="node8" class="node">
<title>7</title>
<polygon fill="none" stroke="black" points="999.5,-36 858.5,-36 858.5,0 999.5,0 999.5,-36"/>
<text text-anchor="middle" x="929" y="-14.3" font-family="Times New Roman,serif" font-size="14.00">tfx.types.channel_utils</text>
</g>
<!-- 7&#45;&gt;0 -->
<g id="edge16" class="edge">
<title>7&#45;&gt;0</title>
<path fill="none" stroke="black" d="M893.77,-36.12C873.61,-45.93 848.19,-58.28 826.99,-68.59"/>
<polygon fill="black" stroke="black" points="817.89,-73.01 824.91,-64.59 822.39,-70.83 826.88,-68.64 826.88,-68.64 826.88,-68.64 822.39,-70.83 828.85,-72.69 817.89,-73.01 817.89,-73.01"/>
</g>
<!-- 8 -->
<g id="node9" class="node">
<title>8</title>
<polygon fill="none" stroke="black" points="1186,-36 1018,-36 1018,0 1186,0 1186,-36"/>
<text text-anchor="middle" x="1102" y="-14.3" font-family="Times New Roman,serif" font-size="14.00">tfx.types.channel_utils_test</text>
</g>
<!-- 8&#45;&gt;0 -->
<g id="edge17" class="edge">
<title>8&#45;&gt;0</title>
<path fill="none" stroke="black" d="M1017.76,-34.86C945.36,-48.61 849.87,-67.05 832,-72 830.54,-72.41 829.05,-72.84 827.56,-73.28"/>
<polygon fill="black" stroke="black" points="817.66,-76.46 825.81,-69.12 822.42,-74.93 827.18,-73.4 827.18,-73.4 827.18,-73.4 822.42,-74.93 828.56,-77.69 817.66,-76.46 817.66,-76.46"/>
</g>
<!-- 9&#45;&gt;0 -->
<g id="edge18" class="edge">
<title>9&#45;&gt;0</title>
<path fill="none" stroke="black" d="M790.9,-143.9C791.7,-136.21 791.94,-126.95 791.6,-118.33"/>
<polygon fill="black" stroke="black" points="790.92,-108.3 796.09,-117.97 791.26,-113.29 791.6,-118.28 791.6,-118.28 791.6,-118.28 791.26,-113.29 787.11,-118.59 790.92,-108.3 790.92,-108.3"/>
</g>
<!-- 19 -->
<g id="node20" class="node">
<title>19</title>
<polygon fill="none" stroke="black" points="892.5,-252 717.5,-252 717.5,-216 892.5,-216 892.5,-252"/>
<text text-anchor="middle" x="805" y="-230.3" font-family="Times New Roman,serif" font-size="14.00">tfx.types.system_executions</text>
</g>
<!-- 9&#45;&gt;19 -->
<g id="edge19" class="edge">
<title>9&#45;&gt;19</title>
<path fill="none" stroke="black" d="M789.94,-180.3C792.17,-188.1 794.85,-197.49 797.33,-206.17"/>
<polygon fill="black" stroke="black" points="800.11,-215.9 793.04,-207.52 798.74,-211.09 797.37,-206.28 797.37,-206.28 797.37,-206.28 798.74,-211.09 801.69,-205.04 800.11,-215.9 800.11,-215.9"/>
</g>
<!-- 10 -->
<g id="node11" class="node">
<title>10</title>
<polygon fill="none" stroke="black" points="683.5,-36 490.5,-36 490.5,0 683.5,0 683.5,-36"/>
<text text-anchor="middle" x="587" y="-14.3" font-family="Times New Roman,serif" font-size="14.00">tfx.types.component_spec_test</text>
</g>
<!-- 10&#45;&gt;0 -->
<g id="edge20" class="edge">
<title>10&#45;&gt;0</title>
<path fill="none" stroke="black" d="M635.18,-36.03C668.03,-47.65 711.12,-62.88 742.65,-74.03"/>
<polygon fill="black" stroke="black" points="752.45,-77.49 741.52,-78.4 747.74,-75.83 743.02,-74.16 743.02,-74.16 743.02,-74.16 747.74,-75.83 744.52,-69.92 752.45,-77.49 752.45,-77.49"/>
</g>
<!-- 10&#45;&gt;9 -->
<g id="edge21" class="edge">
<title>10&#45;&gt;9</title>
<path fill="none" stroke="black" d="M610.88,-36.13C646.34,-61.56 712.98,-109.35 752.74,-137.86"/>
<polygon fill="black" stroke="black" points="761.03,-143.81 750.28,-141.64 756.97,-140.9 752.91,-137.98 752.91,-137.98 752.91,-137.98 756.97,-140.9 755.53,-134.33 761.03,-143.81 761.03,-143.81"/>
</g>
<!-- 15 -->
<g id="node16" class="node">
<title>15</title>
<polygon fill="none" stroke="black" points="643.5,-108 474.5,-108 474.5,-72 643.5,-72 643.5,-108"/>
<text text-anchor="middle" x="559" y="-86.3" font-family="Times New Roman,serif" font-size="14.00">tfx.types.standard_artifacts</text>
</g>
<!-- 10&#45;&gt;15 -->
<g id="edge22" class="edge">
<title>10&#45;&gt;15</title>
<path fill="none" stroke="black" d="M580.08,-36.3C576.93,-44.19 573.12,-53.7 569.62,-62.45"/>
<polygon fill="black" stroke="black" points="565.84,-71.9 565.38,-60.94 567.7,-67.25 569.56,-62.61 569.56,-62.61 569.56,-62.61 567.7,-67.25 573.73,-64.28 565.84,-71.9 565.84,-71.9"/>
</g>
<!-- 11 -->
<g id="node12" class="node">
<title>11</title>
<polygon fill="none" stroke="black" points="2422.5,-36 2283.5,-36 2283.5,0 2422.5,0 2422.5,-36"/>
<text text-anchor="middle" x="2353" y="-14.3" font-family="Times New Roman,serif" font-size="14.00">tfx.types.experimental</text>
</g>
<!-- 12 -->
<g id="node13" class="node">
<title>12</title>
<polygon fill="none" stroke="black" points="1434,-36 1204,-36 1204,0 1434,0 1434,-36"/>
<text text-anchor="middle" x="1319" y="-14.3" font-family="Times New Roman,serif" font-size="14.00">tfx.types.experimental.simple_artifacts</text>
</g>
<!-- 12&#45;&gt;0 -->
<g id="edge23" class="edge">
<title>12&#45;&gt;0</title>
<path fill="none" stroke="black" d="M1203.84,-34.94C1200.86,-35.3 1197.91,-35.66 1195,-36 1033.99,-55.01 990.11,-36.15 832,-72 830.52,-72.34 829.02,-72.71 827.52,-73.1"/>
<polygon fill="black" stroke="black" points="817.56,-76.05 825.87,-68.9 822.35,-74.63 827.15,-73.21 827.15,-73.21 827.15,-73.21 822.35,-74.63 828.43,-77.53 817.56,-76.05 817.56,-76.05"/>
</g>
<!-- 13 -->
<g id="node14" class="node">
<title>13</title>
<polygon fill="none" stroke="black" points="1028,-108 874,-108 874,-72 1028,-72 1028,-108"/>
<text text-anchor="middle" x="951" y="-86.3" font-family="Times New Roman,serif" font-size="14.00">tfx.types.node_common</text>
</g>
<!-- 13&#45;&gt;5 -->
<g id="edge24" class="edge">
<title>13&#45;&gt;5</title>
<path fill="none" stroke="black" d="M948.78,-108.3C947.78,-116.02 946.59,-125.29 945.49,-133.89"/>
<polygon fill="black" stroke="black" points="944.2,-143.9 941.01,-133.4 944.84,-138.94 945.47,-133.98 945.47,-133.98 945.47,-133.98 944.84,-138.94 949.94,-134.55 944.2,-143.9 944.2,-143.9"/>
</g>
<!-- 14 -->
<g id="node15" class="node">
<title>14</title>
<polygon fill="none" stroke="black" points="1618,-36 1452,-36 1452,0 1618,0 1618,-36"/>
<text text-anchor="middle" x="1535" y="-14.3" font-family="Times New Roman,serif" font-size="14.00">tfx.types.resolved_channel</text>
</g>
<!-- 14&#45;&gt;0 -->
<g id="edge25" class="edge">
<title>14&#45;&gt;0</title>
<path fill="none" stroke="black" d="M1451.83,-34.85C1448.85,-35.26 1445.9,-35.65 1443,-36 1172.96,-68.78 1098.44,-17.17 832,-72 830.51,-72.31 829.01,-72.65 827.5,-73.02"/>
<polygon fill="black" stroke="black" points="817.52,-75.88 825.9,-68.8 822.33,-74.5 827.14,-73.13 827.14,-73.13 827.14,-73.13 822.33,-74.5 828.37,-77.45 817.52,-75.88 817.52,-75.88"/>
</g>
<!-- 15&#45;&gt;1 -->
<g id="edge26" class="edge">
<title>15&#45;&gt;1</title>
<path fill="none" stroke="black" d="M567.08,-108.13C578.65,-132.65 600.03,-177.97 613.61,-206.74"/>
<polygon fill="black" stroke="black" points="617.89,-215.81 609.55,-208.69 615.76,-211.29 613.62,-206.77 613.62,-206.77 613.62,-206.77 615.76,-211.29 617.69,-204.85 617.89,-215.81 617.89,-215.81"/>
</g>
<!-- 15&#45;&gt;18 -->
<g id="edge27" class="edge">
<title>15&#45;&gt;18</title>
<path fill="none" stroke="black" d="M555.79,-108.15C548.86,-145.25 532.42,-233.19 524.07,-277.9"/>
<polygon fill="black" stroke="black" points="522.22,-287.77 519.64,-277.11 523.14,-282.85 524.06,-277.94 524.06,-277.94 524.06,-277.94 523.14,-282.85 528.48,-278.76 522.22,-287.77 522.22,-287.77"/>
</g>
<!-- 15&#45;&gt;20 -->
<g id="edge28" class="edge">
<title>15&#45;&gt;20</title>
<path fill="none" stroke="black" d="M530.87,-108.12C515.83,-117.28 497.13,-128.66 480.94,-138.52"/>
<polygon fill="black" stroke="black" points="472.24,-143.81 478.44,-134.77 476.51,-141.21 480.78,-138.61 480.78,-138.61 480.78,-138.61 476.51,-141.21 483.12,-142.45 472.24,-143.81 472.24,-143.81"/>
</g>
<!-- 16 -->
<g id="node17" class="node">
<title>16</title>
<polygon fill="none" stroke="black" points="1832,-36 1636,-36 1636,0 1832,0 1832,-36"/>
<text text-anchor="middle" x="1734" y="-14.3" font-family="Times New Roman,serif" font-size="14.00">tfx.types.standard_artifacts_test</text>
</g>
<!-- 16&#45;&gt;0 -->
<g id="edge29" class="edge">
<title>16&#45;&gt;0</title>
<path fill="none" stroke="black" d="M1635.81,-35.04C1632.84,-35.38 1629.9,-35.7 1627,-36 1275.12,-71.81 1178.91,-3.06 832,-72 830.51,-72.3 829.01,-72.63 827.49,-73"/>
<polygon fill="black" stroke="black" points="817.51,-75.82 825.91,-68.77 822.32,-74.46 827.13,-73.1 827.13,-73.1 827.13,-73.1 822.32,-74.46 828.36,-77.43 817.51,-75.82 817.51,-75.82"/>
</g>
<!-- 17 -->
<g id="node18" class="node">
<title>17</title>
<polygon fill="none" stroke="black" points="2265.5,-36 2038.5,-36 2038.5,0 2265.5,0 2265.5,-36"/>
<text text-anchor="middle" x="2152" y="-14.3" font-family="Times New Roman,serif" font-size="14.00">tfx.types.standard_component_specs</text>
</g>
<!-- 17&#45;&gt;0 -->
<g id="edge30" class="edge">
<title>17&#45;&gt;0</title>
<path fill="none" stroke="black" d="M2038.46,-35.14C2035.27,-35.45 2032.11,-35.74 2029,-36 1763.81,-58.25 1093.4,-22.12 832,-72 830.54,-72.28 829.05,-72.6 827.57,-72.95"/>
<polygon fill="black" stroke="black" points="817.75,-75.67 826.19,-68.66 822.57,-74.34 827.39,-73 827.39,-73 827.39,-73 822.57,-74.34 828.59,-77.34 817.75,-75.67 817.75,-75.67"/>
</g>
<!-- 17&#45;&gt;9 -->
<g id="edge31" class="edge">
<title>17&#45;&gt;9</title>
<path fill="none" stroke="black" d="M2038.45,-35.14C2035.27,-35.45 2032.11,-35.74 2029,-36 1900.06,-46.87 982.36,-17.5 865,-72 857.26,-75.59 826.53,-111.2 805.49,-136.27"/>
<polygon fill="black" stroke="black" points="799.04,-143.99 802,-133.43 802.25,-140.15 805.45,-136.32 805.45,-136.32 805.45,-136.32 802.25,-140.15 808.91,-139.2 799.04,-143.99 799.04,-143.99"/>
</g>
<!-- 17&#45;&gt;19 -->
<g id="edge32" class="edge">
<title>17&#45;&gt;19</title>
<path fill="none" stroke="black" d="M2044.89,-36.02C1789.52,-76.59 1147.87,-178.53 902.5,-217.51"/>
<polygon fill="black" stroke="black" points="892.53,-219.09 901.7,-213.08 897.47,-218.31 902.4,-217.53 902.4,-217.53 902.4,-217.53 897.47,-218.31 903.11,-221.97 892.53,-219.09 892.53,-219.09"/>
</g>
<!-- 20&#45;&gt;1 -->
<g id="edge33" class="edge">
<title>20&#45;&gt;1</title>
<path fill="none" stroke="black" d="M488.52,-180.12C513.73,-189.82 545.45,-202.02 572.07,-212.26"/>
<polygon fill="black" stroke="black" points="581.62,-215.93 570.67,-216.54 576.96,-214.14 572.29,-212.34 572.29,-212.34 572.29,-212.34 576.96,-214.14 573.9,-208.14 581.62,-215.93 581.62,-215.93"/>
</g>
<!-- 20&#45;&gt;18 -->
<g id="edge34" class="edge">
<title>20&#45;&gt;18</title>
<path fill="none" stroke="black" d="M453.05,-180.13C466,-204.65 489.93,-249.97 505.13,-278.74"/>
<polygon fill="black" stroke="black" points="509.92,-287.81 501.27,-281.07 507.59,-283.39 505.25,-278.97 505.25,-278.97 505.25,-278.97 507.59,-283.39 509.23,-276.87 509.92,-287.81 509.92,-287.81"/>
</g>
<!-- 21 -->
<g id="node22" class="node">
<title>21</title>
<polygon fill="none" stroke="black" points="2020,-36 1850,-36 1850,0 2020,0 2020,-36"/>
<text text-anchor="middle" x="1935" y="-14.3" font-family="Times New Roman,serif" font-size="14.00">tfx.types.value_artifact_test</text>
</g>
<!-- 21&#45;&gt;0 -->
<g id="edge35" class="edge">
<title>21&#45;&gt;0</title>
<path fill="none" stroke="black" d="M1849.77,-34.96C1846.82,-35.34 1843.89,-35.69 1841,-36 1617.93,-60.03 1052.27,-29.33 832,-72 830.51,-72.29 829,-72.62 827.49,-72.98"/>
<polygon fill="black" stroke="black" points="817.5,-75.78 825.92,-68.75 822.32,-74.43 827.13,-73.08 827.13,-73.08 827.13,-73.08 822.32,-74.43 828.35,-77.41 817.5,-75.78 817.5,-75.78"/>
</g>
</g>
</svg>
